<?xml version="1.0" encoding="utf-8"?>
<!-- Generator: Adobe Illustrator 15.0.0, SVG Export Plug-In . SVG Version: 6.00 Build 0)  -->
<!DOCTYPE svg PUBLIC "-//W3C//DTD SVG 1.1//EN" "http://www.w3.org/Graphics/SVG/1.1/DTD/svg11.dtd">
<svg version="1.1" id="Layer_1" xmlns:sketch="http://www.bohemiancoding.com/sketch/ns"
	 xmlns="http://www.w3.org/2000/svg" xmlns:xlink="http://www.w3.org/1999/xlink" x="0px" y="0px" width="480px" height="78.967px"
	 viewBox="0 -0.934 480 78.967" enable-background="new 0 -0.934 480 78.967" xml:space="preserve">
<g>
	<path fill="#FFFFFF" d="M171.732,39.543c-2.417,0-4.451-1.458-6.231-1.458c-1.526,0-2.416,1.192-2.416,2.783
		c0,3.579,6.104,4.374,9.03,4.374c5.086,0,9.41-3.446,9.41-8.881c0-9.941-12.335-7.422-12.335-11.399
		c0-1.724,1.399-2.518,3.051-2.518c2.162,0,3.307,1.192,4.96,1.192c1.526,0,2.416-1.325,2.416-2.916
		c0-3.049-5.214-3.843-7.249-3.843c-4.959,0-9.156,3.313-9.156,8.747c0,8.882,12.335,6.23,12.335,10.737
		C175.547,38.085,174.148,39.543,171.732,39.543L171.732,39.543z"/>
	<path fill="#FFFFFF" d="M183.05,22.444h4.069v19.352c0,1.988,1.145,3.049,2.798,3.049s2.797-1.06,2.797-3.049V22.444h4.069
		c1.78,0,2.417-1.326,2.417-2.652c0-1.325-0.891-2.65-2.417-2.65H183.05c-1.654,0-2.416,1.325-2.416,2.65
		C180.506,21.118,181.269,22.444,183.05,22.444L183.05,22.444z"/>
	<path fill="#FFFFFF" d="M219.292,40.603l-7.249-21.075c-0.636-1.856-2.035-3.182-3.942-3.182c-1.907,0-3.306,1.325-3.942,3.182
		l-7.376,21.075c-0.126,0.132-0.381,0.662-0.381,1.325c0,1.59,1.271,2.651,2.798,2.651c1.525,0,2.289-0.796,2.67-1.988l1.145-3.579
		h10.301l1.145,3.579c0.381,1.193,1.145,1.988,2.798,1.988c1.271,0,2.544-1.061,2.544-2.519
		C219.675,41.664,219.547,41.134,219.292,40.603z M204.541,33.578l3.434-11.134l3.561,11.134H204.541z"/>
	<path fill="#FFFFFF" d="M223.871,31.722v10.339c0,1.325,0.763,2.916,2.797,2.916c2.035,0,2.798-1.326,2.798-2.916V31.722
		l6.994-10.207c0.381-0.397,0.509-1.061,0.509-1.724c0-1.59-1.145-2.915-2.67-2.915c-1.017,0-1.78,0.397-2.289,1.192l-5.341,8.086
		l-5.341-8.086c-0.381-0.795-1.271-1.192-2.289-1.192c-1.654,0-2.671,1.325-2.671,2.915c0,0.663,0.127,1.194,0.509,1.724
		L223.871,31.722L223.871,31.722z"/>
</g>
<g>
	<path fill="#FFFFFF" d="M243.709,41.928c-1.907,0-4.07-1.061-4.324-1.325c-0.254-0.266-0.89-0.663-1.144-0.663
		c-0.636,0-1.145,0.53-1.145,1.325c0,1.459,2.925,3.314,7.249,3.314c5.086,0,8.393-3.712,8.393-8.749
		c0-8.881-12.462-6.362-12.462-12.459c0-2.253,2.034-4.241,4.832-4.241c2.797,0,3.688,1.987,5.087,1.987
		c0.509,0,1.017-0.53,1.017-1.458c0-1.193-3.052-3.049-5.977-3.049c-3.942,0.132-7.503,2.651-7.503,7.025
		c0,8.351,12.463,5.832,12.463,12.46C249.686,38.747,247.27,41.928,243.709,41.928L243.709,41.928z"/>
	<path fill="#FFFFFF" d="M257.824,18.599l-3.179,22.004c-0.127,0.662-0.382,2.253-0.382,2.519c0,1.06,0.636,1.192,1.145,1.192
		c0.891,0,1.146-0.663,1.399-1.724l3.307-23.195h0.127l6.74,23.329c0.254,0.795,0.508,1.325,1.271,1.325
		c0.762,0,1.145-0.398,1.653-1.856l6.612-23.063h0.127l3.307,23.196c0.127,0.928,0.381,1.724,1.398,1.724
		c0.51,0,1.145-0.266,1.145-1.193c0-0.397-0.254-1.855-0.381-2.519l-3.18-22.003c-0.254-1.855-1.398-2.253-2.67-2.253
		c-1.018,0-1.654,0.662-2.035,1.855l-5.977,21.34h-0.127l-5.851-21.34c-0.254-1.06-0.89-1.855-2.034-1.855
		C259.351,16.479,258.079,16.877,257.824,18.599L257.824,18.599z"/>
	<path fill="#FFFFFF" d="M305.641,42.193l-8.521-23.594c-0.382-0.796-0.764-1.988-2.162-1.988c-1.271,0-1.78,1.06-2.161,1.988
		l-8.521,23.594c-0.127,0.397-0.255,0.796-0.255,1.061c0,0.53,0.382,1.061,1.145,1.061c0.891,0,1.146-0.53,1.399-1.193l1.78-5.037
		h12.718l1.78,5.037c0.254,0.662,0.508,1.193,1.398,1.193c0.763,0,1.145-0.531,1.145-1.061
		C306.023,42.989,305.895,42.592,305.641,42.193z M289.616,35.699l5.469-15.509h0.127l5.468,15.509H289.616z"/>
	<path fill="#FFFFFF" d="M314.67,31.855h2.415c4.451,0,7.249-3.447,7.249-7.688c0-3.844-2.797-7.423-8.012-7.423h-5.85
		c-1.145,0-1.78,0.531-1.78,1.459v24.521c0,1.061,0.509,1.855,1.271,1.855s1.271-0.53,1.271-1.855V32.12l10.428,11.797
		c0.382,0.397,0.763,0.53,1.145,0.53c0.509,0,1.145-0.397,1.145-1.06c0-0.53-0.127-0.796-0.509-1.193L314.67,31.855z
		 M311.617,19.262h4.578c3.561,0,5.468,1.855,5.468,5.435c0,3.181-2.034,5.037-5.468,5.037h-4.578V19.262L311.617,19.262z"/>
	<path fill="#FFFFFF" d="M332.218,42.592c0,1.061,0.51,1.855,1.272,1.855s1.271-0.53,1.271-1.855V19.262h5.086
		c0.764,0,1.399-0.53,1.399-1.193c0-0.662-0.509-1.192-1.399-1.192h-12.843c-0.763,0-1.398,0.53-1.398,1.192
		c0,0.663,0.508,1.193,1.398,1.193h5.087v23.329H332.218z"/>
</g>
<g>
	<path fill="#FFFFFF" d="M353.583,16.346c-7.63,0-12.717,6.098-12.717,14.183s5.342,14.183,12.717,14.183
		c7.63,0,12.717-6.229,12.717-14.183C366.428,22.709,361.086,16.346,353.583,16.346z M353.583,39.543
		c-4.705,0-6.994-4.241-6.994-9.014c0-4.639,2.289-9.013,6.994-9.013c4.578,0,6.995,4.241,6.995,9.013
		C360.704,35.302,358.416,39.543,353.583,39.543z"/>
	<path fill="#FFFFFF" d="M387.665,16.611c-1.526,0-2.671,1.06-2.671,3.049v14.713h-0.128L373.04,17.937
		c-0.381-0.796-1.526-1.325-2.289-1.325c-1.526,0-2.671,1.06-2.671,3.049v22.003c0,1.988,1.145,3.049,2.671,3.049
		s2.671-1.061,2.671-3.049v-14.58h0.127l11.572,16.436c0.636,0.796,1.525,1.325,2.289,1.325c1.525,0,2.671-1.06,2.671-3.049V19.66
		C390.335,17.672,389.191,16.611,387.665,16.611L387.665,16.611z"/>
	<path fill="#FFFFFF" d="M405.468,39.012h-6.612V19.528c0-1.988-1.145-3.049-2.671-3.049s-2.67,1.06-2.67,3.049v21.605
		c0,1.988,1.144,3.181,2.925,3.181h9.283c1.525,0,2.543-1.325,2.67-2.519C408.266,40.603,407.376,39.012,405.468,39.012
		L405.468,39.012z"/>
	<path fill="#FFFFFF" d="M411.827,16.611c-1.526,0-2.671,1.06-2.671,3.049v22.003c0,1.988,1.145,3.05,2.671,3.05
		c1.525,0,2.67-1.061,2.67-3.05V19.66C414.624,17.672,413.48,16.611,411.827,16.611L411.827,16.611z"/>
	<path fill="#FFFFFF" d="M437.261,16.611c-1.526,0-2.671,1.06-2.671,3.049v14.713h-0.127l-11.826-16.436
		c-0.382-0.796-1.526-1.325-2.29-1.325c-1.525,0-2.67,1.06-2.67,3.049v22.003c0,1.988,1.145,3.049,2.67,3.049
		c1.526,0,2.671-1.061,2.671-3.049v-14.58h0.127l11.573,16.436c0.636,0.796,1.525,1.325,2.288,1.325c1.526,0,2.671-1.06,2.671-3.049
		V19.66C439.931,17.672,438.786,16.611,437.261,16.611L437.261,16.611z"/>
	<path fill="#FFFFFF" d="M456.209,39.012h-6.867V33.18h5.977c1.781,0,2.671-1.325,2.671-2.651c0-1.325-0.89-2.651-2.671-2.651
		h-5.977v-5.699h6.613c1.779,0,2.543-1.325,2.543-2.651c0-1.325-0.891-2.651-2.543-2.651h-9.157c-2.034,0-2.925,1.458-2.925,3.446
		V41.53c0,1.855,1.271,2.784,2.925,2.784h9.665c1.78,0,2.543-1.326,2.543-2.651C458.752,40.338,457.862,39.012,456.209,39.012
		L456.209,39.012z"/>
</g>
<g id="sso">
	<path id="Shape" sketch:type="MSShapeGroup" fill="#FFFFFF" d="M467.156,0.706H166.783c-7.121,0-12.844,5.965-12.844,13.387v34.198
		c0,7.423,5.723,13.388,12.844,13.388h269.471c1.907,7.556,8.521,13.255,16.532,13.388h4.45V61.678h9.92
		c7.121,0,12.844-5.965,12.844-13.388V14.093C480.001,6.671,474.278,0.706,467.156,0.706L467.156,0.706z M475.55,57.172h-18.312
		h-4.45v13.388c-6.995-0.133-12.59-5.965-12.59-13.255v-0.133H158.39V5.344h317.287L475.55,57.172L475.55,57.172z"/>
</g>
<path fill="#FFFFFF" d="M5.425,65.968H2.302l-0.384,0.914c-0.11,0.286-0.165,0.571-0.165,0.742c0,0.286,0.109,0.458,0.274,0.571
	c0.109,0.058,0.383,0.114,0.877,0.173v0.228H0v-0.228c0.329-0.059,0.603-0.173,0.767-0.401c0.219-0.228,0.439-0.685,0.767-1.37
	l3.179-7.367h0.109l3.179,7.538c0.329,0.744,0.548,1.143,0.767,1.371c0.165,0.114,0.384,0.229,0.604,0.229v0.228H5.096v-0.228h0.165
	c0.329,0,0.603-0.059,0.712-0.173c0.109-0.057,0.165-0.171,0.165-0.285c0-0.058,0-0.172-0.055-0.229
	c0-0.058-0.055-0.229-0.219-0.514L5.425,65.968L5.425,65.968z M5.206,65.454l-1.315-3.199l-1.37,3.199H5.206L5.206,65.454z"/>
<path fill="#FFFFFF" d="M14.795,62.198v4.97c0,0.456,0.055,0.799,0.11,0.914c0.109,0.113,0.274,0.171,0.548,0.228v0.229h-2.466
	v-0.856c-0.274,0.343-0.603,0.628-0.877,0.799c-0.274,0.172-0.604,0.229-0.987,0.229c-0.329,0-0.657-0.114-0.931-0.343
	s-0.439-0.458-0.548-0.8c-0.11-0.285-0.165-0.8-0.165-1.542v-2.512c0-0.458-0.055-0.8-0.109-0.915
	c-0.109-0.114-0.274-0.171-0.548-0.228v-0.229h2.466v4.341c0,0.457,0,0.743,0.055,0.856c0.055,0.114,0.109,0.229,0.219,0.285
	c0.109,0.058,0.219,0.114,0.329,0.114c0.165,0,0.274-0.057,0.438-0.114c0.164-0.113,0.384-0.342,0.603-0.685V63.57
	c0-0.458-0.055-0.801-0.11-0.914c-0.055-0.115-0.274-0.172-0.548-0.229v-0.229L14.795,62.198L14.795,62.198z"/>
<path fill="#FFFFFF" d="M19.727,62.027l0.11,2.17h-0.22c-0.274-0.628-0.548-1.085-0.822-1.313c-0.274-0.228-0.548-0.343-0.822-0.343
	c-0.165,0-0.329,0.058-0.438,0.172c-0.11,0.113-0.164,0.285-0.164,0.457c0,0.114,0.054,0.228,0.109,0.343
	c0.165,0.171,0.548,0.514,1.151,0.97c0.658,0.458,1.041,0.857,1.26,1.143c0.22,0.286,0.329,0.686,0.329,1.029
	c0,0.343-0.109,0.685-0.274,1.027c-0.164,0.343-0.383,0.629-0.712,0.799c-0.329,0.173-0.658,0.286-1.041,0.286
	c-0.274,0-0.658-0.113-1.151-0.286c-0.11-0.057-0.219-0.057-0.274-0.057c-0.165,0-0.274,0.114-0.384,0.343h-0.219l-0.11-2.284h0.219
	c0.219,0.57,0.438,1.028,0.822,1.37c0.328,0.286,0.657,0.457,0.986,0.457c0.219,0,0.384-0.058,0.493-0.171
	c0.109-0.114,0.219-0.286,0.219-0.515c0-0.228-0.055-0.398-0.219-0.571c-0.109-0.171-0.438-0.398-0.877-0.742
	c-0.657-0.457-1.096-0.856-1.314-1.084c-0.274-0.4-0.438-0.8-0.438-1.258c0-0.514,0.165-0.914,0.493-1.312
	c0.329-0.4,0.822-0.571,1.425-0.571c0.329,0,0.657,0.057,0.931,0.228c0.11,0.059,0.219,0.114,0.274,0.114
	c0.055,0,0.165,0,0.165-0.057c0.055-0.058,0.109-0.115,0.219-0.285h0.274V62.027z"/>
<path fill="#FFFFFF" d="M22.96,59.914v2.342h1.425v0.686H22.96v3.94c0,0.344,0,0.629,0.055,0.686
	c0.055,0.114,0.11,0.171,0.165,0.285c0.109,0.058,0.165,0.114,0.219,0.114c0.274,0,0.548-0.229,0.822-0.685l0.219,0.171
	c-0.329,0.856-0.932,1.313-1.699,1.313c-0.384,0-0.712-0.113-0.986-0.343c-0.274-0.229-0.438-0.457-0.493-0.742
	c-0.055-0.172-0.055-0.571-0.055-1.257v-3.427h-0.822v-0.343c0.548-0.4,0.986-0.8,1.37-1.257s0.712-0.914,0.986-1.485L22.96,59.914
	L22.96,59.914z"/>
<path fill="#FFFFFF" d="M27.344,62.198v1.428c0.384-0.628,0.767-1.085,1.041-1.313c0.329-0.228,0.603-0.343,0.877-0.343
	c0.219,0,0.439,0.058,0.603,0.229c0.164,0.172,0.219,0.399,0.219,0.685c0,0.286-0.055,0.514-0.219,0.686
	c-0.164,0.172-0.329,0.229-0.493,0.229c-0.219,0-0.439-0.059-0.603-0.229c-0.165-0.172-0.274-0.229-0.274-0.285
	c-0.055,0-0.109-0.057-0.164-0.057c-0.11,0-0.219,0.057-0.384,0.17c-0.164,0.172-0.329,0.401-0.384,0.687
	c-0.164,0.456-0.219,0.914-0.219,1.428v1.485v0.398c0,0.286,0,0.401,0.055,0.514c0.055,0.115,0.11,0.229,0.219,0.286
	c0.11,0.058,0.274,0.114,0.548,0.114v0.229h-3.288v-0.229c0.274,0,0.439-0.114,0.548-0.228c0.11-0.115,0.165-0.458,0.165-1.029
	v-3.483c0-0.343,0-0.571-0.055-0.686s-0.11-0.228-0.165-0.285c-0.109-0.058-0.219-0.115-0.438-0.115v-0.228h2.411V62.198z"/>
<path fill="#FFFFFF" d="M33.426,67.624c-0.767,0.686-1.425,1.029-2.027,1.029c-0.329,0-0.657-0.115-0.876-0.344
	c-0.22-0.229-0.329-0.513-0.329-0.914c0-0.457,0.219-0.914,0.603-1.313c0.383-0.4,1.26-0.914,2.63-1.542v-0.629
	c0-0.457,0-0.799-0.055-0.913c-0.055-0.115-0.164-0.229-0.274-0.343c-0.164-0.115-0.274-0.173-0.493-0.173
	c-0.274,0-0.493,0.058-0.712,0.173c-0.109,0.057-0.165,0.171-0.165,0.285c0,0.113,0.055,0.228,0.165,0.343
	c0.165,0.171,0.274,0.399,0.274,0.571c0,0.229-0.055,0.399-0.219,0.571c-0.164,0.171-0.383,0.229-0.603,0.229
	c-0.274,0-0.493-0.115-0.713-0.285c-0.164-0.173-0.274-0.401-0.274-0.63c0-0.343,0.11-0.628,0.384-0.914
	c0.274-0.285,0.603-0.514,1.041-0.685c0.438-0.172,0.877-0.229,1.37-0.229c0.603,0,1.041,0.114,1.37,0.399
	c0.329,0.229,0.548,0.514,0.658,0.856c0.054,0.172,0.109,0.63,0.109,1.313v2.457c0,0.286,0,0.456,0.055,0.571
	c0,0.057,0.055,0.113,0.11,0.171c0.054,0.058,0.109,0.058,0.164,0.058c0.11,0,0.219-0.058,0.329-0.228l0.219,0.171
	c-0.219,0.343-0.438,0.57-0.657,0.742s-0.493,0.229-0.767,0.229c-0.329,0-0.603-0.058-0.822-0.229
	C33.59,68.252,33.481,67.967,33.426,67.624L33.426,67.624z M33.426,67.11v-2.113c-0.548,0.343-0.932,0.685-1.151,1.028
	c-0.164,0.228-0.274,0.514-0.274,0.742c0,0.229,0.055,0.4,0.219,0.571c0.11,0.114,0.274,0.172,0.439,0.172
	C32.933,67.51,33.152,67.395,33.426,67.11L33.426,67.11z"/>
<path fill="#FFFFFF" d="M38.741,59.343v7.883c0,0.456,0.055,0.741,0.165,0.856c0.109,0.113,0.274,0.171,0.603,0.228v0.229H36.22
	v-0.229c0.274,0,0.493-0.114,0.603-0.228c0.109-0.115,0.109-0.4,0.109-0.856v-6.568c0-0.458-0.055-0.743-0.164-0.856
	c-0.11-0.115-0.274-0.173-0.604-0.229v-0.229H38.741L38.741,59.343z"/>
<path fill="#FFFFFF" d="M41.535,59.114c0.274,0,0.548,0.113,0.713,0.285c0.219,0.229,0.274,0.457,0.274,0.743
	c0,0.285-0.11,0.514-0.274,0.742c-0.219,0.229-0.439,0.285-0.713,0.285s-0.493-0.114-0.712-0.285
	c-0.219-0.228-0.274-0.457-0.274-0.742c0-0.286,0.11-0.515,0.274-0.743C41.043,59.228,41.261,59.114,41.535,59.114L41.535,59.114z
	 M42.467,62.198v5.027c0,0.456,0.055,0.741,0.164,0.856c0.11,0.113,0.274,0.171,0.604,0.228v0.229h-3.288v-0.229
	c0.274,0,0.493-0.114,0.603-0.228c0.11-0.115,0.11-0.4,0.11-0.856v-3.713c0-0.458-0.055-0.743-0.165-0.856
	c-0.109-0.115-0.274-0.172-0.603-0.229v-0.229L42.467,62.198L42.467,62.198z"/>
<path fill="#FFFFFF" d="M46.741,67.624c-0.767,0.686-1.424,1.029-2.027,1.029c-0.329,0-0.658-0.115-0.877-0.344
	c-0.219-0.228-0.329-0.513-0.329-0.914c0-0.457,0.219-0.914,0.603-1.313c0.383-0.4,1.26-0.914,2.63-1.542v-0.629
	c0-0.457,0-0.799-0.055-0.913c-0.055-0.115-0.165-0.229-0.274-0.343c-0.165-0.115-0.274-0.173-0.493-0.173
	c-0.274,0-0.493,0.058-0.712,0.173c-0.11,0.057-0.164,0.171-0.164,0.285c0,0.113,0.054,0.228,0.164,0.343
	c0.165,0.171,0.274,0.399,0.274,0.571c0,0.229-0.055,0.399-0.219,0.571c-0.165,0.171-0.384,0.229-0.603,0.229
	c-0.274,0-0.493-0.115-0.712-0.285c-0.165-0.173-0.274-0.401-0.274-0.63c0-0.343,0.109-0.628,0.383-0.914
	c0.274-0.285,0.603-0.514,1.041-0.685c0.439-0.172,0.877-0.229,1.37-0.229c0.603,0,1.042,0.114,1.37,0.399
	c0.329,0.229,0.548,0.514,0.658,0.856c0.055,0.172,0.11,0.63,0.11,1.313v2.457c0,0.286,0,0.456,0.055,0.571
	c0,0.057,0.055,0.113,0.109,0.171c0.055,0.058,0.11,0.058,0.165,0.058c0.11,0,0.219-0.058,0.329-0.228l0.219,0.171
	c-0.219,0.343-0.438,0.57-0.657,0.742c-0.219,0.172-0.493,0.229-0.767,0.229c-0.329,0-0.603-0.058-0.822-0.229
	C46.906,68.252,46.796,67.967,46.741,67.624L46.741,67.624z M46.741,67.11v-2.113c-0.548,0.343-0.931,0.685-1.15,1.028
	c-0.165,0.228-0.274,0.514-0.274,0.742c0,0.229,0.055,0.4,0.219,0.571c0.109,0.114,0.274,0.172,0.438,0.172
	C46.193,67.51,46.467,67.395,46.741,67.11L46.741,67.11z"/>
<path fill="#FFFFFF" d="M52.002,62.198v0.8c0.329-0.342,0.603-0.628,0.877-0.743c0.274-0.171,0.603-0.228,0.932-0.228
	c0.383,0,0.712,0.114,0.986,0.344c0.274,0.228,0.438,0.513,0.548,0.856c0.055,0.285,0.11,0.741,0.11,1.484v2.456
	c0,0.514,0.055,0.799,0.109,0.915c0.11,0.113,0.274,0.171,0.548,0.228v0.228h-3.069V68.31c0.219-0.058,0.383-0.114,0.493-0.286
	c0.055-0.114,0.109-0.399,0.109-0.856V64.37c0-0.514,0-0.856-0.055-0.972c-0.055-0.113-0.109-0.228-0.219-0.285
	c-0.109-0.058-0.219-0.114-0.329-0.114c-0.383,0-0.712,0.286-1.041,0.857v3.427c0,0.457,0.055,0.8,0.11,0.913
	c0.109,0.114,0.219,0.229,0.493,0.229v0.229h-3.069v-0.229c0.274,0,0.439-0.114,0.548-0.285c0.055-0.114,0.11-0.399,0.11-0.856
	v-3.599c0-0.456-0.055-0.8-0.11-0.915c-0.055-0.112-0.274-0.171-0.548-0.228v-0.229h2.466L52.002,62.198L52.002,62.198z"/>
<path fill="#FFFFFF" d="M68.112,59.172v3.255h-0.219c-0.274-0.913-0.712-1.542-1.314-1.999c-0.603-0.457-1.206-0.686-1.918-0.686
	c-0.658,0-1.206,0.172-1.644,0.571c-0.438,0.4-0.767,0.915-0.932,1.6c-0.164,0.686-0.274,1.428-0.274,2.113
	c0,0.856,0.11,1.655,0.274,2.343c0.22,0.684,0.548,1.142,0.987,1.484c0.438,0.285,0.986,0.457,1.589,0.457
	c0.219,0,0.438,0,0.658-0.058c0.219-0.058,0.438-0.114,0.712-0.229v-1.94c0-0.344,0-0.571-0.055-0.687
	c-0.055-0.113-0.165-0.228-0.274-0.285c-0.164-0.114-0.329-0.114-0.548-0.114h-0.219v-0.229h4.274v0.173
	c-0.329,0-0.548,0.057-0.657,0.112c-0.109,0.058-0.219,0.173-0.274,0.344c-0.055,0.114-0.055,0.285-0.055,0.629v1.941
	c-0.548,0.285-1.151,0.457-1.753,0.57c-0.603,0.115-1.26,0.229-1.918,0.229c-0.822,0-1.534-0.113-2.082-0.343
	c-0.548-0.229-1.041-0.57-1.479-0.913c-0.438-0.4-0.767-0.8-0.986-1.314c-0.329-0.628-0.438-1.313-0.438-2.112
	c0-1.371,0.493-2.57,1.425-3.542c0.932-0.971,2.137-1.428,3.507-1.428c0.438,0,0.822,0.058,1.205,0.114
	c0.165,0.058,0.493,0.113,0.932,0.286c0.438,0.171,0.657,0.228,0.767,0.228s0.219-0.058,0.329-0.114
	c0.109-0.113,0.219-0.286,0.274-0.514h0.109V59.172z"/>
<path fill="#FFFFFF" d="M72.331,62.027c0.548,0,1.041,0.114,1.479,0.399c0.438,0.286,0.822,0.686,1.041,1.199
	c0.219,0.515,0.383,1.086,0.383,1.714c0,0.914-0.219,1.656-0.657,2.284c-0.548,0.744-1.261,1.086-2.192,1.086
	c-0.932,0-1.644-0.343-2.137-1.028c-0.494-0.686-0.768-1.429-0.768-2.343c0-0.913,0.274-1.713,0.768-2.397
	C70.742,62.369,71.454,62.027,72.331,62.027L72.331,62.027z M72.386,62.484c-0.219,0-0.439,0.114-0.548,0.285
	c-0.165,0.172-0.274,0.515-0.329,1.029c-0.055,0.513-0.055,1.199-0.055,2.112c0,0.458,0.055,0.914,0.109,1.371
	c0.055,0.342,0.165,0.57,0.329,0.742c0.165,0.171,0.329,0.228,0.548,0.228c0.219,0,0.383-0.057,0.493-0.171
	c0.164-0.172,0.274-0.343,0.329-0.629c0.109-0.456,0.109-1.313,0.109-2.627c0-0.743-0.055-1.313-0.109-1.6
	c-0.11-0.285-0.219-0.514-0.384-0.628C72.715,62.541,72.55,62.484,72.386,62.484L72.386,62.484z"/>
<path fill="#FFFFFF" d="M78.084,68.766l-2.082-4.912c-0.274-0.57-0.439-0.971-0.603-1.142c-0.11-0.114-0.274-0.172-0.439-0.229
	v-0.229h3.233v0.229c-0.22,0-0.329,0.057-0.439,0.114c-0.109,0.114-0.164,0.228-0.164,0.343c0,0.171,0.109,0.457,0.274,0.971
	l0.986,2.398l0.822-2.057c0.219-0.57,0.329-1.027,0.329-1.256c0-0.114-0.055-0.229-0.165-0.342
	c-0.109-0.115-0.274-0.115-0.493-0.173v-0.229h1.973v0.229c-0.165,0-0.329,0.114-0.493,0.229c-0.109,0.114-0.329,0.457-0.548,1.086
	l-2.027,4.968L78.084,68.766L78.084,68.766z"/>
<path fill="#FFFFFF" d="M86.249,65.168h-3.343c0.055,0.857,0.274,1.486,0.657,2c0.274,0.399,0.658,0.57,1.096,0.57
	c0.274,0,0.493-0.057,0.712-0.228c0.219-0.172,0.438-0.458,0.657-0.8l0.219,0.172c-0.329,0.686-0.712,1.2-1.096,1.485
	c-0.383,0.286-0.877,0.456-1.37,0.456c-0.931,0-1.589-0.343-2.027-1.084c-0.383-0.571-0.548-1.314-0.548-2.171
	c0-1.085,0.274-1.885,0.822-2.513c0.548-0.628,1.205-0.971,1.918-0.971c0.603,0,1.15,0.286,1.589,0.799
	C85.975,63.341,86.194,64.14,86.249,65.168L86.249,65.168z M84.66,64.712c0-0.743-0.055-1.257-0.11-1.485
	c-0.055-0.285-0.164-0.458-0.329-0.629c-0.109-0.058-0.219-0.114-0.383-0.114c-0.219,0-0.438,0.114-0.548,0.343
	c-0.274,0.4-0.383,0.972-0.383,1.656v0.229L84.66,64.712L84.66,64.712z"/>
<path fill="#FFFFFF" d="M89.153,62.198v1.428c0.383-0.628,0.767-1.085,1.041-1.313c0.329-0.228,0.603-0.343,0.877-0.343
	c0.219,0,0.438,0.058,0.603,0.229c0.165,0.172,0.219,0.399,0.219,0.685c0,0.286-0.055,0.514-0.219,0.686
	c-0.164,0.172-0.329,0.229-0.493,0.229c-0.219,0-0.438-0.059-0.603-0.229c-0.165-0.172-0.274-0.229-0.274-0.285
	c-0.055,0-0.109-0.057-0.165-0.057c-0.11,0-0.219,0.057-0.384,0.17c-0.164,0.172-0.329,0.401-0.383,0.687
	c-0.165,0.456-0.219,0.914-0.219,1.428v1.485v0.398c0,0.286,0,0.401,0.055,0.514c0.055,0.115,0.11,0.229,0.22,0.286
	c0.109,0.058,0.274,0.114,0.548,0.114v0.229h-3.288v-0.229c0.274,0,0.438-0.114,0.548-0.228c0.109-0.115,0.164-0.458,0.164-1.029
	v-3.483c0-0.343,0-0.571-0.055-0.686s-0.109-0.228-0.164-0.285c-0.11-0.058-0.219-0.115-0.439-0.115v-0.228h2.411V62.198z"/>
<path fill="#FFFFFF" d="M94.742,62.198v0.8c0.33-0.342,0.604-0.628,0.877-0.743c0.274-0.171,0.603-0.228,0.931-0.228
	c0.383,0,0.713,0.114,0.987,0.344c0.274,0.228,0.438,0.513,0.548,0.856c0.055,0.285,0.109,0.741,0.109,1.484v2.456
	c0,0.514,0.055,0.799,0.109,0.915c0.109,0.113,0.274,0.171,0.548,0.228v0.228h-3.068V68.31c0.219-0.058,0.384-0.114,0.493-0.286
	c0.055-0.114,0.109-0.399,0.109-0.856V64.37c0-0.514,0-0.856-0.055-0.972c-0.055-0.113-0.11-0.228-0.219-0.285
	s-0.219-0.114-0.329-0.114c-0.384,0-0.712,0.286-1.042,0.857v3.427c0,0.457,0.056,0.8,0.11,0.913
	c0.109,0.114,0.219,0.229,0.493,0.229v0.229h-3.069v-0.229c0.274,0,0.439-0.114,0.548-0.285c0.056-0.114,0.11-0.399,0.11-0.856
	v-3.599c0-0.456-0.055-0.8-0.11-0.915c-0.109-0.112-0.274-0.171-0.548-0.228v-0.229h2.466L94.742,62.198L94.742,62.198z"/>
<path fill="#FFFFFF" d="M101.811,62.198v0.856c0.329-0.398,0.658-0.628,0.932-0.799s0.603-0.229,0.931-0.229
	c0.383,0,0.713,0.114,0.987,0.286c0.274,0.171,0.492,0.456,0.603,0.856c0.329-0.4,0.658-0.686,0.986-0.856
	c0.33-0.172,0.658-0.286,0.987-0.286c0.438,0,0.767,0.114,0.986,0.286c0.274,0.171,0.439,0.456,0.548,0.742
	c0.109,0.285,0.165,0.8,0.165,1.485v2.628c0,0.514,0.055,0.799,0.109,0.914c0.109,0.113,0.274,0.171,0.548,0.228v0.229h-3.123V68.31
	c0.274,0,0.438-0.114,0.548-0.285c0.055-0.114,0.109-0.4,0.109-0.856v-2.742c0-0.57,0-0.913-0.055-1.085
	c-0.055-0.171-0.109-0.285-0.219-0.343c-0.109-0.057-0.219-0.114-0.329-0.114c-0.165,0-0.383,0.059-0.548,0.229
	c-0.219,0.114-0.383,0.343-0.603,0.629v3.427c0,0.456,0.054,0.742,0.109,0.856c0.11,0.171,0.274,0.285,0.548,0.285v0.229h-3.178
	V68.31c0.164,0,0.329-0.057,0.383-0.114c0.11-0.057,0.165-0.171,0.22-0.285c0.055-0.113,0.055-0.343,0.055-0.742v-2.742
	c0-0.57,0-0.913-0.055-1.085c-0.055-0.171-0.11-0.285-0.22-0.343c-0.109-0.057-0.218-0.114-0.328-0.114
	c-0.165,0-0.329,0.059-0.494,0.114c-0.218,0.114-0.438,0.399-0.657,0.743v3.427c0,0.456,0.055,0.742,0.109,0.914
	c0.11,0.113,0.274,0.228,0.548,0.228v0.229H99.29V68.31c0.274,0,0.438-0.114,0.548-0.285c0.055-0.114,0.109-0.4,0.109-0.856V63.57
	c0-0.457-0.055-0.8-0.109-0.913c-0.055-0.115-0.274-0.173-0.548-0.229v-0.229L101.811,62.198L101.811,62.198z"/>
<path fill="#FFFFFF" d="M115.072,65.168h-3.343c0.056,0.857,0.274,1.486,0.658,2c0.274,0.399,0.658,0.57,1.096,0.57
	c0.274,0,0.494-0.057,0.712-0.228c0.219-0.172,0.438-0.458,0.658-0.8l0.219,0.172c-0.33,0.686-0.713,1.2-1.096,1.485
	c-0.384,0.286-0.878,0.456-1.37,0.456c-0.877,0-1.589-0.343-2.027-1.084c-0.384-0.571-0.548-1.314-0.548-2.171
	c0-1.085,0.274-1.885,0.822-2.513c0.548-0.628,1.206-0.971,1.917-0.971c0.603,0,1.151,0.286,1.589,0.799
	C114.743,63.341,115.017,64.14,115.072,65.168L115.072,65.168z M113.428,64.712c0-0.743-0.056-1.257-0.109-1.485
	c-0.055-0.285-0.165-0.458-0.329-0.629c-0.11-0.058-0.219-0.114-0.384-0.114c-0.219,0-0.438,0.114-0.548,0.343
	c-0.274,0.4-0.383,0.972-0.383,1.656v0.229L113.428,64.712L113.428,64.712z"/>
<path fill="#FFFFFF" d="M117.757,62.198v0.8c0.33-0.342,0.604-0.628,0.878-0.743c0.274-0.171,0.603-0.228,0.931-0.228
	c0.383,0,0.712,0.114,0.986,0.344c0.274,0.228,0.438,0.513,0.548,0.856c0.054,0.285,0.109,0.741,0.109,1.484v2.456
	c0,0.514,0.055,0.799,0.109,0.915c0.109,0.113,0.274,0.171,0.548,0.228v0.228h-3.068V68.31c0.219-0.058,0.384-0.114,0.493-0.286
	c0.055-0.114,0.109-0.399,0.109-0.856V64.37c0-0.514,0-0.856-0.055-0.972c-0.055-0.113-0.11-0.228-0.219-0.285
	s-0.218-0.114-0.329-0.114c-0.384,0-0.712,0.286-1.042,0.857v3.427c0,0.457,0.056,0.8,0.11,0.913
	c0.11,0.114,0.219,0.229,0.493,0.229v0.229h-3.069v-0.229c0.274,0,0.439-0.114,0.548-0.285c0.056-0.114,0.11-0.399,0.11-0.856
	v-3.599c0-0.456-0.055-0.8-0.11-0.915c-0.109-0.112-0.274-0.171-0.548-0.228v-0.229h2.466L117.757,62.198L117.757,62.198z"/>
<path fill="#FFFFFF" d="M124.442,59.914v2.342h1.425v0.686h-1.425v3.94c0,0.344,0,0.629,0.055,0.686
	c0.055,0.114,0.109,0.171,0.165,0.285c0.055,0.058,0.165,0.114,0.218,0.114c0.274,0,0.548-0.229,0.822-0.685l0.219,0.171
	c-0.329,0.856-0.932,1.313-1.699,1.313c-0.383,0-0.712-0.113-0.987-0.343c-0.274-0.229-0.438-0.457-0.492-0.742
	c-0.056-0.172-0.056-0.571-0.056-1.257v-3.427h-0.822v-0.343c0.548-0.4,0.987-0.8,1.37-1.257c0.384-0.457,0.713-0.914,0.987-1.485
	L124.442,59.914L124.442,59.914z"/>
<path fill="#FFFFFF" d="M53.814,38.988c-0.056,0.058-0.11,0.115-0.165,0.172"/>
<path fill="#FFFFFF" d="M55.348,26.538c0.164,0,0.329-0.172,0.329-0.343c0-0.172-0.165-0.344-0.329-0.344
	c-0.165,0-0.329,0.172-0.329,0.344C55.019,26.424,55.184,26.538,55.348,26.538L55.348,26.538z"/>
<path fill="#FFFFFF" d="M70.143,12.488L70.143,12.488H58.636l0,0l0,0v9.709c0,0.914,0.384,1.771,0.876,1.999l4.439,2.741
	c0.109,0.114,0.218,0.172,0.383,0.172c0.165,0,0.274-0.058,0.383-0.172l4.494-2.798c0.548-0.228,0.877-1.084,0.877-1.999
	L70.143,12.488L70.143,12.488L70.143,12.488z M62.472,15.286h-0.986V12.83h0.986V15.286L62.472,15.286z M61.76,16.142l0.165-0.171
	l-0.11-0.172h0.164l0.11-0.229l0.11,0.229h0.164l-0.11,0.172l0.165,0.171L62.252,16.2v0.229l-0.164-0.114l-0.164,0.114V16.2
	L61.76,16.142L61.76,16.142z M58.965,19.226v-2.342h1.206v2.342H58.965L58.965,19.226z M59.184,15.857h0.165l0.11-0.229l0.109,0.229
	h0.165l-0.11,0.171l0.164,0.172h-0.164v0.229l-0.164-0.114l-0.165,0.114V16.2l-0.165-0.058l0.165-0.171L59.184,15.857L59.184,15.857
	z M60.499,18.256h0.165l0.109-0.229l0.109,0.229h0.165l-0.109,0.172l0.164,0.171l-0.164,0.058v0.229l-0.165-0.114l-0.165,0.114
	v-0.229l-0.165-0.058l0.165-0.171L60.499,18.256L60.499,18.256z M61.321,16.314c0-0.058-0.109-0.058-0.109-0.058
	c-0.11,0-0.165,0.172-0.219,0.172s-0.11,0-0.11-0.058s0.165-0.114,0.165-0.171c-0.767,0-0.767,0.343-0.877,0.343
	c-0.219,0,0.165-0.4,0.274-0.457c-0.164,0-0.219-0.229-0.383-0.344c0.056-0.113,0.109-0.057,0.219,0
	c0-0.057,0.055-0.171,0.219-0.171c0.329,0,0.219,0.343,0.274,0.343s0-0.343,0.219-0.343c0.329,0,0.768,0.914,0.384,0.914
	C61.212,16.486,61.321,16.371,61.321,16.314L61.321,16.314z M60.444,13.744l0.165-0.172l-0.109-0.171h0.165l0.109-0.229l0.109,0.229
	h0.165l-0.109,0.171l0.164,0.172l-0.164,0.058v0.228l-0.165-0.113l-0.165,0.113v-0.228L60.444,13.744L60.444,13.744z M60.17,12.83
	v2.456h-1.206V12.83H60.17L60.17,12.83z M62.472,25.624l-2.74-1.713c-0.438-0.344-0.712-0.914-0.768-1.6v-2.742h3.507V25.624
	L62.472,25.624z M61.486,19.226v-2.342h0.986v2.342H61.486L61.486,19.226z M65.978,25.795l-1.261,0.799l0,0
	c-0.109,0.058-0.218,0.115-0.329,0.115c-0.11,0-0.274-0.058-0.33-0.115l-1.26-0.799v-6.226h3.233v6.226H65.978z M65.978,19.226
	h-3.232V12.83h3.232V19.226L65.978,19.226z M69.814,22.311c-0.055,0.686-0.274,1.256-0.767,1.6l-2.74,1.713v-6.055h3.507V22.311
	L69.814,22.311z M69.814,19.226h-3.507V12.83h3.507V19.226L69.814,19.226z"/>
<path fill="#FFFFFF" d="M62.252,21.797c0-0.058-0.438,0.172-0.328,0.114c0-0.114,0.219-0.399,0.328-0.514
	c0-0.172-0.218,0-0.383,0.114c0.657-0.971,0.219-0.571-0.109-0.514c0.603-0.629,0.438-0.629,0-0.457
	c0.329-0.286,0.438-0.629,0.383-0.686c-0.329,0.457-0.603,0.399-0.603,0.799c0,0.286-0.11,0.686-0.219,0.857
	c-0.165,0.172-0.055-0.743-0.493-0.743c-0.164,0-0.493,0-0.603,0.172c0.109,0,0.219,0.228,0.219,0.343s0.11,0.343-0.054,0.343
	c-0.165,0-0.33-0.343-0.33-0.514c0-0.172,0-0.114,0-0.343c0-0.4-0.603-0.914-0.876-0.914c0,0.285,0.329,0.343,0.329,0.686
	c-0.164,0-0.329-0.286-0.329-0.114c0,0.171,0.219,0.228,0.219,0.343c0,0.171-0.219-0.058-0.219,0.113
	c0,0.115,0.11,0.115,0.165,0.229c-0.11,0-0.165,0-0.219,0.057c0,0.058,0.055,0.114,0.109,0.172
	c-0.055,0.058-0.055,0.113-0.055,0.343c0,0.742,0.438,1.143,0.822,1.143c0.219,0,0.219-0.172,0.219-0.286
	c0,0.114,0.109-0.057,0.109,0.172s-0.218,0.114-0.218,0.344c0,0.285,0.383,0,0.383,0.285c0,0.343-0.055,0.343-0.055,0.513
	c0,0.115,0.384-0.114,0.384-0.171c0.11,0.057,0.11,0.343,0.274,0.286c0.11,0,0.11-0.286,0.218-0.344c-0.055,0,0.33,0.286,0.33,0.114
	c0-0.343-0.164-0.229-0.164-0.457s0.492-0.171,0.382-0.285c-0.054-0.114-0.108-0.058-0.164-0.229c0,0.058-0.384-0.571,0.056-0.285
	C62.252,22.939,62.307,21.854,62.252,21.797L62.252,21.797z"/>
<path fill="#FFFFFF" d="M74.527,24.31c0.219,0,0.383-0.172,0.383-0.343c0-0.172-0.165-0.343-0.383-0.343
	c-0.22,0-0.384,0.171-0.384,0.343C74.143,24.196,74.307,24.31,74.527,24.31L74.527,24.31z"/>
<path fill="#FFFFFF" d="M72.993,25.281c0.218,0,0.383-0.171,0.383-0.343s-0.165-0.343-0.383-0.343c-0.22,0-0.384,0.171-0.384,0.343
	S72.828,25.281,72.993,25.281L72.993,25.281z"/>
<path fill="#FFFFFF" d="M54.855,27.451c0.22,0,0.384-0.171,0.384-0.342c0-0.172-0.164-0.344-0.384-0.344
	c-0.218,0-0.383,0.172-0.383,0.344C54.471,27.28,54.636,27.451,54.855,27.451L54.855,27.451z"/>
<path fill="#FFFFFF" d="M56.006,27.565c0.218,0,0.383-0.171,0.383-0.343c0-0.171-0.165-0.343-0.383-0.343
	c-0.22,0-0.384,0.172-0.384,0.343C55.622,27.394,55.786,27.565,56.006,27.565L56.006,27.565z"/>
<path fill="#FFFFFF" d="M88.719,11.003c0.548,0.686,0.657,1.827,0.274,2.627c-0.219,0-0.165-0.343-0.219-0.457
	c-0.384-0.8-0.712-1.771-0.384-2.627C88.719,10.546,88.61,10.888,88.719,11.003L88.719,11.003z"/>
<path fill="#FFFFFF" d="M40.718,11.973c-0.109,0.514-0.109,1.199,0,1.656c-0.109,0.113-0.054-0.114-0.164-0.058
	c-0.768-0.571-0.438-1.771-0.603-2.57c0.055-0.058,0.165-0.058,0.219-0.058C40.498,11.174,40.608,11.573,40.718,11.973
	L40.718,11.973z"/>
<path fill="#FFFFFF" d="M90.472,12.03c0.109,0.229-0.109,0.458-0.274,0.571c-0.165,0.058-0.383-0.057-0.493-0.229
	c-0.056-0.228,0.055-0.456,0.218-0.57C90.144,11.802,90.363,11.859,90.472,12.03L90.472,12.03z"/>
<path fill="#FFFFFF" d="M39.512,12.944c-0.054,0.172-0.109,0.399-0.274,0.457c-0.109,0-0.274,0-0.383-0.114
	c-0.109-0.114-0.165-0.285-0.055-0.457c0.055-0.172,0.219-0.172,0.383-0.172C39.293,12.773,39.458,12.773,39.512,12.944
	L39.512,12.944z"/>
<path fill="#FFFFFF" d="M91.24,13.344c0.055,0.113,0.055,0.228,0,0.343c-0.164,0.171-0.329,0.286-0.548,0.171
	c-0.164-0.057-0.164-0.228-0.219-0.343c0.056-0.171,0.219-0.343,0.33-0.399C91.02,13.116,91.13,13.229,91.24,13.344L91.24,13.344z"
	/>
<path fill="#FFFFFF" d="M90.089,13.344c0.165,0.058,0.055,0.285,0,0.399c-0.109,0.114-0.219,0.285-0.439,0.229
	c-0.109-0.114-0.218-0.114-0.274-0.229c0-0.229,0.056-0.399,0.274-0.457C89.87,13.173,89.979,13.287,90.089,13.344L90.089,13.344z"
	/>
<path fill="#FFFFFF" d="M88.664,13.687c0,0.228,0,0.514-0.219,0.57c-0.219,0.058-0.383-0.114-0.438-0.285
	c0-0.229,0.109-0.4,0.274-0.515C88.39,13.401,88.554,13.515,88.664,13.687L88.664,13.687z"/>
<path fill="#FFFFFF" d="M41.649,13.744c0.055,0.229-0.164,0.343-0.274,0.457c-0.164,0.058-0.329-0.058-0.383-0.228
	c-0.165-0.172,0.055-0.286,0.055-0.4C41.32,13.401,41.594,13.515,41.649,13.744L41.649,13.744z"/>
<path fill="#FFFFFF" d="M40.498,13.858c0,0.171-0.055,0.343-0.219,0.399c-0.164,0.057-0.329-0.057-0.384-0.172
	c-0.11-0.228,0-0.398,0.165-0.456C40.28,13.458,40.389,13.687,40.498,13.858L40.498,13.858z"/>
<path fill="#FFFFFF" d="M83.787,13.916c0.219,0.457,0.383,0.971,0.383,1.541c-0.055,0.4,0.056,0.914-0.218,1.2
	c-0.274-0.114-0.274-0.457-0.494-0.629c-0.383-0.742-0.054-1.599,0.055-2.341C83.733,13.572,83.733,13.801,83.787,13.916
	L83.787,13.916z"/>
<path fill="#FFFFFF" d="M39.512,14.143c0.056,0.229-0.109,0.4-0.274,0.514c-0.218,0.058-0.383-0.113-0.492-0.285
	c0-0.229,0.109-0.399,0.274-0.514C39.238,13.858,39.458,13.972,39.512,14.143L39.512,14.143z"/>
<path fill="#FFFFFF" d="M86.966,14.772c0.274,0.629,0.274,1.37,0.109,1.999l-0.109,0.114c-0.274-0.571-0.658-1.085-0.822-1.714
	c0-0.457,0.055-0.856,0.218-1.199c0.165-0.114,0.219,0,0.274,0.171C86.636,14.372,86.746,14.657,86.966,14.772L86.966,14.772z"/>
<path fill="#FFFFFF" d="M89.486,14.372c0,0.229-0.11,0.457-0.329,0.514c-0.219,0.058-0.384,0-0.439-0.229
	c-0.055-0.228,0.055-0.399,0.219-0.514C89.157,14.029,89.376,14.258,89.486,14.372L89.486,14.372z"/>
<path fill="#FFFFFF" d="M40.498,15.057c0,0.172-0.165,0.344-0.274,0.399c-0.165,0.114-0.274-0.057-0.439-0.171
	c-0.054-0.171-0.109-0.343,0-0.457c0.056-0.114,0.22-0.114,0.33-0.172C40.28,14.772,40.444,14.829,40.498,15.057L40.498,15.057z"/>
<path fill="#FFFFFF" d="M41.375,14.943c0.055,0.228-0.164,0.343-0.219,0.399c-0.218,0.058-0.383-0.114-0.438-0.228
	c-0.054-0.229,0.055-0.344,0.22-0.458C41.156,14.6,41.266,14.772,41.375,14.943L41.375,14.943z"/>
<path fill="#FFFFFF" d="M90.034,14.886c0,0.285-0.438,0.57-0.438,0.8c-0.22,0.57-0.712,0.97-1.26,1.199
	c-0.11,0.114-0.274,0.229-0.439,0.285c-0.055-0.399,0.329-0.8,0.548-1.199C88.828,15.4,89.431,15.057,90.034,14.886L90.034,14.886z"
	/>
<path fill="#FFFFFF" d="M40.115,15.743c0.274,0.343,0.438,0.686,0.822,0.971c0,0.058-0.056,0.229-0.165,0.229
	c-0.987-0.058-1.644-1.143-2.137-1.827c0.055-0.229,0.329-0.058,0.438-0.058C39.458,15.344,39.841,15.4,40.115,15.743L40.115,15.743
	z"/>
<path fill="#FFFFFF" d="M90.308,16.086c-0.055,0.914-0.438,1.827-1.26,2.284c-0.219,0.058-0.438,0.343-0.658,0.172
	c0.438-0.914,1.042-1.656,1.754-2.456H90.308L90.308,16.086z"/>
<path fill="#FFFFFF" d="M86.472,16.656c0.055,0.344-0.11,0.514-0.329,0.629c-0.22,0-0.384-0.171-0.439-0.343
	c0-0.229,0.109-0.399,0.274-0.457c0.055-0.058,0.165-0.058,0.219-0.058C86.308,16.486,86.363,16.543,86.472,16.656L86.472,16.656z"
	/>
<path fill="#FFFFFF" d="M38.964,16.885c0.384,0.285,0.713,0.628,1.096,0.971c-0.274,0.171-0.603,0-0.877,0
	c-0.657-0.229-1.151-0.856-1.863-1.085c0-0.229,0.274-0.172,0.439-0.229C38.198,16.543,38.58,16.771,38.964,16.885L38.964,16.885z"
	/>
<path fill="#FFFFFF" d="M60.499,10.602c-1.151-0.457-1.863,0.743-3.014,0.629c-0.165,0.058-0.109,0.228-0.165,0.343
	c-0.054,0.058-0.164,0-0.218,0c-0.056-0.513-0.219-0.971-0.274-1.428c-0.11-0.228-0.056-0.514-0.165-0.742
	c-0.657-1.828,1.588-0.458,2.027-1.543c0.384-0.914-0.766-1.027-1.096-1.713V5.921c-0.328-0.344-0.657-0.458-0.876-0.856
	c0.165-0.515,0.218-1.086,0.055-1.601c0-0.113-0.109-0.285-0.274-0.229c-0.383,0.571-0.657,0.972-1.04,1.543
	c-0.384-0.285-0.768-0.686-1.206-0.915c-0.329-0.057-0.603-0.343-0.932-0.228c-0.054,0.113,0,0.228,0.055,0.343
	c0,0.8,0.439,1.485,0.987,2.056l0.055,0.344c-0.384,0.856-0.274,1.828-0.384,2.798c-0.876,2.399-2.356,4.741-4.328,6.397
	c-1.151,1.37-2.521,2.628-2.685,4.512c-0.055,0.285,0.055,0.628-0.164,0.856c-0.658-0.229-1.315-0.571-1.863-1.027
	c-0.931-0.687-2.247-0.571-2.849-1.828c-0.219-0.457,0.055-0.971,0.274-1.313c0.657-0.686,0.603-1.886,0.219-2.685
	c-0.054,0-0.109,0.057-0.164,0.114c-0.055,1.256-0.986,2.112-0.658,3.484c0.055,0.399,0.274,0.628,0.384,1.027
	c-0.165-0.058-0.329-0.058-0.438-0.114c-0.438-0.057-0.877-0.228-1.37-0.171c-0.932,0.457-2.192-0.114-2.905,0.799
	c-0.109,0-0.274,0.058-0.219,0.229c0.438,0,0.876,0.114,1.314,0.114c0.713,0.114,1.151-0.457,1.644-0.742h0.109
	c0.219-0.229,0.548-0.058,0.822-0.114c1.261,0.171,2.248,0.799,3.288,1.428v0.058c-0.383,0.171-0.876,0.343-1.26,0.571
	c-0.438,0.343-0.986,0.799-1.096,1.428c-0.329,0.514,0.11,0.97,0.274,1.428c0,0.228,0.055,0.457,0.219,0.571
	c0.657-0.743,0.055-1.6,0.165-2.399c0.164-0.628,0.712-0.914,1.315-1.085c1.151-0.513,1.973,0.457,2.904,1.028
	c0,0.971,0.109,1.886-0.109,2.855c-0.274,0.114-0.658,0.173-0.932,0.173c-1.589,0.113-2.85,1.027-4.274,1.541
	c-0.657,0.229-1.425,0.229-2.027,0.458c0.493,0.17,1.042-0.059,1.534-0.059c1.974-0.285,3.453-1.885,5.589-1.599l0.055,0.057
	c-0.219,0.515-0.548,0.971-0.931,1.371c-0.056-0.229-0.056-0.4-0.274-0.571c-0.165-0.057-0.33,0-0.439,0.171
	c-0.055,0.115-0.055,0.229,0,0.344c0.109,0.171,0.274,0.228,0.439,0.286c-0.056,0.17-0.274,0.285-0.384,0.456
	c-0.548,0.972-1.699,0.571-2.356,1.257c-0.11,0.171-0.439,0.228-0.274,0.456c0.766,0.058,1.479-0.113,2.082-0.57
	c0.767-0.857,1.534-1.656,2.246-2.513c0.11,0.685-0.054,1.37-0.438,1.941c-0.165-0.114-0.329-0.229-0.548-0.343
	c-0.219,0.057-0.329,0.229-0.384,0.399c0.056,0.171,0.165,0.344,0.274,0.399c-0.657,0.515-1.534,0.571-2.301,0.801
	c-1.479,0.17-2.905,0.342-4.384,0.342c-0.713-0.057-1.479,0.229-2.192,0c-0.767,0.172-1.589-0.114-2.192,0.343
	c-0.055,0.114,0,0.229,0,0.285c0.931,0.629,2.192,0.114,3.232,0.344h7.891c0.603,0,1.15-0.058,1.644-0.344
	c1.04-0.628,1.588-1.713,2.082-2.798c0.219-0.399,0.329-0.8,0.438-1.256c0.22-0.743,0.822-1.199,1.48-1.257
	c0.109,1.085-0.11,2.17-0.329,3.199c-0.109,0.685-0.548,1.312-0.274,2.056c0.055,0.343,0.383,0.343,0.657,0.399
	c2.411-0.058,4.877-0.171,7.397,0.058c0.439,0.058,0.878,0.229,1.37,0.229c0.056-0.058,0.165-0.058,0.109-0.229
	c-0.054-0.228-0.219-0.514-0.493-0.571c-0.055-0.114-0.219-0.058-0.274-0.171c-1.261-0.743-2.849-0.343-4.329-0.343
	c-0.767,0.113-1.589,0.228-2.247-0.229c-0.274-0.4-0.055-1.6-0.055-1.6c0-0.456,1.096-3.771,1.26-4.056
	c0.056-0.343,0.165-0.628,0.11-0.97c0.164-0.4,0.11-0.972,0.11-1.428c0.054-0.687,0.383-1.315,0.603-1.942
	c0.109-0.343,0.219-0.628,0.33-0.971c0.109-0.4,0.164-0.799,0.383-1.085c0.657,0.456,1.315,0.399,1.589,1.199l0.274,1.771
	c0,0.114,0.055,0.343,0.22,0.173c0.548-0.344,0.383-1.143,0.383-1.714c0.109-0.629-0.329-0.972-0.493-1.543
	c-0.164-0.113-0.384-0.628-0.384-0.628c-0.055-0.457-1.041-0.8-0.822-1.371c0.11-0.456,0.219-0.914,0.658-1.199
	c0.055,0.058,0.109,0.114,0.109,0.172l0.219-0.172v-1.771c0.657,0,1.644,0.057,2.301,0.057c0.165,0.058,0.329,0.229,0.548,0.229
	l0.165-0.229l1.644-0.343C61.54,11.459,61.156,10.602,60.499,10.602L60.499,10.602z"/>
<path fill="#FFFFFF" d="M62.252,11.402c0.056,0,0.11,0,0.165-0.058L62.252,11.402L62.252,11.402z"/>
<path fill="#FFFFFF" d="M44.773,17.227c0,0.229-0.109,0.4-0.274,0.458c-0.165-0.058-0.274-0.058-0.384-0.229
	c-0.055-0.228,0.11-0.399,0.274-0.456C44.499,17.056,44.718,17.056,44.773,17.227L44.773,17.227z"/>
<path fill="#FFFFFF" d="M43.457,17.227c0.11,0.114,0.165,0.343,0.055,0.458c-0.165,0.113-0.383,0.228-0.493,0.057
	c-0.11-0.114-0.219-0.286-0.164-0.457C43.074,17.171,43.293,17.056,43.457,17.227L43.457,17.227z"/>
<path fill="#FFFFFF" d="M71.404,17.456C71.404,17.456,71.404,17.513,71.404,17.456"/>
<path fill="#FFFFFF" d="M86.692,17.856c0.055,0.228-0.11,0.399-0.274,0.457c-0.219-0.058-0.439-0.114-0.439-0.399
	c0-0.172,0.165-0.286,0.274-0.344C86.418,17.57,86.582,17.685,86.692,17.856L86.692,17.856z"/>
<path fill="#FFFFFF" d="M87.733,17.799c0.056,0.114,0.219,0.285,0.056,0.4c-0.056,0.057-0.165,0.057-0.22,0.171
	c-0.219,0.058-0.438-0.058-0.493-0.229c-0.055-0.228,0.165-0.343,0.274-0.456C87.513,17.57,87.623,17.685,87.733,17.799
	L87.733,17.799z"/>
<path fill="#FFFFFF" d="M38.416,18.027c-0.055,0.229-0.274,0.343-0.548,0.286c-0.055-0.058-0.109-0.172-0.165-0.286
	c0-0.171,0.055-0.285,0.22-0.342C38.198,17.685,38.362,17.799,38.416,18.027L38.416,18.027z"/>
<path fill="#FFFFFF" d="M45.211,18.427c0,0.171-0.22,0.343-0.329,0.399c-0.219,0-0.329-0.172-0.439-0.285
	c0-0.172,0.056-0.4,0.219-0.4C44.882,17.97,45.101,18.141,45.211,18.427L45.211,18.427z"/>
<path fill="#FFFFFF" d="M44.006,18.256c0.055,0.058,0.109,0.229,0.055,0.343c-0.109,0.114-0.274,0.286-0.493,0.172
	c-0.109-0.114-0.274-0.172-0.219-0.4c0.056-0.057,0.165-0.228,0.274-0.228C43.786,18.084,43.896,18.141,44.006,18.256L44.006,18.256
	z"/>
<path fill="#FFFFFF" d="M90.802,18.485c0,0.171-0.165,0.343-0.274,0.399c-0.165,0.057-0.33,0-0.439-0.114
	c-0.109-0.058-0.055-0.229-0.055-0.343c0.11-0.172,0.219-0.229,0.384-0.286C90.582,18.256,90.692,18.37,90.802,18.485L90.802,18.485
	z"/>
<path fill="#FFFFFF" d="M92.062,18.713c-0.055,0.172-0.22,0.343-0.384,0.4c-0.11,0-0.329-0.058-0.274-0.229
	c0-0.172,0.055-0.286,0.164-0.343C91.787,18.37,92.007,18.485,92.062,18.713L92.062,18.713z"/>
<path fill="#FFFFFF" d="M40.718,18.999c0.055,0.228-0.054,0.399-0.219,0.514c-0.165,0.057-0.274,0-0.383-0.114
	s-0.165-0.285-0.109-0.399c0.055-0.172,0.219-0.172,0.329-0.229C40.498,18.77,40.608,18.827,40.718,18.999L40.718,18.999z"/>
<path fill="#FFFFFF" d="M41.704,19.17c0.056,0.172-0.109,0.229-0.164,0.343c-0.11,0.058-0.219,0.114-0.384,0.058
	c-0.164-0.114-0.274-0.343-0.164-0.513C41.156,18.77,41.594,18.941,41.704,19.17L41.704,19.17z"/>
<path fill="#FFFFFF" d="M89.596,19.055c0,0.229-0.165,0.344-0.274,0.457c-0.164,0.058-0.383-0.058-0.383-0.228
	c0-0.171,0.055-0.286,0.219-0.4C89.322,18.885,89.541,18.885,89.596,19.055L89.596,19.055z"/>
<path fill="#FFFFFF" d="M91.24,19.398c-0.055,0.171,0,0.399-0.219,0.514c-0.165,0.058-0.383,0-0.492-0.058
	c-0.11-0.114-0.165-0.285-0.056-0.456c0.109-0.172,0.274-0.286,0.493-0.229C91.13,19.226,91.13,19.342,91.24,19.398L91.24,19.398z"
	/>
<path fill="#FFFFFF" d="M39.95,19.855c0.055,0.171-0.109,0.228-0.165,0.285c-0.164,0.058-0.274,0-0.383-0.058
	c-0.165-0.057-0.055-0.285-0.055-0.398C39.512,19.342,39.896,19.627,39.95,19.855L39.95,19.855z"/>
<path fill="#FFFFFF" d="M89.979,20.255c0.055,0,0.055,0.172,0,0.172c-0.493,0.228-1.206,0.343-1.644-0.058
	c-0.22-0.229-0.548-0.286-0.822-0.457c0.109-0.285,0.438-0.228,0.712-0.343C88.884,19.684,89.376,20.255,89.979,20.255
	L89.979,20.255z"/>
<path fill="#FFFFFF" d="M40.937,20.083c0.055,0.172-0.056,0.229-0.11,0.344c-0.055,0.114-0.219,0.058-0.329,0.058
	c-0.165-0.115-0.274-0.344-0.165-0.514C40.553,19.684,40.772,19.855,40.937,20.083L40.937,20.083z"/>
<path fill="#FFFFFF" d="M42.69,20.198c0.055,0.171-0.055,0.343-0.219,0.457c-0.165,0.058-0.274-0.058-0.384-0.058
	c-0.11-0.171-0.274-0.343-0.11-0.457C42.198,19.798,42.526,19.969,42.69,20.198L42.69,20.198z"/>
<path fill="#FFFFFF" d="M65.869,21.054c-0.056,0.399-0.713-0.057-0.604,0.514c0.109,0.4,0.165,0.857,0.383,1.2
	c0.165,0.285,0.11,0.742,0.055,1.085c-0.165,0.285-0.438,0.514-0.767,0.686c-0.548-0.058-1.425,0.285-1.699-0.457
	c-0.109-0.344-0.329-0.629-0.329-1.028c0.055-0.058,0.11-0.058,0.165-0.114c0-0.114-0.165-0.229-0.109-0.344
	c0.657-0.113-0.274-0.742,0.274-0.742c0.439,0.514,1.205,0.344,1.589,0.857c0.11,0.057,0.164,0.228,0.274,0.285
	c-0.055-0.514-0.329-1.028-0.384-1.542c-0.054-0.286,0.056-0.514,0.22-0.686C65.376,20.484,65.704,20.883,65.869,21.054
	L65.869,21.054z"/>
<path fill="#FFFFFF" d="M44.444,20.94c0.056,0.228-0.109,0.343-0.218,0.457c-0.165,0.057-0.274-0.114-0.384-0.229
	c-0.055-0.229,0.055-0.343,0.219-0.399C44.225,20.712,44.389,20.826,44.444,20.94L44.444,20.94z"/>
<path fill="#FFFFFF" d="M56.828,21.169c0.218,0.8,0.165,1.656-0.219,2.342c0,0.172,0.055,0.458-0.165,0.4
	c-0.548-0.8-0.164-1.886,0.055-2.685C56.499,21.054,56.773,20.94,56.828,21.169L56.828,21.169z"/>
<path fill="#FFFFFF" d="M73.979,21.568c0.274,0.571,0.274,1.371,0.055,1.942l-0.164,0.171c-0.219-0.514-0.384-0.971-0.438-1.484
	c0.11-0.4,0.219-0.743,0.219-1.143C73.924,20.998,73.924,21.397,73.979,21.568L73.979,21.568z"/>
<path fill="#FFFFFF" d="M46.033,21.797c-0.11,0.229-0.438,0.343-0.658,0.457c-0.493,0.399-1.206,0.457-1.808,0.343
	c0.548-0.742,1.315-1.199,2.302-0.971C45.869,21.74,45.978,21.683,46.033,21.797L46.033,21.797z"/>
<path fill="#FFFFFF" d="M37.759,22.54c0.767,0.571,0.931,1.313,1.37,2.056c0.055,0.058,0.274,0.114,0.165,0.285
	c-0.165,0.115-0.33-0.113-0.548-0.057c-0.768-0.343-1.261-1.257-1.206-2.171C37.54,22.54,37.704,22.54,37.759,22.54L37.759,22.54z"
	/>
<path fill="#FFFFFF" d="M73.212,23.224c0,0.229,0,0.4-0.165,0.514c-0.219,0.058-0.383-0.057-0.438-0.228
	c-0.055-0.172,0.055-0.229,0.11-0.344C72.828,22.939,73.102,22.997,73.212,23.224L73.212,23.224z"/>
<path fill="#FFFFFF" d="M81.65,24.31c0-0.399,0.11-0.8,0.165-1.143c0.055-0.114,0.109-0.285,0.055-0.457
	c0.493-0.686,1.479-0.457,2.247-0.399c0.274,0.172,0.658,0.172,0.986,0.229c0.165-0.114,0.329-0.114,0.494-0.114
	c0.657-0.344,0.218-1.143,0.274-1.771l-0.22-0.628c-0.054-0.114-0.109-0.286-0.164-0.399c-0.11-0.172-0.219-0.4-0.329-0.571
	c-0.329-0.914-0.987-1.428-1.589-2.171c-1.041-1.37-2.63-2.17-4.219-2.741c-1.589-0.571-3.178,0.171-4.603,0.686
	c-0.439-0.114-0.657-0.458-0.767-0.914c-0.055-0.8,0.054-1.6,0.383-2.228c0.055-0.515,0.383-0.914,0.548-1.428
	c0.383-1.2,0.767-2.342,0.822-3.599c0.055-0.8-0.548-1.313-1.096-1.656c-0.383-0.114-0.822-0.058-1.096,0.229
	c-0.274,0.571-0.822,0.971-1.315,1.199c-0.055,0.343,0.384,0.114,0.548,0.229c0.438,0.058,0.932-0.058,1.315,0.228
	c0.055,0.857-0.438,1.543-0.822,2.171c-0.658,1.028-1.426,2.113-1.809,3.312h-0.165l0.11,5.141c0.658,1.085,1.425,2.399,2.63,2.798
	c0.658,0.571,1.426,1.2,2.302,0.743c0.438-0.172,0.493,0.514,0.712,0.8c0.22,0.799-0.274,1.313-0.328,2.057l-0.548,1.142
	c-0.603,1.2-1.151,2.513-2.082,3.541c-0.33,0-0.493,0.343-0.767,0.343c-0.165,0.229-0.493,0.058-0.658,0.172
	c-0.603,0.285-1.479,0.113-1.918,0.742c0.056,0.058,0.11,0.058,0.165,0.114c1.206,0,2.575,0.113,3.891,0.058
	c0.164-0.058,0.329-0.229,0.329-0.399c-0.165-0.344,0.056-0.686,0.219-0.972c0.11-0.514,0.438-0.799,0.548-1.313
	c0.438-0.856,0.876-1.713,1.37-2.57l0.603-1.028c0.165-0.342,0.384-0.799,0.604-1.199c0.164-0.172,0.218-0.343,0.383-0.571
	c0-0.229-0.055-0.285-0.219-0.457c0.165-0.171,0.384-0.113,0.548-0.171c0.493,0.343,1.041,0.799,1.096,1.37l0.165,0.571l0.055,0.228
	l0.055,0.686l0.055,0.629c0.11,1.028-0.055,2.056-0.164,3.084c-0.329,1.2-1.699,1.085-2.63,1.37
	c-0.219,0.172-0.712,0.058-0.712,0.514c1.15,0.229,2.52,0.114,3.78,0.058c0.219-0.058,0.219-0.285,0.33-0.457
	c0.055-0.285,0.274-0.514,0.218-0.8c-0.218-0.285,0-0.742-0.054-1.142c0.054-0.114,0.054-0.229,0-0.399
	c0.164-0.629,0.109-1.371,0.219-1.941L81.65,24.31L81.65,24.31z"/>
<path fill="#FFFFFF" d="M91.568,23.51c-0.657,0.971-1.314,1.999-2.466,2.342c-0.055,0-0.164,0.058-0.218-0.058
	c0.657-0.742,1.04-1.941,2.082-2.228C91.184,23.51,91.404,23.396,91.568,23.51L91.568,23.51z"/>
<path fill="#FFFFFF" d="M36.772,24.539c-0.109,0.057,0,0.285-0.218,0.285c-0.165,0.057-0.33,0-0.439-0.172
	c-0.055-0.228,0.165-0.456,0.329-0.456C36.608,24.253,36.718,24.31,36.772,24.539L36.772,24.539z"/>
<path fill="#FFFFFF" d="M42.581,24.824c0.055,0.172-0.165,0.172-0.219,0.229c-0.822,0.343-1.698,0-2.301-0.629
	c0-0.058,0-0.171,0.055-0.171C40.937,24.482,41.868,24.31,42.581,24.824L42.581,24.824z"/>
<path fill="#FFFFFF" d="M37.868,24.539c0.056,0.057,0.056,0.228,0.056,0.342c-0.11,0.172-0.274,0.229-0.494,0.172
	c-0.109-0.057-0.164-0.172-0.274-0.285c0-0.229,0.165-0.343,0.329-0.4C37.649,24.425,37.759,24.425,37.868,24.539L37.868,24.539z"/>
<path fill="#FFFFFF" d="M56.663,24.652c0.055,0.172-0.109,0.344-0.219,0.4c-0.164,0.058-0.329-0.058-0.438-0.172
	c-0.056-0.171,0-0.343,0.164-0.399C56.335,24.425,56.609,24.482,56.663,24.652L56.663,24.652z"/>
<path fill="#FFFFFF" d="M92.281,24.71c0.055,0.229-0.109,0.343-0.274,0.457c-0.109,0.058-0.274,0-0.383-0.057
	c0-0.114-0.165-0.172-0.11-0.344c0.055-0.171,0.274-0.285,0.438-0.228C92.116,24.595,92.226,24.652,92.281,24.71L92.281,24.71z"/>
<path fill="#FFFFFF" d="M93.65,24.652c0.109,0.172,0,0.344-0.055,0.458c-0.054,0.171-0.219,0.171-0.383,0.113
	c-0.109-0.113-0.274-0.171-0.274-0.399c0-0.172,0.165-0.285,0.274-0.343C93.376,24.425,93.486,24.652,93.65,24.652L93.65,24.652z"/>
<path fill="#FFFFFF" d="M35.95,25.281c0,0.171-0.109,0.229-0.165,0.343c-0.109,0.058-0.219,0.114-0.328,0.058
	c-0.165-0.058-0.22-0.172-0.274-0.343c0.055-0.172,0.165-0.343,0.383-0.4C35.677,24.996,35.896,25.052,35.95,25.281L35.95,25.281z"
	/>
<path fill="#FFFFFF" d="M78.198,25.281c0.054,0.058,0,0.171,0,0.285c-0.11,0.172-0.274,0.344-0.494,0.229
	c-0.109-0.113-0.274-0.229-0.219-0.457C77.705,25.052,78.033,24.996,78.198,25.281L78.198,25.281z"/>
<path fill="#FFFFFF" d="M39.183,25.566c-0.055,0.172-0.109,0.286-0.274,0.344c-0.164,0-0.219-0.172-0.329-0.229
	c0-0.172,0-0.399,0.165-0.514C38.964,25.11,39.183,25.281,39.183,25.566L39.183,25.566z"/>
<path fill="#FFFFFF" d="M37.266,25.624c0.054,0.229-0.055,0.343-0.22,0.457c-0.218,0.058-0.438-0.114-0.548-0.285
	c0-0.172,0.165-0.399,0.384-0.457C37.046,25.281,37.156,25.51,37.266,25.624L37.266,25.624z"/>
<path fill="#FFFFFF" d="M79.513,25.566c0.056,0.229,0,0.4-0.218,0.514c-0.219,0.058-0.438-0.113-0.548-0.285
	c0.109-0.171,0.109-0.399,0.383-0.457C79.294,25.339,79.404,25.452,79.513,25.566L79.513,25.566z"/>
<path fill="#FFFFFF" d="M38.198,25.681c0.054,0.171-0.056,0.228-0.11,0.342c-0.11,0-0.164,0.114-0.274,0.058
	c-0.055-0.114-0.219-0.171-0.274-0.285c0-0.229,0.109-0.344,0.274-0.399C38.032,25.339,38.142,25.51,38.198,25.681L38.198,25.681z"
	/>
<path fill="#FFFFFF" d="M91.184,25.852c-0.055,0.171-0.165,0.228-0.329,0.343c-0.164,0.058-0.274-0.114-0.383-0.172
	c-0.109-0.057-0.055-0.285,0-0.399C90.636,25.281,91.184,25.452,91.184,25.852L91.184,25.852z"/>
<path fill="#FFFFFF" d="M92.719,25.91c-0.056,0.228-0.274,0.343-0.493,0.343c-0.164-0.058-0.384-0.229-0.219-0.457
	c0.055-0.058,0.109-0.172,0.219-0.172C92.5,25.51,92.664,25.681,92.719,25.91L92.719,25.91z"/>
<path fill="#FFFFFF" d="M83.184,26.08c0.11,0.286-0.164,0.344-0.274,0.458c-0.164,0-0.274-0.058-0.384-0.172
	c-0.054-0.229,0.056-0.457,0.274-0.571C82.965,25.852,83.075,25.91,83.184,26.08L83.184,26.08z"/>
<path fill="#FFFFFF" d="M77.705,26.309c0.11,0.058,0.055,0.171,0.055,0.229c-0.109,0.057-0.274,0.285-0.439,0.171
	c-0.164-0.114-0.218-0.229-0.218-0.399C77.157,26.08,77.595,26.08,77.705,26.309L77.705,26.309z"/>
<path fill="#FFFFFF" d="M78.801,26.48c0,0.172,0,0.229-0.165,0.344c-0.164,0.171-0.329,0-0.438-0.058
	c-0.056-0.114-0.056-0.229,0-0.343c0.054-0.058,0.164-0.172,0.274-0.172C78.581,26.309,78.746,26.309,78.801,26.48L78.801,26.48z"/>
<path fill="#FFFFFF" d="M44.773,26.48c0.109,0.114,0,0.286-0.056,0.4c-0.109,0.114-0.329,0.229-0.492,0.114
	c-0.219-0.058-0.165-0.344-0.165-0.515c0.109-0.057,0.109-0.171,0.274-0.171C44.553,26.309,44.663,26.366,44.773,26.48L44.773,26.48
	z"/>
<path fill="#FFFFFF" d="M85.322,26.594c0.055,0.229-0.165,0.286-0.274,0.343c-0.219,0.058-0.383-0.113-0.438-0.285
	c0-0.114,0.109-0.229,0.165-0.343C85.048,26.195,85.212,26.424,85.322,26.594L85.322,26.594z"/>
<path fill="#FFFFFF" d="M84.281,26.594c0.055,0.229-0.165,0.343-0.219,0.4c-0.165,0.057-0.329,0.057-0.439-0.114
	c-0.109-0.058-0.109-0.172-0.109-0.286c0.109-0.114,0.165-0.228,0.329-0.285C84.007,26.309,84.171,26.424,84.281,26.594
	L84.281,26.594z"/>
<path fill="#FFFFFF" d="M93.322,26.823c0.055,0.286-0.328,0.172-0.438,0.229c-0.822,0.514-1.918,0.113-2.74-0.172
	c0.055-0.286,0.384-0.171,0.548-0.286c0.876-0.57,1.753,0.115,2.63,0.172V26.823L93.322,26.823z"/>
<path fill="#FFFFFF" d="M38.416,26.594l-0.055,0.172c-0.767,0.457-1.699,0.799-2.576,0.457l-0.109-0.172
	c0.767-0.571,1.699-0.742,2.685-0.571L38.416,26.594L38.416,26.594z"/>
<path fill="#FFFFFF" d="M87.404,26.709c0,0.172-0.055,0.343-0.22,0.4c-0.218,0.057-0.438,0-0.548-0.229
	c-0.055-0.172,0.11-0.343,0.274-0.4C87.075,26.48,87.294,26.48,87.404,26.709L87.404,26.709z"/>
<path fill="#FFFFFF" d="M41.978,26.823c-0.055,0.172-0.055,0.343-0.218,0.399c-0.219,0.058-0.439-0.113-0.493-0.285
	c-0.055-0.229,0.109-0.286,0.219-0.399C41.704,26.424,41.868,26.594,41.978,26.823L41.978,26.823z"/>
<path fill="#FFFFFF" d="M40.553,26.881c0.055,0.171-0.055,0.229-0.11,0.343c-0.109,0.114-0.274,0.114-0.383,0.058
	c-0.165-0.115-0.274-0.286-0.219-0.514c0.109-0.115,0.165-0.172,0.329-0.229C40.334,26.594,40.553,26.709,40.553,26.881
	L40.553,26.881z"/>
<path fill="#FFFFFF" d="M88.774,27.394c0,0.171-0.164,0.343-0.329,0.399c-0.165,0-0.274-0.114-0.383-0.229
	c-0.056-0.114-0.056-0.285,0.054-0.399c0.055-0.057,0.165-0.057,0.274-0.114C88.61,27.052,88.774,27.222,88.774,27.394
	L88.774,27.394z"/>
<path fill="#FFFFFF" d="M39.074,27.166c0.055,0.172-0.055,0.229-0.11,0.343c-0.055,0.343-0.274,0.571-0.438,0.914
	c-0.384,0.457-0.932,0.457-1.48,0.63l-0.054-0.173c0.603-0.799,1.206-1.37,2.027-1.771L39.074,27.166L39.074,27.166z"/>
<path fill="#FFFFFF" d="M87.787,27.623c0.055,0.229-0.165,0.286-0.274,0.399c-0.165,0-0.33-0.113-0.383-0.228
	c-0.055-0.229,0.164-0.344,0.274-0.399C87.568,27.28,87.733,27.451,87.787,27.623L87.787,27.623z"/>
<path fill="#FFFFFF" d="M41.375,27.623c0,0.058,0,0.058,0.055,0.114c0,0.229-0.164,0.285-0.274,0.399
	c-0.164,0-0.329-0.058-0.438-0.228c-0.054-0.172,0-0.4,0.22-0.458C41.101,27.394,41.32,27.451,41.375,27.623L41.375,27.623z"/>
<path fill="#FFFFFF" d="M91.513,28.251c0.219,0,0.219-0.285,0.438-0.343s0.384,0.058,0.493,0.229
	c0.055,0.228-0.109,0.399-0.274,0.457c-0.165,0.114-0.438-0.114-0.438,0.171c0.165,0.114,0.274,0.229,0.274,0.399
	c-0.055,0.058-0.165,0.058-0.219,0c-0.603-0.228-1.206-0.685-1.425-1.313c-0.055-0.171-0.439-0.343-0.219-0.514
	C90.692,27.394,91.184,27.851,91.513,28.251L91.513,28.251z"/>
<path fill="#FFFFFF" d="M93.431,27.623c0.11,0.114,0.055,0.286,0,0.399c-0.11,0.229-0.384,0.114-0.603,0.114
	c-0.109-0.114-0.219-0.228-0.165-0.399c0.056-0.114,0.165-0.229,0.274-0.286C93.157,27.394,93.267,27.509,93.431,27.623
	L93.431,27.623z"/>
<path fill="#FFFFFF" d="M86.144,28.765c0.164,0.229,0.383,0.571,0.438,0.856c-0.055,0.058-0.164,0.058-0.164,0.058
	c-0.658-0.399-1.589-0.856-1.809-1.656c-0.055-0.057-0.219-0.172-0.219-0.343c0.548-0.114,1.041,0.286,1.37,0.571
	C85.87,28.423,86.034,28.48,86.144,28.765L86.144,28.765z"/>
<path fill="#FFFFFF" d="M40.28,27.966c0.055,0.171-0.055,0.343-0.165,0.399c-0.219,0.058-0.33-0.058-0.438-0.172
	c-0.165-0.228,0.109-0.399,0.274-0.514C40.06,27.679,40.17,27.851,40.28,27.966L40.28,27.966z"/>
<path fill="#FFFFFF" d="M88.664,28.423c0,0.114-0.165,0.228-0.219,0.285c-0.165,0-0.329,0.058-0.438-0.058
	c-0.055-0.113-0.165-0.285,0-0.399C88.171,27.966,88.5,28.194,88.664,28.423L88.664,28.423z"/>
<path fill="#FFFFFF" d="M93.65,28.708c0.055,0.229-0.109,0.4-0.274,0.514c-0.219,0.058-0.383-0.058-0.493-0.171
	c-0.11-0.114,0-0.229,0-0.4c0.164-0.113,0.329-0.228,0.548-0.171C93.486,28.594,93.541,28.594,93.65,28.708L93.65,28.708z"/>
<path fill="#FFFFFF" d="M79.733,31.621c0,0.229-0.438,0.172-0.603,0.399c-0.604,0.343-1.37,0.343-2.083,0.343v-0.171
	C77.76,31.563,78.801,31.336,79.733,31.621L79.733,31.621z"/>
<path fill="#FFFFFF" d="M50.471,32.535c0,0.171-0.109,0.285-0.329,0.342c-0.165,0-0.274-0.057-0.329-0.228
	c-0.055-0.229,0.109-0.343,0.274-0.457C50.307,32.249,50.417,32.363,50.471,32.535L50.471,32.535z"/>
<path fill="#FFFFFF" d="M79.404,32.763c-0.055,0.171-0.109,0.399-0.274,0.457c-0.165,0.057-0.274-0.058-0.439-0.172
	c-0.109-0.057-0.055-0.228-0.055-0.343C78.746,32.363,79.294,32.363,79.404,32.763L79.404,32.763z"/>
<path fill="#FFFFFF" d="M83.404,32.82c-0.494,0.343-1.042,0.742-1.7,0.742h-1.096l-0.109-0.057c0.657-0.857,1.863-0.857,2.905-0.743
	V32.82L83.404,32.82z"/>
<path fill="#FFFFFF" d="M44.991,33.335c0,0.171-0.054,0.343-0.274,0.399c-0.218,0.058-0.329-0.057-0.438-0.172
	c-0.055-0.171,0-0.399,0.164-0.456C44.663,32.934,44.882,33.163,44.991,33.335L44.991,33.335z"/>
<path fill="#FFFFFF" d="M45.978,33.562c0.055,0.115-0.055,0.172-0.055,0.286c-0.109,0.058-0.274,0.114-0.383,0
	c-0.165-0.114-0.165-0.229-0.109-0.343s0.165-0.114,0.219-0.172C45.814,33.335,45.923,33.391,45.978,33.562L45.978,33.562z"/>
<path fill="#FFFFFF" d="M38.306,35.676c-0.219,0.229-0.548-0.057-0.767-0.171c-0.712-0.399-0.658-1.257-1.37-1.714
	c0.055-0.229,0.274,0,0.384,0c0.109,0.114,0.274,0.172,0.438,0.229C37.704,34.362,37.868,35.048,38.306,35.676L38.306,35.676z"/>
<path fill="#FFFFFF" d="M96.774,27.509c-0.329-0.629-0.876-0.857-1.479-0.857c-0.548,0.058-0.877,0.4-1.096,0.857
	c-0.109,0.457,0.055,0.856,0.383,1.142c0.165,0.058,0.33,0.058,0.384-0.113c0.11-0.286-0.164-0.286-0.219-0.515
	c-0.055-0.285,0-0.571,0.219-0.742c0.219-0.228,0.548-0.114,0.768-0.114c0.218,0.172,0.492,0.343,0.603,0.629
	c0.109,0.343,0.109,0.742,0,1.142c-0.219,0.514-0.712,0.972-1.26,1.028c-1.644,0.229-19.946,0.172-19.946,0.172
	c-2.136,0.228-4.602-0.4-6.466,0.742c-0.822,0.4-1.26,1.371-1.48,2.228c-0.548,0.515-1.15,1.086-1.588,1.657l-0.056-0.059
	c0.109-0.513,0.33-0.971,0.438-1.428c0.274-0.4,0.274-0.971,0.548-1.428c0.767-1.257,1.479-2.57,2.685-3.484
	c0.493-0.686,1.37-0.571,2.137-0.571c0.822,0.4,1.808,0.514,2.794,0.4c0.055-0.058,0.055-0.115,0.055-0.172
	c-0.274-0.286-0.767-0.399-1.041-0.628c-0.822-0.4-1.589,0.113-2.411,0.057c-0.055-0.057-0.055-0.057-0.055-0.113
	c0.767-0.571,1.644-1.029,2.466-1.371c0.712-0.4,1.424-0.628,2.192-0.914c0.274,0,0.603-0.285,0.876-0.058l1.042-0.285
	c0.055,0,0.055,0.058,0.164,0.058c0.877-0.344,2.028,0,3.069-0.058l0.165,0.114l0.986,0.228c0.383,0.058,0.548,0.457,0.876,0.514
	c0.219-0.285-0.218-0.399-0.329-0.628c0.438-0.114,0.932,0,1.37,0.228l-0.219,0.286c-0.109,0.229,0.056,0.399,0.219,0.457
	c0.165,0.058,0.219-0.058,0.329-0.114c0.274-0.171,0-0.399,0.056-0.571c1.479,0.285,2.904,0.629,4.274,1.257
	c0.384,0.113,0.767,0.399,1.151,0.399c-0.438-0.399-0.986-0.628-1.534-0.857c-0.329-0.228-0.822-0.228-1.096-0.514
	c0.055-0.113,0.219-0.057,0.274-0.171c0.658-0.058,1.26-0.629,1.754-1.199c0.054-0.114,0.274-0.058,0.219-0.229
	c-0.165-0.229-0.493,0.058-0.713,0.058c-0.822,0.171-1.205,1.199-2.027,1.37c-1.041-0.228-2.083-0.514-3.069-0.799
	c-0.493-0.058-1.041-0.114-1.48-0.344L80.61,24.08h-2.027c0-0.057-0.055-0.057-0.055-0.113c0.712-0.172,1.37-0.629,2.082-0.8
	l5.371-2.57c0.548-0.514,1.041-1.143,1.535-1.714c0-0.171-0.056-0.342-0.22-0.399c-0.164-0.057-0.329-0.057-0.383,0.058
	c-0.219,0.172,0,0.399,0,0.628c-0.219,0.344-0.603,0.629-0.931,0.8c-0.055,0-5.535,2.57-5.535,2.57
	c-0.932,0.514-1.699,0.914-2.576,1.143l-1.15,0.171c-0.055,0.229-0.274,0.4-0.494,0.457c-0.329,0.058-0.603,0.286-0.931,0.286
	c-2.63,1.028-5.314,2.17-7.397,4.341c0.109-0.229,0.165-0.571,0.219-0.857c-0.055-0.343,0-0.685-0.219-0.914
	c-0.055-0.113-0.219-0.456-0.165-0.571l-0.274,0.172c-0.165,0.457-0.329,1.313-0.165,1.771c0.055,0.399,0.384,0.799,0.055,1.143
	c-0.987,1.199-1.479,2.684-2.137,4.111c-0.219-0.058-0.384-0.285-0.438-0.514c0.657-0.914,1.205-1.941,1.424-3.084
	c0.164-0.114,0.055-0.399,0.164-0.514c-0.054-0.343,0.165-0.686,0-0.971c0.11-0.457-0.603-0.857-0.109-1.2l-0.383,0.172
	c-0.877,1.199,0.438,2.97-0.548,4.112v0.057c-0.274,0.4-0.439,0.743-0.822,1.028c-0.494-0.229-0.658-0.799-0.932-1.199
	c-0.438-0.457-0.438-1.371-0.165-1.942c0.165-0.628-0.109-1.142-0.165-1.713l-0.219-0.114c-0.493,0.629-0.657,1.656-0.274,2.456
	c0.219,0.4,0.219,0.914,0.548,1.2c0.164,0.628,0.548,1.027,0.876,1.542c0.056,0.228-0.109,0.228-0.219,0.342
	c-0.219-0.171-0.165-0.456-0.383-0.628c-0.658-1.485-1.534-2.627-2.576-3.826c-0.055-0.172-0.219-0.344-0.109-0.571
	c0.383-0.4,0.438-1.143,0.274-1.6c-0.055-0.114-0.165-0.229-0.165-0.343l-0.329-0.228c0.055,0.742-0.438,1.37-0.219,2.17v0.058
	c-2.082-1.6-4.329-3.084-6.685-4.227l-0.165,0.514c0.603,0.171,2.137,1.143,2.137,1.143c0.712,0.285,1.37,0.742,2.027,1.142
	c2.74,1.6,4.548,4.17,5.753,7.082c0,0.229,0.219,0.457,0.055,0.743c-0.438-0.686-1.041-1.028-1.534-1.6
	c-0.165-0.971-0.713-1.941-1.535-2.342c-0.274-0.457-0.931-0.514-1.425-0.629l-7.288-0.057c-5.918-0.058-11.343,0.228-17.261,0.113
	c-0.822-0.057-1.808-0.399-2.082-1.313c-0.165-0.343-0.165-0.856,0-1.142c0.218-0.4,0.603-0.514,1.04-0.571
	c0.33,0.058,0.548,0.343,0.658,0.571c0,0.285-0.219,0.514-0.329,0.742c0,0.058,0.109,0.228,0.218,0.172
	c0.274-0.114,0.439-0.4,0.548-0.686c0-0.171,0.056-0.343-0.055-0.457c-0.11-0.457-0.548-0.743-0.932-0.856
	c-0.493-0.058-1.041,0.113-1.37,0.514c-0.493,0.399-0.438,1.199-0.329,1.771c0.329,0.914,1.26,1.542,2.192,1.714l19.507,0.057
	c1.918,0.114,4.055-0.229,5.973,0.172c0.712,0.229,1.424,0.799,1.644,1.599c0,0.058-0.056,0-0.165,0
	c-1.589-1.084-3.671-1.485-5.699-1.199c-0.822-0.057-1.534,0.285-2.247,0.458c-0.383,0.057-0.767-0.115-0.986-0.344
	c-0.712-0.686-1.973-0.629-2.904-0.4c0,0.058,0,0.115,0,0.173c0.986-0.058,1.589,0.799,2.466,0.913c0.219,0.058,0.384-0.171,0.548,0
	c-0.932,0.457-1.808,1.028-2.794,1.314c-0.274-0.058-0.438-0.344-0.712-0.514c-0.383-0.458-1.096-0.229-1.589-0.286
	c-0.165,0.058-0.329-0.058-0.438,0c0.165,0.343,0.548,0.514,0.876,0.685c0.494,0.229,1.096,0,1.534,0.286
	c-0.109,0.172-0.274,0.172-0.438,0.285c-0.932,0.4-1.699,1.257-2.794,1.2c-1.096,0.114-2.248-0.229-2.959-1.028
	c-0.328-0.799-1.15-1.257-2.027-1.199c-0.055,0.058-0.164,0.058-0.109,0.171c0.439,0.285,0.767,0.8,1.205,1.143
	c0.274,0.343,0.822,0,1.096,0.399c0.384,0.286,0.877,0.514,1.315,0.571c0.329,0.171,0.658,0.229,1.041,0.285l-0.165,0.058
	c-1.808,0.629-3.945,0.686-5.972,0.629c-0.604,0-1.206-0.229-1.809-0.172c0.109,0.114,0.274,0.229,0.493,0.286
	c-0.164,0.114-0.328,0.172-0.548,0.172c-0.219,0.057-0.548,0.057-0.767,0.228c-0.329,0-0.603,0.114-0.877,0.229
	c-0.329,0.399-0.767,0.799-1.151,0.971c0,0.114,0,0.229,0.055,0.229c0.384-0.172,0.877-0.058,1.26-0.229
	c0.658-0.058,1.042-0.8,1.589-1.143c0.548-0.457,1.37-0.343,2.027-0.229c0.383,0.114-0.056,0.286,0.055,0.571
	c0.165,0.172,0.274,0.343,0.548,0.229c0.055-0.058,0.055-0.058,0.165-0.114c0.109-0.171,0.109-0.343,0-0.514
	c0.274-0.172,0.658,0,0.987-0.114c0.767,0,1.535-0.171,2.247-0.229c0.11,0,0.274-0.171,0.384,0c-0.056,0.172-0.274,0.172-0.165,0.4
	c0.055,0.171,0.219,0.285,0.383,0.343c0.22-0.058,0.384-0.229,0.274-0.514c-0.054-0.172-0.218-0.172-0.274-0.229
	c0.439-0.229,0.878-0.286,1.315-0.514c0.274-0.058,0.603-0.172,0.822-0.286c0.274,0,0.493-0.285,0.712-0.171
	c-0.11,0.343-0.219,0.685-0.438,1.028c-0.329,1.143-0.548,2.57,0,3.654c0.055,0,0.055,0,0.11-0.057
	c-0.439-1.143-0.165-2.398,0.165-3.427c0.274-1.771,2.027-2.343,3.288-2.97l0.055,0.057c-0.329,0.914-0.822,1.828-0.767,2.913
	c0.055,0.172-0.056,0.4,0,0.514c0.329-0.171,0.548-0.628,0.767-0.971c0.165-0.971-0.383-2.113,0.548-2.798
	c1.644-0.686,3.179-1.542,5.096-1.6c0.055,0.058,0.219-0.058,0.219,0.058c-0.384,0.456-0.986,0.914-1.151,1.485
	c-0.657,0.914-0.604,2.513-0.33,3.654c0.165,0.63-0.383,1.028-0.603,1.543c-0.109,0.171-0.164,0.514-0.274,0.685l0.384,0.058
	c0.329-0.4,0.657-0.857,0.657-1.37c0.055,0.228,0.219,0.398,0.383,0.398c0.165-0.228-0.109-0.398-0.164-0.628
	c0.329-0.172,0.438,0.229,0.712,0.343c0.438,0.114,0.767,0.285,1.206,0.285l0.164-0.171c-0.438-0.742-1.314-0.856-2.082-0.856
	c-0.384-0.686-0.384-1.542-0.384-2.399c0.056-0.457,0.165-0.913,0.384-1.313c0.11-0.285,0.384-0.571,0.548-0.799
	c0.384-0.343,0.822-0.629,1.26-0.743h0.274c0,0.058,0,0.058,0,0.058c-0.548,0.457-0.603,1.028-0.931,1.6
	c-0.329,0.515-0.493,1.256-0.165,1.827c0.109,0.285,0.056,0.686,0.33,0.856c0.274-0.399,0.274-0.856,0.438-1.256
	c-0.055-0.686-0.438-1.371-0.055-1.999c0.219-0.514,0.603-0.743,1.096-0.914c1.096-0.114,2.083,0.457,3.014,0.914
	c0.219,0.171,0.548,0.285,0.603,0.571c0,0.571-0.329,1.143-0.767,1.428c-0.548,0.343-1.314,0.399-1.808,0
	c-0.274-0.343-0.438-0.856-0.329-1.314c0.218-0.228,0.548-0.456,0.876-0.343c0.219,0.114,0.384,0.343,0.658,0.173
	c0.109-0.059,0.164-0.229,0.055-0.344c-0.219-0.114-0.274-0.457-0.603-0.457c-0.384-0.058-0.822-0.058-1.096,0.229
	c-0.438,0.399-0.603,0.97-0.438,1.485c0.164,0.685,0.603,1.142,1.26,1.37c0.932,0.228,1.863-0.058,2.466-0.856
	c0.219-0.286,0.274-0.571,0.438-0.914c0.986,0.628,1.699,1.655,2.082,2.798c0,0.343,0.11,0.743,0,1.028l0.713,0.057
	c-0.055-0.171,0-0.342,0.055-0.514c0.274-1.37,1.096-2.569,2.082-3.484c0.329-0.228,0.274,0.286,0.329,0.4
	c0.274,0.799,0.987,1.37,1.753,1.599c0.822,0.172,1.644-0.057,2.192-0.742c0.274-0.514,0.604-1.257,0.165-1.771
	c-0.274-0.343-0.657-0.571-1.096-0.571c-0.548,0-0.822,0.399-1.096,0.8c0,0.172,0,0.343,0.109,0.457c0.056,0,0.22,0,0.274-0.114
	c0.055-0.343,0.274-0.456,0.548-0.629c0.219-0.113,0.438,0,0.658,0.114c0.219,0.172,0.274,0.514,0.274,0.8
	c-0.055,0.399-0.274,0.799-0.658,0.971c-0.603,0.343-1.424,0.171-1.918-0.172c-0.218-0.285-0.383-0.571-0.548-0.913
	c-0.055-0.343-0.165-0.629,0-0.972c0.877-0.571,1.809-0.971,2.85-1.028c0.438,0.058,0.767,0.399,1.041,0.686
	c0.931,0.971-0.219,2.398,0.438,3.484c0.219-0.058,0.219-0.4,0.329-0.571c0.274-0.742-0.055-1.599-0.274-2.342
	c-0.219-0.457-0.383-0.857-0.767-1.257c0.109-0.057,0.165-0.057,0.218-0.057c0.439,0.286,0.878,0.628,1.206,1.084
	c0.604,0.972,0.877,2.171,0.768,3.428c-0.165,0.629-0.822,0.914-1.315,1.142c-0.219,0.172-0.438,0.4-0.548,0.686
	c0.219,0.172,0.603,0,0.822-0.114c0.384-0.171,0.603-0.628,0.877-0.856c0.055,0,0,0.058,0.055,0.114c0,0.229-0.109,0.571,0.11,0.628
	c0.109-0.285,0.109-0.742,0.165-1.085c0.274,0.286,0.274,0.686,0.383,1.029c0.165,0.398,0.493,0.856,0.986,0.97
	c0.11-0.171,0-0.399-0.055-0.571c-0.055-0.514-0.493-0.799-0.767-1.199c-0.712-1.028-0.384-2.57-0.932-3.713
	c-0.219-0.628-0.603-1.027-1.096-1.541l0.055-0.058c0.987,0,1.809,0.285,2.685,0.514c1.096,0.571,2.686,0.457,3.233,1.941
	c0.218,0.856,0.603,1.6,1.15,2.284l0.055-0.057c0.109-0.229,0.109-0.571,0-0.8c-0.109-1.028-0.987-1.313-1.479-2.17l0.055-0.058
	c0.493,0.172,0.986,0.285,1.479,0.457c1.589,0.457,2.74,2.113,2.904,3.826c0,1.371-0.219,2.457-0.767,3.6
	c-0.055,0.171-0.329,0.342-0.165,0.514c0.22-0.172,0.274-0.458,0.384-0.629c0.658-1.143,0.986-2.741,0.658-4.226
	c0-0.286-0.329-0.458-0.164-0.744c0.109,0.114,0.218,0.173,0.329,0.173c0.109-0.059,0.274-0.059,0.383-0.229
	c0-0.114,0.11-0.286,0-0.4c-0.109-0.171-0.383-0.171-0.603-0.171c-0.109,0.113-0.219,0.285-0.219,0.457
	c-0.219-0.344-0.384-0.8-0.712-1.143l0.055-0.058c0.877,0.343,1.699,0.8,2.63,1.028c0.219,0.114,0.438,0.229,0.712,0.229
	c0.767,0.342,1.644,0.456,2.466,0.628c0.603-0.058,1.096,0.229,1.699,0.057v-0.057l0,0c-0.219-0.286-0.712,0-0.986-0.229
	c-1.37-0.171-2.685-0.514-3.945-1.027c0-0.058,0.11-0.058,0.164-0.058c0.22-0.114,0.329-0.285,0.329-0.514
	c-0.109-0.171-0.274-0.229-0.438-0.229c-0.109,0.058-0.274,0.229-0.274,0.344c0,0.171,0.165,0.342,0.274,0.399
	c-0.055,0.057-0.109,0-0.165,0c-0.603-0.286-1.206-0.571-1.808-0.857c-0.219-0.057-0.384-0.228-0.603-0.285
	c-0.439-0.229-0.931-0.457-1.37-0.629c-1.261-0.685-2.685-1.085-4.054-1.599c-0.274-0.058-0.603-0.172-0.877-0.229
	c-0.493-0.172-0.986-0.285-1.479-0.399c-1.699-0.457-4-0.457-5.479,0.457c-0.219-0.057-0.384,0.343-0.493,0.057
	c0.438-1.143,1.644-1.541,2.74-1.599c8.055-0.058,15.562-0.172,23.508-0.286c0.931,0,1.808-0.343,2.301-1.199
	C96.993,28.936,97.048,28.079,96.774,27.509L96.774,27.509z M64.883,35.276c-0.055,0.229-0.219,0.457-0.219,0.742l-0.055,0.058
	c0.055-0.343-0.219-0.514-0.165-0.856c-0.164-0.229-0.164-0.571-0.274-0.857c-0.164-0.343,0.165-0.514,0.274-0.742
	c0.274,0.114,0.384,0.399,0.604,0.629C65.102,34.705,64.883,34.933,64.883,35.276L64.883,35.276z"/>
<path fill="#FFFFFF" d="M86.636,33.963c0,0.057,0.11,0.057,0.056,0.171c-0.713,0.629-1.7,0.856-2.685,0.856
	c-0.055,0-0.165,0.058-0.274,0.058c-0.055-0.058-0.055-0.114-0.055-0.171C84.445,34.134,85.541,33.734,86.636,33.963L86.636,33.963z
	"/>
<path fill="#FFFFFF" d="M83.404,34.305c0.054,0.285-0.11,0.457-0.33,0.571c-0.219,0-0.329-0.172-0.438-0.343
	c-0.055-0.172,0.055-0.229,0.165-0.343C82.965,34.019,83.349,34.019,83.404,34.305L83.404,34.305z"/>
<path fill="#FFFFFF" d="M45.266,34.362c0.056,0.172,0,0.343-0.109,0.457c-0.055,0.114-0.274,0.114-0.383,0.114
	c-0.165,0-0.219-0.172-0.274-0.344c0-0.171,0.109-0.285,0.274-0.398C44.991,34.191,45.156,34.134,45.266,34.362L45.266,34.362z"/>
<path fill="#FFFFFF" d="M41.704,35.733v0.172c-0.492,0.113-0.931,0-1.314-0.344c-0.274-0.399-0.604-0.856-1.042-1.027
	c0-0.058-0.11-0.172,0-0.172C40.334,34.305,40.937,35.162,41.704,35.733L41.704,35.733z"/>
<path fill="#FFFFFF" d="M89.705,34.305c-0.438,0.742-0.877,1.6-1.699,1.885c-0.165,0-0.274,0.229-0.383,0.058
	c0.329-0.8,0.987-1.656,1.809-1.999C89.486,34.305,89.596,34.248,89.705,34.305L89.705,34.305z"/>
<path fill="#FFFFFF" d="M46.471,34.591c0,0.229-0.165,0.286-0.274,0.399c-0.165,0-0.219-0.113-0.329-0.228
	c-0.056-0.229,0.109-0.286,0.218-0.4C46.198,34.305,46.362,34.42,46.471,34.591L46.471,34.591z"/>
<path fill="#FFFFFF" d="M92.226,34.705c-0.164,0.285-0.11,0.686-0.274,0.971c-0.384,0.457-0.767,1.028-1.37,1.143
	c-0.109-0.229,0.165-0.399,0.22-0.629c0.274-0.628,0.657-1.37,1.314-1.6L92.226,34.705L92.226,34.705z"/>
<path fill="#FFFFFF" d="M35.458,34.877c0.054,0.171,0.109,0.285,0,0.457c-0.11,0.113-0.274,0.171-0.439,0.058
	c-0.165-0.114-0.219-0.344-0.165-0.515C34.964,34.762,35.348,34.647,35.458,34.877L35.458,34.877z"/>
<path fill="#FFFFFF" d="M34.362,35.162c0,0.114,0.055,0.172,0.055,0.285c-0.055,0.114-0.165,0.229-0.274,0.229
	c-0.219,0.058-0.384-0.057-0.438-0.285c0-0.172,0.055-0.343,0.219-0.457C34.032,34.877,34.252,34.99,34.362,35.162L34.362,35.162z"
	/>
<path fill="#FFFFFF" d="M36.718,35.276c0.055,0.171,0.055,0.457-0.164,0.514c-0.274,0.114-0.439-0.058-0.604-0.229
	c0-0.171,0.109-0.343,0.219-0.399C36.388,35.105,36.553,35.105,36.718,35.276L36.718,35.276z"/>
<path fill="#FFFFFF" d="M40.006,35.561c0,0.172,0,0.344-0.165,0.4c-0.109,0.113-0.274,0.057-0.383,0.057
	c-0.055-0.113-0.274-0.228-0.165-0.399c0.055-0.114,0.165-0.172,0.274-0.228C39.732,35.447,39.896,35.39,40.006,35.561
	L40.006,35.561z"/>
<path fill="#FFFFFF" d="M94.144,35.676c-0.055,0.172-0.165,0.343-0.274,0.343c-0.165,0-0.384-0.057-0.438-0.228
	c-0.055-0.229,0.11-0.344,0.274-0.399C93.87,35.39,94.089,35.447,94.144,35.676L94.144,35.676z"/>
<path fill="#FFFFFF" d="M90.472,35.79c0,0.172-0.165,0.285-0.218,0.343c-0.274,0.114-0.494-0.058-0.604-0.343
	c0.056-0.171,0.165-0.343,0.33-0.399C90.198,35.447,90.363,35.561,90.472,35.79L90.472,35.79z"/>
<path fill="#FFFFFF" d="M92.993,35.733c0,0.172-0.056,0.285-0.165,0.343c-0.165,0.058-0.383,0.058-0.493-0.058
	c-0.165-0.171-0.055-0.343,0.054-0.457C92.554,35.447,92.884,35.505,92.993,35.733L92.993,35.733z"/>
<path fill="#FFFFFF" d="M34.964,36.133c0.055,0.229-0.055,0.457-0.219,0.514c-0.165,0-0.383-0.113-0.439-0.285
	c0-0.172,0.056-0.399,0.22-0.457C34.69,35.847,34.854,35.962,34.964,36.133L34.964,36.133z"/>
<path fill="#FFFFFF" d="M89.486,36.361c0.055,0.228-0.055,0.457-0.274,0.571c-0.165,0.058-0.274-0.058-0.384-0.172
	c-0.055-0.114-0.164-0.343,0-0.457C88.938,35.962,89.376,36.133,89.486,36.361L89.486,36.361z"/>
<path fill="#FFFFFF" d="M45.759,36.59c0.055,0.229-0.164,0.285-0.219,0.4c-0.055,0.057-0.218,0.057-0.274,0
	c-0.109-0.115-0.219-0.229-0.165-0.457c0.11-0.057,0.165-0.172,0.274-0.229C45.54,36.247,45.649,36.419,45.759,36.59L45.759,36.59z"
	/>
<path fill="#FFFFFF" d="M93.815,36.704c0.055,0.171-0.056,0.229-0.11,0.343c-0.109,0.114-0.329,0.114-0.438,0.058
	c-0.165-0.114-0.165-0.285-0.165-0.457c0.109-0.058,0.165-0.171,0.274-0.229C93.486,36.419,93.705,36.533,93.815,36.704
	L93.815,36.704z"/>
<path fill="#FFFFFF" d="M92.554,36.761c0.055,0.229-0.165,0.399-0.274,0.457c-0.055,0-0.219-0.058-0.219,0.057
	c0.548,0.286,0.822,0.743,1.26,1.143v0.172c-0.712,0-1.479-0.229-1.972-0.8c-0.165-0.113-0.384-0.113-0.548-0.228
	c0.274-0.286,0.766-0.172,1.096-0.172c0.274-0.285-0.33-0.514,0.055-0.743c0.11,0,0.219-0.171,0.384-0.113
	C92.39,36.533,92.445,36.646,92.554,36.761L92.554,36.761z"/>
<path fill="#FFFFFF" d="M84.335,36.818c0.055,0.114-0.055,0.229-0.109,0.343c-0.11,0.114-0.274,0.172-0.439,0.114
	c-0.109-0.171-0.274-0.285-0.219-0.457C83.787,36.419,84.281,36.476,84.335,36.818L84.335,36.818z"/>
<path fill="#FFFFFF" d="M39.512,37.56c-0.054,0.172-0.164,0.344-0.329,0.344c-0.164,0-0.274-0.058-0.383-0.229
	c0-0.172,0.055-0.229,0.109-0.343C39.129,37.104,39.512,37.218,39.512,37.56L39.512,37.56z"/>
<path fill="#FFFFFF" d="M41.101,37.275c0,0.285-0.274,0.457-0.384,0.742c-0.274,0.686-0.822,1.314-1.588,1.371
	c-0.055-0.172,0.274-0.4,0.329-0.629c0.329-0.742,0.986-1.084,1.534-1.542h0.109L41.101,37.275L41.101,37.275z"/>
<path fill="#FFFFFF" d="M83.842,37.56c0,0.229-0.164,0.4-0.329,0.514c-0.165,0.058-0.329-0.113-0.438-0.171
	c-0.165-0.172-0.055-0.343,0-0.514C83.349,37.104,83.678,37.333,83.842,37.56L83.842,37.56z"/>
<path fill="#FFFFFF" d="M85.102,37.732c0,0.229-0.164,0.399-0.384,0.457c-0.054-0.058-0.164,0-0.218-0.058
	c-0.165-0.058-0.274-0.228-0.274-0.399c0.109-0.114,0.165-0.286,0.274-0.286C84.719,37.446,85.048,37.446,85.102,37.732
	L85.102,37.732z"/>
<path fill="#FFFFFF" d="M44.225,37.676c0,0.228-0.165,0.342-0.274,0.456c-0.165,0-0.274-0.114-0.384-0.228
	c-0.055-0.172,0.165-0.344,0.219-0.4C44.006,37.389,44.06,37.56,44.225,37.676L44.225,37.676z"/>
<path fill="#FFFFFF" d="M45.595,37.789c-0.056,0.172-0.165,0.343-0.384,0.343c-0.165-0.058-0.274-0.058-0.384-0.228
	c0-0.229,0.164-0.344,0.274-0.4C45.375,37.446,45.595,37.56,45.595,37.789L45.595,37.789z"/>
<path fill="#FFFFFF" d="M89.431,39.274c0.109,0.058,0.274,0.171,0.218,0.343c-0.329,0.172-0.603-0.228-0.876-0.285
	c-0.493-0.514-0.822-1.028-1.042-1.656c0.165-0.172,0.384,0.057,0.548,0.114C88.719,38.132,89.157,38.645,89.431,39.274
	L89.431,39.274z"/>
<path fill="#FFFFFF" d="M90.144,37.789c0.055,0.172,0.055,0.343-0.055,0.457c-0.109,0.229-0.383,0.172-0.548,0.114
	c-0.109-0.114-0.274-0.286-0.165-0.457c0.056-0.172,0.219-0.228,0.384-0.285S90.034,37.732,90.144,37.789L90.144,37.789z"/>
<path fill="#FFFFFF" d="M47.457,38.303c0,0.171,0.056,0.399-0.164,0.514c-0.164,0.057-0.438,0-0.493-0.229
	c-0.109-0.229,0.109-0.285,0.219-0.399C47.239,38.132,47.348,38.189,47.457,38.303L47.457,38.303z"/>
<path fill="#FFFFFF" d="M85.048,39.674c0.274,0.399,0.493,0.971,0.548,1.485c-0.056,0.172,0.109,0.285,0,0.399H85.54
	c-0.877-0.686-1.096-1.599-1.425-2.57c-0.056-0.057-0.109-0.114-0.056-0.228c0.22-0.172,0.33,0.171,0.548,0.228L85.048,39.674
	L85.048,39.674z"/>
<path fill="#FFFFFF" d="M50.088,38.988C50.033,38.988,50.088,38.988,50.088,38.988c-0.767,0.629-1.918,0.972-2.849,0.4
	c0-0.058,0-0.172,0.109-0.172c0.603-0.171,1.151-0.457,1.753-0.399L50.088,38.988L50.088,38.988z"/>
<path fill="#FFFFFF" d="M45.485,39.103c-0.658,0.456-1.315,1.313-2.137,1.541c-0.165,0.058-0.274,0.286-0.438,0.172
	c0.384-1.143,1.534-1.771,2.63-1.828v0.115H45.485z"/>
<path fill="#FFFFFF" d="M83.842,40.016c0.055,0.172,0,0.4-0.164,0.458c-0.11,0.113-0.274,0.113-0.384,0
	c-0.164-0.115-0.164-0.286-0.164-0.4c0.054-0.171,0.218-0.171,0.274-0.229C83.623,39.845,83.787,39.845,83.842,40.016L83.842,40.016
	z"/>
<path fill="#FFFFFF" d="M82.198,40.131c-0.11,0.286-0.438,0.457-0.712,0.571c-0.658,0.229-1.315-0.058-1.918-0.228
	c0-0.172,0.218-0.115,0.329-0.229c0.658-0.172,1.37-0.285,2.027-0.114C81.979,40.073,82.143,40.073,82.198,40.131L82.198,40.131z"/>
<path fill="#FFFFFF" d="M45.485,40.76c-0.055,0.058-0.055,0.285-0.219,0.343c-0.164,0.057-0.274,0-0.383-0.058
	c-0.055-0.114-0.165-0.228-0.055-0.399c0.055-0.171,0.219-0.171,0.329-0.229C45.266,40.417,45.43,40.531,45.485,40.76L45.485,40.76z
	"/>
<path fill="#FFFFFF" d="M46.691,40.93c-0.056,0.114-0.11,0.343-0.274,0.399c-0.165,0.058-0.274-0.058-0.384-0.172
	c-0.055-0.113-0.11-0.285-0.055-0.399c0.055-0.114,0.165-0.114,0.274-0.172C46.417,40.531,46.581,40.76,46.691,40.93L46.691,40.93z"
	/>
<path fill="#FFFFFF" d="M83.458,41.159c0,0.172-0.054,0.285-0.164,0.399c-0.11,0.172-0.274,0.172-0.438,0.058
	c-0.165,0-0.165-0.172-0.219-0.285c-0.11-0.172,0.055-0.286,0.165-0.4C83.02,40.702,83.404,40.816,83.458,41.159L83.458,41.159z"/>
<path fill="#FFFFFF" d="M84.39,41.102c0,0.113,0.055,0.228,0.055,0.285c-0.109,0.114-0.218,0.399-0.438,0.286
	c-0.11,0.057-0.165-0.115-0.219-0.172c-0.055-0.229,0-0.514,0.219-0.571C84.171,40.873,84.281,41.045,84.39,41.102L84.39,41.102z"/>
<path fill="#FFFFFF" d="M45.923,41.73c0.055,0.229-0.054,0.457-0.219,0.571c-0.219,0.057-0.493,0.057-0.603-0.229
	c0-0.229,0-0.457,0.219-0.629C45.595,41.387,45.869,41.444,45.923,41.73L45.923,41.73z"/>
<path fill="#FFFFFF" d="M47.074,41.616c-0.055,0.571-0.165,1.313-0.713,1.656c-0.329,0.058-0.657,0.399-0.986,0.171V43.33
	C45.814,42.701,46.581,42.244,47.074,41.616L47.074,41.616z"/>
<path fill="#FFFFFF" d="M80.335,42.13c0.056,0.114-0.055,0.229-0.109,0.343c-0.109,0.172-0.329,0.058-0.493,0
	c-0.165-0.057-0.165-0.285-0.11-0.399c0.055-0.114,0.164-0.171,0.274-0.229C80.061,41.787,80.225,41.959,80.335,42.13L80.335,42.13z
	"/>
<path fill="#FFFFFF" d="M49.101,43.101c0.274,0.456,0.11,1.142,0.274,1.655c-0.329,0.058-0.492-0.343-0.712-0.571
	c-0.438-0.628-0.384-1.484-0.603-2.227c0.054-0.058,0.109-0.058,0.164-0.058c0.274,0.229,0.548,0.629,0.767,0.856
	C48.937,42.929,49.101,42.929,49.101,43.101L49.101,43.101z"/>
<path fill="#FFFFFF" d="M81.321,42.302c0,0.171-0.165,0.229-0.274,0.343c-0.165,0-0.274-0.058-0.383-0.172
	c-0.056-0.228,0.109-0.285,0.218-0.399C81.047,41.959,81.267,42.072,81.321,42.302L81.321,42.302z"/>
<path fill="#FFFFFF" d="M83.733,44.129c0,0.058,0,0.172-0.11,0.172h-0.055c-0.603-0.571-1.151-1.143-1.096-1.999h0.109
	C83.075,42.759,83.678,43.272,83.733,44.129L83.733,44.129z"/>
<path fill="#FFFFFF" d="M82.198,43.5c0,0.172-0.055,0.286-0.165,0.4c-0.219,0.058-0.548,0.058-0.604-0.285
	c0-0.229,0.219-0.344,0.274-0.4C81.979,43.101,82.143,43.272,82.198,43.5L82.198,43.5z"/>
<path fill="#FFFFFF" d="M80.883,43.901c-0.274,0.799-1.041,1.199-1.588,1.771c-0.11-0.058-0.056-0.229-0.056-0.343
	c0.22-0.8,0.822-1.6,1.535-1.886C81.157,43.5,80.828,43.729,80.883,43.901L80.883,43.901z"/>
<path fill="#FFFFFF" d="M82.417,44.529c0,0.171-0.165,0.285-0.274,0.399c-0.165,0-0.329-0.058-0.439-0.229
	c0-0.228,0.165-0.285,0.274-0.399C82.143,44.301,82.308,44.415,82.417,44.529L82.417,44.529z"/>
<path fill="#FFFFFF" d="M67.458,6.319c0.274,0,0.493,0.229,0.493,0.514c0,0.286-0.219,0.514-0.493,0.514H61.54
	c-0.274,0-0.493-0.228-0.493-0.514c0-0.285,0.219-0.514,0.493-0.514H67.458L67.458,6.319z M63.239,7.232
	c0.603,0,0.055-0.742-0.274-0.742h-0.603c-0.603,0-0.055,0.742,0.274,0.742H63.239L63.239,7.232z M65.704,7.232
	c0.603,0,0.055-0.742-0.274-0.742h-0.603c-0.603,0-0.055,0.742,0.274,0.742H65.704L65.704,7.232z M67.513,6.491h-0.219
	c-0.603,0-0.11,0.742,0.219,0.742C67.896,7.232,67.896,6.491,67.513,6.491L67.513,6.491z"/>
<path fill="#FFFFFF" d="M66.965,13.458l1.15,0.458l1.096-0.458l-0.438,1.771l0.876-0.172l-0.328,1.085l0.328,1.028l-0.766-0.229
	l0.329,1.886l-1.096-0.458l-1.151,0.458l0.438-1.886l-0.932,0.286l0.219-1.085l-0.165-1.085l0.877,0.171L66.965,13.458
	L66.965,13.458z M68.609,16.599c0.274,0,0.274-0.343,0.274-0.685c0-0.743-0.548,0-0.822-0.686c-0.22,0.571-0.768,0.058-0.768,0.628
	c0,0.4,0,0.686,0.384,0.686h0.932V16.599z M67.513,15.915c0,0.285,0.329,0.113,0.603,0.113c0.274,0,0.604,0.172,0.604-0.113
	c0-0.4-0.329-0.229-0.604-0.229C67.842,15.686,67.513,15.571,67.513,15.915L67.513,15.915z"/>
<polygon fill="#FFFFFF" points="64.28,15.971 64.28,15.8 64.115,15.743 64.225,15.571 64.17,15.4 64.335,15.4 64.444,15.228 
	64.609,15.4 64.773,15.4 64.664,15.571 64.828,15.743 64.664,15.8 64.664,15.971 64.444,15.857 "/>
<polygon fill="#FFFFFF" points="63.404,17.171 63.404,16.942 63.239,16.942 63.348,16.771 63.294,16.599 63.458,16.599 
	63.568,16.371 63.677,16.599 63.896,16.599 63.786,16.771 63.951,16.942 63.786,16.942 63.786,17.171 63.568,17.056 "/>
<polygon fill="#FFFFFF" points="64.883,17.056 64.883,16.828 64.718,16.771 64.883,16.599 64.773,16.428 64.992,16.428 
	65.102,16.257 65.212,16.428 65.376,16.428 65.322,16.599 65.43,16.771 65.266,16.828 65.266,17.056 65.102,16.885 "/>
<polygon fill="#FFFFFF" points="65.102,17.914 65.102,17.799 64.992,17.799 65.047,17.685 64.992,17.57 65.102,17.57 65.156,17.456 
	65.266,17.57 65.376,17.57 65.322,17.685 65.376,17.799 65.266,17.799 65.266,17.914 65.156,17.856 "/>
<polygon fill="#FFFFFF" points="63.677,18.941 63.677,18.542 63.348,18.485 63.622,18.199 63.458,17.914 63.786,17.914 
	64.006,17.57 64.17,17.914 64.554,17.914 64.39,18.199 64.609,18.485 64.28,18.542 64.28,18.941 64.006,18.713 "/>
<polygon fill="#FFFFFF" points="64.39,-0.934 65.102,0.893 66.91,0.322 65.978,2.035 67.513,3.177 65.65,3.463 65.76,5.462 
	64.39,4.148 63.02,5.462 63.13,3.463 61.266,3.177 62.801,2.035 61.924,0.322 63.677,0.893 "/>
<path fill="#FFFFFF" d="M57.924,39.674c-0.22,0.058-0.274,0.172-0.22,0.399l0.274,1.085c0.055,0.229,0.055,0.515-0.054,0.743
	c-0.165,0.229-0.494,0.399-0.713,0.457c-0.165,0.058-0.548,0.114-0.877,0c-0.219-0.114-0.329-0.171-0.438-0.571l-0.274-1.143
	c-0.056-0.285-0.165-0.285-0.384-0.228v-0.114l1.37-0.343v0.113c-0.274,0.058-0.384,0.114-0.329,0.4l0.274,1.143
	c0.055,0.171,0.164,0.685,0.712,0.514c0.712-0.172,0.603-0.686,0.548-0.915l-0.22-1.084c-0.054-0.229-0.109-0.344-0.492-0.229
	v-0.114l0.876-0.229L57.924,39.674L57.924,39.674z"/>
<path fill="#FFFFFF" d="M59.896,39.903c-0.11-0.229-0.438-0.571-0.932-0.458c-0.218,0.058-0.383,0.229-0.383,0.458
	c0.055,0.171,0.109,0.228,0.493,0.343l0.658,0.113c0.164,0,0.493,0.172,0.548,0.514c0.055,0.286-0.11,0.801-0.822,0.972
	c-0.384,0.114-0.604,0-0.712,0.058c-0.11,0-0.11,0.113-0.11,0.171h-0.109l-0.165-0.856h0.11c0.164,0.343,0.492,0.686,0.986,0.57
	c0.493-0.113,0.438-0.456,0.438-0.514c-0.055-0.227-0.274-0.285-0.548-0.343l-0.274-0.058c-0.767-0.113-0.822-0.398-0.822-0.57
	c-0.054-0.229,0-0.743,0.712-0.914c0.33-0.057,0.548,0,0.658,0s0.11-0.057,0.11-0.172h0.109l0.165,0.743L59.896,39.903
	L59.896,39.903z"/>
<path fill="#FFFFFF" d="M62.581,41.273l-1.479,0.171v-0.113c0.274-0.058,0.384-0.058,0.384-0.343l-0.165-1.885
	c-0.274,0.057-0.712,0.113-0.712,0.685h-0.109l-0.055-0.742l2.466-0.229l0.055,0.742h-0.109c-0.11-0.571-0.548-0.514-0.822-0.514
	l0.165,1.885c0.054,0.286,0.109,0.286,0.438,0.286L62.581,41.273L62.581,41.273z"/>
<path fill="#FFFFFF" d="M65.978,41.273h-0.822l-0.822-1.143h-0.109v0.686c0,0.286,0.109,0.286,0.329,0.343v0.114l-1.37-0.058v-0.113
	c0.274,0,0.384-0.058,0.384-0.344l0.055-1.6c0-0.285-0.109-0.342-0.329-0.342v-0.114h1.315c0.274,0,1.151,0.057,1.151,0.628
	c0,0.457-0.438,0.514-0.658,0.571l0.822,1.028c0.055,0.058,0.109,0.058,0.164,0.058v0.285H65.978L65.978,41.273z M64.17,40.016
	c0.548,0,0.768-0.057,0.768-0.514c0-0.343-0.165-0.514-0.494-0.514c-0.218,0-0.218,0.058-0.274,0.171V40.016L64.17,40.016z"/>
<path fill="#FFFFFF" d="M68.664,41.674l-1.315-0.172v-0.114c0.274,0,0.329,0,0.329-0.114s-0.11-0.4-0.11-0.514l-0.932-0.114
	c-0.164,0.228-0.218,0.399-0.218,0.457c0,0.114,0.165,0.171,0.329,0.171v0.115l-0.822-0.115v-0.114c0.219,0,0.274-0.112,0.438-0.342
	l1.152-1.828h0.109l0.657,1.999c0.165,0.4,0.165,0.514,0.384,0.571L68.664,41.674L68.664,41.674z M67.513,40.644l-0.33-0.914
	l-0.492,0.8L67.513,40.644L67.513,40.644z"/>
<path fill="#FFFFFF" d="M71.02,42.13l-2.301-0.456v-0.115c0.219,0,0.329,0.058,0.383-0.171l0.274-1.714
	c0.056-0.229-0.109-0.285-0.329-0.343v-0.114l1.425,0.286v0.114c-0.274-0.058-0.383-0.058-0.438,0.228l-0.274,1.656
	c-0.055,0.172,0.055,0.229,0.329,0.285c0.603,0.114,0.877-0.113,1.151-0.514h0.11L71.02,42.13L71.02,42.13z"/>
<path fill="#FFFFFF" d="M72.554,42.53l-1.425-0.286V42.13c0.219,0,0.383,0.058,0.438-0.171l0.33-1.714
	c0.055-0.229-0.165-0.285-0.33-0.343v-0.114l1.426,0.285v0.114c-0.165-0.057-0.384-0.057-0.439,0.172l-0.329,1.713
	c-0.055,0.229,0.11,0.286,0.329,0.344V42.53L72.554,42.53z"/>
<path fill="#FFFFFF" d="M75.404,42.872l-1.314-0.113v-0.114c0.274,0,0.329,0,0.329-0.114s-0.11-0.399-0.164-0.514l-0.932-0.113
	c-0.165,0.228-0.219,0.398-0.219,0.456c0,0.115,0.165,0.172,0.329,0.172v0.113l-0.822-0.113v-0.114c0.219,0,0.274-0.114,0.438-0.4
	l1.096-1.826h0.11l0.712,1.94c0.165,0.4,0.22,0.514,0.384,0.571L75.404,42.872L75.404,42.872z M74.253,41.902l-0.329-0.914
	l-0.439,0.856L74.253,41.902L74.253,41.902z"/>
<path fill="#FFFFFF" d="M64.938,14.029c0-0.856-0.438-0.057-0.712-0.799c-0.165,0.628-0.767,0.114-0.767,0.743
	c0,0.228,0.055,0.399,0.164,0.456v0.229c0,0.058,0.056,0.114,0.11,0.114h0.877c0.055,0,0.109-0.058,0.109-0.114v-0.285
	C64.883,14.372,64.938,14.201,64.938,14.029L64.938,14.029z M64.225,14.201c-0.219,0-0.548,0.172-0.548-0.114
	c0-0.399,0.274-0.343,0.492-0.343c0.219,0,0.604-0.114,0.604,0.343C64.828,14.372,64.499,14.201,64.225,14.201L64.225,14.201z"/>
<path fill="#FFFFFF" d="M72.115,24.539c0.22,0,0.384-0.172,0.384-0.343c0-0.172-0.164-0.344-0.384-0.344
	c-0.218,0-0.383,0.172-0.383,0.344C71.787,24.425,71.951,24.539,72.115,24.539L72.115,24.539z"/>
<path fill="#FFFFFF" d="M70.362,11.802c0,0-0.165,0.286-0.165,0.343c0,0.114,0.056,0.229,0.165,0.229
	c0.109,0,0.165-0.114,0.165-0.229C70.527,12.202,70.362,11.802,70.362,11.802L70.362,11.802z"/>
<path fill="#FFFFFF" d="M58.252,11.802c0,0-0.164,0.286-0.164,0.343c0,0.114,0.055,0.229,0.164,0.229
	c0.11,0,0.165-0.114,0.165-0.229C58.417,12.202,58.252,11.802,58.252,11.802L58.252,11.802z"/>
<path fill="#FFFFFF" d="M61.266,11.802c0,0-0.165,0.286-0.165,0.343c0,0.114,0.055,0.229,0.165,0.229
	c0.109,0,0.164-0.114,0.164-0.229C61.43,12.202,61.266,11.802,61.266,11.802L61.266,11.802z"/>
<path fill="#FFFFFF" d="M64.28,11.802c0,0-0.165,0.286-0.165,0.343c0,0.114,0.055,0.229,0.165,0.229s0.164-0.114,0.164-0.229
	C64.499,12.202,64.28,11.802,64.28,11.802L64.28,11.802z"/>
<path fill="#FFFFFF" d="M67.348,11.802c0,0-0.165,0.286-0.165,0.343c0,0.114,0.056,0.229,0.165,0.229
	c0.109,0,0.165-0.114,0.165-0.229C67.513,12.202,67.348,11.802,67.348,11.802L67.348,11.802z"/>
<path fill="#FFFFFF" d="M58.252,16.142c0,0,0.165,0.286,0.165,0.344c0,0.113-0.055,0.228-0.165,0.228
	c-0.109,0-0.164-0.114-0.164-0.228C58.088,16.543,58.252,16.142,58.252,16.142L58.252,16.142z"/>
<path fill="#FFFFFF" d="M58.252,20.369c0,0,0.165,0.285,0.165,0.343c0,0.114-0.055,0.229-0.165,0.229
	c-0.109,0-0.164-0.114-0.164-0.229L58.252,20.369L58.252,20.369z"/>
<path fill="#FFFFFF" d="M58.746,23.739c0,0,0.164,0.285,0.164,0.343c0,0.114-0.055,0.229-0.164,0.229
	c-0.11,0-0.165-0.114-0.165-0.229L58.746,23.739L58.746,23.739z"/>
<path fill="#FFFFFF" d="M61.266,25.51c0,0,0.164,0.285,0.164,0.343c0,0.114-0.055,0.228-0.164,0.228
	c-0.11,0-0.165-0.113-0.165-0.228L61.266,25.51L61.266,25.51z"/>
<path fill="#FFFFFF" d="M70.527,16.142c0,0-0.165,0.286-0.165,0.344c0,0.113,0.055,0.228,0.165,0.228
	c0.109,0,0.164-0.114,0.164-0.228C70.691,16.543,70.527,16.142,70.527,16.142L70.527,16.142z"/>
<path fill="#FFFFFF" d="M70.527,20.369c0,0-0.165,0.285-0.165,0.343c0,0.114,0.055,0.229,0.165,0.229
	c0.109,0,0.164-0.114,0.164-0.229L70.527,20.369L70.527,20.369z"/>
<path fill="#FFFFFF" d="M70.033,23.739c0,0-0.164,0.285-0.164,0.343c0,0.114,0.055,0.229,0.164,0.229
	c0.11,0,0.165-0.114,0.165-0.229L70.033,23.739L70.033,23.739z"/>
<path fill="#FFFFFF" d="M67.513,25.51c0,0-0.165,0.285-0.165,0.343c0,0.114,0.055,0.228,0.165,0.228s0.165-0.113,0.165-0.228
	L67.513,25.51L67.513,25.51z"/>
<path fill="#FFFFFF" d="M64.39,27.338c0,0-0.165,0.285-0.165,0.343c0,0.114,0.055,0.229,0.165,0.229
	c0.109,0,0.164-0.114,0.164-0.229C64.554,27.737,64.39,27.338,64.39,27.338L64.39,27.338z"/>
<path fill="#FFFFFF" d="M69.322,21.054c0.054,0.058,0.109,0.058,0.274,0.058l0.109-0.343c0,0-0.109-0.172-0.219-0.114
	c-0.329,0.058-0.658,0.114-0.876,0.457c0,0.229,0.164,0.399,0.329,0.514c0.109-0.058,0.109,0.058,0.219,0.114
	c0,0.114-0.056,0.172-0.11,0.172c-0.219-0.229-0.603,0.057-0.822-0.229c0.055-0.285,0.219-0.629,0-0.914
	c0-0.058,0.11-0.114,0.055-0.172c-0.109-0.285-0.383-0.057-0.548-0.057c-0.274-0.058-0.493,0.113-0.712,0.342
	c0,0.115,0.055,0.229,0.164,0.286c0.056,0,0.11,0,0.11,0.058l-0.164,0.114c0.054,0.058,0.054,0.113,0.054,0.228
	c-0.109,0.058-0.274-0.114-0.328-0.228c0-0.172,0-0.458-0.165-0.458c-0.056,0-0.166,0.058-0.166,0.058
	c-0.054,0.058-0.054,0.172-0.054,0.344c0,0.114,0.054,0.343,0.054,0.343s0.604,0.457,0.713,0.742
	c-0.165,0.343-0.165,0.856-0.548,1.085c-0.11,0.058-0.11,0.229-0.11,0.343l0.11,0.058c0.274-0.114,0.712-0.171,0.712-0.629
	c0.109-0.17,0.164-0.399,0.384-0.514c0.218-0.058,0.382,0.059,0.438,0.229c-0.055,0.285-0.274,0.514-0.493,0.629
	c-0.055,0.058,0,0.114,0,0.171c0.056,0.114,0.274,0.058,0.383,0.058c0.329-0.229,0.438-0.629,0.768-0.742
	c0.055,0.171-0.384,0.286-0.11,0.456c0.165-0.057,0.384,0,0.493-0.228c-0.109-0.343,0.438-0.514,0.109-0.799
	c0-0.286,0.33-0.4,0.274-0.743c-0.109-0.343-0.492-0.343-0.548-0.629C69.047,20.998,69.212,20.998,69.322,21.054L69.322,21.054z"/>
<path fill="#FFFFFF" d="M55.403,24.71c0.219,0,0.383-0.171,0.383-0.343c0-0.171-0.164-0.343-0.383-0.343
	c-0.218,0-0.383,0.172-0.383,0.343C55.019,24.539,55.184,24.71,55.403,24.71L55.403,24.71z"/>
<path fill="#FFFFFF" d="M35.786,36.704c0.22,0,0.384-0.171,0.384-0.399s-0.164-0.343-0.384-0.343c-0.219,0-0.383,0.171-0.383,0.343
	C35.403,36.533,35.567,36.704,35.786,36.704L35.786,36.704z"/>
<path fill="#FFFFFF" d="M71.349,11.345L71.349,11.345H57.376l0,0l0,0v11.138c0,1.142,0.438,2.112,1.096,2.455l5.37,3.542
	c0.11,0.113,0.274,0.228,0.493,0.228c0.165,0,0.329-0.058,0.438-0.171l5.48-3.599c0.657-0.286,1.096-1.313,1.096-2.456V11.345
	L71.349,11.345L71.349,11.345z M70.965,22.596c-0.055,0.856-0.329,1.542-0.932,1.942l-5.26,3.483h-0.056
	c-0.109,0.114-0.274,0.172-0.383,0.172c-0.165,0-0.274-0.058-0.439-0.172l-5.206-3.483c-0.548-0.4-0.822-1.086-0.931-1.942V11.745
	h13.206V22.596L70.965,22.596z"/>
<path fill="#FFFFFF" d="M66.252,27.565l0.165-0.057C66.362,27.509,66.307,27.509,66.252,27.565L66.252,27.565z"/>
<path fill="#FFFFFF" d="M55.732,42.759l-1.315,0.171v-0.113c0.274-0.058,0.329-0.058,0.329-0.172s-0.165-0.343-0.219-0.457
	l-0.932,0.114c-0.11,0.285-0.11,0.399-0.11,0.457c0,0.113,0.219,0.113,0.33,0.113v0.114l-0.822,0.115v-0.115
	c0.218-0.057,0.274-0.171,0.329-0.456l0.712-2.057h0.11l1.096,1.771c0.22,0.343,0.329,0.457,0.494,0.457L55.732,42.759
	L55.732,42.759z M54.362,42.072l-0.493-0.799l-0.274,0.914L54.362,42.072L54.362,42.072z"/>
<path fill="#FFFFFF" d="M78.855,37.56c-0.219-0.628-0.767-1.084-1.37-1.313c-0.657-0.172-1.315-0.058-1.753,0.457
	c-0.713,0.629-0.22,1.6-0.22,2.456c0,0.172,0,0.285-0.164,0.399c-2.904-0.285-5.589-1.027-8.493-1.37
	c-0.658-0.114-1.315-0.114-1.973-0.229l-0.713-0.057c-2.521,0.057-5.041,0.228-7.342,0.856c-0.493,0.171-1.042,0.228-1.589,0.399
	c-0.384-0.057-0.658,0.229-0.986,0.114l-0.657,0.171c-0.055,0-0.11,0-0.219,0c-0.329-0.856,0.657-1.37,0.329-2.227
	c-0.274-0.457-0.767-0.971-1.37-0.857c-0.658-0.057-1.26,0.344-1.589,0.857c-0.438,1.028,0.11,2.171,0.274,3.198
	c-0.055,0.343,0.33,0.742,0,0.972c-0.657-0.458-1.479-0.743-2.247-0.458c-0.219,0.114-0.658-0.058-0.822,0.229
	c0.876,0.457,1.973,0.399,2.904,0.399c0.109-0.057,0.219-0.057,0.274,0c0.055,0.571-0.11,1.257,0.219,1.771
	c0.383,0.514,0.986,0.628,1.534,0.685c1.863-0.057,3.507-0.628,5.15-1.085c0.274,0,0.439-0.171,0.767-0.171
	c0.877-0.229,1.863-0.4,2.849-0.4c-0.438,0.571-0.657,1.2-0.822,1.886c-0.219,0.571,0.438,0.628,0.603,0.971
	c-0.603,0.172-1.04,0.628-1.644,0.856c-1.26-0.058-2.356,0.457-3.562,0.629c0,0.285,0.439,0.171,0.439,0.456
	c-0.055,0.172-0.219,0.229-0.383,0.344c0,0.114,0,0.172,0.109,0.172c0.109-0.172,0.383-0.058,0.493-0.172
	c0.384,0,0.767-0.114,1.096-0.172c0.329-0.172,0.712-0.172,1.042-0.399c0.438-0.114,0.657-0.399,1.096-0.571
	c0.603,0,1.151-0.229,1.699-0.229v0.114c-0.438,0.8-0.932,1.6-1.424,2.342c-0.056,0.172,0,0.286,0.164,0.343
	c0.274,0.058,0.548,0,0.767-0.113c0.439-0.743,0.822-1.485,1.151-2.228c0.164-0.743,0.658-1.085,1.15-1.6
	c0.056-0.058,0.219-0.171,0.274-0.058c-0.383,0.458-0.657,0.972-0.986,1.485c-0.164,0.571-0.219,1.371,0.274,1.828
	c0.22,0.229,0.604,0.171,0.932,0.171c0.767-0.399,1.809,0.229,2.411-0.57c0.383-0.058,0.438,0.399,0.603,0.57
	c0.329,0.114,0.712,0.457,1.041,0.229c0-0.229-0.274-0.457-0.383-0.629c-0.22-0.457-0.548-0.799-0.768-1.199
	c-0.11-0.285-0.274-0.457-0.329-0.8c0.383,0.114,0.657,0.4,1.096,0.458c0.328,0.171,0.766,0.113,1.096,0.343
	c0.274,0.343,0.657,0.571,0.986,0.799c0.493,0.229,1.041,0.286,1.589,0.514c0.219,0,0.493,0.172,0.657,0
	c-0.054-0.114-0.164-0.171-0.274-0.228c-0.055-0.286,0.384-0.114,0.494-0.344c-0.056-0.114-0.11-0.171-0.22-0.171
	c-0.274-0.172-0.986-0.229-1.205-0.343c-0.219-0.058-0.438-0.172-0.712-0.229c-1.205,0-1.862-1.142-2.849-1.542
	c0.219-0.228,0.548-0.399,0.713-0.686c0.164-0.285,0.218-0.799,0.054-1.143c-0.164-0.628-0.986-0.57-1.424-0.913l0.055-0.058
	c0.767-0.058,1.479,0.171,2.192,0.286c1.918,0.285,3.726,1.027,5.699,1.084c1.096,0,2.466,0.058,3.014-1.027
	c0.109-0.629,0.219-1.314,0.329-1.942C78.307,39.674,78.965,38.703,78.855,37.56L78.855,37.56z M57.211,47.156l-0.274-0.286
	c0.165-0.171,0.438-0.057,0.657-0.228c0.548-0.172,1.152-0.399,1.7-0.229C58.691,46.927,57.924,46.984,57.211,47.156L57.211,47.156z
	 M69.705,46.813c0.493,0.229,1.425,0.457,2.136,0.514c-0.055,0.286-0.548,0-0.492,0.399c-0.604-0.229-1.37-0.399-1.809-0.856
	C69.595,46.87,69.65,46.813,69.705,46.813L69.705,46.813z M50.909,37.904c0.055-0.4,0.165-0.8,0.493-1.029
	c0.493-0.285,1.151-0.228,1.589,0.058c0.165,0.058,0.219,0.229,0.329,0.4c0.11,0.343-0.054,0.742-0.329,0.971h-0.219
	c0-0.343,0-0.686,0.11-0.971c0-0.229-0.22-0.286-0.384-0.4c-0.329-0.113-0.658,0.058-0.876,0.229
	c-0.219,0.229-0.384,0.571-0.274,0.914c0.164,0.229,0,0.571,0.108,0.799l-0.055,0.114C51.183,38.645,50.855,38.36,50.909,37.904
	L50.909,37.904z M51.841,38.474c0.274,0.229,0.713,0.114,1.096,0.172c0.056,0.228,0.056,0.514-0.109,0.743
	c-0.329-0.114-0.767-0.058-0.987-0.4C51.896,38.874,51.786,38.645,51.841,38.474L51.841,38.474z M51.786,37.789
	c0.055-0.171,0-0.399,0.219-0.457c0.165-0.058,0.383-0.058,0.383,0.114c0,0.229-0.054,0.514-0.109,0.743
	C52.006,38.189,51.841,38.017,51.786,37.789L51.786,37.789z M61.212,44.529c-0.11-0.743,0.164-1.371,0.657-1.886
	c0.274-0.058,0.603-0.113,0.877,0.058c-0.548,0.171-1.206,0.285-1.315,0.971c0,0.286-0.055,0.399,0.056,0.629
	c0.218,0.399,0.712,0.229,0.986,0.57c0,0.115-0.055,0.229-0.165,0.229C61.924,44.871,61.54,44.814,61.212,44.529L61.212,44.529z
	 M60.499,45.957c0.493-0.229,0.987-0.629,1.535-0.457C61.595,45.843,60.992,45.957,60.499,45.957L60.499,45.957z M62.362,46.185
	c-0.274,0.685-0.603,1.313-0.986,1.999c-0.055,0.114-0.219,0.114-0.329,0.171c0-0.285,0.274-0.514,0.383-0.799
	c0.439-0.571,0.548-1.2,1.042-1.714C62.636,45.957,62.362,46.013,62.362,46.185L62.362,46.185z M62.856,44.986v0.057H62.8
	L62.856,44.986L62.856,44.986L62.856,44.986C62.91,44.928,62.856,44.928,62.856,44.986L62.856,44.986L62.856,44.986z M62.691,44.415
	c-0.329-0.058-0.657-0.172-0.987-0.229c-0.218-0.229,0-0.457,0-0.686c0.274-0.457,1.096-0.685,1.479-0.285
	C63.13,43.672,62.965,44.071,62.691,44.415L62.691,44.415z M63.13,44.415c0.054-0.286,0.164-0.629,0.329-0.857
	C63.458,43.786,63.348,44.186,63.13,44.415L63.13,44.415z M63.348,42.701c-0.274-0.058-0.383-0.399-0.657-0.399
	c0.219-0.058,0.493-0.058,0.767,0C63.568,42.472,63.404,42.587,63.348,42.701L63.348,42.701z M63.622,43.33L63.622,43.33v-0.229l0,0
	V43.33L63.622,43.33z M63.622,44.301c0-0.058,0.056-0.172,0.056-0.286c0.109-0.113,0.218,0.114,0.218,0.172
	C63.842,44.243,63.732,44.301,63.622,44.301L63.622,44.301z M63.896,42.986c0.11-0.285,0.11-0.57,0.33-0.799
	c0.218,0,0.383,0,0.548,0.058c0.055,0.399,0.548,0.971,0,1.37c-0.165,0.114-0.438,0.286-0.657,0.114
	C63.842,43.5,63.842,43.272,63.896,42.986L63.896,42.986z M65.376,42.416c-0.054-0.172,0.165-0.058,0.274-0.114l0.604,0.057
	C65.924,42.302,65.54,43.044,65.376,42.416L65.376,42.416z M66.417,42.701c-0.219,0.058-0.439,0.4-0.658,0.457
	C65.869,42.872,66.143,42.643,66.417,42.701L66.417,42.701z M65.54,43.958v0.057l0,0V43.958L65.54,43.958L65.54,43.958z
	 M65.595,45.271c0,0.058,0,0.114-0.056,0.171l-0.438-0.399C65.322,44.986,65.486,45.1,65.595,45.271L65.595,45.271z M65.047,44.642
	c0.055-0.058,0.165-0.058,0.165,0H65.047L65.047,44.642z M64.773,44.301c0.055-0.114,0.165-0.343,0.329-0.343
	c0,0,0,0.057,0.055,0.057C64.992,44.129,64.883,44.243,64.773,44.301L64.773,44.301z M64.28,44.243h-0.055l0.109-0.114
	C64.39,44.186,64.335,44.243,64.28,44.243L64.28,44.243z M64.39,45.043c0.274-0.285,0.493,0.172,0.603,0.399
	c0.274,0.458,1.096,0.857,0.767,1.542c-0.384,0.344-0.986,0-1.425,0.286c-0.219,0-0.603,0.058-0.713-0.171
	C63.842,46.414,64.061,45.671,64.39,45.043L64.39,45.043z M63.786,45.442l0.109-0.171c-0.164,0.514-0.383,1.028-0.657,1.542
	C63.13,46.3,63.622,45.9,63.786,45.442L63.786,45.442z M64.664,47.956c-0.384,0-0.986,0.228-1.315-0.114
	c0-0.172-0.165-0.229-0.165-0.4c0.329-0.113,0.604,0.286,0.877,0c0.438,0,0.931-0.057,1.425,0.058
	c0.219,0.058,0.548-0.399,0.603,0.058C65.978,48.241,65.156,47.727,64.664,47.956L64.664,47.956z M65.869,44.928v-0.058h0.055
	L65.869,44.928L65.869,44.928L65.869,44.928z M65.978,46.242c0,0.229,0.219,0.286,0.109,0.457
	C66.033,46.641,65.924,46.47,65.978,46.242L65.978,46.242z M66.527,47.498l-0.109,0.058c-0.11-0.058-0.056-0.343-0.056-0.456
	C66.527,47.213,66.636,47.385,66.527,47.498L66.527,47.498z M67.513,48.012c0,0.058-0.109,0.058-0.165,0
	c-0.603-0.799-0.877-1.656-1.261-2.513h0.056C66.691,46.3,67.074,47.213,67.513,48.012L67.513,48.012z M68.28,46.07
	c-0.055,0-0.055,0.058-0.055,0.058c-0.603,0-0.986-0.343-1.425-0.628v-0.114C67.348,45.442,67.787,45.843,68.28,46.07L68.28,46.07z
	 M67.732,43.272c0.219,0.058,0.274,0.343,0.274,0.571c0,0.457-0.274,0.856-0.657,1.027c-0.219,0.115-0.548,0.172-0.767,0.058
	c0.493,0,0.986-0.228,1.206-0.685L67.732,43.272L67.732,43.272z M67.294,43.215c0.11,0.285,0.274,0.571,0.165,0.914
	c-0.219,0.4-0.603,0.4-0.986,0.457c-0.165,0-0.329-0.057-0.438-0.171c0-0.058,0-0.172-0.055-0.229
	c0.055-0.285-0.438-0.571-0.109-0.799C66.198,43.158,66.965,42.472,67.294,43.215L67.294,43.215z M77.486,41.674
	c-0.165,0.228,0,0.57-0.219,0.742c0,0.399-0.329,0.57-0.548,0.742c-2.411,0.571-4.712-0.286-7.014-0.742
	c-3.233-0.742-7.014-0.972-10.302-0.172c-1.535,0.286-3.069,0.686-4.549,1.143c-0.931,0.113-1.917,0.285-2.794,0
	c-0.712-0.343-0.438-1.314-0.657-1.999c0.055-0.515-0.165-0.971-0.165-1.428c-0.056-0.172-0.11-0.4-0.056-0.571
	c0.274,0.057,0.604,0.285,0.932,0.343c1.7,0.343,3.178-0.229,4.768-0.514c1.479-0.344,3.068-0.629,4.658-0.743
	c1.808,0,3.671-0.114,5.37,0.172c0.548,0,1.042,0.172,1.589,0.228c1.15,0.172,2.192,0.458,3.288,0.571
	c0.165,0.058,0.384,0.058,0.603,0.114c1.808,0.286,3.836,0.8,5.535,0C77.925,40.245,77.595,40.93,77.486,41.674L77.486,41.674z
	 M76.938,39.103c0,0.342-0.274,0.228-0.439,0.399h-0.492c-0.11-0.172-0.056-0.399-0.056-0.571
	C76.281,38.931,76.664,38.931,76.938,39.103L76.938,39.103z M76.719,38.589c0.219-0.229-0.055-1.542,0.548-0.685
	c0,0.171,0,0.399-0.165,0.57C77.047,38.532,76.883,38.703,76.719,38.589L76.719,38.589z M78.363,38.36
	c-0.164,0.399-0.438,0.628-0.877,0.743c0-0.515,0.439-0.857,0.329-1.428c-0.274-0.4-0.768-0.515-1.26-0.4
	c-0.165,0.114-0.11,0.343-0.165,0.514l-0.055,0.686c-0.384,0-0.438-0.4-0.548-0.686c0-0.457,0.22-0.856,0.603-1.085
	c0.329-0.171,0.822-0.171,1.151,0.058c0.274,0.058,0.548,0.171,0.658,0.457C78.472,37.446,78.417,37.961,78.363,38.36L78.363,38.36z
	"/>
</svg>
