<?xml version="1.0" encoding="utf-8"?>
<!-- Generator: Adobe Illustrator 15.0.0, SVG Export Plug-In . SVG Version: 6.00 Build 0)  -->
<!DOCTYPE svg PUBLIC "-//W3C//DTD SVG 1.1//EN" "http://www.w3.org/Graphics/SVG/1.1/DTD/svg11.dtd">
<svg version="1.1" id="Layer_1" xmlns:sketch="http://www.bohemiancoding.com/sketch/ns"
	 xmlns="http://www.w3.org/2000/svg" xmlns:xlink="http://www.w3.org/1999/xlink" x="0px" y="0px" width="876.979px"
	 height="139.066px" viewBox="0 454.977 876.979 139.066" enable-background="new 0 454.977 876.979 139.066" xml:space="preserve">
<g>
	<path fill="#FFFFFF" d="M314.403,531.846c-4.41,0-8.123-2.553-11.372-2.553c-2.785,0-4.409,2.089-4.409,4.874
		c0,6.266,11.14,7.658,16.478,7.658c9.283,0,17.174-6.034,17.174-15.549c0-17.406-22.512-12.996-22.512-19.959
		c0-3.017,2.553-4.409,5.569-4.409c3.945,0,6.034,2.089,9.052,2.089c2.784,0,4.409-2.321,4.409-5.106
		c0-5.338-9.516-6.729-13.229-6.729c-9.051,0-16.71,5.802-16.71,15.316c0,15.55,22.512,10.908,22.512,18.799
		C321.365,529.293,318.812,531.846,314.403,531.846L314.403,531.846z"/>
	<path fill="#FFFFFF" d="M335.057,501.908h7.427v33.883c0,3.481,2.089,5.338,5.105,5.338c3.018,0,5.106-1.856,5.106-5.338v-33.883
		h7.426c3.249,0,4.41-2.321,4.41-4.642c0-2.321-1.625-4.642-4.41-4.642h-25.064c-3.017,0-4.409,2.32-4.409,4.642
		C330.415,499.587,331.808,501.908,335.057,501.908L335.057,501.908z"/>
	<path fill="#FFFFFF" d="M401.199,533.703l-13.229-36.9c-1.16-3.25-3.713-5.57-7.194-5.57s-6.034,2.32-7.194,5.57l-13.461,36.9
		c-0.231,0.231-0.696,1.16-0.696,2.32c0,2.785,2.321,4.642,5.106,4.642c2.784,0,4.177-1.393,4.873-3.481l2.089-6.266h18.799
		l2.088,6.266c0.696,2.089,2.089,3.481,5.106,3.481c2.32,0,4.642-1.856,4.642-4.409C401.896,535.56,401.663,534.631,401.199,533.703
		z M374.279,521.402l6.266-19.494l6.499,19.494H374.279z"/>
	<path fill="#FFFFFF" d="M409.554,518.153v18.103c0,2.32,1.393,5.105,5.106,5.105c3.713,0,5.105-2.321,5.105-5.105v-18.103
		l12.765-17.87c0.695-0.696,0.928-1.856,0.928-3.017c0-2.785-2.089-5.105-4.874-5.105c-1.856,0-3.249,0.696-4.177,2.088
		l-9.747,14.157l-9.748-14.157c-0.696-1.392-2.32-2.088-4.177-2.088c-3.018,0-4.874,2.32-4.874,5.105
		c0,1.16,0.232,2.089,0.929,3.017L409.554,518.153L409.554,518.153z"/>
</g>
<g>
	<path fill="#FFFFFF" d="M445.758,536.023c-3.48,0-7.426-1.856-7.891-2.32c-0.464-0.465-1.624-1.161-2.088-1.161
		c-1.161,0-2.089,0.929-2.089,2.321c0,2.553,5.338,5.802,13.229,5.802c9.282,0,15.316-6.498,15.316-15.317
		c0-15.549-22.743-11.14-22.743-21.815c0-3.945,3.713-7.426,8.818-7.426c5.106,0,6.73,3.48,9.283,3.48
		c0.929,0,1.857-0.928,1.857-2.553c0-2.089-5.57-5.338-10.908-5.338c-7.194,0.232-13.692,4.642-13.692,12.301
		c0,14.62,22.743,10.211,22.743,21.815C456.666,530.453,452.256,536.023,445.758,536.023L445.758,536.023z"/>
	<path fill="#FFFFFF" d="M471.519,495.178l-5.802,38.525c-0.232,1.16-0.696,3.945-0.696,4.409c0,1.856,1.16,2.089,2.089,2.089
		c1.624,0,2.089-1.161,2.553-3.018l6.034-40.613h0.231l12.301,40.846c0.464,1.393,0.928,2.32,2.32,2.32s2.089-0.696,3.018-3.249
		l12.068-40.381h0.231l6.034,40.613c0.232,1.624,0.696,3.017,2.553,3.017c0.929,0,2.089-0.464,2.089-2.088
		c0-0.696-0.464-3.249-0.696-4.41l-5.802-38.524c-0.464-3.249-2.553-3.945-4.874-3.945c-1.856,0-3.017,1.16-3.713,3.249
		l-10.908,37.364h-0.231l-10.676-37.364c-0.464-1.856-1.625-3.249-3.714-3.249C474.304,491.465,471.983,492.161,471.519,495.178
		L471.519,495.178z"/>
	<path fill="#FFFFFF" d="M558.781,536.487l-15.55-41.31c-0.696-1.393-1.393-3.481-3.945-3.481c-2.32,0-3.249,1.856-3.945,3.481
		l-15.549,41.31c-0.232,0.696-0.464,1.393-0.464,1.857c0,0.928,0.696,1.856,2.089,1.856c1.624,0,2.088-0.929,2.553-2.089
		l3.249-8.819h23.208l3.249,8.819c0.464,1.16,0.928,2.089,2.553,2.089c1.393,0,2.089-0.929,2.089-1.856
		C559.477,537.88,559.244,537.184,558.781,536.487z M529.538,525.116l9.979-27.153h0.232l9.979,27.153H529.538z"/>
	<path fill="#FFFFFF" d="M575.258,518.386h4.409c8.123,0,13.229-6.034,13.229-13.461c0-6.73-5.105-12.996-14.621-12.996h-10.676
		c-2.088,0-3.249,0.929-3.249,2.553v42.935c0,1.856,0.929,3.249,2.321,3.249s2.32-0.929,2.32-3.249V518.85l19.03,20.655
		c0.696,0.696,1.393,0.928,2.089,0.928c0.929,0,2.089-0.696,2.089-1.856c0-0.928-0.232-1.393-0.928-2.089L575.258,518.386z
		 M569.688,496.338h8.355c6.498,0,9.979,3.249,9.979,9.516c0,5.569-3.713,8.818-9.979,8.818h-8.355V496.338L569.688,496.338z"/>
	<path fill="#FFFFFF" d="M607.284,537.184c0,1.857,0.929,3.249,2.321,3.249s2.32-0.928,2.32-3.249v-40.846h9.283
		c1.393,0,2.553-0.928,2.553-2.089c0-1.16-0.928-2.088-2.553-2.088H597.77c-1.393,0-2.553,0.928-2.553,2.088
		c0,1.161,0.928,2.089,2.553,2.089h9.283v40.846H607.284z"/>
</g>
<g>
	<path fill="#FFFFFF" d="M646.274,491.232c-13.925,0-23.208,10.676-23.208,24.832c0,14.157,9.748,24.833,23.208,24.833
		c13.925,0,23.208-10.908,23.208-24.833C669.714,502.372,659.966,491.232,646.274,491.232z M646.274,531.846
		c-8.587,0-12.764-7.426-12.764-15.781c0-8.122,4.177-15.781,12.764-15.781c8.354,0,12.765,7.427,12.765,15.781
		C659.27,524.42,655.093,531.846,646.274,531.846z"/>
	<path fill="#FFFFFF" d="M708.471,491.696c-2.785,0-4.874,1.856-4.874,5.338v25.761h-0.232l-21.583-28.777
		c-0.696-1.393-2.785-2.321-4.177-2.321c-2.785,0-4.874,1.856-4.874,5.338v38.525c0,3.481,2.089,5.338,4.874,5.338
		c2.784,0,4.873-1.856,4.873-5.338v-25.528h0.232l21.119,28.777c1.16,1.393,2.785,2.32,4.177,2.32c2.785,0,4.874-1.856,4.874-5.338
		v-38.757C713.344,493.553,711.256,491.696,708.471,491.696L708.471,491.696z"/>
	<path fill="#FFFFFF" d="M740.961,530.918h-12.067v-34.115c0-3.481-2.089-5.338-4.874-5.338s-4.873,1.856-4.873,5.338v37.828
		c0,3.481,2.088,5.57,5.337,5.57h16.942c2.784,0,4.642-2.321,4.873-4.41C746.068,533.703,744.443,530.918,740.961,530.918
		L740.961,530.918z"/>
	<path fill="#FFFFFF" d="M752.566,491.696c-2.785,0-4.874,1.856-4.874,5.338v38.525c0,3.481,2.089,5.338,4.874,5.338
		s4.873-1.856,4.873-5.338v-38.525C757.671,493.553,755.582,491.696,752.566,491.696L752.566,491.696z"/>
	<path fill="#FFFFFF" d="M798.981,491.696c-2.784,0-4.873,1.856-4.873,5.338v25.761h-0.232l-21.583-28.777
		c-0.696-1.393-2.785-2.321-4.178-2.321c-2.784,0-4.873,1.856-4.873,5.338v38.525c0,3.481,2.089,5.338,4.873,5.338
		c2.785,0,4.874-1.856,4.874-5.338v-25.528h0.232l21.119,28.777c1.16,1.393,2.784,2.32,4.177,2.32c2.785,0,4.874-1.856,4.874-5.338
		v-38.757C803.855,493.553,801.766,491.696,798.981,491.696L798.981,491.696z"/>
	<path fill="#FFFFFF" d="M833.561,530.918h-12.532v-10.212h10.907c3.25,0,4.874-2.32,4.874-4.642c0-2.32-1.624-4.642-4.874-4.642
		h-10.907v-9.979h12.068c3.249,0,4.642-2.32,4.642-4.641c0-2.321-1.625-4.642-4.642-4.642h-16.71c-3.713,0-5.338,2.553-5.338,6.033
		v37.133c0,3.249,2.321,4.874,5.338,4.874h17.638c3.249,0,4.642-2.321,4.642-4.642C838.202,533.238,836.577,530.918,833.561,530.918
		L833.561,530.918z"/>
</g>
<g id="sso">
	<path id="Shape" sketch:type="MSShapeGroup" fill="#FFFFFF" d="M853.54,463.848H305.372c-12.997,0-23.44,10.443-23.44,23.439
		v59.876c0,12.996,10.443,23.44,23.44,23.44h491.772c3.481,13.229,15.55,23.207,30.171,23.439h8.122v-23.439h18.103
		c12.996,0,23.439-10.444,23.439-23.44v-59.876C876.98,474.291,866.536,463.848,853.54,463.848L853.54,463.848z M868.858,562.713
		h-33.42h-8.122v23.439c-12.765-0.232-22.976-10.443-22.976-23.208v-0.231H290.055V471.97h579.034L868.858,562.713L868.858,562.713z
		"/>
</g>
<path fill="#FFFFFF" d="M10.901,578.112H5.2l-0.7,1.601c-0.2,0.5-0.3,1-0.3,1.3c0,0.5,0.2,0.801,0.5,1c0.2,0.1,0.7,0.2,1.6,0.301
	v0.399H1v-0.399c0.601-0.101,1.101-0.301,1.4-0.701c0.399-0.399,0.8-1.199,1.399-2.399l5.801-12.9H9.8l5.801,13.2
	c0.6,1.301,1,2,1.399,2.4c0.3,0.199,0.7,0.4,1.101,0.4v0.399H10.3v-0.399h0.301c0.6,0,1.1-0.101,1.3-0.301c0.2-0.1,0.3-0.3,0.3-0.5
	c0-0.1,0-0.3-0.1-0.4c0-0.1-0.101-0.399-0.4-0.899L10.901,578.112L10.901,578.112z M10.5,577.213l-2.399-5.601l-2.5,5.601H10.5
	L10.5,577.213z"/>
<path fill="#FFFFFF" d="M28,571.513v8.7c0,0.8,0.101,1.399,0.2,1.601c0.2,0.199,0.5,0.299,1,0.399v0.399h-4.5v-1.5
	c-0.5,0.601-1.1,1.101-1.6,1.4c-0.5,0.301-1.101,0.4-1.801,0.4c-0.6,0-1.199-0.2-1.699-0.6c-0.5-0.4-0.801-0.801-1-1.4
	c-0.2-0.5-0.301-1.4-0.301-2.7v-4.399c0-0.801-0.1-1.4-0.199-1.601c-0.2-0.2-0.5-0.3-1-0.399v-0.4h4.5v7.6c0,0.801,0,1.301,0.1,1.5
	c0.1,0.2,0.2,0.4,0.4,0.5c0.199,0.1,0.399,0.2,0.6,0.2c0.3,0,0.5-0.101,0.8-0.2c0.3-0.199,0.7-0.6,1.101-1.199v-5.9
	c0-0.801-0.101-1.4-0.2-1.6c-0.101-0.201-0.5-0.301-1-0.4v-0.4H28L28,571.513z"/>
<path fill="#FFFFFF" d="M37,571.213l0.2,3.8h-0.4c-0.5-1.1-1-1.9-1.5-2.3s-1-0.601-1.5-0.601c-0.3,0-0.6,0.101-0.8,0.301
	c-0.2,0.199-0.3,0.5-0.3,0.8c0,0.2,0.1,0.399,0.2,0.601c0.3,0.299,1,0.899,2.1,1.699c1.2,0.801,1.9,1.5,2.3,2
	c0.4,0.5,0.601,1.2,0.601,1.801c0,0.6-0.2,1.199-0.5,1.799c-0.3,0.601-0.7,1.101-1.3,1.4c-0.601,0.301-1.2,0.5-1.9,0.5
	c-0.5,0-1.2-0.199-2.1-0.5c-0.2-0.1-0.4-0.1-0.5-0.1c-0.301,0-0.5,0.199-0.7,0.6h-0.4l-0.2-4h0.4c0.4,1,0.8,1.801,1.5,2.4
	c0.6,0.5,1.2,0.8,1.8,0.8c0.4,0,0.7-0.101,0.9-0.3c0.2-0.2,0.399-0.5,0.399-0.9s-0.1-0.699-0.399-1c-0.2-0.3-0.8-0.699-1.601-1.3
	c-1.199-0.8-2-1.5-2.399-1.899c-0.5-0.701-0.8-1.4-0.8-2.201c0-0.899,0.3-1.6,0.899-2.299c0.601-0.701,1.5-1,2.601-1
	c0.6,0,1.199,0.1,1.699,0.399c0.2,0.101,0.4,0.2,0.5,0.2c0.101,0,0.301,0,0.301-0.1c0.1-0.101,0.199-0.201,0.399-0.5H37V571.213z"/>
<path fill="#FFFFFF" d="M42.901,567.513v4.1h2.6v1.201h-2.6v6.899c0,0.601,0,1.101,0.1,1.2c0.101,0.199,0.2,0.3,0.3,0.5
	c0.2,0.1,0.301,0.199,0.4,0.199c0.5,0,1-0.399,1.5-1.199l0.4,0.3c-0.601,1.5-1.7,2.3-3.101,2.3c-0.7,0-1.3-0.199-1.8-0.6
	s-0.8-0.801-0.9-1.301c-0.1-0.299-0.1-1-0.1-2.199v-6h-1.5v-0.6c1-0.701,1.8-1.4,2.5-2.201c0.7-0.799,1.3-1.6,1.8-2.6H42.901
	L42.901,567.513z"/>
<path fill="#FFFFFF" d="M50.901,571.513v2.5c0.7-1.1,1.399-1.9,1.899-2.3c0.601-0.399,1.101-0.601,1.601-0.601
	c0.399,0,0.8,0.101,1.1,0.4c0.3,0.301,0.4,0.7,0.4,1.2s-0.101,0.899-0.4,1.2c-0.3,0.3-0.6,0.4-0.899,0.4
	c-0.4,0-0.801-0.101-1.101-0.4c-0.3-0.301-0.5-0.4-0.5-0.5c-0.1,0-0.2-0.1-0.3-0.1c-0.2,0-0.4,0.1-0.7,0.299
	c-0.3,0.301-0.6,0.701-0.7,1.201c-0.3,0.799-0.399,1.6-0.399,2.5v2.6v0.699c0,0.5,0,0.701,0.1,0.9c0.101,0.2,0.2,0.4,0.4,0.5
	s0.5,0.2,1,0.2v0.399h-6v-0.399c0.5,0,0.8-0.2,1-0.399c0.2-0.201,0.3-0.801,0.3-1.801v-6.1c0-0.6,0-1-0.1-1.2
	c-0.101-0.2-0.2-0.399-0.301-0.5c-0.199-0.101-0.399-0.2-0.8-0.2v-0.4h4.4V571.513z"/>
<path fill="#FFFFFF" d="M62,581.013c-1.399,1.2-2.6,1.801-3.7,1.801c-0.6,0-1.199-0.201-1.6-0.601s-0.6-0.899-0.6-1.601
	c0-0.799,0.399-1.6,1.1-2.299c0.7-0.701,2.3-1.601,4.8-2.701v-1.1c0-0.8,0-1.4-0.1-1.6c-0.101-0.2-0.3-0.4-0.5-0.6
	c-0.3-0.201-0.5-0.301-0.9-0.301c-0.5,0-0.899,0.1-1.3,0.301c-0.2,0.1-0.3,0.299-0.3,0.5c0,0.199,0.1,0.399,0.3,0.6
	c0.3,0.3,0.5,0.699,0.5,1c0,0.4-0.1,0.699-0.4,1c-0.3,0.3-0.699,0.4-1.1,0.4c-0.5,0-0.9-0.201-1.3-0.5
	c-0.3-0.301-0.5-0.701-0.5-1.101c0-0.601,0.2-1.101,0.7-1.601s1.1-0.899,1.899-1.199c0.8-0.301,1.601-0.4,2.5-0.4
	c1.101,0,1.9,0.2,2.5,0.7c0.601,0.399,1,0.899,1.2,1.5c0.1,0.3,0.2,1.101,0.2,2.3v4.301c0,0.5,0,0.799,0.1,1
	c0,0.1,0.101,0.199,0.2,0.299c0.1,0.101,0.2,0.101,0.3,0.101c0.2,0,0.4-0.101,0.601-0.399L67,581.112c-0.399,0.601-0.8,1-1.2,1.301
	c-0.399,0.3-0.899,0.4-1.399,0.4c-0.601,0-1.101-0.101-1.5-0.4C62.3,582.112,62.101,581.612,62,581.013L62,581.013z M62,580.112
	v-3.699c-1,0.6-1.7,1.199-2.1,1.8c-0.3,0.399-0.5,0.899-0.5,1.3s0.1,0.7,0.399,1c0.2,0.2,0.5,0.301,0.801,0.301
	C61.101,580.813,61.5,580.612,62,580.112L62,580.112z"/>
<path fill="#FFFFFF" d="M71.7,566.513v13.801c0,0.799,0.1,1.299,0.3,1.5c0.2,0.199,0.5,0.299,1.101,0.399v0.399h-6v-0.399
	c0.5,0,0.899-0.2,1.1-0.399c0.2-0.201,0.2-0.701,0.2-1.5v-11.5c0-0.801-0.101-1.301-0.3-1.5c-0.2-0.201-0.5-0.301-1.101-0.4v-0.4
	H71.7L71.7,566.513z"/>
<path fill="#FFFFFF" d="M76.8,566.113c0.5,0,1,0.199,1.301,0.499c0.399,0.4,0.5,0.801,0.5,1.301s-0.2,0.9-0.5,1.3
	c-0.4,0.399-0.801,0.5-1.301,0.5s-0.899-0.2-1.3-0.5c-0.399-0.399-0.5-0.8-0.5-1.3s0.2-0.9,0.5-1.301
	C75.901,566.312,76.3,566.113,76.8,566.113L76.8,566.113z M78.5,571.513v8.801c0,0.799,0.101,1.299,0.3,1.5
	c0.2,0.199,0.5,0.299,1.101,0.399v0.399h-6v-0.399c0.5,0,0.899-0.2,1.1-0.399c0.2-0.201,0.2-0.701,0.2-1.5v-6.5
	c0-0.801-0.1-1.301-0.3-1.5c-0.2-0.201-0.5-0.301-1.101-0.4v-0.4H78.5L78.5,571.513z"/>
<path fill="#FFFFFF" d="M86.3,581.013c-1.399,1.2-2.6,1.801-3.699,1.801c-0.601,0-1.2-0.201-1.601-0.601
	c-0.399-0.399-0.6-0.899-0.6-1.601c0-0.799,0.399-1.6,1.1-2.299c0.7-0.701,2.3-1.601,4.8-2.701v-1.1c0-0.8,0-1.4-0.1-1.6
	c-0.1-0.2-0.3-0.4-0.5-0.6c-0.3-0.201-0.5-0.301-0.9-0.301c-0.5,0-0.899,0.1-1.3,0.301c-0.2,0.1-0.3,0.299-0.3,0.5
	c0,0.199,0.1,0.399,0.3,0.6c0.3,0.3,0.5,0.699,0.5,1c0,0.4-0.1,0.699-0.399,1c-0.301,0.3-0.7,0.4-1.101,0.4
	c-0.5,0-0.899-0.201-1.3-0.5c-0.3-0.301-0.5-0.701-0.5-1.101c0-0.601,0.2-1.101,0.7-1.601s1.1-0.899,1.899-1.199
	c0.801-0.301,1.601-0.4,2.5-0.4c1.101,0,1.9,0.2,2.5,0.7c0.601,0.399,1,0.899,1.2,1.5c0.101,0.3,0.2,1.101,0.2,2.3v4.301
	c0,0.5,0,0.799,0.1,1c0,0.1,0.101,0.199,0.2,0.299c0.101,0.101,0.2,0.101,0.3,0.101c0.2,0,0.4-0.101,0.601-0.399l0.399,0.299
	c-0.399,0.601-0.8,1-1.199,1.301c-0.4,0.3-0.9,0.4-1.4,0.4c-0.6,0-1.1-0.101-1.5-0.4C86.601,582.112,86.401,581.612,86.3,581.013
	L86.3,581.013z M86.3,580.112v-3.699c-1,0.6-1.699,1.199-2.1,1.8c-0.3,0.399-0.5,0.899-0.5,1.3s0.1,0.7,0.4,1
	c0.199,0.2,0.5,0.301,0.8,0.301C85.3,580.813,85.8,580.612,86.3,580.112L86.3,580.112z"/>
<path fill="#FFFFFF" d="M95.901,571.513v1.4c0.6-0.6,1.1-1.1,1.6-1.301c0.5-0.299,1.101-0.399,1.7-0.399c0.7,0,1.3,0.2,1.8,0.601
	c0.5,0.399,0.8,0.899,1,1.5c0.101,0.5,0.2,1.299,0.2,2.6v4.3c0,0.899,0.1,1.399,0.2,1.601c0.2,0.199,0.5,0.299,1,0.399v0.399H97.8
	v-0.399c0.4-0.101,0.7-0.2,0.9-0.5c0.1-0.2,0.2-0.7,0.2-1.5v-4.899c0-0.9,0-1.5-0.101-1.701c-0.1-0.199-0.199-0.399-0.399-0.5
	c-0.2-0.1-0.4-0.199-0.601-0.199c-0.699,0-1.3,0.5-1.899,1.5v6c0,0.8,0.1,1.4,0.2,1.6c0.199,0.2,0.399,0.4,0.899,0.4v0.4h-5.6v-0.4
	c0.5,0,0.8-0.2,1-0.5c0.1-0.2,0.2-0.7,0.2-1.5v-6.301c0-0.799-0.101-1.399-0.2-1.6c-0.101-0.199-0.5-0.3-1-0.4v-0.399h4.5V571.513z"
	/>
<path fill="#FFFFFF" d="M125.3,566.213v5.7h-0.399c-0.5-1.6-1.3-2.7-2.4-3.5c-1.1-0.801-2.2-1.2-3.5-1.2c-1.2,0-2.2,0.3-3,1
	s-1.399,1.601-1.7,2.8c-0.3,1.2-0.5,2.5-0.5,3.7c0,1.5,0.2,2.899,0.5,4.101c0.4,1.199,1,2,1.801,2.6c0.8,0.5,1.8,0.8,2.899,0.8
	c0.4,0,0.8,0,1.2-0.101c0.4-0.1,0.8-0.199,1.3-0.399v-3.399c0-0.601,0-1-0.1-1.201c-0.101-0.199-0.3-0.399-0.5-0.5
	c-0.3-0.199-0.601-0.199-1-0.199h-0.4v-0.4h7.8v0.301c-0.6,0-1,0.1-1.199,0.199c-0.2,0.1-0.4,0.301-0.5,0.6
	c-0.101,0.201-0.101,0.5-0.101,1.101v3.399c-1,0.5-2.1,0.801-3.2,1c-1.1,0.201-2.3,0.4-3.5,0.4c-1.5,0-2.8-0.199-3.8-0.6
	s-1.899-1-2.7-1.6c-0.8-0.701-1.399-1.4-1.8-2.301c-0.6-1.1-0.8-2.3-0.8-3.699c0-2.4,0.9-4.5,2.6-6.201
	c1.7-1.699,3.9-2.499,6.4-2.499c0.8,0,1.5,0.1,2.2,0.199c0.3,0.101,0.899,0.2,1.7,0.501c0.8,0.299,1.199,0.399,1.399,0.399
	s0.4-0.101,0.601-0.2c0.199-0.199,0.399-0.5,0.5-0.899h0.199V566.213z"/>
<path fill="#FFFFFF" d="M133,571.213c1,0,1.9,0.2,2.7,0.7s1.5,1.199,1.9,2.1c0.399,0.9,0.699,1.9,0.699,3c0,1.6-0.399,2.9-1.199,4
	c-1,1.301-2.301,1.9-4,1.9c-1.7,0-3-0.6-3.9-1.801c-0.9-1.199-1.4-2.5-1.4-4.1s0.5-3,1.4-4.199
	C130.101,571.813,131.401,571.213,133,571.213L133,571.213z M133.101,572.013c-0.4,0-0.801,0.2-1,0.5
	c-0.301,0.301-0.5,0.9-0.601,1.801c-0.1,0.899-0.1,2.1-0.1,3.699c0,0.801,0.1,1.6,0.2,2.4c0.1,0.6,0.3,1,0.6,1.3s0.6,0.399,1,0.399
	s0.7-0.1,0.9-0.299c0.3-0.301,0.5-0.601,0.6-1.101c0.2-0.8,0.2-2.3,0.2-4.601c0-1.299-0.101-2.299-0.2-2.799
	c-0.2-0.5-0.4-0.9-0.7-1.101C133.7,572.112,133.401,572.013,133.101,572.013L133.101,572.013z"/>
<path fill="#FFFFFF" d="M143.5,583.013l-3.8-8.6c-0.5-1-0.8-1.7-1.1-2c-0.2-0.2-0.5-0.301-0.801-0.4v-0.4h5.9v0.4
	c-0.4,0-0.6,0.1-0.8,0.2c-0.2,0.2-0.3,0.399-0.3,0.601c0,0.299,0.2,0.799,0.5,1.699l1.8,4.2l1.5-3.601c0.399-1,0.6-1.799,0.6-2.199
	c0-0.2-0.1-0.4-0.3-0.6c-0.2-0.201-0.5-0.201-0.899-0.301v-0.4h3.6v0.4c-0.3,0-0.6,0.2-0.9,0.4c-0.199,0.199-0.6,0.8-1,1.9
	l-3.699,8.699H143.5L143.5,583.013z"/>
<path fill="#FFFFFF" d="M158.401,576.713H152.3c0.101,1.5,0.5,2.601,1.2,3.5c0.5,0.7,1.2,1,2,1c0.5,0,0.9-0.101,1.3-0.399
	c0.4-0.301,0.801-0.801,1.2-1.4l0.4,0.3c-0.601,1.2-1.3,2.101-2,2.601s-1.601,0.799-2.5,0.799c-1.7,0-2.9-0.6-3.7-1.899
	c-0.7-1-1-2.3-1-3.8c0-1.9,0.5-3.301,1.5-4.4s2.2-1.699,3.5-1.699c1.1,0,2.1,0.5,2.9,1.399
	C157.901,573.513,158.3,574.913,158.401,576.713L158.401,576.713z M155.5,575.913c0-1.301-0.1-2.2-0.2-2.6
	c-0.1-0.5-0.3-0.801-0.6-1.101c-0.2-0.101-0.4-0.2-0.7-0.2c-0.399,0-0.8,0.2-1,0.6c-0.5,0.701-0.7,1.701-0.7,2.9v0.4H155.5
	L155.5,575.913z"/>
<path fill="#FFFFFF" d="M163.7,571.513v2.5c0.7-1.1,1.4-1.9,1.9-2.3c0.6-0.399,1.1-0.601,1.6-0.601c0.4,0,0.8,0.101,1.1,0.4
	c0.301,0.301,0.4,0.7,0.4,1.2s-0.1,0.899-0.4,1.2c-0.3,0.3-0.6,0.4-0.899,0.4c-0.4,0-0.8-0.101-1.101-0.4
	c-0.3-0.301-0.5-0.4-0.5-0.5c-0.1,0-0.199-0.1-0.3-0.1c-0.2,0-0.399,0.1-0.7,0.299c-0.3,0.301-0.6,0.701-0.699,1.201
	c-0.301,0.799-0.4,1.6-0.4,2.5v2.6v0.699c0,0.5,0,0.701,0.1,0.9c0.101,0.2,0.2,0.4,0.4,0.5s0.5,0.2,1,0.2v0.399h-6v-0.399
	c0.5,0,0.8-0.2,1-0.399c0.2-0.201,0.3-0.801,0.3-1.801v-6.1c0-0.6,0-1-0.1-1.2c-0.101-0.2-0.2-0.399-0.3-0.5
	c-0.2-0.101-0.4-0.2-0.801-0.2v-0.4h4.4V571.513z"/>
<path fill="#FFFFFF" d="M173.901,571.513v1.4c0.601-0.6,1.101-1.1,1.601-1.301c0.5-0.299,1.1-0.399,1.699-0.399
	c0.7,0,1.301,0.2,1.801,0.601c0.5,0.399,0.8,0.899,1,1.5c0.1,0.5,0.199,1.299,0.199,2.6v4.3c0,0.899,0.101,1.399,0.2,1.601
	c0.2,0.199,0.5,0.299,1,0.399v0.399h-5.6v-0.399c0.399-0.101,0.7-0.2,0.899-0.5c0.101-0.2,0.2-0.7,0.2-1.5v-4.899
	c0-0.9,0-1.5-0.1-1.701c-0.101-0.199-0.2-0.399-0.4-0.5c-0.2-0.1-0.399-0.199-0.6-0.199c-0.7,0-1.3,0.5-1.9,1.5v6
	c0,0.8,0.101,1.4,0.2,1.6c0.2,0.2,0.4,0.4,0.9,0.4v0.4h-5.601v-0.4c0.5,0,0.8-0.2,1-0.5c0.101-0.2,0.2-0.7,0.2-1.5v-6.301
	c0-0.799-0.1-1.399-0.2-1.6c-0.2-0.199-0.5-0.3-1-0.4v-0.399h4.5V571.513z"/>
<path fill="#FFFFFF" d="M186.801,571.513v1.5c0.6-0.699,1.2-1.1,1.7-1.4c0.5-0.299,1.1-0.399,1.699-0.399c0.7,0,1.301,0.2,1.801,0.5
	s0.899,0.8,1.1,1.5c0.6-0.7,1.2-1.2,1.8-1.5c0.601-0.3,1.2-0.5,1.8-0.5c0.8,0,1.4,0.2,1.8,0.5c0.5,0.3,0.801,0.8,1,1.3
	c0.2,0.5,0.301,1.4,0.301,2.6v4.601c0,0.899,0.1,1.399,0.199,1.601c0.2,0.199,0.5,0.299,1,0.399v0.399h-5.699v-0.399
	c0.5,0,0.8-0.2,1-0.5c0.1-0.2,0.199-0.7,0.199-1.5v-4.8c0-1,0-1.6-0.1-1.9c-0.1-0.3-0.2-0.5-0.4-0.6c-0.199-0.1-0.399-0.2-0.6-0.2
	c-0.3,0-0.7,0.101-1,0.399c-0.4,0.201-0.7,0.601-1.1,1.101v6c0,0.8,0.1,1.3,0.199,1.5c0.2,0.3,0.5,0.5,1,0.5v0.399h-5.8v-0.399
	c0.3,0,0.601-0.101,0.7-0.2c0.2-0.1,0.3-0.3,0.4-0.5c0.1-0.199,0.1-0.6,0.1-1.3v-4.8c0-1,0-1.6-0.1-1.9c-0.101-0.3-0.2-0.5-0.4-0.6
	s-0.399-0.2-0.6-0.2c-0.3,0-0.601,0.101-0.9,0.2c-0.399,0.199-0.8,0.699-1.2,1.3v6c0,0.8,0.101,1.3,0.2,1.601
	c0.2,0.199,0.5,0.399,1,0.399v0.399h-5.7v-0.399c0.5,0,0.8-0.2,1-0.5c0.101-0.2,0.2-0.7,0.2-1.5v-6.3c0-0.801-0.1-1.4-0.2-1.6
	c-0.1-0.201-0.5-0.301-1-0.4v-0.4H186.801L186.801,571.513z"/>
<path fill="#FFFFFF" d="M211.001,576.713h-6.101c0.101,1.5,0.5,2.601,1.2,3.5c0.5,0.7,1.2,1,2,1c0.5,0,0.9-0.101,1.3-0.399
	c0.4-0.301,0.8-0.801,1.2-1.4l0.4,0.3c-0.601,1.2-1.301,2.101-2,2.601c-0.7,0.5-1.601,0.799-2.5,0.799c-1.601,0-2.9-0.6-3.7-1.899
	c-0.7-1-1-2.3-1-3.8c0-1.9,0.5-3.301,1.5-4.4s2.2-1.699,3.5-1.699c1.1,0,2.1,0.5,2.899,1.399
	C210.401,573.513,210.901,574.913,211.001,576.713L211.001,576.713z M208.001,575.913c0-1.301-0.101-2.2-0.2-2.6
	c-0.101-0.5-0.3-0.801-0.601-1.101c-0.2-0.101-0.399-0.2-0.7-0.2c-0.399,0-0.8,0.2-1,0.6c-0.5,0.701-0.699,1.701-0.699,2.9v0.4
	H208.001L208.001,575.913z"/>
<path fill="#FFFFFF" d="M215.901,571.513v1.4c0.601-0.6,1.101-1.1,1.601-1.301c0.5-0.299,1.1-0.399,1.699-0.399
	c0.7,0,1.301,0.2,1.801,0.601c0.5,0.399,0.8,0.899,1,1.5c0.1,0.5,0.199,1.299,0.199,2.6v4.3c0,0.899,0.101,1.399,0.2,1.601
	c0.2,0.199,0.5,0.299,1,0.399v0.399h-5.6v-0.399c0.399-0.101,0.7-0.2,0.899-0.5c0.101-0.2,0.2-0.7,0.2-1.5v-4.899
	c0-0.9,0-1.5-0.1-1.701c-0.101-0.199-0.2-0.399-0.4-0.5c-0.2-0.1-0.399-0.199-0.6-0.199c-0.7,0-1.3,0.5-1.9,1.5v6
	c0,0.8,0.101,1.4,0.2,1.6c0.2,0.2,0.4,0.4,0.9,0.4v0.4h-5.601v-0.4c0.5,0,0.8-0.2,1-0.5c0.101-0.2,0.2-0.7,0.2-1.5v-6.301
	c0-0.799-0.1-1.399-0.2-1.6c-0.2-0.199-0.5-0.3-1-0.4v-0.399h4.5V571.513z"/>
<path fill="#FFFFFF" d="M228.101,567.513v4.1h2.6v1.201h-2.6v6.899c0,0.601,0,1.101,0.1,1.2c0.101,0.199,0.2,0.3,0.301,0.5
	c0.1,0.1,0.3,0.199,0.399,0.199c0.5,0,1-0.399,1.5-1.199l0.4,0.3c-0.601,1.5-1.7,2.3-3.101,2.3c-0.7,0-1.3-0.199-1.8-0.6
	s-0.8-0.801-0.899-1.301c-0.101-0.299-0.101-1-0.101-2.199v-6h-1.5v-0.6c1-0.701,1.8-1.4,2.5-2.201c0.7-0.799,1.3-1.6,1.8-2.6
	H228.101L228.101,567.513z"/>
<path fill="#FFFFFF" d="M99.208,530.876c-0.101,0.101-0.2,0.2-0.301,0.3"/>
<path fill="#FFFFFF" d="M102.008,509.076c0.3,0,0.6-0.301,0.6-0.6c0-0.301-0.3-0.601-0.6-0.601s-0.601,0.3-0.601,0.601
	C101.407,508.876,101.708,509.076,102.008,509.076L102.008,509.076z"/>
<path fill="#FFFFFF" d="M129.008,484.477L129.008,484.477h-21l0,0l0,0v17c0,1.6,0.7,3.1,1.6,3.5l8.101,4.799
	c0.199,0.201,0.399,0.301,0.699,0.301c0.301,0,0.5-0.1,0.7-0.301l8.2-4.899c1-0.399,1.6-1.899,1.6-3.5L129.008,484.477
	L129.008,484.477L129.008,484.477z M115.008,489.376h-1.8v-4.3h1.8V489.376L115.008,489.376z M113.708,490.876l0.3-0.3l-0.2-0.301
	h0.3l0.2-0.399l0.2,0.399h0.3l-0.2,0.301l0.3,0.3l-0.3,0.101v0.399l-0.3-0.2l-0.3,0.2v-0.399L113.708,490.876L113.708,490.876z
	 M108.608,496.275v-4.1h2.2v4.1H108.608L108.608,496.275z M109.008,490.376h0.3l0.2-0.399l0.2,0.399h0.3l-0.2,0.3l0.3,0.301h-0.3
	v0.399l-0.3-0.2l-0.3,0.2v-0.399l-0.301-0.101l0.301-0.3L109.008,490.376L109.008,490.376z M111.407,494.576h0.301l0.199-0.4
	l0.2,0.4h0.3l-0.199,0.3l0.3,0.3l-0.3,0.1v0.4l-0.301-0.199l-0.3,0.199v-0.4l-0.3-0.1l0.3-0.3L111.407,494.576L111.407,494.576z
	 M112.907,491.176c0-0.1-0.199-0.1-0.199-0.1c-0.2,0-0.301,0.3-0.4,0.3s-0.2,0-0.2-0.101c0-0.1,0.3-0.199,0.3-0.299
	c-1.399,0-1.399,0.6-1.6,0.6c-0.4,0,0.3-0.7,0.5-0.801c-0.3,0-0.4-0.399-0.7-0.6c0.101-0.199,0.2-0.1,0.4,0c0-0.1,0.1-0.3,0.399-0.3
	c0.601,0,0.4,0.601,0.5,0.601c0.101,0,0-0.601,0.4-0.601c0.6,0,1.4,1.601,0.7,1.601
	C112.708,491.477,112.907,491.275,112.907,491.176L112.907,491.176z M111.308,486.676l0.3-0.3l-0.2-0.3h0.301l0.199-0.4l0.2,0.4h0.3
	l-0.199,0.3l0.3,0.3l-0.3,0.1v0.4l-0.301-0.199l-0.3,0.199v-0.4L111.308,486.676L111.308,486.676z M110.808,485.076v4.3h-2.2v-4.3
	H110.808L110.808,485.076z M115.008,507.477l-5-3c-0.8-0.601-1.3-1.601-1.4-2.801v-4.8h6.4V507.477L115.008,507.477z
	 M113.208,496.275v-4.1h1.8v4.1H113.208L113.208,496.275z M121.407,507.775l-2.3,1.4l0,0c-0.2,0.1-0.399,0.2-0.6,0.2
	s-0.5-0.101-0.601-0.2l-2.3-1.4v-10.899h5.9v10.899H121.407z M121.407,496.275h-5.899v-11.199h5.899V496.275L121.407,496.275z
	 M128.407,501.676c-0.1,1.2-0.5,2.2-1.399,2.801l-5,3v-10.601h6.399V501.676L128.407,501.676z M128.407,496.275h-6.399v-11.199
	h6.399V496.275L128.407,496.275z"/>
<path fill="#FFFFFF" d="M114.608,500.775c0-0.1-0.8,0.301-0.6,0.201c0-0.201,0.399-0.701,0.6-0.9c0-0.301-0.399,0-0.7,0.199
	c1.2-1.699,0.4-1-0.199-0.899c1.1-1.101,0.8-1.101,0-0.8c0.6-0.5,0.8-1.1,0.699-1.2c-0.6,0.8-1.1,0.7-1.1,1.399
	c0,0.5-0.2,1.201-0.4,1.5c-0.3,0.301-0.1-1.299-0.899-1.299c-0.3,0-0.9,0-1.101,0.299c0.2,0,0.4,0.4,0.4,0.601s0.2,0.601-0.1,0.601
	c-0.301,0-0.601-0.601-0.601-0.9c0-0.301,0-0.2,0-0.6c0-0.701-1.1-1.601-1.6-1.601c0,0.5,0.6,0.601,0.6,1.2c-0.3,0-0.6-0.5-0.6-0.2
	s0.399,0.399,0.399,0.601c0,0.299-0.399-0.101-0.399,0.199c0,0.2,0.2,0.2,0.3,0.4c-0.2,0-0.3,0-0.4,0.1c0,0.1,0.101,0.2,0.2,0.301
	c-0.1,0.1-0.1,0.199-0.1,0.6c0,1.3,0.8,2,1.5,2c0.399,0,0.399-0.301,0.399-0.5c0,0.199,0.2-0.1,0.2,0.3s-0.399,0.2-0.399,0.601
	c0,0.5,0.699,0,0.699,0.5c0,0.6-0.1,0.6-0.1,0.899c0,0.2,0.7-0.2,0.7-0.3c0.2,0.1,0.2,0.6,0.5,0.5c0.2,0,0.2-0.5,0.399-0.6
	c-0.1,0,0.601,0.5,0.601,0.199c0-0.6-0.3-0.4-0.3-0.8s0.899-0.3,0.699-0.5c-0.1-0.2-0.199-0.101-0.3-0.399c0,0.1-0.7-1,0.101-0.5
	C114.608,502.775,114.708,500.876,114.608,500.775L114.608,500.775z"/>
<path fill="#FFFFFF" d="M137.008,505.176c0.399,0,0.7-0.3,0.7-0.6c0-0.301-0.301-0.6-0.7-0.6c-0.4,0-0.7,0.299-0.7,0.6
	C136.308,504.977,136.608,505.176,137.008,505.176L137.008,505.176z"/>
<path fill="#FFFFFF" d="M134.208,506.876c0.399,0,0.699-0.3,0.699-0.601c0-0.299-0.3-0.6-0.699-0.6c-0.4,0-0.7,0.301-0.7,0.6
	C133.508,506.576,133.907,506.876,134.208,506.876L134.208,506.876z"/>
<path fill="#FFFFFF" d="M101.108,510.676c0.4,0,0.7-0.3,0.7-0.6c0-0.301-0.3-0.6-0.7-0.6c-0.399,0-0.7,0.299-0.7,0.6
	C100.407,510.376,100.708,510.676,101.108,510.676L101.108,510.676z"/>
<path fill="#FFFFFF" d="M103.208,510.876c0.399,0,0.699-0.3,0.699-0.601c0-0.299-0.3-0.6-0.699-0.6c-0.4,0-0.7,0.301-0.7,0.6
	C102.508,510.576,102.808,510.876,103.208,510.876L103.208,510.876z"/>
<path fill="#FFFFFF" d="M162.907,481.876c1,1.2,1.2,3.2,0.5,4.601c-0.399,0-0.3-0.601-0.399-0.801c-0.7-1.4-1.3-3.1-0.7-4.6
	C162.907,481.076,162.708,481.676,162.907,481.876L162.907,481.876z"/>
<path fill="#FFFFFF" d="M75.308,483.576c-0.2,0.9-0.2,2.1,0,2.9c-0.2,0.199-0.1-0.201-0.3-0.101c-1.4-1-0.8-3.101-1.101-4.5
	c0.101-0.101,0.301-0.101,0.4-0.101C74.907,482.176,75.108,482.876,75.308,483.576L75.308,483.576z"/>
<path fill="#FFFFFF" d="M166.108,483.676c0.2,0.4-0.2,0.801-0.5,1c-0.3,0.1-0.7-0.1-0.899-0.4c-0.101-0.399,0.1-0.799,0.399-1
	C165.508,483.275,165.907,483.376,166.108,483.676L166.108,483.676z"/>
<path fill="#FFFFFF" d="M73.108,485.275c-0.1,0.301-0.2,0.701-0.5,0.801c-0.2,0-0.5,0-0.7-0.2c-0.199-0.2-0.3-0.5-0.1-0.8
	c0.1-0.301,0.4-0.301,0.7-0.301C72.708,484.977,73.008,484.977,73.108,485.275L73.108,485.275z"/>
<path fill="#FFFFFF" d="M167.508,485.977c0.1,0.199,0.1,0.399,0,0.6c-0.3,0.3-0.601,0.5-1,0.3c-0.3-0.101-0.3-0.399-0.4-0.601
	c0.101-0.299,0.4-0.6,0.601-0.699C167.108,485.576,167.308,485.775,167.508,485.977L167.508,485.977z"/>
<path fill="#FFFFFF" d="M165.407,485.977c0.301,0.1,0.101,0.5,0,0.699c-0.199,0.2-0.399,0.5-0.8,0.4c-0.2-0.2-0.399-0.2-0.5-0.4
	c0-0.4,0.101-0.699,0.5-0.8C165.008,485.676,165.208,485.876,165.407,485.977L165.407,485.977z"/>
<path fill="#FFFFFF" d="M162.808,486.576c0,0.4,0,0.9-0.4,1c-0.399,0.1-0.699-0.2-0.8-0.5c0-0.4,0.2-0.7,0.5-0.9
	C162.308,486.076,162.608,486.275,162.808,486.576L162.808,486.576z"/>
<path fill="#FFFFFF" d="M77.008,486.676c0.1,0.4-0.3,0.6-0.5,0.801c-0.3,0.1-0.601-0.101-0.7-0.4c-0.3-0.301,0.1-0.5,0.1-0.7
	C76.407,486.076,76.907,486.275,77.008,486.676L77.008,486.676z"/>
<path fill="#FFFFFF" d="M74.907,486.876c0,0.3-0.1,0.601-0.399,0.7s-0.601-0.1-0.7-0.301c-0.2-0.399,0-0.699,0.3-0.799
	C74.508,486.176,74.708,486.576,74.907,486.876L74.907,486.876z"/>
<path fill="#FFFFFF" d="M153.907,486.977c0.4,0.799,0.7,1.699,0.7,2.699c-0.1,0.7,0.101,1.6-0.399,2.1c-0.5-0.199-0.5-0.799-0.9-1.1
	c-0.7-1.3-0.1-2.8,0.1-4.1C153.808,486.376,153.808,486.775,153.907,486.977L153.907,486.977z"/>
<path fill="#FFFFFF" d="M73.108,487.376c0.101,0.399-0.2,0.7-0.5,0.899c-0.399,0.101-0.7-0.199-0.899-0.5
	c0-0.399,0.199-0.699,0.5-0.899C72.608,486.876,73.008,487.076,73.108,487.376L73.108,487.376z"/>
<path fill="#FFFFFF" d="M159.708,488.477c0.5,1.1,0.5,2.399,0.199,3.5l-0.199,0.199c-0.5-1-1.2-1.9-1.5-3c0-0.8,0.1-1.5,0.399-2.1
	c0.3-0.2,0.4,0,0.5,0.3C159.108,487.775,159.308,488.275,159.708,488.477L159.708,488.477z"/>
<path fill="#FFFFFF" d="M164.308,487.775c0,0.4-0.2,0.801-0.6,0.9c-0.4,0.1-0.7,0-0.801-0.4c-0.1-0.399,0.101-0.699,0.4-0.899
	C163.708,487.176,164.108,487.576,164.308,487.775L164.308,487.775z"/>
<path fill="#FFFFFF" d="M74.907,488.977c0,0.299-0.3,0.6-0.5,0.699c-0.3,0.2-0.5-0.1-0.8-0.3c-0.1-0.3-0.2-0.601,0-0.8
	c0.101-0.2,0.4-0.2,0.601-0.301C74.508,488.477,74.808,488.576,74.907,488.977L74.907,488.977z"/>
<path fill="#FFFFFF" d="M76.508,488.775c0.1,0.4-0.3,0.601-0.4,0.701c-0.399,0.1-0.7-0.201-0.8-0.4c-0.1-0.4,0.1-0.6,0.4-0.801
	C76.108,488.176,76.308,488.477,76.508,488.775L76.508,488.775z"/>
<path fill="#FFFFFF" d="M165.308,488.676c0,0.5-0.8,1-0.8,1.4c-0.4,1-1.3,1.699-2.3,2.1c-0.2,0.2-0.5,0.4-0.801,0.5
	c-0.1-0.699,0.601-1.4,1-2.1C163.108,489.576,164.208,488.977,165.308,488.676L165.308,488.676z"/>
<path fill="#FFFFFF" d="M74.208,490.176c0.5,0.6,0.8,1.2,1.5,1.7c0,0.101-0.101,0.399-0.301,0.399c-1.8-0.1-3-2-3.899-3.199
	c0.1-0.4,0.6-0.1,0.8-0.1C73.008,489.477,73.708,489.576,74.208,490.176L74.208,490.176z"/>
<path fill="#FFFFFF" d="M165.808,490.775c-0.1,1.601-0.8,3.201-2.3,4c-0.4,0.101-0.8,0.601-1.2,0.301c0.8-1.6,1.9-2.9,3.2-4.301
	H165.808L165.808,490.775z"/>
<path fill="#FFFFFF" d="M158.808,491.775c0.1,0.601-0.2,0.9-0.6,1.101c-0.4,0-0.7-0.3-0.801-0.601c0-0.399,0.2-0.699,0.5-0.799
	c0.101-0.101,0.301-0.101,0.4-0.101C158.508,491.477,158.608,491.576,158.808,491.775L158.808,491.775z"/>
<path fill="#FFFFFF" d="M72.108,492.176c0.7,0.5,1.3,1.1,2,1.7c-0.5,0.3-1.1,0-1.6,0c-1.2-0.399-2.101-1.5-3.4-1.899
	c0-0.4,0.5-0.301,0.8-0.4C70.708,491.576,71.407,491.977,72.108,492.176L72.108,492.176z"/>
<path fill="#FFFFFF" d="M111.407,481.176c-2.1-0.8-3.399,1.301-5.5,1.1c-0.3,0.101-0.199,0.4-0.3,0.601c-0.1,0.101-0.3,0-0.399,0
	c-0.101-0.899-0.4-1.7-0.5-2.5c-0.2-0.399-0.101-0.899-0.301-1.3c-1.199-3.2,2.9-0.801,3.7-2.7c0.7-1.601-1.399-1.8-2-3v-0.399
	c-0.6-0.601-1.2-0.801-1.6-1.5c0.3-0.9,0.399-1.9,0.1-2.801c0-0.199-0.2-0.5-0.5-0.4c-0.7,1-1.2,1.701-1.899,2.701
	c-0.7-0.5-1.4-1.201-2.2-1.601c-0.601-0.101-1.101-0.601-1.7-0.399c-0.1,0.199,0,0.399,0.1,0.6c0,1.4,0.801,2.6,1.801,3.6l0.1,0.6
	c-0.7,1.5-0.5,3.201-0.7,4.9c-1.6,4.2-4.3,8.301-7.899,11.2c-2.101,2.399-4.601,4.601-4.9,7.899c-0.1,0.5,0.1,1.101-0.3,1.5
	c-1.2-0.399-2.4-1-3.4-1.799c-1.7-1.201-4.1-1-5.2-3.201c-0.399-0.799,0.101-1.699,0.5-2.299c1.2-1.201,1.101-3.301,0.4-4.701
	c-0.1,0-0.2,0.101-0.3,0.201c-0.101,2.199-1.8,3.699-1.2,6.1c0.1,0.699,0.5,1.1,0.7,1.8c-0.3-0.101-0.601-0.101-0.8-0.2
	c-0.801-0.1-1.601-0.4-2.5-0.3c-1.7,0.8-4-0.2-5.301,1.399c-0.199,0-0.5,0.101-0.399,0.4c0.8,0,1.6,0.2,2.399,0.2
	c1.301,0.2,2.101-0.8,3-1.3h0.2c0.4-0.4,1-0.1,1.5-0.2c2.3,0.3,4.101,1.399,6,2.5v0.101c-0.7,0.299-1.6,0.6-2.3,1
	c-0.8,0.6-1.8,1.399-2,2.5c-0.6,0.899,0.2,1.699,0.5,2.5c0,0.399,0.1,0.799,0.4,1c1.199-1.301,0.1-2.801,0.3-4.201
	c0.3-1.1,1.3-1.6,2.399-1.899c2.101-0.899,3.601,0.8,5.301,1.8c0,1.7,0.199,3.301-0.2,5c-0.5,0.2-1.2,0.301-1.7,0.301
	c-2.9,0.199-5.2,1.799-7.8,2.699c-1.2,0.4-2.601,0.4-3.7,0.801c0.9,0.299,1.9-0.101,2.8-0.101c3.601-0.5,6.3-3.3,10.2-2.8l0.1,0.1
	c-0.399,0.9-1,1.7-1.699,2.4c-0.101-0.4-0.101-0.7-0.5-1c-0.301-0.1-0.601,0-0.801,0.3c-0.1,0.2-0.1,0.399,0,0.601
	c0.2,0.299,0.5,0.399,0.801,0.5c-0.101,0.299-0.5,0.5-0.7,0.799c-1,1.701-3.101,1-4.3,2.201c-0.2,0.299-0.801,0.399-0.5,0.799
	c1.399,0.101,2.699-0.199,3.8-1c1.399-1.5,2.8-2.899,4.1-4.399c0.2,1.2-0.1,2.399-0.8,3.399c-0.3-0.199-0.6-0.399-1-0.6
	c-0.4,0.1-0.6,0.4-0.7,0.7c0.101,0.3,0.3,0.601,0.5,0.7c-1.2,0.9-2.8,1-4.2,1.4c-2.699,0.299-5.3,0.6-8,0.6c-1.3-0.1-2.699,0.4-4,0
	c-1.399,0.3-2.899-0.2-4,0.6c-0.1,0.2,0,0.4,0,0.5c1.7,1.1,4,0.2,5.9,0.6h14.4c1.1,0,2.1-0.1,3-0.6c1.899-1.1,2.899-3,3.8-4.9
	c0.399-0.699,0.6-1.399,0.8-2.199c0.4-1.301,1.5-2.1,2.7-2.2c0.2,1.899-0.2,3.8-0.601,5.601c-0.199,1.199-1,2.299-0.5,3.6
	c0.101,0.6,0.7,0.6,1.2,0.699c4.4-0.1,8.9-0.299,13.5,0.101c0.8,0.101,1.601,0.399,2.5,0.399c0.101-0.1,0.3-0.1,0.2-0.399
	c-0.1-0.399-0.4-0.899-0.9-1c-0.1-0.2-0.399-0.101-0.5-0.3c-2.3-1.301-5.199-0.6-7.899-0.6c-1.4,0.199-2.9,0.399-4.101-0.4
	c-0.5-0.7-0.1-2.801-0.1-2.801c0-0.799,2-6.6,2.3-7.1c0.101-0.6,0.3-1.1,0.2-1.699c0.3-0.701,0.2-1.701,0.2-2.5
	c0.1-1.201,0.7-2.301,1.1-3.4c0.2-0.6,0.4-1.1,0.601-1.7c0.199-0.7,0.3-1.399,0.699-1.899c1.2,0.799,2.4,0.699,2.9,2.1l0.5,3.1
	c0,0.2,0.1,0.6,0.4,0.301c1-0.601,0.699-2,0.699-3c0.2-1.101-0.6-1.701-0.899-2.701c-0.3-0.199-0.7-1.1-0.7-1.1
	c-0.1-0.8-1.9-1.4-1.5-2.4c0.2-0.799,0.4-1.6,1.2-2.1c0.1,0.1,0.2,0.2,0.2,0.301l0.399-0.301v-3.1c1.2,0,3,0.1,4.2,0.1
	c0.3,0.1,0.6,0.4,1,0.4l0.3-0.4l3-0.6C113.308,482.676,112.608,481.176,111.407,481.176L111.407,481.176z"/>
<path fill="#FFFFFF" d="M114.608,482.576c0.101,0,0.2,0,0.3-0.1L114.608,482.576L114.608,482.576z"/>
<path fill="#FFFFFF" d="M82.708,492.775c0,0.4-0.2,0.701-0.5,0.801c-0.301-0.1-0.5-0.1-0.7-0.4c-0.101-0.4,0.2-0.699,0.5-0.8
	C82.208,492.477,82.608,492.477,82.708,492.775L82.708,492.775z"/>
<path fill="#FFFFFF" d="M80.308,492.775c0.2,0.201,0.3,0.601,0.1,0.801c-0.3,0.199-0.699,0.4-0.899,0.1c-0.2-0.199-0.4-0.5-0.3-0.8
	C79.608,492.676,80.008,492.477,80.308,492.775L80.308,492.775z"/>
<path fill="#FFFFFF" d="M131.308,493.176C131.308,493.176,131.308,493.275,131.308,493.176"/>
<path fill="#FFFFFF" d="M159.208,493.876c0.1,0.399-0.2,0.7-0.5,0.8c-0.4-0.1-0.801-0.199-0.801-0.699c0-0.301,0.301-0.5,0.5-0.601
	C158.708,493.376,159.008,493.576,159.208,493.876L159.208,493.876z"/>
<path fill="#FFFFFF" d="M161.108,493.775c0.101,0.201,0.4,0.5,0.101,0.701c-0.101,0.1-0.301,0.1-0.4,0.299
	c-0.4,0.101-0.8-0.1-0.9-0.399c-0.1-0.399,0.301-0.601,0.5-0.8C160.708,493.376,160.907,493.576,161.108,493.775L161.108,493.775z"
	/>
<path fill="#FFFFFF" d="M71.108,494.176c-0.1,0.4-0.5,0.6-1,0.5c-0.1-0.1-0.2-0.3-0.3-0.5c0-0.3,0.1-0.5,0.4-0.6
	C70.708,493.576,71.008,493.775,71.108,494.176L71.108,494.176z"/>
<path fill="#FFFFFF" d="M83.508,494.876c0,0.3-0.4,0.601-0.601,0.7c-0.399,0-0.6-0.301-0.8-0.5c0-0.301,0.101-0.7,0.4-0.7
	C82.907,494.076,83.308,494.376,83.508,494.876L83.508,494.876z"/>
<path fill="#FFFFFF" d="M81.308,494.576c0.1,0.1,0.2,0.4,0.1,0.6c-0.199,0.2-0.5,0.5-0.899,0.301c-0.2-0.201-0.5-0.301-0.4-0.701
	c0.101-0.1,0.3-0.399,0.5-0.399C80.907,494.275,81.108,494.376,81.308,494.576L81.308,494.576z"/>
<path fill="#FFFFFF" d="M166.708,494.977c0,0.299-0.301,0.6-0.5,0.699c-0.301,0.1-0.601,0-0.801-0.199
	c-0.199-0.101-0.1-0.4-0.1-0.601c0.2-0.3,0.4-0.399,0.7-0.5C166.308,494.576,166.508,494.775,166.708,494.977L166.708,494.977z"/>
<path fill="#FFFFFF" d="M169.008,495.376c-0.101,0.3-0.4,0.601-0.7,0.7c-0.2,0-0.6-0.1-0.5-0.4c0-0.3,0.1-0.5,0.3-0.6
	C168.508,494.775,168.907,494.977,169.008,495.376L169.008,495.376z"/>
<path fill="#FFFFFF" d="M75.308,495.876c0.1,0.399-0.1,0.7-0.4,0.899c-0.3,0.101-0.5,0-0.699-0.199c-0.2-0.2-0.301-0.5-0.2-0.7
	c0.1-0.3,0.399-0.3,0.6-0.399C74.907,495.477,75.108,495.576,75.308,495.876L75.308,495.876z"/>
<path fill="#FFFFFF" d="M77.108,496.176c0.101,0.301-0.2,0.4-0.3,0.6c-0.2,0.101-0.4,0.201-0.7,0.101c-0.3-0.2-0.5-0.601-0.3-0.899
	C76.108,495.477,76.907,495.775,77.108,496.176L77.108,496.176z"/>
<path fill="#FFFFFF" d="M164.508,495.977c0,0.399-0.3,0.6-0.5,0.799c-0.3,0.101-0.7-0.1-0.7-0.399s0.1-0.5,0.4-0.7
	C164.008,495.676,164.407,495.676,164.508,495.977L164.508,495.977z"/>
<path fill="#FFFFFF" d="M167.508,496.576c-0.101,0.3,0,0.699-0.4,0.9c-0.3,0.1-0.7,0-0.899-0.101c-0.2-0.2-0.301-0.5-0.101-0.8
	c0.2-0.301,0.5-0.5,0.9-0.4C167.308,496.275,167.308,496.477,167.508,496.576L167.508,496.576z"/>
<path fill="#FFFFFF" d="M73.907,497.376c0.101,0.3-0.199,0.399-0.3,0.5c-0.3,0.101-0.5,0-0.7-0.101c-0.3-0.1-0.1-0.5-0.1-0.699
	C73.108,496.477,73.808,496.977,73.907,497.376L73.907,497.376z"/>
<path fill="#FFFFFF" d="M165.208,498.076c0.1,0,0.1,0.3,0,0.3c-0.9,0.399-2.2,0.601-3-0.101c-0.4-0.399-1-0.5-1.5-0.799
	c0.199-0.5,0.8-0.4,1.3-0.601C163.208,497.076,164.108,498.076,165.208,498.076L165.208,498.076z"/>
<path fill="#FFFFFF" d="M75.708,497.775c0.1,0.301-0.101,0.4-0.2,0.601c-0.101,0.2-0.4,0.101-0.601,0.101
	c-0.3-0.201-0.5-0.601-0.3-0.9C75.008,497.076,75.407,497.376,75.708,497.775L75.708,497.775z"/>
<path fill="#FFFFFF" d="M78.907,497.977c0.101,0.299-0.1,0.6-0.399,0.799c-0.3,0.101-0.5-0.1-0.7-0.1c-0.2-0.3-0.5-0.6-0.2-0.8
	C78.008,497.275,78.608,497.576,78.907,497.977L78.907,497.977z"/>
<path fill="#FFFFFF" d="M121.208,499.477c-0.101,0.699-1.301-0.101-1.101,0.899c0.2,0.7,0.3,1.5,0.7,2.101
	c0.3,0.5,0.2,1.299,0.1,1.899c-0.3,0.5-0.8,0.899-1.399,1.2c-1-0.1-2.601,0.5-3.101-0.801c-0.199-0.6-0.6-1.1-0.6-1.799
	c0.1-0.101,0.2-0.101,0.3-0.201c0-0.199-0.3-0.399-0.2-0.6c1.2-0.199-0.5-1.3,0.5-1.3c0.801,0.899,2.2,0.601,2.9,1.5
	c0.2,0.101,0.3,0.399,0.5,0.5c-0.1-0.899-0.6-1.8-0.7-2.7c-0.1-0.5,0.101-0.9,0.4-1.199
	C120.308,498.477,120.907,499.176,121.208,499.477L121.208,499.477z"/>
<path fill="#FFFFFF" d="M82.108,499.275c0.101,0.4-0.2,0.601-0.399,0.801c-0.301,0.1-0.5-0.2-0.7-0.4
	c-0.101-0.4,0.1-0.6,0.399-0.699C81.708,498.876,82.008,499.076,82.108,499.275L82.108,499.275z"/>
<path fill="#FFFFFF" d="M104.708,499.676c0.399,1.4,0.3,2.9-0.4,4.1c0,0.301,0.1,0.801-0.3,0.701c-1-1.4-0.3-3.301,0.1-4.701
	C104.108,499.477,104.608,499.275,104.708,499.676L104.708,499.676z"/>
<path fill="#FFFFFF" d="M136.008,500.376c0.5,1,0.5,2.399,0.1,3.399l-0.3,0.301c-0.4-0.9-0.7-1.7-0.8-2.6
	c0.2-0.701,0.399-1.301,0.399-2C135.907,499.376,135.907,500.076,136.008,500.376L136.008,500.376z"/>
<path fill="#FFFFFF" d="M85.008,500.775c-0.2,0.4-0.8,0.601-1.2,0.801c-0.9,0.699-2.2,0.8-3.3,0.6c1-1.3,2.399-2.1,4.2-1.699
	C84.708,500.676,84.907,500.576,85.008,500.775L85.008,500.775z"/>
<path fill="#FFFFFF" d="M69.907,502.076c1.4,1,1.7,2.3,2.5,3.6c0.101,0.1,0.5,0.2,0.301,0.5c-0.301,0.2-0.601-0.199-1-0.1
	c-1.4-0.6-2.301-2.2-2.2-3.801C69.508,502.076,69.808,502.076,69.907,502.076L69.907,502.076z"/>
<path fill="#FFFFFF" d="M134.608,503.275c0,0.4,0,0.701-0.3,0.9c-0.4,0.1-0.7-0.1-0.8-0.4c-0.101-0.299,0.1-0.399,0.2-0.6
	C133.907,502.775,134.407,502.876,134.608,503.275L134.608,503.275z"/>
<path fill="#FFFFFF" d="M150.008,505.176c0-0.699,0.2-1.4,0.3-2c0.1-0.199,0.2-0.5,0.1-0.8c0.9-1.2,2.7-0.8,4.101-0.7
	c0.5,0.301,1.2,0.301,1.8,0.4c0.3-0.2,0.6-0.2,0.9-0.2c1.199-0.601,0.399-2,0.5-3.101l-0.4-1.1c-0.1-0.199-0.2-0.5-0.3-0.699
	c-0.2-0.301-0.4-0.701-0.601-1c-0.6-1.601-1.8-2.5-2.899-3.801c-1.9-2.4-4.8-3.8-7.7-4.8s-5.8,0.3-8.4,1.2
	c-0.8-0.2-1.199-0.801-1.399-1.6c-0.101-1.4,0.1-2.801,0.7-3.9c0.1-0.9,0.699-1.6,1-2.5c0.699-2.1,1.399-4.1,1.5-6.301
	c0.1-1.399-1-2.299-2-2.899c-0.7-0.2-1.5-0.101-2,0.399c-0.5,1-1.5,1.701-2.4,2.101c-0.1,0.601,0.7,0.2,1,0.399
	c0.8,0.101,1.7-0.1,2.4,0.4c0.1,1.5-0.801,2.7-1.5,3.801c-1.2,1.799-2.601,3.699-3.301,5.799h-0.3l0.2,9c1.2,1.9,2.6,4.201,4.8,4.9
	c1.2,1,2.601,2.1,4.2,1.301c0.8-0.301,0.9,0.899,1.3,1.399c0.4,1.399-0.5,2.3-0.6,3.601l-1,2c-1.101,2.1-2.101,4.399-3.8,6.199
	c-0.601,0-0.9,0.6-1.4,0.6c-0.3,0.4-0.9,0.101-1.2,0.301c-1.1,0.5-2.7,0.199-3.5,1.3c0.101,0.101,0.2,0.101,0.3,0.2
	c2.2,0,4.7,0.199,7.101,0.1c0.3-0.1,0.6-0.4,0.6-0.699c-0.3-0.601,0.101-1.201,0.4-1.701c0.2-0.899,0.8-1.399,1-2.299
	c0.8-1.5,1.6-3,2.5-4.5l1.1-1.801c0.3-0.6,0.7-1.4,1.101-2.1c0.3-0.301,0.399-0.6,0.699-1c0-0.4-0.1-0.5-0.399-0.801
	c0.3-0.299,0.7-0.199,1-0.299c0.899,0.6,1.899,1.399,2,2.399l0.3,1l0.1,0.399l0.101,1.201l0.1,1.1c0.2,1.8-0.1,3.6-0.3,5.4
	c-0.6,2.1-3.1,1.899-4.8,2.399c-0.4,0.3-1.3,0.101-1.3,0.899c2.1,0.4,4.6,0.201,6.899,0.101c0.4-0.101,0.4-0.5,0.601-0.8
	c0.1-0.5,0.5-0.9,0.399-1.4c-0.399-0.5,0-1.3-0.1-2c0.1-0.199,0.1-0.4,0-0.699c0.3-1.101,0.2-2.4,0.399-3.4L150.008,505.176
	L150.008,505.176z"/>
<path fill="#FFFFFF" d="M168.108,503.775c-1.2,1.701-2.399,3.5-4.5,4.101c-0.1,0-0.3,0.101-0.399-0.101
	c1.199-1.299,1.899-3.399,3.8-3.899C167.407,503.775,167.808,503.576,168.108,503.775L168.108,503.775z"/>
<path fill="#FFFFFF" d="M68.108,505.576c-0.2,0.1,0,0.5-0.399,0.5c-0.301,0.1-0.601,0-0.801-0.301
	c-0.1-0.399,0.301-0.799,0.601-0.799C67.808,505.076,68.008,505.176,68.108,505.576L68.108,505.576z"/>
<path fill="#FFFFFF" d="M78.708,506.076c0.1,0.3-0.301,0.3-0.4,0.4c-1.5,0.6-3.1,0-4.2-1.101c0-0.101,0-0.3,0.101-0.3
	C75.708,505.477,77.407,505.176,78.708,506.076L78.708,506.076z"/>
<path fill="#FFFFFF" d="M70.108,505.576c0.101,0.1,0.101,0.4,0.101,0.6c-0.2,0.301-0.5,0.4-0.9,0.301c-0.2-0.101-0.3-0.301-0.5-0.5
	c0-0.4,0.3-0.601,0.6-0.701C69.708,505.376,69.907,505.376,70.108,505.576L70.108,505.576z"/>
<path fill="#FFFFFF" d="M104.407,505.775c0.101,0.301-0.199,0.601-0.399,0.701c-0.3,0.1-0.601-0.101-0.8-0.301
	c-0.101-0.3,0-0.6,0.3-0.699C103.808,505.376,104.308,505.477,104.407,505.775L104.407,505.775z"/>
<path fill="#FFFFFF" d="M169.407,505.876c0.101,0.399-0.199,0.601-0.5,0.8c-0.199,0.1-0.5,0-0.699-0.1c0-0.2-0.301-0.301-0.2-0.6
	c0.1-0.301,0.5-0.5,0.8-0.4S169.308,505.775,169.407,505.876L169.407,505.876z"/>
<path fill="#FFFFFF" d="M171.907,505.775c0.2,0.301,0,0.601-0.1,0.801c-0.1,0.3-0.4,0.3-0.7,0.199c-0.2-0.199-0.5-0.299-0.5-0.699
	c0-0.301,0.3-0.5,0.5-0.6C171.407,505.376,171.608,505.775,171.907,505.775L171.907,505.775z"/>
<path fill="#FFFFFF" d="M66.608,506.876c0,0.3-0.2,0.399-0.3,0.601c-0.2,0.1-0.4,0.199-0.6,0.1c-0.301-0.1-0.4-0.301-0.5-0.6
	c0.1-0.301,0.3-0.601,0.699-0.701C66.108,506.376,66.508,506.477,66.608,506.876L66.608,506.876z"/>
<path fill="#FFFFFF" d="M143.708,506.876c0.1,0.101,0,0.3,0,0.5c-0.2,0.3-0.5,0.601-0.9,0.399c-0.2-0.199-0.5-0.399-0.4-0.799
	C142.808,506.477,143.407,506.376,143.708,506.876L143.708,506.876z"/>
<path fill="#FFFFFF" d="M72.508,507.376c-0.101,0.3-0.2,0.5-0.5,0.601c-0.3,0-0.4-0.301-0.601-0.4c0-0.301,0-0.7,0.301-0.9
	C72.108,506.576,72.508,506.876,72.508,507.376L72.508,507.376z"/>
<path fill="#FFFFFF" d="M69.008,507.477c0.1,0.399-0.101,0.6-0.4,0.799c-0.399,0.101-0.8-0.199-1-0.5c0-0.299,0.3-0.699,0.7-0.799
	C68.608,506.876,68.808,507.275,69.008,507.477L69.008,507.477z"/>
<path fill="#FFFFFF" d="M146.108,507.376c0.101,0.399,0,0.7-0.399,0.899c-0.4,0.101-0.801-0.199-1-0.5
	c0.199-0.299,0.199-0.699,0.699-0.799C145.708,506.977,145.907,507.176,146.108,507.376L146.108,507.376z"/>
<path fill="#FFFFFF" d="M70.708,507.576c0.1,0.3-0.101,0.4-0.2,0.6c-0.2,0-0.3,0.2-0.5,0.1c-0.101-0.199-0.4-0.299-0.5-0.5
	c0-0.399,0.2-0.6,0.5-0.699C70.407,506.977,70.608,507.275,70.708,507.576L70.708,507.576z"/>
<path fill="#FFFFFF" d="M167.407,507.876c-0.1,0.3-0.3,0.399-0.6,0.601c-0.3,0.1-0.5-0.201-0.7-0.301s-0.1-0.5,0-0.699
	C166.407,506.876,167.407,507.176,167.407,507.876L167.407,507.876z"/>
<path fill="#FFFFFF" d="M170.208,507.977c-0.101,0.399-0.5,0.6-0.9,0.6c-0.3-0.1-0.7-0.4-0.4-0.801c0.101-0.1,0.2-0.299,0.4-0.299
	C169.808,507.275,170.108,507.576,170.208,507.977L170.208,507.977z"/>
<path fill="#FFFFFF" d="M152.808,508.275c0.2,0.5-0.3,0.601-0.5,0.801c-0.3,0-0.5-0.1-0.7-0.301c-0.1-0.399,0.101-0.799,0.5-1
	C152.407,507.876,152.608,507.977,152.808,508.275L152.808,508.275z"/>
<path fill="#FFFFFF" d="M142.808,508.676c0.2,0.1,0.1,0.301,0.1,0.4c-0.199,0.1-0.5,0.5-0.8,0.3s-0.399-0.399-0.399-0.7
	C141.808,508.275,142.608,508.275,142.808,508.676L142.808,508.676z"/>
<path fill="#FFFFFF" d="M144.808,508.977c0,0.299,0,0.399-0.3,0.6c-0.3,0.3-0.601,0-0.8-0.1c-0.101-0.201-0.101-0.4,0-0.601
	c0.1-0.101,0.3-0.3,0.5-0.3C144.407,508.676,144.708,508.676,144.808,508.977L144.808,508.977z"/>
<path fill="#FFFFFF" d="M82.708,508.977c0.199,0.199,0,0.5-0.101,0.699c-0.2,0.2-0.6,0.4-0.899,0.2
	c-0.4-0.101-0.301-0.601-0.301-0.899c0.2-0.101,0.2-0.301,0.5-0.301C82.308,508.676,82.508,508.775,82.708,508.977L82.708,508.977z"
	/>
<path fill="#FFFFFF" d="M156.708,509.176c0.1,0.4-0.301,0.5-0.5,0.6c-0.4,0.101-0.7-0.199-0.801-0.5c0-0.199,0.2-0.399,0.301-0.6
	C156.208,508.477,156.508,508.876,156.708,509.176L156.708,509.176z"/>
<path fill="#FFFFFF" d="M154.808,509.176c0.1,0.4-0.3,0.6-0.4,0.7c-0.3,0.101-0.6,0.101-0.8-0.2c-0.2-0.1-0.2-0.3-0.2-0.5
	c0.2-0.199,0.301-0.4,0.601-0.5C154.308,508.676,154.608,508.876,154.808,509.176L154.808,509.176z"/>
<path fill="#FFFFFF" d="M171.308,509.576c0.1,0.5-0.6,0.3-0.8,0.4c-1.5,0.899-3.5,0.199-5-0.301c0.1-0.5,0.7-0.3,1-0.5
	c1.6-1,3.2,0.2,4.8,0.301V509.576L171.308,509.576z"/>
<path fill="#FFFFFF" d="M71.108,509.176l-0.1,0.301c-1.4,0.799-3.101,1.399-4.7,0.799l-0.2-0.299c1.4-1,3.101-1.301,4.9-1
	L71.108,509.176L71.108,509.176z"/>
<path fill="#FFFFFF" d="M160.508,509.376c0,0.3-0.101,0.601-0.4,0.7c-0.399,0.1-0.8,0-1-0.4c-0.1-0.3,0.2-0.6,0.5-0.699
	C159.907,508.977,160.308,508.977,160.508,509.376L160.508,509.376z"/>
<path fill="#FFFFFF" d="M77.608,509.576c-0.1,0.3-0.1,0.6-0.399,0.699c-0.4,0.101-0.801-0.199-0.9-0.5c-0.1-0.399,0.2-0.5,0.4-0.699
	C77.108,508.876,77.407,509.176,77.608,509.576L77.608,509.576z"/>
<path fill="#FFFFFF" d="M75.008,509.676c0.1,0.301-0.101,0.4-0.2,0.6c-0.2,0.201-0.5,0.201-0.7,0.101c-0.3-0.2-0.5-0.5-0.399-0.899
	c0.199-0.201,0.3-0.301,0.6-0.4C74.608,509.176,75.008,509.376,75.008,509.676L75.008,509.676z"/>
<path fill="#FFFFFF" d="M163.008,510.576c0,0.3-0.3,0.6-0.601,0.699c-0.3,0-0.5-0.199-0.699-0.399c-0.101-0.2-0.101-0.5,0.1-0.7
	c0.1-0.1,0.3-0.1,0.5-0.199C162.708,509.977,163.008,510.275,163.008,510.576L163.008,510.576z"/>
<path fill="#FFFFFF" d="M72.308,510.176c0.1,0.301-0.1,0.4-0.2,0.6c-0.1,0.601-0.5,1-0.8,1.601c-0.7,0.8-1.7,0.8-2.7,1.101
	l-0.1-0.301c1.1-1.4,2.2-2.4,3.7-3.1L72.308,510.176L72.308,510.176z"/>
<path fill="#FFFFFF" d="M161.208,510.977c0.1,0.399-0.301,0.5-0.5,0.699c-0.301,0-0.601-0.199-0.7-0.4
	c-0.101-0.399,0.3-0.6,0.5-0.699C160.808,510.376,161.108,510.676,161.208,510.977L161.208,510.977z"/>
<path fill="#FFFFFF" d="M76.508,510.977c0,0.1,0,0.1,0.1,0.199c0,0.4-0.3,0.5-0.5,0.7c-0.3,0-0.6-0.101-0.8-0.399
	c-0.1-0.301,0-0.701,0.4-0.801C76.008,510.576,76.407,510.676,76.508,510.977L76.508,510.977z"/>
<path fill="#FFFFFF" d="M168.008,512.076c0.399,0,0.399-0.5,0.8-0.6c0.4-0.101,0.7,0.1,0.9,0.399c0.1,0.399-0.2,0.7-0.5,0.8
	c-0.301,0.2-0.801-0.199-0.801,0.301c0.301,0.199,0.5,0.399,0.5,0.699c-0.1,0.1-0.3,0.1-0.399,0c-1.101-0.4-2.2-1.199-2.601-2.3
	c-0.1-0.3-0.8-0.601-0.399-0.899C166.508,510.576,167.407,511.376,168.008,512.076L168.008,512.076z"/>
<path fill="#FFFFFF" d="M171.508,510.977c0.2,0.199,0.1,0.5,0,0.699c-0.2,0.4-0.7,0.2-1.101,0.2c-0.199-0.2-0.399-0.399-0.3-0.7
	c0.101-0.199,0.3-0.4,0.5-0.5C171.008,510.576,171.208,510.775,171.508,510.977L171.508,510.977z"/>
<path fill="#FFFFFF" d="M158.208,512.977c0.3,0.399,0.699,1,0.8,1.5c-0.101,0.1-0.3,0.1-0.3,0.1c-1.2-0.7-2.9-1.5-3.301-2.9
	c-0.1-0.1-0.399-0.3-0.399-0.6c1-0.2,1.899,0.5,2.5,1C157.708,512.376,158.008,512.477,158.208,512.977L158.208,512.977z"/>
<path fill="#FFFFFF" d="M74.508,511.576c0.1,0.3-0.101,0.6-0.3,0.699c-0.4,0.101-0.601-0.1-0.801-0.299c-0.3-0.4,0.2-0.701,0.5-0.9
	C74.108,511.076,74.308,511.376,74.508,511.576L74.508,511.576z"/>
<path fill="#FFFFFF" d="M162.808,512.376c0,0.2-0.3,0.399-0.4,0.5c-0.3,0-0.6,0.101-0.8-0.101c-0.1-0.199-0.3-0.5,0-0.699
	C161.907,511.576,162.508,511.977,162.808,512.376L162.808,512.376z"/>
<path fill="#FFFFFF" d="M171.907,512.876c0.101,0.399-0.199,0.7-0.5,0.899c-0.399,0.101-0.699-0.1-0.899-0.299
	c-0.2-0.201,0-0.4,0-0.701c0.3-0.199,0.6-0.399,1-0.299C171.608,512.676,171.708,512.676,171.907,512.876L171.907,512.876z"/>
<path fill="#FFFFFF" d="M146.508,517.977c0,0.399-0.8,0.299-1.101,0.699c-1.1,0.6-2.5,0.6-3.8,0.6v-0.299
	C142.907,517.876,144.808,517.477,146.508,517.977L146.508,517.977z"/>
<path fill="#FFFFFF" d="M93.108,519.576c0,0.3-0.2,0.5-0.6,0.6c-0.3,0-0.5-0.1-0.601-0.4c-0.1-0.399,0.2-0.6,0.5-0.799
	C92.808,519.076,93.008,519.275,93.108,519.576L93.108,519.576z"/>
<path fill="#FFFFFF" d="M145.907,519.977c-0.1,0.299-0.199,0.699-0.5,0.799c-0.3,0.101-0.5-0.1-0.8-0.299
	c-0.2-0.101-0.1-0.4-0.1-0.601C144.708,519.275,145.708,519.275,145.907,519.977L145.907,519.977z"/>
<path fill="#FFFFFF" d="M153.208,520.076c-0.9,0.6-1.9,1.3-3.101,1.3h-2l-0.2-0.101c1.2-1.5,3.4-1.5,5.301-1.299V520.076
	L153.208,520.076z"/>
<path fill="#FFFFFF" d="M83.108,520.977c0,0.299-0.1,0.6-0.5,0.699c-0.399,0.1-0.6-0.1-0.8-0.3c-0.1-0.3,0-0.7,0.3-0.8
	C82.508,520.275,82.907,520.676,83.108,520.977L83.108,520.977z"/>
<path fill="#FFFFFF" d="M84.907,521.376c0.101,0.2-0.1,0.3-0.1,0.5c-0.2,0.101-0.5,0.2-0.7,0c-0.3-0.2-0.3-0.399-0.2-0.601
	c0.101-0.199,0.301-0.199,0.4-0.299C84.608,520.977,84.808,521.076,84.907,521.376L84.907,521.376z"/>
<path fill="#FFFFFF" d="M70.907,525.076c-0.399,0.4-1-0.1-1.399-0.301c-1.3-0.699-1.2-2.199-2.5-3c0.1-0.399,0.5,0,0.7,0
	c0.199,0.201,0.5,0.301,0.8,0.4C69.808,522.775,70.108,523.977,70.907,525.076L70.907,525.076z"/>
<path fill="#FFFFFF" d="M177.608,510.775c-0.6-1.1-1.6-1.5-2.7-1.5c-1,0.101-1.6,0.701-2,1.5c-0.199,0.801,0.101,1.5,0.7,2
	c0.3,0.101,0.601,0.101,0.7-0.199c0.2-0.5-0.3-0.5-0.4-0.9c-0.1-0.5,0-1,0.4-1.3c0.4-0.399,1-0.2,1.4-0.2
	c0.399,0.301,0.899,0.6,1.1,1.1c0.2,0.601,0.2,1.301,0,2c-0.4,0.9-1.3,1.701-2.3,1.801c-3,0.4-36.4,0.3-36.4,0.3
	c-3.899,0.399-8.399-0.7-11.8,1.3c-1.5,0.7-2.3,2.4-2.7,3.9c-1,0.9-2.1,1.9-2.899,2.9l-0.101-0.101c0.2-0.899,0.601-1.7,0.8-2.5
	c0.5-0.7,0.5-1.7,1-2.5c1.4-2.2,2.7-4.5,4.9-6.101c0.9-1.199,2.5-1,3.9-1c1.5,0.701,3.3,0.9,5.1,0.701
	c0.1-0.101,0.1-0.201,0.1-0.301c-0.5-0.5-1.399-0.699-1.899-1.1c-1.5-0.7-2.9,0.199-4.4,0.1c-0.1-0.1-0.1-0.1-0.1-0.199
	c1.399-1,3-1.801,4.5-2.4c1.3-0.7,2.6-1.1,4-1.6c0.5,0,1.1-0.5,1.6-0.101l1.9-0.5c0.1,0,0.1,0.101,0.3,0.101
	c1.6-0.601,3.7,0,5.6-0.101l0.301,0.2l1.8,0.4c0.7,0.1,1,0.799,1.6,0.899c0.4-0.5-0.399-0.7-0.6-1.101c0.8-0.199,1.7,0,2.5,0.4
	l-0.4,0.5c-0.2,0.4,0.101,0.7,0.4,0.801c0.3,0.1,0.399-0.101,0.6-0.201c0.5-0.299,0-0.699,0.101-1c2.699,0.5,5.3,1.101,7.8,2.201
	c0.7,0.199,1.399,0.699,2.1,0.699c-0.8-0.699-1.8-1.1-2.8-1.5c-0.6-0.4-1.5-0.4-2-0.9c0.1-0.199,0.4-0.1,0.5-0.299
	c1.2-0.101,2.3-1.101,3.2-2.101c0.1-0.2,0.5-0.101,0.399-0.399c-0.3-0.4-0.899,0.1-1.3,0.1c-1.5,0.3-2.2,2.1-3.7,2.4
	c-1.899-0.4-3.8-0.9-5.6-1.4c-0.9-0.1-1.9-0.2-2.7-0.6l-2-0.201h-3.7c0-0.1-0.1-0.1-0.1-0.199c1.3-0.301,2.5-1.1,3.8-1.4l9.8-4.5
	c1-0.9,1.9-2,2.801-3c0-0.3-0.101-0.6-0.4-0.699c-0.3-0.101-0.6-0.101-0.7,0.1c-0.399,0.3,0,0.699,0,1.1c-0.399,0.6-1.1,1.1-1.7,1.4
	c-0.1,0-10.1,4.5-10.1,4.5c-1.7,0.9-3.1,1.6-4.7,2l-2.1,0.3c-0.101,0.399-0.5,0.7-0.9,0.8c-0.6,0.1-1.1,0.5-1.7,0.5
	c-4.8,1.801-9.699,3.801-13.5,7.6c0.2-0.399,0.301-1,0.4-1.5c-0.1-0.6,0-1.199-0.4-1.6c-0.1-0.199-0.399-0.8-0.3-1l-0.5,0.301
	c-0.3,0.799-0.6,2.299-0.3,3.1c0.1,0.699,0.7,1.4,0.1,2c-1.8,2.1-2.699,4.699-3.899,7.199c-0.4-0.1-0.7-0.5-0.8-0.899
	c1.199-1.601,2.199-3.399,2.6-5.399c0.3-0.201,0.1-0.701,0.3-0.9c-0.1-0.6,0.3-1.2,0-1.7c0.2-0.8-1.1-1.5-0.2-2.101l-0.699,0.301
	c-1.601,2.1,0.8,5.199-1,7.199v0.101c-0.5,0.7-0.801,1.3-1.5,1.8c-0.9-0.4-1.2-1.4-1.7-2.1c-0.8-0.801-0.8-2.4-0.3-3.4
	c0.3-1.1-0.2-2-0.301-3l-0.399-0.199c-0.9,1.1-1.2,2.899-0.5,4.299c0.399,0.701,0.399,1.601,1,2.101c0.3,1.101,1,1.8,1.6,2.7
	c0.101,0.4-0.2,0.4-0.399,0.6c-0.4-0.3-0.301-0.8-0.7-1.1c-1.2-2.6-2.8-4.6-4.7-6.7c-0.1-0.3-0.4-0.601-0.2-1c0.7-0.7,0.8-2,0.5-2.8
	c-0.1-0.2-0.3-0.4-0.3-0.6l-0.6-0.4c0.1,1.3-0.801,2.4-0.4,3.8v0.101c-3.8-2.801-7.9-5.4-12.2-7.4l-0.3,0.9c1.1,0.299,3.9,2,3.9,2
	c1.3,0.5,2.5,1.299,3.699,2c5,2.799,8.301,7.299,10.5,12.399c0,0.399,0.4,0.8,0.101,1.3c-0.8-1.199-1.9-1.8-2.8-2.8
	c-0.301-1.7-1.301-3.399-2.801-4.101c-0.5-0.799-1.699-0.899-2.6-1.1l-13.3-0.1c-10.8-0.1-20.7,0.4-31.5,0.199
	c-1.5-0.1-3.3-0.699-3.8-2.299c-0.301-0.601-0.301-1.5,0-2c0.399-0.701,1.1-0.9,1.899-1c0.601,0.1,1,0.6,1.2,1
	c0,0.5-0.4,0.899-0.6,1.299c0,0.101,0.199,0.4,0.399,0.301c0.5-0.2,0.8-0.7,1-1.2c0-0.3,0.101-0.601-0.1-0.8
	c-0.2-0.801-1-1.301-1.7-1.5c-0.9-0.1-1.9,0.199-2.5,0.9c-0.9,0.699-0.8,2.1-0.6,3.1c0.6,1.6,2.3,2.699,4,3l35.6,0.1
	c3.5,0.2,7.4-0.4,10.9,0.301c1.3,0.399,2.6,1.399,3,2.799c0,0.101-0.101,0-0.301,0c-2.899-1.899-6.699-2.6-10.399-2.1
	c-1.5-0.1-2.8,0.5-4.101,0.801c-0.699,0.1-1.399-0.201-1.8-0.601c-1.3-1.2-3.6-1.101-5.3-0.7c0,0.1,0,0.2,0,0.301
	c1.8-0.101,2.9,1.399,4.5,1.6c0.4,0.1,0.7-0.301,1,0c-1.7,0.8-3.3,1.8-5.1,2.3c-0.5-0.101-0.801-0.601-1.301-0.899
	c-0.699-0.801-2-0.4-2.899-0.5c-0.3,0.1-0.601-0.101-0.8,0c0.3,0.6,1,0.899,1.6,1.199c0.9,0.4,2,0,2.8,0.5
	c-0.2,0.301-0.5,0.301-0.8,0.5c-1.7,0.7-3.1,2.2-5.1,2.1c-2,0.201-4.101-0.399-5.4-1.799c-0.6-1.4-2.1-2.201-3.7-2.101
	c-0.1,0.101-0.3,0.101-0.2,0.3c0.801,0.5,1.4,1.4,2.2,2c0.5,0.6,1.5,0,2,0.7c0.7,0.5,1.601,0.899,2.4,1c0.6,0.3,1.2,0.399,1.899,0.5
	l-0.3,0.101c-3.3,1.1-7.2,1.199-10.899,1.1c-1.101,0-2.2-0.4-3.301-0.301c0.2,0.201,0.5,0.4,0.9,0.5c-0.3,0.201-0.6,0.301-1,0.301
	c-0.4,0.1-1,0.1-1.4,0.4c-0.6,0-1.1,0.199-1.6,0.399c-0.6,0.7-1.4,1.399-2.1,1.7c0,0.199,0,0.4,0.1,0.4c0.7-0.301,1.6-0.101,2.3-0.4
	c1.2-0.1,1.9-1.4,2.9-2c1-0.801,2.5-0.6,3.7-0.4c0.699,0.2-0.101,0.5,0.1,1c0.3,0.301,0.5,0.6,1,0.4c0.1-0.1,0.1-0.1,0.3-0.2
	c0.2-0.3,0.2-0.601,0-0.899c0.5-0.301,1.2,0,1.8-0.201c1.4,0,2.801-0.299,4.101-0.399c0.2,0,0.5-0.3,0.7,0
	c-0.101,0.3-0.5,0.3-0.301,0.7c0.101,0.3,0.4,0.5,0.7,0.6c0.4-0.1,0.7-0.4,0.5-0.9c-0.1-0.299-0.399-0.299-0.5-0.399
	c0.8-0.399,1.601-0.5,2.4-0.899c0.5-0.101,1.1-0.301,1.5-0.5c0.5,0,0.899-0.5,1.3-0.301c-0.2,0.6-0.4,1.2-0.8,1.801
	c-0.601,2-1,4.5,0,6.399c0.1,0,0.1,0,0.2-0.101c-0.801-2-0.301-4.199,0.3-6c0.5-3.1,3.7-4.1,6-5.199l0.1,0.1
	c-0.6,1.6-1.5,3.2-1.399,5.1c0.1,0.301-0.101,0.701,0,0.9c0.6-0.3,1-1.1,1.399-1.699c0.3-1.701-0.7-3.701,1-4.9
	c3-1.2,5.8-2.7,9.3-2.801c0.101,0.101,0.4-0.1,0.4,0.101c-0.7,0.8-1.8,1.601-2.1,2.601c-1.2,1.6-1.101,4.399-0.601,6.399
	c0.3,1.101-0.7,1.8-1.1,2.7c-0.2,0.3-0.3,0.9-0.5,1.199l0.7,0.101c0.6-0.7,1.199-1.5,1.199-2.399c0.101,0.399,0.4,0.699,0.7,0.699
	c0.3-0.4-0.2-0.699-0.3-1.1c0.6-0.301,0.8,0.4,1.3,0.6c0.8,0.2,1.4,0.5,2.2,0.5l0.3-0.3c-0.8-1.3-2.399-1.5-3.8-1.5
	c-0.7-1.2-0.7-2.7-0.7-4.2c0.101-0.8,0.3-1.6,0.7-2.3c0.2-0.5,0.7-1,1-1.399c0.7-0.601,1.5-1.101,2.3-1.301h0.5c0,0.1,0,0.1,0,0.1
	c-1,0.801-1.1,1.801-1.7,2.801c-0.6,0.9-0.899,2.199-0.3,3.199c0.2,0.5,0.101,1.201,0.601,1.5c0.5-0.699,0.5-1.5,0.8-2.199
	c-0.101-1.2-0.8-2.4-0.101-3.5c0.4-0.9,1.101-1.301,2-1.6c2-0.201,3.801,0.799,5.5,1.6c0.4,0.3,1,0.5,1.101,1c0,1-0.601,2-1.4,2.5
	c-1,0.6-2.399,0.699-3.3,0c-0.5-0.6-0.8-1.5-0.6-2.301c0.399-0.399,1-0.799,1.6-0.6c0.4,0.2,0.7,0.6,1.2,0.301
	c0.2-0.101,0.3-0.4,0.1-0.601c-0.399-0.2-0.5-0.8-1.1-0.8c-0.7-0.1-1.5-0.1-2,0.4c-0.8,0.699-1.101,1.699-0.8,2.6
	c0.3,1.199,1.1,2,2.3,2.4c1.7,0.399,3.399-0.101,4.5-1.5c0.399-0.5,0.5-1,0.8-1.601c1.8,1.101,3.1,2.899,3.8,4.899
	c0,0.601,0.2,1.301,0,1.801l1.3,0.1c-0.1-0.3,0-0.6,0.101-0.9c0.5-2.399,2-4.5,3.8-6.1c0.6-0.4,0.5,0.5,0.6,0.7
	c0.5,1.399,1.801,2.399,3.2,2.8c1.5,0.301,3-0.1,4-1.3c0.5-0.899,1.101-2.2,0.3-3.101c-0.5-0.6-1.199-1-2-1c-1,0-1.5,0.701-2,1.4
	c0,0.301,0,0.6,0.2,0.801c0.101,0,0.4,0,0.5-0.201c0.101-0.6,0.5-0.799,1-1.1c0.4-0.199,0.8,0,1.2,0.2c0.4,0.3,0.5,0.899,0.5,1.399
	c-0.1,0.701-0.5,1.4-1.2,1.701c-1.1,0.6-2.6,0.299-3.5-0.301c-0.399-0.5-0.7-1-1-1.6c-0.1-0.6-0.3-1.1,0-1.7
	c1.601-1,3.3-1.7,5.2-1.8c0.8,0.1,1.4,0.699,1.9,1.199c1.699,1.701-0.4,4.201,0.8,6.101c0.399-0.101,0.399-0.7,0.6-1
	c0.5-1.3-0.1-2.8-0.5-4.101c-0.399-0.799-0.7-1.5-1.399-2.199c0.199-0.1,0.3-0.1,0.399-0.1c0.8,0.5,1.601,1.1,2.2,1.899
	c1.1,1.7,1.6,3.8,1.4,6c-0.301,1.101-1.5,1.601-2.4,2c-0.4,0.3-0.8,0.7-1,1.2c0.4,0.3,1.1,0,1.5-0.2c0.7-0.3,1.1-1.101,1.6-1.5
	c0.101,0,0,0.101,0.101,0.2c0,0.4-0.2,1,0.2,1.1c0.199-0.5,0.199-1.3,0.3-1.9c0.5,0.5,0.5,1.201,0.7,1.801
	c0.3,0.699,0.899,1.5,1.8,1.699c0.2-0.299,0-0.699-0.101-1c-0.1-0.899-0.899-1.399-1.399-2.1c-1.3-1.8-0.7-4.5-1.7-6.5
	c-0.4-1.1-1.1-1.8-2-2.699l0.1-0.101c1.801,0,3.301,0.5,4.9,0.899c2,1,4.9,0.801,5.9,3.4c0.399,1.5,1.1,2.801,2.1,4l0.1-0.1
	c0.2-0.4,0.2-1,0-1.4c-0.199-1.8-1.8-2.3-2.699-3.8l0.1-0.101c0.9,0.301,1.8,0.5,2.7,0.801c2.899,0.8,5,3.699,5.3,6.699
	c0,2.4-0.4,4.301-1.4,6.301c-0.1,0.3-0.6,0.6-0.3,0.9c0.4-0.301,0.5-0.801,0.7-1.101c1.2-2,1.8-4.8,1.2-7.399
	c0-0.5-0.601-0.801-0.3-1.301c0.199,0.2,0.399,0.301,0.6,0.301c0.2-0.101,0.5-0.101,0.7-0.4c0-0.2,0.2-0.5,0-0.7
	c-0.2-0.3-0.7-0.3-1.101-0.3c-0.199,0.199-0.399,0.5-0.399,0.8c-0.4-0.601-0.7-1.399-1.3-2l0.1-0.101c1.6,0.601,3.1,1.4,4.8,1.801
	c0.4,0.199,0.8,0.4,1.3,0.4c1.4,0.6,3,0.799,4.5,1.1c1.101-0.1,2,0.4,3.101,0.1v-0.1l0,0c-0.4-0.5-1.3,0-1.8-0.4
	c-2.5-0.3-4.9-0.9-7.2-1.8c0-0.101,0.2-0.101,0.3-0.101c0.4-0.199,0.6-0.5,0.6-0.899c-0.199-0.3-0.5-0.399-0.8-0.399
	c-0.2,0.1-0.5,0.399-0.5,0.6c0,0.3,0.3,0.6,0.5,0.699c-0.1,0.101-0.2,0-0.3,0c-1.1-0.5-2.2-1-3.3-1.5c-0.4-0.1-0.7-0.399-1.101-0.5
	c-0.8-0.399-1.699-0.799-2.5-1.1c-2.3-1.199-4.899-1.9-7.399-2.8c-0.5-0.101-1.101-0.3-1.601-0.399
	c-0.899-0.301-1.8-0.5-2.699-0.701c-3.101-0.799-7.301-0.799-10,0.801c-0.4-0.1-0.7,0.6-0.9,0.1c0.8-2,3-2.699,5-2.8
	c14.7-0.101,28.4-0.3,42.9-0.5c1.699,0,3.3-0.601,4.199-2.101C178.008,513.275,178.108,511.775,177.608,510.775L177.608,510.775z
	 M119.407,524.376c-0.1,0.399-0.399,0.8-0.399,1.3l-0.101,0.1c0.101-0.6-0.399-0.899-0.3-1.5c-0.3-0.399-0.3-1-0.5-1.5
	c-0.3-0.6,0.3-0.899,0.5-1.299c0.5,0.199,0.7,0.699,1.101,1.1C119.808,523.376,119.407,523.775,119.407,524.376L119.407,524.376z"/>
<path fill="#FFFFFF" d="M159.108,522.076c0,0.1,0.2,0.1,0.101,0.3c-1.301,1.101-3.101,1.5-4.9,1.5c-0.1,0-0.3,0.101-0.5,0.101
	c-0.1-0.101-0.1-0.201-0.1-0.301C155.108,522.376,157.108,521.676,159.108,522.076L159.108,522.076z"/>
<path fill="#FFFFFF" d="M153.208,522.676c0.1,0.5-0.2,0.801-0.601,1c-0.399,0-0.6-0.3-0.8-0.6c-0.1-0.301,0.1-0.4,0.3-0.6
	C152.407,522.176,153.108,522.176,153.208,522.676L153.208,522.676z"/>
<path fill="#FFFFFF" d="M83.608,522.775c0.101,0.301,0,0.601-0.2,0.801c-0.1,0.199-0.5,0.199-0.699,0.199
	c-0.301,0-0.4-0.299-0.5-0.6c0-0.3,0.199-0.5,0.5-0.699C83.108,522.477,83.407,522.376,83.608,522.775L83.608,522.775z"/>
<path fill="#FFFFFF" d="M77.108,525.176v0.301c-0.899,0.199-1.7,0-2.399-0.601c-0.5-0.7-1.101-1.5-1.9-1.8c0-0.1-0.2-0.301,0-0.301
	C74.608,522.676,75.708,524.176,77.108,525.176L77.108,525.176z"/>
<path fill="#FFFFFF" d="M164.708,522.676c-0.801,1.301-1.601,2.801-3.101,3.301c-0.3,0-0.5,0.399-0.7,0.1
	c0.601-1.4,1.801-2.9,3.301-3.5C164.308,522.676,164.508,522.576,164.708,522.676L164.708,522.676z"/>
<path fill="#FFFFFF" d="M85.808,523.176c0,0.4-0.3,0.5-0.5,0.7c-0.3,0-0.4-0.2-0.6-0.399c-0.101-0.4,0.199-0.5,0.399-0.701
	C85.308,522.676,85.608,522.876,85.808,523.176L85.808,523.176z"/>
<path fill="#FFFFFF" d="M169.308,523.376c-0.3,0.5-0.2,1.2-0.5,1.7c-0.7,0.8-1.4,1.8-2.5,2c-0.2-0.4,0.3-0.7,0.4-1.1
	c0.5-1.101,1.199-2.4,2.399-2.801L169.308,523.376L169.308,523.376z"/>
<path fill="#FFFFFF" d="M65.708,523.676c0.1,0.301,0.199,0.5,0,0.801c-0.2,0.199-0.5,0.299-0.801,0.1c-0.3-0.2-0.399-0.6-0.3-0.9
	C64.808,523.477,65.508,523.275,65.708,523.676L65.708,523.676z"/>
<path fill="#FFFFFF" d="M63.708,524.176c0,0.2,0.1,0.301,0.1,0.5c-0.1,0.2-0.3,0.4-0.5,0.4c-0.4,0.1-0.7-0.1-0.8-0.5
	c0-0.301,0.1-0.6,0.399-0.801C63.108,523.676,63.508,523.876,63.708,524.176L63.708,524.176z"/>
<path fill="#FFFFFF" d="M68.008,524.376c0.1,0.3,0.1,0.8-0.3,0.899c-0.5,0.201-0.801-0.1-1.101-0.399c0-0.3,0.2-0.601,0.4-0.7
	C67.407,524.076,67.708,524.076,68.008,524.376L68.008,524.376z"/>
<path fill="#FFFFFF" d="M74.008,524.876c0,0.3,0,0.601-0.3,0.7c-0.2,0.199-0.5,0.1-0.7,0.1c-0.101-0.199-0.5-0.4-0.3-0.699
	c0.1-0.201,0.3-0.301,0.5-0.4C73.508,524.676,73.808,524.576,74.008,524.876L74.008,524.876z"/>
<path fill="#FFFFFF" d="M172.808,525.076c-0.1,0.3-0.3,0.6-0.5,0.6c-0.3,0-0.7-0.1-0.8-0.4c-0.101-0.399,0.2-0.6,0.5-0.699
	C172.308,524.576,172.708,524.676,172.808,525.076L172.808,525.076z"/>
<path fill="#FFFFFF" d="M166.108,525.275c0,0.301-0.3,0.5-0.399,0.601c-0.5,0.2-0.9-0.101-1.101-0.601
	c0.101-0.299,0.3-0.6,0.601-0.699C165.608,524.676,165.907,524.876,166.108,525.275L166.108,525.275z"/>
<path fill="#FFFFFF" d="M170.708,525.176c0,0.301-0.101,0.5-0.301,0.6c-0.3,0.101-0.699,0.101-0.899-0.1c-0.3-0.3-0.101-0.6,0.1-0.8
	C169.907,524.676,170.508,524.775,170.708,525.176L170.708,525.176z"/>
<path fill="#FFFFFF" d="M64.808,525.876c0.1,0.399-0.1,0.8-0.4,0.899c-0.3,0-0.699-0.199-0.8-0.5c0-0.299,0.101-0.699,0.4-0.799
	C64.308,525.376,64.608,525.576,64.808,525.876L64.808,525.876z"/>
<path fill="#FFFFFF" d="M164.308,526.275c0.1,0.4-0.1,0.801-0.5,1c-0.3,0.101-0.5-0.1-0.7-0.299c-0.1-0.201-0.3-0.601,0-0.801
	C163.308,525.576,164.108,525.876,164.308,526.275L164.308,526.275z"/>
<path fill="#FFFFFF" d="M84.508,526.676c0.1,0.4-0.3,0.5-0.4,0.7c-0.1,0.101-0.399,0.101-0.5,0c-0.2-0.2-0.399-0.399-0.3-0.8
	c0.2-0.1,0.3-0.301,0.5-0.4C84.108,526.076,84.308,526.376,84.508,526.676L84.508,526.676z"/>
<path fill="#FFFFFF" d="M172.208,526.876c0.1,0.3-0.101,0.399-0.2,0.601c-0.2,0.199-0.601,0.199-0.8,0.1
	c-0.301-0.2-0.301-0.5-0.301-0.801c0.2-0.1,0.301-0.299,0.5-0.399C171.608,526.376,172.008,526.576,172.208,526.876L172.208,526.876
	z"/>
<path fill="#FFFFFF" d="M169.907,526.977c0.101,0.399-0.3,0.699-0.5,0.799c-0.1,0-0.399-0.1-0.399,0.101c1,0.5,1.5,1.3,2.3,2v0.3
	c-1.3,0-2.7-0.4-3.6-1.4c-0.301-0.199-0.7-0.199-1-0.399c0.5-0.5,1.399-0.3,2-0.3c0.5-0.5-0.601-0.9,0.1-1.301
	c0.2,0,0.4-0.299,0.7-0.199C169.608,526.576,169.708,526.775,169.907,526.977L169.907,526.977z"/>
<path fill="#FFFFFF" d="M154.907,527.076c0.101,0.199-0.1,0.4-0.199,0.6c-0.2,0.2-0.5,0.301-0.801,0.2c-0.199-0.3-0.5-0.5-0.399-0.8
	C153.907,526.376,154.808,526.477,154.907,527.076L154.907,527.076z"/>
<path fill="#FFFFFF" d="M73.108,528.376c-0.1,0.3-0.3,0.601-0.6,0.601s-0.5-0.101-0.7-0.4c0-0.301,0.1-0.4,0.2-0.6
	C72.407,527.576,73.108,527.775,73.108,528.376L73.108,528.376z"/>
<path fill="#FFFFFF" d="M76.008,527.876c0,0.5-0.5,0.8-0.7,1.3c-0.5,1.2-1.5,2.301-2.9,2.4c-0.1-0.301,0.5-0.7,0.601-1.1
	c0.6-1.301,1.8-1.9,2.8-2.701h0.2V527.876z"/>
<path fill="#FFFFFF" d="M154.008,528.376c0,0.399-0.3,0.7-0.601,0.899c-0.3,0.101-0.6-0.199-0.8-0.299c-0.3-0.301-0.1-0.601,0-0.9
	C153.108,527.576,153.708,527.977,154.008,528.376L154.008,528.376z"/>
<path fill="#FFFFFF" d="M156.308,528.676c0,0.4-0.3,0.7-0.7,0.801c-0.1-0.101-0.3,0-0.399-0.101c-0.301-0.101-0.5-0.399-0.5-0.7
	c0.199-0.199,0.3-0.5,0.5-0.5C155.608,528.176,156.208,528.176,156.308,528.676L156.308,528.676z"/>
<path fill="#FFFFFF" d="M81.708,528.576c0,0.4-0.301,0.6-0.5,0.8c-0.301,0-0.5-0.2-0.7-0.399c-0.101-0.301,0.3-0.601,0.399-0.701
	C81.308,528.076,81.407,528.376,81.708,528.576L81.708,528.576z"/>
<path fill="#FFFFFF" d="M84.208,528.775c-0.101,0.301-0.301,0.601-0.7,0.601c-0.3-0.101-0.5-0.101-0.7-0.399
	c0-0.4,0.3-0.601,0.5-0.701C83.808,528.176,84.208,528.376,84.208,528.775L84.208,528.775z"/>
<path fill="#FFFFFF" d="M164.208,531.376c0.199,0.101,0.5,0.3,0.399,0.601c-0.6,0.299-1.1-0.4-1.6-0.5c-0.9-0.9-1.5-1.801-1.9-2.9
	c0.3-0.301,0.7,0.1,1,0.199C162.907,529.376,163.708,530.275,164.208,531.376L164.208,531.376z"/>
<path fill="#FFFFFF" d="M165.508,528.775c0.1,0.301,0.1,0.601-0.101,0.801c-0.199,0.4-0.699,0.3-1,0.199
	c-0.199-0.199-0.5-0.5-0.3-0.799c0.101-0.301,0.4-0.4,0.7-0.5C165.108,528.376,165.308,528.676,165.508,528.775L165.508,528.775z"/>
<path fill="#FFFFFF" d="M87.608,529.676c0,0.301,0.101,0.7-0.3,0.9c-0.3,0.1-0.8,0-0.9-0.4c-0.199-0.4,0.2-0.5,0.4-0.699
	C87.208,529.376,87.407,529.477,87.608,529.676L87.608,529.676z"/>
<path fill="#FFFFFF" d="M156.208,532.076c0.5,0.699,0.899,1.699,1,2.6c-0.101,0.301,0.199,0.5,0,0.7h-0.101c-1.6-1.2-2-2.8-2.6-4.5
	c-0.101-0.101-0.2-0.2-0.101-0.399c0.4-0.301,0.601,0.299,1,0.399L156.208,532.076L156.208,532.076z"/>
<path fill="#FFFFFF" d="M92.407,530.876C92.308,530.876,92.407,530.876,92.407,530.876c-1.399,1.101-3.5,1.7-5.199,0.7
	c0-0.1,0-0.301,0.199-0.301c1.101-0.299,2.101-0.799,3.2-0.699L92.407,530.876L92.407,530.876z"/>
<path fill="#FFFFFF" d="M84.008,531.076c-1.2,0.8-2.4,2.3-3.9,2.699c-0.3,0.101-0.5,0.5-0.8,0.301c0.7-2,2.8-3.1,4.8-3.2v0.2H84.008
	z"/>
<path fill="#FFFFFF" d="M154.008,532.676c0.1,0.301,0,0.7-0.3,0.801c-0.2,0.199-0.5,0.199-0.7,0c-0.3-0.201-0.3-0.5-0.3-0.701
	c0.1-0.299,0.399-0.299,0.5-0.399C153.608,532.376,153.907,532.376,154.008,532.676L154.008,532.676z"/>
<path fill="#FFFFFF" d="M151.008,532.876c-0.2,0.5-0.8,0.8-1.3,1c-1.2,0.399-2.4-0.101-3.5-0.399c0-0.301,0.399-0.201,0.6-0.4
	c1.2-0.301,2.5-0.5,3.7-0.2C150.608,532.775,150.907,532.775,151.008,532.876L151.008,532.876z"/>
<path fill="#FFFFFF" d="M84.008,533.977c-0.101,0.1-0.101,0.5-0.4,0.6s-0.5,0-0.7-0.1c-0.1-0.201-0.3-0.4-0.1-0.701
	c0.1-0.299,0.4-0.299,0.6-0.399C83.608,533.376,83.907,533.576,84.008,533.977L84.008,533.977z"/>
<path fill="#FFFFFF" d="M86.208,534.275c-0.101,0.201-0.2,0.601-0.5,0.701c-0.301,0.1-0.5-0.101-0.7-0.301
	c-0.101-0.199-0.2-0.5-0.101-0.699c0.101-0.201,0.301-0.201,0.5-0.301C85.708,533.576,86.008,533.977,86.208,534.275L86.208,534.275
	z"/>
<path fill="#FFFFFF" d="M153.308,534.676c0,0.301-0.1,0.5-0.3,0.7c-0.2,0.3-0.5,0.3-0.8,0.101c-0.301,0-0.301-0.301-0.4-0.5
	c-0.2-0.301,0.1-0.5,0.3-0.701C152.508,533.876,153.208,534.076,153.308,534.676L153.308,534.676z"/>
<path fill="#FFFFFF" d="M155.008,534.576c0,0.199,0.1,0.4,0.1,0.5c-0.2,0.199-0.399,0.699-0.8,0.5c-0.2,0.1-0.3-0.2-0.4-0.301
	c-0.1-0.399,0-0.899,0.4-1C154.608,534.176,154.808,534.477,155.008,534.576L155.008,534.576z"/>
<path fill="#FFFFFF" d="M84.808,535.676c0.1,0.4-0.1,0.801-0.4,1c-0.399,0.1-0.899,0.1-1.1-0.4c0-0.399,0-0.799,0.4-1.1
	C84.208,535.076,84.708,535.176,84.808,535.676L84.808,535.676z"/>
<path fill="#FFFFFF" d="M86.907,535.477c-0.1,1-0.3,2.299-1.3,2.899c-0.6,0.101-1.2,0.7-1.8,0.3v-0.199
	C84.608,537.376,86.008,536.576,86.907,535.477L86.907,535.477z"/>
<path fill="#FFFFFF" d="M147.608,536.376c0.101,0.2-0.1,0.399-0.2,0.601c-0.199,0.299-0.6,0.1-0.899,0c-0.3-0.101-0.3-0.5-0.2-0.701
	c0.1-0.199,0.3-0.299,0.5-0.399C147.108,535.775,147.407,536.076,147.608,536.376L147.608,536.376z"/>
<path fill="#FFFFFF" d="M90.608,538.076c0.5,0.8,0.2,2,0.5,2.9c-0.6,0.1-0.899-0.601-1.3-1c-0.8-1.101-0.7-2.601-1.1-3.9
	c0.1-0.1,0.199-0.1,0.3-0.1c0.5,0.399,1,1.1,1.399,1.5C90.308,537.775,90.608,537.775,90.608,538.076L90.608,538.076z"/>
<path fill="#FFFFFF" d="M149.407,536.676c0,0.301-0.3,0.4-0.5,0.6c-0.3,0-0.5-0.1-0.699-0.299c-0.101-0.4,0.199-0.5,0.399-0.701
	C148.907,536.076,149.308,536.275,149.407,536.676L149.407,536.676z"/>
<path fill="#FFFFFF" d="M153.808,539.876c0,0.101,0,0.3-0.2,0.3h-0.1c-1.101-1-2.101-2-2-3.5h0.2
	C152.608,537.477,153.708,538.376,153.808,539.876L153.808,539.876z"/>
<path fill="#FFFFFF" d="M151.008,538.775c0,0.301-0.101,0.5-0.3,0.701c-0.4,0.1-1,0.1-1.101-0.5c0-0.4,0.4-0.601,0.5-0.701
	C150.608,538.076,150.907,538.376,151.008,538.775L151.008,538.775z"/>
<path fill="#FFFFFF" d="M148.608,539.477c-0.5,1.399-1.899,2.1-2.899,3.1c-0.2-0.1-0.101-0.4-0.101-0.6c0.4-1.4,1.5-2.801,2.8-3.301
	C149.108,538.775,148.508,539.176,148.608,539.477L148.608,539.477z"/>
<path fill="#FFFFFF" d="M151.407,540.576c0,0.3-0.3,0.5-0.5,0.699c-0.3,0-0.6-0.1-0.8-0.399c0-0.399,0.3-0.5,0.5-0.7
	C150.907,540.176,151.208,540.376,151.407,540.576L151.407,540.576z"/>
<path fill="#FFFFFF" d="M124.108,473.676c0.5,0,0.9,0.4,0.9,0.9s-0.4,0.9-0.9,0.9h-10.8c-0.5,0-0.9-0.4-0.9-0.9s0.4-0.9,0.9-0.9
	H124.108L124.108,473.676z M116.407,475.275c1.101,0,0.101-1.299-0.5-1.299h-1.1c-1.1,0-0.1,1.299,0.5,1.299H116.407
	L116.407,475.275z M120.907,475.275c1.101,0,0.101-1.299-0.5-1.299h-1.1c-1.1,0-0.1,1.299,0.5,1.299H120.907L120.907,475.275z
	 M124.208,473.977h-0.4c-1.1,0-0.2,1.299,0.4,1.299C124.907,475.275,124.907,473.977,124.208,473.977L124.208,473.977z"/>
<path fill="#FFFFFF" d="M123.208,486.176l2.1,0.801l2-0.801l-0.8,3.1l1.6-0.299l-0.6,1.899l0.6,1.8l-1.399-0.4l0.6,3.301l-2-0.801
	l-2.1,0.801l0.8-3.301l-1.7,0.5l0.4-1.899l-0.301-1.899l1.601,0.299L123.208,486.176L123.208,486.176z M126.208,491.676
	c0.5,0,0.5-0.6,0.5-1.199c0-1.301-1,0-1.5-1.201c-0.4,1-1.4,0.101-1.4,1.101c0,0.7,0,1.2,0.7,1.2h1.7V491.676z M124.208,490.477
	c0,0.5,0.6,0.199,1.1,0.199s1.1,0.301,1.1-0.199c0-0.701-0.6-0.4-1.1-0.4S124.208,489.876,124.208,490.477L124.208,490.477z"/>
<polygon fill="#FFFFFF" points="118.308,490.576 118.308,490.275 118.008,490.176 118.208,489.876 118.108,489.576 118.407,489.576 
	118.608,489.275 118.907,489.576 119.208,489.576 119.008,489.876 119.308,490.176 119.008,490.275 119.008,490.576 
	118.608,490.376 "/>
<polygon fill="#FFFFFF" points="116.708,492.676 116.708,492.275 116.407,492.275 116.608,491.977 116.508,491.676 116.808,491.676 
	117.008,491.275 117.208,491.676 117.608,491.676 117.407,491.977 117.708,492.275 117.407,492.275 117.407,492.676 
	117.008,492.477 "/>
<polygon fill="#FFFFFF" points="119.407,492.477 119.407,492.076 119.108,491.977 119.407,491.676 119.208,491.376 119.608,491.376 
	119.808,491.076 120.008,491.376 120.308,491.376 120.208,491.676 120.407,491.977 120.108,492.076 120.108,492.477 
	119.808,492.176 "/>
<polygon fill="#FFFFFF" points="119.808,493.977 119.808,493.775 119.608,493.775 119.708,493.576 119.608,493.376 119.808,493.376 
	119.907,493.176 120.108,493.376 120.308,493.376 120.208,493.576 120.308,493.775 120.108,493.775 120.108,493.977 
	119.907,493.876 "/>
<polygon fill="#FFFFFF" points="117.208,495.775 117.208,495.076 116.608,494.977 117.108,494.477 116.808,493.977 117.407,493.977 
	117.808,493.376 118.108,493.977 118.808,493.977 118.508,494.477 118.907,494.977 118.308,495.076 118.308,495.775 
	117.808,495.376 "/>
<polygon fill="#FFFFFF" points="118.508,460.977 119.808,464.176 123.108,463.176 121.407,466.176 124.208,468.176 120.808,468.676 
	121.008,472.176 118.508,469.876 116.008,472.176 116.208,468.676 112.808,468.176 115.608,466.176 114.008,463.176 
	117.208,464.176 "/>
<path fill="#FFFFFF" d="M106.708,532.076c-0.4,0.1-0.5,0.3-0.4,0.699l0.5,1.9c0.1,0.4,0.1,0.9-0.1,1.301
	c-0.301,0.399-0.9,0.699-1.301,0.799c-0.3,0.101-1,0.201-1.6,0c-0.4-0.199-0.6-0.299-0.8-1l-0.5-2c-0.101-0.5-0.3-0.5-0.7-0.399
	v-0.2l2.5-0.6v0.199c-0.5,0.101-0.7,0.201-0.6,0.701l0.5,2c0.1,0.299,0.3,1.199,1.3,0.899c1.3-0.3,1.1-1.2,1-1.601l-0.4-1.899
	c-0.1-0.399-0.2-0.601-0.899-0.399v-0.201l1.6-0.399L106.708,532.076L106.708,532.076z"/>
<path fill="#FFFFFF" d="M110.308,532.477c-0.2-0.4-0.8-1-1.7-0.801c-0.399,0.1-0.7,0.4-0.7,0.801c0.101,0.299,0.2,0.399,0.9,0.6
	l1.2,0.199c0.3,0,0.899,0.301,1,0.9c0.1,0.5-0.2,1.4-1.5,1.7c-0.7,0.2-1.101,0-1.3,0.101c-0.2,0-0.2,0.199-0.2,0.299h-0.2l-0.3-1.5
	h0.2c0.3,0.601,0.899,1.201,1.8,1c0.899-0.199,0.8-0.799,0.8-0.899c-0.1-0.399-0.5-0.5-1-0.601l-0.5-0.1c-1.4-0.199-1.5-0.699-1.5-1
	c-0.1-0.4,0-1.3,1.3-1.6c0.601-0.1,1,0,1.2,0s0.2-0.1,0.2-0.301h0.2l0.3,1.301L110.308,532.477L110.308,532.477z"/>
<path fill="#FFFFFF" d="M115.208,534.876l-2.7,0.3v-0.199c0.5-0.101,0.7-0.101,0.7-0.601l-0.301-3.3c-0.5,0.1-1.3,0.199-1.3,1.199
	h-0.2l-0.1-1.299l4.5-0.4l0.1,1.3h-0.199c-0.2-1-1-0.899-1.5-0.899l0.3,3.299c0.1,0.5,0.2,0.5,0.8,0.5L115.208,534.876
	L115.208,534.876z"/>
<path fill="#FFFFFF" d="M121.407,534.876h-1.5l-1.5-2h-0.199v1.2c0,0.5,0.199,0.5,0.6,0.6v0.2l-2.5-0.101v-0.199
	c0.5,0,0.7-0.1,0.7-0.6l0.1-2.801c0-0.5-0.2-0.6-0.6-0.6v-0.2h2.399c0.5,0,2.101,0.101,2.101,1.101c0,0.799-0.8,0.899-1.2,1
	l1.5,1.799c0.1,0.101,0.2,0.101,0.3,0.101v0.5H121.407z M118.108,532.676c1,0,1.4-0.1,1.4-0.9c0-0.6-0.3-0.899-0.9-0.899
	c-0.399,0-0.399,0.101-0.5,0.3V532.676L118.108,532.676z"/>
<path fill="#FFFFFF" d="M126.308,535.576l-2.4-0.301v-0.199c0.5,0,0.601,0,0.601-0.2s-0.2-0.7-0.2-0.899l-1.7-0.201
	c-0.3,0.4-0.399,0.701-0.399,0.801c0,0.199,0.3,0.3,0.6,0.3v0.2l-1.5-0.2v-0.2c0.4,0,0.5-0.199,0.8-0.6l2.101-3.2h0.199l1.2,3.5
	c0.3,0.7,0.3,0.899,0.7,1V535.576L126.308,535.576z M124.208,533.775l-0.601-1.6l-0.899,1.4L124.208,533.775L124.208,533.775z"/>
<path fill="#FFFFFF" d="M130.608,536.376l-4.2-0.8v-0.2c0.4,0,0.601,0.101,0.7-0.3l0.5-3c0.101-0.4-0.2-0.5-0.6-0.6v-0.201l2.6,0.5
	v0.201c-0.5-0.101-0.7-0.101-0.8,0.399l-0.5,2.899c-0.1,0.301,0.1,0.4,0.6,0.5c1.101,0.201,1.601-0.199,2.101-0.899h0.2
	L130.608,536.376L130.608,536.376z"/>
<path fill="#FFFFFF" d="M133.407,537.076l-2.6-0.5v-0.2c0.4,0,0.7,0.101,0.8-0.3l0.601-3c0.1-0.4-0.301-0.5-0.601-0.6v-0.201
	l2.601,0.5v0.201c-0.301-0.101-0.7-0.101-0.801,0.299l-0.6,3c-0.1,0.4,0.2,0.5,0.6,0.601V537.076L133.407,537.076z"/>
<path fill="#FFFFFF" d="M138.608,537.676l-2.399-0.199v-0.201c0.5,0,0.6,0,0.6-0.199c0-0.2-0.2-0.7-0.3-0.9l-1.7-0.199
	c-0.3,0.399-0.4,0.699-0.4,0.799c0,0.201,0.301,0.301,0.601,0.301v0.199l-1.5-0.199v-0.2c0.399,0,0.5-0.2,0.8-0.7l2-3.199h0.2
	l1.3,3.399c0.3,0.7,0.4,0.899,0.7,1L138.608,537.676L138.608,537.676z M136.508,535.977l-0.601-1.601l-0.8,1.5L136.508,535.977
	L136.508,535.977z"/>
<path fill="#FFFFFF" d="M119.508,487.176c0-1.5-0.8-0.1-1.3-1.4c-0.301,1.101-1.4,0.201-1.4,1.301c0,0.4,0.1,0.699,0.3,0.8v0.399
	c0,0.101,0.101,0.201,0.2,0.201h1.6c0.101,0,0.2-0.101,0.2-0.201v-0.5C119.407,487.775,119.508,487.477,119.508,487.176
	L119.508,487.176z M118.208,487.477c-0.4,0-1,0.299-1-0.201c0-0.699,0.5-0.6,0.899-0.6c0.4,0,1.101-0.199,1.101,0.6
	C119.308,487.775,118.708,487.477,118.208,487.477L118.208,487.477z"/>
<path fill="#FFFFFF" d="M132.608,505.576c0.4,0,0.7-0.301,0.7-0.6c0-0.301-0.3-0.601-0.7-0.601c-0.399,0-0.7,0.3-0.7,0.601
	C132.008,505.376,132.308,505.576,132.608,505.576L132.608,505.576z"/>
<path fill="#FFFFFF" d="M129.407,483.275c0,0-0.3,0.5-0.3,0.601c0,0.2,0.101,0.399,0.3,0.399c0.2,0,0.301-0.199,0.301-0.399
	C129.708,483.977,129.407,483.275,129.407,483.275L129.407,483.275z"/>
<path fill="#FFFFFF" d="M107.308,483.275c0,0-0.3,0.5-0.3,0.601c0,0.2,0.1,0.399,0.3,0.399s0.3-0.199,0.3-0.399
	C107.608,483.977,107.308,483.275,107.308,483.275L107.308,483.275z"/>
<path fill="#FFFFFF" d="M112.808,483.275c0,0-0.3,0.5-0.3,0.601c0,0.2,0.1,0.399,0.3,0.399s0.3-0.199,0.3-0.399
	C113.108,483.977,112.808,483.275,112.808,483.275L112.808,483.275z"/>
<path fill="#FFFFFF" d="M118.308,483.275c0,0-0.3,0.5-0.3,0.601c0,0.2,0.1,0.399,0.3,0.399s0.3-0.199,0.3-0.399
	C118.708,483.977,118.308,483.275,118.308,483.275L118.308,483.275z"/>
<path fill="#FFFFFF" d="M123.907,483.275c0,0-0.3,0.5-0.3,0.601c0,0.2,0.101,0.399,0.3,0.399c0.2,0,0.301-0.199,0.301-0.399
	C124.208,483.977,123.907,483.275,123.907,483.275L123.907,483.275z"/>
<path fill="#FFFFFF" d="M107.308,490.876c0,0,0.3,0.5,0.3,0.601c0,0.199-0.1,0.399-0.3,0.399s-0.3-0.2-0.3-0.399
	C107.008,491.576,107.308,490.876,107.308,490.876L107.308,490.876z"/>
<path fill="#FFFFFF" d="M107.308,498.275c0,0,0.3,0.5,0.3,0.601c0,0.2-0.1,0.399-0.3,0.399s-0.3-0.199-0.3-0.399L107.308,498.275
	L107.308,498.275z"/>
<path fill="#FFFFFF" d="M108.208,504.176c0,0,0.3,0.5,0.3,0.6c0,0.201-0.101,0.4-0.3,0.4c-0.2,0-0.301-0.199-0.301-0.4
	L108.208,504.176L108.208,504.176z"/>
<path fill="#FFFFFF" d="M112.808,507.275c0,0,0.3,0.5,0.3,0.601c0,0.2-0.1,0.399-0.3,0.399s-0.3-0.199-0.3-0.399L112.808,507.275
	L112.808,507.275z"/>
<path fill="#FFFFFF" d="M129.708,490.876c0,0-0.301,0.5-0.301,0.601c0,0.199,0.101,0.399,0.301,0.399c0.199,0,0.3-0.2,0.3-0.399
	C130.008,491.576,129.708,490.876,129.708,490.876L129.708,490.876z"/>
<path fill="#FFFFFF" d="M129.708,498.275c0,0-0.301,0.5-0.301,0.601c0,0.2,0.101,0.399,0.301,0.399c0.199,0,0.3-0.199,0.3-0.399
	L129.708,498.275L129.708,498.275z"/>
<path fill="#FFFFFF" d="M128.808,504.176c0,0-0.3,0.5-0.3,0.6c0,0.201,0.1,0.4,0.3,0.4s0.3-0.199,0.3-0.4L128.808,504.176
	L128.808,504.176z"/>
<path fill="#FFFFFF" d="M124.208,507.275c0,0-0.301,0.5-0.301,0.601c0,0.2,0.101,0.399,0.301,0.399c0.199,0,0.3-0.199,0.3-0.399
	L124.208,507.275L124.208,507.275z"/>
<path fill="#FFFFFF" d="M118.508,510.477c0,0-0.3,0.5-0.3,0.6c0,0.199,0.1,0.4,0.3,0.4s0.3-0.201,0.3-0.4
	C118.808,511.176,118.508,510.477,118.508,510.477L118.508,510.477z"/>
<path fill="#FFFFFF" d="M127.508,499.477c0.1,0.1,0.2,0.1,0.5,0.1l0.2-0.6c0,0-0.2-0.301-0.4-0.201c-0.6,0.101-1.2,0.201-1.6,0.801
	c0,0.4,0.3,0.699,0.6,0.9c0.2-0.101,0.2,0.1,0.4,0.199c0,0.2-0.101,0.301-0.2,0.301c-0.4-0.4-1.101,0.1-1.5-0.4
	c0.1-0.5,0.399-1.1,0-1.6c0-0.101,0.2-0.201,0.1-0.301c-0.2-0.5-0.7-0.1-1-0.1c-0.5-0.1-0.899,0.199-1.3,0.6c0,0.2,0.1,0.4,0.3,0.5
	c0.101,0,0.2,0,0.2,0.1l-0.3,0.201c0.1,0.1,0.1,0.199,0.1,0.399c-0.2,0.101-0.5-0.2-0.6-0.399c0-0.301,0-0.801-0.3-0.801
	c-0.101,0-0.301,0.1-0.301,0.1c-0.1,0.101-0.1,0.301-0.1,0.601c0,0.2,0.1,0.601,0.1,0.601s1.101,0.799,1.301,1.299
	c-0.301,0.601-0.301,1.5-1,1.9c-0.2,0.1-0.2,0.4-0.2,0.6l0.2,0.101c0.5-0.2,1.3-0.3,1.3-1.101c0.2-0.299,0.3-0.699,0.7-0.899
	c0.399-0.101,0.699,0.101,0.8,0.399c-0.101,0.5-0.5,0.9-0.9,1.101c-0.1,0.101,0,0.2,0,0.3c0.101,0.2,0.5,0.1,0.7,0.1
	c0.6-0.399,0.8-1.1,1.4-1.299c0.1,0.299-0.7,0.5-0.2,0.799c0.3-0.1,0.7,0,0.899-0.399c-0.199-0.601,0.801-0.899,0.2-1.399
	c0-0.5,0.601-0.701,0.5-1.301c-0.2-0.6-0.899-0.6-1-1.1C127.008,499.376,127.308,499.376,127.508,499.477L127.508,499.477z"/>
<path fill="#FFFFFF" d="M102.108,505.876c0.4,0,0.7-0.3,0.7-0.601c0-0.299-0.3-0.6-0.7-0.6c-0.399,0-0.7,0.301-0.7,0.6
	C101.407,505.576,101.708,505.876,102.108,505.876L102.108,505.876z"/>
<path fill="#FFFFFF" d="M66.308,526.876c0.4,0,0.7-0.3,0.7-0.7s-0.3-0.6-0.7-0.6s-0.7,0.3-0.7,0.6
	C65.608,526.576,65.907,526.876,66.308,526.876L66.308,526.876z"/>
<path fill="#FFFFFF" d="M131.208,482.477L131.208,482.477h-25.5l0,0l0,0v19.5c0,2,0.8,3.699,2,4.299l9.8,6.201
	c0.2,0.199,0.5,0.399,0.899,0.399c0.301,0,0.601-0.101,0.801-0.3l10-6.301c1.199-0.5,2-2.299,2-4.299V482.477L131.208,482.477
	L131.208,482.477z M130.508,502.176c-0.101,1.5-0.601,2.7-1.7,3.4l-9.6,6.1h-0.101c-0.2,0.2-0.5,0.301-0.7,0.301
	c-0.3,0-0.5-0.101-0.8-0.301l-9.5-6.1c-1-0.7-1.5-1.9-1.7-3.4v-19h24.101V502.176L130.508,502.176z"/>
<path fill="#FFFFFF" d="M121.907,510.876l0.301-0.101C122.108,510.775,122.008,510.775,121.907,510.876L121.907,510.876z"/>
<path fill="#FFFFFF" d="M102.708,537.477l-2.4,0.299v-0.199c0.5-0.1,0.6-0.1,0.6-0.301c0-0.199-0.3-0.6-0.399-0.799l-1.7,0.199
	c-0.2,0.5-0.2,0.7-0.2,0.801c0,0.199,0.4,0.199,0.601,0.199v0.2l-1.5,0.2v-0.2c0.399-0.101,0.5-0.3,0.6-0.8l1.3-3.6h0.2l2,3.1
	c0.4,0.6,0.6,0.8,0.9,0.8V537.477L102.708,537.477z M100.208,536.275l-0.9-1.399l-0.5,1.601L100.208,536.275L100.208,536.275z"/>
<path fill="#FFFFFF" d="M144.907,528.376c-0.399-1.101-1.399-1.899-2.5-2.3c-1.199-0.301-2.399-0.1-3.199,0.8
	c-1.301,1.101-0.4,2.8-0.4,4.3c0,0.301,0,0.5-0.3,0.7c-5.3-0.5-10.2-1.8-15.5-2.399c-1.2-0.201-2.4-0.201-3.601-0.4l-1.3-0.1
	c-4.6,0.1-9.2,0.399-13.399,1.5c-0.9,0.299-1.9,0.399-2.9,0.699c-0.7-0.1-1.2,0.4-1.8,0.2l-1.2,0.3c-0.1,0-0.2,0-0.4,0
	c-0.6-1.5,1.2-2.4,0.601-3.9c-0.5-0.799-1.4-1.699-2.5-1.5c-1.2-0.1-2.3,0.601-2.9,1.5c-0.8,1.801,0.2,3.801,0.5,5.601
	c-0.1,0.601,0.601,1.3,0,1.7c-1.2-0.801-2.7-1.301-4.1-0.801c-0.4,0.201-1.2-0.1-1.5,0.4c1.6,0.801,3.6,0.7,5.3,0.7
	c0.2-0.101,0.4-0.101,0.5,0c0.1,1-0.2,2.2,0.4,3.101c0.699,0.899,1.8,1.1,2.8,1.199c3.399-0.1,6.399-1.1,9.399-1.9
	c0.5,0,0.801-0.299,1.4-0.299c1.6-0.4,3.4-0.701,5.2-0.701c-0.8,1-1.2,2.101-1.5,3.301c-0.4,1,0.8,1.1,1.1,1.699
	c-1.1,0.301-1.899,1.101-3,1.5c-2.3-0.1-4.3,0.801-6.5,1.101c0,0.5,0.8,0.3,0.8,0.8c-0.1,0.301-0.399,0.4-0.699,0.6
	c0,0.201,0,0.301,0.199,0.301c0.2-0.301,0.7-0.1,0.9-0.301c0.7,0,1.4-0.199,2-0.299c0.6-0.301,1.3-0.301,1.9-0.701
	c0.8-0.199,1.199-0.699,2-1c1.1,0,2.1-0.399,3.1-0.399v0.2c-0.8,1.4-1.7,2.8-2.6,4.1c-0.101,0.301,0,0.5,0.3,0.6
	c0.5,0.101,1,0,1.399-0.199c0.801-1.301,1.5-2.6,2.101-3.9c0.3-1.3,1.2-1.9,2.1-2.8c0.101-0.101,0.4-0.3,0.5-0.101
	c-0.7,0.801-1.2,1.701-1.8,2.601c-0.3,1-0.4,2.399,0.5,3.2c0.4,0.4,1.1,0.3,1.7,0.3c1.399-0.7,3.3,0.399,4.399-1
	c0.7-0.101,0.801,0.7,1.101,1c0.6,0.2,1.3,0.8,1.899,0.399c0-0.399-0.5-0.799-0.699-1.1c-0.4-0.8-1-1.4-1.4-2.1
	c-0.2-0.5-0.5-0.801-0.6-1.4c0.699,0.2,1.199,0.7,2,0.801c0.6,0.299,1.399,0.199,2,0.6c0.5,0.6,1.199,1,1.8,1.4
	c0.899,0.399,1.899,0.5,2.899,0.899c0.4,0,0.9,0.3,1.2,0c-0.1-0.2-0.3-0.3-0.5-0.399c-0.1-0.5,0.7-0.201,0.9-0.601
	c-0.101-0.2-0.2-0.3-0.4-0.3c-0.5-0.301-1.8-0.4-2.2-0.6c-0.399-0.101-0.8-0.301-1.3-0.4c-2.2,0-3.399-2-5.2-2.7
	c0.4-0.399,1-0.7,1.301-1.2c0.3-0.5,0.399-1.4,0.1-2c-0.3-1.1-1.8-1-2.6-1.6l0.1-0.1c1.4-0.101,2.7,0.299,4,0.5
	c3.5,0.5,6.8,1.799,10.4,1.899c2,0,4.5,0.101,5.5-1.8c0.199-1.1,0.399-2.301,0.6-3.4
	C143.907,532.076,145.108,530.376,144.907,528.376L144.907,528.376z M105.407,545.176l-0.5-0.5c0.301-0.3,0.801-0.1,1.2-0.4
	c1-0.299,2.101-0.699,3.101-0.399C108.108,544.775,106.708,544.876,105.407,545.176L105.407,545.176z M128.208,544.576
	c0.899,0.4,2.6,0.8,3.899,0.9c-0.1,0.5-1,0-0.899,0.699c-1.101-0.4-2.5-0.699-3.301-1.5
	C128.008,544.676,128.108,544.576,128.208,544.576L128.208,544.576z M93.907,528.977c0.101-0.701,0.301-1.4,0.9-1.801
	c0.9-0.5,2.1-0.4,2.9,0.1c0.3,0.101,0.399,0.4,0.6,0.701c0.2,0.6-0.1,1.299-0.6,1.699h-0.4c0-0.6,0-1.199,0.2-1.699
	c0-0.4-0.4-0.5-0.7-0.701c-0.6-0.199-1.2,0.101-1.6,0.4c-0.4,0.4-0.7,1-0.5,1.6c0.3,0.4,0,1,0.199,1.4l-0.1,0.2
	C94.407,530.275,93.808,529.775,93.907,528.977L93.907,528.977z M95.608,529.977c0.5,0.399,1.3,0.199,2,0.299
	c0.101,0.4,0.101,0.9-0.2,1.301c-0.6-0.2-1.399-0.1-1.8-0.7C95.708,530.676,95.508,530.275,95.608,529.977L95.608,529.977z
	 M95.508,528.775c0.1-0.299,0-0.699,0.399-0.799c0.301-0.101,0.7-0.101,0.7,0.199c0,0.4-0.1,0.9-0.2,1.301
	C95.907,529.477,95.608,529.176,95.508,528.775L95.508,528.775z M112.708,540.576c-0.2-1.301,0.3-2.4,1.199-3.301
	c0.5-0.1,1.101-0.199,1.601,0.101c-1,0.3-2.2,0.5-2.4,1.7c0,0.5-0.1,0.699,0.101,1.1c0.399,0.7,1.3,0.4,1.8,1
	c0,0.2-0.101,0.4-0.3,0.4C114.008,541.176,113.308,541.076,112.708,540.576L112.708,540.576z M111.407,543.076
	c0.9-0.4,1.801-1.1,2.801-0.801C113.407,542.876,112.308,543.076,111.407,543.076L111.407,543.076z M114.808,543.477
	c-0.5,1.199-1.1,2.299-1.8,3.5c-0.101,0.199-0.4,0.199-0.601,0.299c0-0.5,0.5-0.899,0.7-1.399c0.8-1,1-2.101,1.9-3
	C115.308,543.076,114.808,543.176,114.808,543.477L114.808,543.477z M115.708,541.376v0.101h-0.101L115.708,541.376L115.708,541.376
	L115.708,541.376C115.808,541.275,115.708,541.275,115.708,541.376L115.708,541.376L115.708,541.376z M115.407,540.376
	c-0.6-0.101-1.199-0.3-1.8-0.399c-0.399-0.4,0-0.801,0-1.201c0.5-0.799,2-1.199,2.7-0.5
	C116.208,539.076,115.907,539.775,115.407,540.376L115.407,540.376z M116.208,540.376c0.1-0.5,0.3-1.101,0.6-1.5
	C116.808,539.275,116.608,539.977,116.208,540.376L116.208,540.376z M116.608,537.376c-0.5-0.101-0.7-0.7-1.2-0.7
	c0.4-0.1,0.9-0.1,1.4,0C117.008,536.977,116.708,537.176,116.608,537.376L116.608,537.376z M117.108,538.477L117.108,538.477v-0.4
	l0,0V538.477L117.108,538.477z M117.108,540.176c0-0.1,0.101-0.3,0.101-0.5c0.199-0.199,0.399,0.2,0.399,0.301
	C117.508,540.076,117.308,540.176,117.108,540.176L117.108,540.176z M117.608,537.876c0.2-0.5,0.2-1,0.601-1.399
	c0.399,0,0.699,0,1,0.1c0.1,0.699,1,1.699,0,2.4c-0.301,0.199-0.801,0.5-1.2,0.199C117.508,538.775,117.508,538.376,117.608,537.876
	L117.608,537.876z M120.308,536.876c-0.1-0.3,0.3-0.101,0.5-0.2l1.1,0.1C121.308,536.676,120.608,537.977,120.308,536.876
	L120.308,536.876z M122.208,537.376c-0.4,0.101-0.801,0.7-1.2,0.8C121.208,537.676,121.708,537.275,122.208,537.376L122.208,537.376
	z M120.608,539.576v0.1l0,0V539.576L120.608,539.576L120.608,539.576z M120.708,541.876c0,0.101,0,0.2-0.101,0.3l-0.8-0.699
	C120.208,541.376,120.508,541.576,120.708,541.876L120.708,541.876z M119.708,540.775c0.1-0.1,0.3-0.1,0.3,0H119.708
	L119.708,540.775z M119.208,540.176c0.1-0.199,0.3-0.6,0.6-0.6c0,0,0,0.1,0.1,0.1C119.608,539.876,119.407,540.076,119.208,540.176
	L119.208,540.176z M118.308,540.076h-0.1l0.199-0.2C118.508,539.977,118.407,540.076,118.308,540.076L118.308,540.076z
	 M118.508,541.477c0.5-0.5,0.899,0.299,1.1,0.699c0.5,0.801,2,1.5,1.4,2.7c-0.7,0.601-1.8,0-2.601,0.5c-0.399,0-1.1,0.101-1.3-0.3
	C117.508,543.876,117.907,542.576,118.508,541.477L118.508,541.477z M117.407,542.176l0.2-0.3c-0.3,0.899-0.7,1.8-1.2,2.7
	C116.208,543.676,117.108,542.977,117.407,542.176L117.407,542.176z M119.008,546.576c-0.7,0-1.8,0.4-2.4-0.2
	c0-0.3-0.3-0.399-0.3-0.7c0.6-0.199,1.1,0.5,1.6,0c0.801,0,1.7-0.1,2.601,0.1c0.399,0.101,1-0.699,1.1,0.101
	C121.407,547.076,119.907,546.176,119.008,546.576L119.008,546.576z M121.208,541.275v-0.1h0.1L121.208,541.275L121.208,541.275
	L121.208,541.275z M121.407,543.576c0,0.4,0.4,0.5,0.2,0.8C121.508,544.275,121.308,543.977,121.407,543.576L121.407,543.576z
	 M122.407,545.775l-0.199,0.101c-0.2-0.101-0.101-0.601-0.101-0.8C122.407,545.275,122.608,545.576,122.407,545.775L122.407,545.775
	z M124.208,546.676c0,0.1-0.2,0.1-0.301,0c-1.1-1.4-1.6-2.9-2.3-4.4h0.101C122.708,543.676,123.407,545.275,124.208,546.676
	L124.208,546.676z M125.608,543.275c-0.1,0-0.1,0.101-0.1,0.101c-1.101,0-1.8-0.601-2.601-1.101v-0.199
	C123.907,542.176,124.708,542.876,125.608,543.275L125.608,543.275z M124.608,538.376c0.4,0.101,0.5,0.601,0.5,1
	c0,0.8-0.5,1.5-1.2,1.8c-0.399,0.2-1,0.301-1.399,0.1c0.899,0,1.8-0.399,2.2-1.199L124.608,538.376L124.608,538.376z
	 M123.808,538.275c0.2,0.5,0.5,1,0.3,1.601c-0.399,0.7-1.1,0.7-1.8,0.8c-0.3,0-0.6-0.1-0.8-0.3c0-0.101,0-0.3-0.101-0.399
	c0.101-0.5-0.8-1-0.199-1.4C121.808,538.176,123.208,536.977,123.808,538.275L123.808,538.275z M142.407,535.576
	c-0.3,0.4,0,1-0.399,1.3c0,0.7-0.601,1-1,1.3c-4.4,1-8.601-0.5-12.8-1.3c-5.9-1.3-12.801-1.7-18.801-0.3c-2.8,0.5-5.6,1.199-8.3,2
	c-1.7,0.199-3.5,0.5-5.1,0c-1.3-0.6-0.8-2.301-1.2-3.5c0.1-0.9-0.3-1.7-0.3-2.5c-0.101-0.301-0.2-0.7-0.101-1
	c0.5,0.1,1.101,0.5,1.7,0.6c3.101,0.6,5.8-0.4,8.7-0.9c2.7-0.6,5.6-1.1,8.5-1.299c3.3,0,6.7-0.201,9.8,0.299c1,0,1.9,0.301,2.9,0.4
	c2.1,0.301,4,0.801,6,1c0.3,0.1,0.7,0.1,1.1,0.2c3.3,0.5,7,1.399,10.101,0C143.208,533.076,142.608,534.275,142.407,535.576
	L142.407,535.576z M141.407,531.076c0,0.6-0.5,0.4-0.8,0.699h-0.899c-0.2-0.299-0.101-0.699-0.101-1
	C140.208,530.775,140.907,530.775,141.407,531.076L141.407,531.076z M141.008,530.176c0.399-0.4-0.101-2.699,1-1.199
	c0,0.299,0,0.699-0.3,1C141.608,530.076,141.308,530.376,141.008,530.176L141.008,530.176z M144.008,529.775
	c-0.3,0.701-0.8,1.101-1.601,1.301c0-0.9,0.801-1.5,0.601-2.5c-0.5-0.7-1.4-0.9-2.3-0.7c-0.301,0.2-0.2,0.601-0.301,0.899
	l-0.1,1.201c-0.7,0-0.8-0.701-1-1.201c0-0.799,0.4-1.5,1.1-1.899c0.601-0.3,1.5-0.3,2.101,0.101c0.5,0.1,1,0.299,1.2,0.799
	C144.208,528.176,144.108,529.076,144.008,529.775L144.008,529.775z"/>
</svg>
