<?xml version="1.0" encoding="utf-8"?>
<!-- Generator: Adobe Illustrator 16.0.0, SVG Export Plug-In . SVG Version: 6.00 Build 0)  -->
<!DOCTYPE svg PUBLIC "-//W3C//DTD SVG 1.1//EN" "http://www.w3.org/Graphics/SVG/1.1/DTD/svg11.dtd">
<svg version="1.1" id="Layer_1" xmlns="http://www.w3.org/2000/svg" xmlns:xlink="http://www.w3.org/1999/xlink" x="0px" y="0px"
	 width="841.889px" height="1190.551px" viewBox="0 0 841.889 1190.551" enable-background="new 0 0 841.889 1190.551"
	 xml:space="preserve">
<path fill="#FFFFFF" d="M315.708,568.967v63.142h104.447c-4.21,27.098-31.571,79.453-104.447,79.453
	c-62.878,0-114.181-52.092-114.181-116.286s51.303-116.286,114.181-116.286c35.78,0,59.722,15.26,73.402,28.414l49.987-48.146
	c-32.097-29.992-73.665-48.146-123.39-48.146c-101.815,0-184.163,82.347-184.163,184.163s82.348,184.163,184.163,184.163
	c106.289,0,176.797-74.718,176.797-179.954c0-12.102-1.315-21.31-2.894-30.518H315.708z M710.344,568.967h-52.618v-52.618h-52.618
	v52.618H552.49v52.617h52.618v52.618h52.618v-52.618h52.618V568.967z"/>
</svg>
