<?xml version="1.0" encoding="utf-8"?>
<!-- Generator: Adobe Illustrator 16.0.0, SVG Export Plug-In . SVG Version: 6.00 Build 0)  -->
<!DOCTYPE svg PUBLIC "-//W3C//DTD SVG 1.1//EN" "http://www.w3.org/Graphics/SVG/1.1/DTD/svg11.dtd">
<svg version="1.1" id="Layer_1" xmlns="http://www.w3.org/2000/svg" xmlns:xlink="http://www.w3.org/1999/xlink" x="0px" y="0px"
	 width="841.889px" height="1190.551px" viewBox="0 0 841.889 1190.551" enable-background="new 0 0 841.889 1190.551"
	 xml:space="preserve">
<path fill="#FFFFFF" d="M736.548,440.472c-21.311,9.472-44.199,15.838-68.193,18.68c24.789-14.833,43.34-38.172,52.197-65.668
	c-23.309,13.831-48.81,23.574-75.401,28.809c-44.775-47.908-119.91-50.447-167.818-5.672
	c-31.092,29.059-44.254,72.536-34.499,113.96c-95.458-4.783-184.395-49.874-244.674-124.047
	c-10.576,18.124-16.134,38.737-16.101,59.722c-0.023,39.693,19.803,76.77,52.828,98.79c-18.852-0.587-37.29-5.674-53.775-14.838v1.5
	c0.005,56.522,39.838,105.213,95.238,116.417c-17.501,4.76-35.859,5.452-53.67,2.026c15.55,48.377,60.139,81.515,110.945,82.452
	c-42.058,32.986-93.986,50.87-147.437,50.776c-9.468,0.03-18.929-0.497-28.334-1.578c54.289,34.883,117.475,53.396,182.005,53.328
	c218.365,0,337.809-180.901,337.809-337.809c0-5.13-0.132-10.26-0.368-15.338c23.245-16.802,43.308-37.613,59.248-61.458"/>
</svg>
