<?xml version="1.0" encoding="utf-8"?>
<!-- Generator: Adobe Illustrator 15.0.0, SVG Export Plug-In . SVG Version: 6.00 Build 0)  -->
<!DOCTYPE svg PUBLIC "-//W3C//DTD SVG 1.1//EN" "http://www.w3.org/Graphics/SVG/1.1/DTD/svg11.dtd">
<svg version="1.1" id="Layer_1" xmlns:sketch="http://www.bohemiancoding.com/sketch/ns"
	 xmlns="http://www.w3.org/2000/svg" xmlns:xlink="http://www.w3.org/1999/xlink" x="0px" y="0px" width="400.839px"
	 height="131.955px" viewBox="101.94 28.976 400.839 131.955" enable-background="new 101.94 28.976 400.839 131.955"
	 xml:space="preserve">
<g id="sso">
	<path id="Shape" sketch:type="MSShapeGroup" fill="#FFFFFF" d="M487.757,31.762h-84.302c-8.301,0-15.021,6.72-15.021,15.022v84.202
		c0,8.302,6.721,15.022,15.021,15.022h48.229c2.272,8.5,9.982,14.824,19.272,14.923h5.237v-14.923h11.563
		c8.302,0,15.021-6.72,15.021-15.022V46.784C502.779,38.482,496.059,31.762,487.757,31.762L487.757,31.762z M497.639,140.967
		h-21.347h-5.14v14.923c-8.104-0.099-14.725-6.622-14.725-14.824v-0.099h-62.757V37h104.067v103.968H497.639z M414.426,74.456
		c-2.669,0-5.04-1.582-6.918-1.582c-1.681,0-2.768,1.285-2.768,2.965c0,3.854,6.819,4.645,10.08,4.645
		c5.732,0,10.575-3.657,10.575-9.586c0-10.673-13.836-7.906-13.836-12.156c0-1.779,1.581-2.668,3.359-2.668
		c2.472,0,3.757,1.285,5.535,1.285c1.68,0,2.768-1.483,2.768-3.064c0-3.261-5.831-4.151-8.104-4.151
		c-5.535,0-10.279,3.558-10.279,9.389c0,9.586,13.837,6.622,13.837,11.563C418.676,72.973,417.193,74.456,414.426,74.456
		L414.426,74.456z M428.459,56.172h4.546v20.754c0,2.075,1.285,3.261,3.063,3.261c1.779,0,3.064-1.186,3.064-3.261V56.172h4.546
		c1.977,0,2.768-1.482,2.768-2.866c0-1.483-0.988-2.866-2.768-2.866h-15.22c-1.779,0-2.768,1.383-2.768,2.866
		C425.692,54.789,426.484,56.172,428.459,56.172L428.459,56.172z M442.296,77.322c0,1.68,1.383,2.866,3.062,2.866
		c1.681,0,2.57-0.889,2.966-2.174l1.284-3.854h11.464l1.285,3.854c0.396,1.285,1.284,2.174,3.063,2.174
		c1.482,0,2.866-1.087,2.866-2.767c0-0.296-0.099-0.89-0.297-1.483l-8.104-22.533c-0.691-1.976-2.273-3.459-4.447-3.459
		c-2.075,0-3.756,1.483-4.447,3.459l-8.302,22.533C442.492,76.135,442.296,76.63,442.296,77.322L442.296,77.322z M455.242,56.469
		L455.242,56.469l3.953,11.958h-7.808L455.242,56.469L455.242,56.469z M473.229,66.154v11.069c0,1.483,0.89,3.064,3.063,3.064
		s3.063-1.483,3.063-3.064V66.154l7.808-10.97c0.396-0.494,0.594-1.186,0.594-1.877c0-1.681-1.285-3.064-2.966-3.064
		c-1.087,0-1.976,0.494-2.569,1.285l-5.93,8.599l-5.93-8.599c-0.494-0.791-1.482-1.285-2.568-1.285
		c-1.779,0-2.966,1.383-2.966,3.064c0,0.691,0.197,1.284,0.593,1.877L473.229,66.154L473.229,66.154z M412.054,103.511
		c-1.384,0-3.063-0.791-3.262-0.987c-0.197-0.198-0.692-0.495-0.889-0.495c-0.494,0-0.89,0.395-0.89,0.988
		c0,1.087,2.174,2.372,5.436,2.372c3.756,0,6.227-2.668,6.227-6.226c0-6.326-9.29-4.546-9.29-8.895c0-1.581,1.481-3.064,3.558-3.064
		c2.075,0,2.767,1.384,3.755,1.384c0.396,0,0.791-0.396,0.791-1.087c0-0.889-2.273-2.174-4.448-2.174
		c-2.963,0.099-5.632,1.877-5.632,5.041c0,5.93,9.289,4.151,9.289,8.894C416.501,101.238,414.723,103.511,412.054,103.511
		L412.054,103.511z M422.628,86.908l-2.372,15.713c-0.099,0.495-0.297,1.582-0.297,1.779c0,0.791,0.495,0.89,0.891,0.89
		c0.691,0,0.889-0.494,1.087-1.186l2.471-16.603h0.098l5.041,16.702c0.198,0.593,0.396,0.988,0.989,0.988
		c0.593,0,0.889-0.296,1.185-1.285l4.941-16.504h0.099l2.472,16.604c0.099,0.691,0.297,1.186,1.087,1.186
		c0.396,0,0.89-0.198,0.89-0.889c0-0.296-0.198-1.285-0.296-1.778l-2.373-15.714c-0.196-1.285-1.087-1.582-1.976-1.582
		c-0.791,0-1.187,0.495-1.482,1.285l-4.448,15.219h-0.098l-4.349-15.219c-0.198-0.791-0.691-1.285-1.482-1.285
		C423.716,85.327,422.826,85.623,422.628,86.908L422.628,86.908z M458.306,103.708l-6.325-16.899
		c-0.297-0.593-0.593-1.384-1.582-1.384c-0.988,0-1.283,0.791-1.58,1.384l-6.326,16.899c-0.099,0.297-0.196,0.593-0.196,0.791
		c0,0.396,0.296,0.791,0.889,0.791c0.691,0,0.89-0.395,1.087-0.89l1.285-3.558h9.487l1.285,3.558c0.197,0.495,0.395,0.89,1.087,0.89
		c0.593,0,0.89-0.395,0.89-0.791C458.503,104.302,458.405,104.005,458.306,103.708L458.306,103.708z M446.347,99.063l4.052-11.068
		h0.1l4.052,11.068H446.347L446.347,99.063z M472.24,90.861c0-2.767-2.075-5.336-5.93-5.336h-4.349c-0.89,0-1.285,0.395-1.285,1.087
		v17.492c0,0.791,0.396,1.285,0.989,1.285c0.593,0,0.987-0.396,0.987-1.285v-7.609l7.808,8.4c0.296,0.296,0.594,0.395,0.891,0.395
		c0.395,0,0.889-0.297,0.889-0.791c0-0.396-0.099-0.593-0.396-0.89l-6.819-7.214h1.779C470.165,96.396,472.24,93.925,472.24,90.861
		L472.24,90.861z M462.753,94.715v-7.412h3.458c2.669,0,4.053,1.285,4.053,3.854c0,2.273-1.482,3.558-4.053,3.558H462.753
		L462.753,94.715z M478.071,104.005c0,0.791,0.396,1.285,0.989,1.285c0.593,0,0.988-0.395,0.988-1.285V87.303h3.755
		c0.593,0,1.087-0.395,1.087-0.889c0-0.495-0.395-0.89-1.087-0.89h-9.586c-0.593,0-1.087,0.395-1.087,0.89
		c0,0.494,0.395,0.889,1.087,0.889h3.755v16.702H478.071z M413.635,109.737c-5.238,0-8.796,4.052-8.796,9.389
		s3.656,9.389,8.796,9.389c5.237,0,8.796-4.15,8.796-9.389C422.431,113.987,418.774,109.737,413.635,109.737L413.635,109.737z
		 M413.635,125.056c-3.262,0-4.843-2.767-4.843-5.93c0-3.063,1.581-5.93,4.843-5.93c3.162,0,4.842,2.768,4.842,5.93
		C418.477,122.289,416.898,125.056,413.635,125.056L413.635,125.056z M437.551,109.935c-1.087,0-1.878,0.692-1.878,1.977v9.685
		h-0.098l-8.104-10.871c-0.297-0.494-1.087-0.889-1.581-0.889c-1.087,0-1.878,0.691-1.878,1.976v14.528
		c0,1.285,0.791,1.977,1.878,1.977s1.878-0.691,1.878-1.977v-9.586h0.099l8.005,10.871c0.396,0.494,1.088,0.889,1.581,0.889
		c1.087,0,1.878-0.691,1.878-1.977v-14.626C439.429,110.627,438.639,109.935,437.551,109.935L437.551,109.935z M450.004,124.76
		h-4.546v-12.848c0-1.285-0.791-1.977-1.879-1.977c-1.087,0-1.878,0.692-1.878,1.977v14.231c0,1.285,0.791,2.076,1.978,2.076h6.424
		c1.087,0,1.779-0.89,1.878-1.681C451.882,125.748,451.288,124.76,450.004,124.76L450.004,124.76z M454.451,109.935
		c-1.087,0-1.878,0.692-1.878,1.977v14.528c0,1.285,0.791,1.977,1.878,1.977s1.878-0.692,1.878-1.977v-14.528
		C456.329,110.627,455.538,109.935,454.451,109.935L454.451,109.935z M472.142,109.935c-1.087,0-1.878,0.692-1.878,1.977v9.685
		h-0.099l-8.104-10.871c-0.298-0.494-1.087-0.889-1.582-0.889c-1.088,0-1.878,0.691-1.878,1.976v14.528
		c0,1.285,0.79,1.977,1.878,1.977c1.087,0,1.878-0.691,1.878-1.977v-9.586h0.099l8.005,10.871c0.396,0.494,1.087,0.889,1.582,0.889
		c1.087,0,1.877-0.691,1.877-1.977v-14.626C474.019,110.627,473.229,109.935,472.142,109.935L472.142,109.935z M484.791,124.76
		h-4.743v-3.855h4.15c1.187,0,1.878-0.889,1.878-1.779s-0.593-1.779-1.878-1.779h-4.15v-3.756h4.546
		c1.186,0,1.779-0.889,1.779-1.779c0-0.889-0.594-1.778-1.779-1.778h-6.325c-1.384,0-1.977,0.988-1.977,2.272v14.034
		c0,1.186,0.889,1.878,1.977,1.878h6.621c1.187,0,1.779-0.89,1.779-1.779C486.571,125.649,485.978,124.76,484.791,124.76
		L484.791,124.76z"/>
</g>
<path fill="#FFFFFF" d="M111.84,150.112h-5.7l-0.7,1.601c-0.2,0.5-0.3,1-0.3,1.3c0,0.5,0.2,0.801,0.5,1c0.2,0.1,0.7,0.2,1.6,0.301
	v0.399h-5.3v-0.399c0.601-0.101,1.101-0.301,1.4-0.701c0.399-0.399,0.8-1.199,1.399-2.399l5.801-12.9h0.199l5.801,13.2
	c0.6,1.301,1,2,1.399,2.4c0.3,0.199,0.7,0.4,1.101,0.4v0.399h-7.801v-0.399h0.301c0.6,0,1.1-0.101,1.3-0.301
	c0.2-0.1,0.3-0.3,0.3-0.5c0-0.1,0-0.3-0.1-0.4c0-0.1-0.101-0.399-0.4-0.899L111.84,150.112L111.84,150.112z M111.44,149.213
	l-2.399-5.601l-2.5,5.601H111.44L111.44,149.213z"/>
<path fill="#FFFFFF" d="M128.94,143.513v8.7c0,0.8,0.101,1.399,0.2,1.601c0.2,0.199,0.5,0.299,1,0.399v0.399h-4.5v-1.5
	c-0.5,0.601-1.1,1.101-1.6,1.4c-0.5,0.301-1.101,0.4-1.801,0.4c-0.6,0-1.199-0.2-1.699-0.6c-0.5-0.4-0.801-0.801-1-1.4
	c-0.2-0.5-0.301-1.4-0.301-2.7v-4.399c0-0.801-0.1-1.4-0.199-1.601c-0.2-0.2-0.5-0.3-1-0.399v-0.4h4.5v7.6c0,0.801,0,1.301,0.1,1.5
	c0.1,0.2,0.2,0.4,0.4,0.5c0.199,0.1,0.399,0.2,0.6,0.2c0.3,0,0.5-0.101,0.8-0.2c0.3-0.199,0.7-0.6,1.101-1.199v-5.9
	c0-0.801-0.101-1.4-0.2-1.6c-0.101-0.201-0.5-0.301-1-0.4v-0.4H128.94L128.94,143.513z"/>
<path fill="#FFFFFF" d="M137.94,143.213l0.2,3.8h-0.4c-0.5-1.1-1-1.9-1.5-2.3s-1-0.601-1.5-0.601c-0.3,0-0.6,0.101-0.8,0.301
	c-0.2,0.199-0.3,0.5-0.3,0.8c0,0.2,0.1,0.399,0.2,0.601c0.3,0.299,1,0.899,2.1,1.699c1.2,0.801,1.9,1.5,2.3,2
	c0.4,0.5,0.601,1.2,0.601,1.801c0,0.6-0.2,1.199-0.5,1.799c-0.3,0.601-0.7,1.101-1.3,1.4c-0.601,0.301-1.2,0.5-1.9,0.5
	c-0.5,0-1.2-0.199-2.1-0.5c-0.2-0.1-0.4-0.1-0.5-0.1c-0.301,0-0.5,0.199-0.7,0.6h-0.4l-0.2-4h0.4c0.4,1,0.8,1.801,1.5,2.4
	c0.6,0.5,1.2,0.8,1.8,0.8c0.4,0,0.7-0.101,0.9-0.3c0.2-0.2,0.399-0.5,0.399-0.9s-0.1-0.699-0.399-1c-0.2-0.3-0.8-0.699-1.601-1.3
	c-1.199-0.8-2-1.5-2.399-1.899c-0.5-0.701-0.8-1.4-0.8-2.201c0-0.899,0.3-1.6,0.899-2.299c0.601-0.701,1.5-1,2.601-1
	c0.6,0,1.199,0.1,1.699,0.399c0.2,0.101,0.4,0.2,0.5,0.2c0.101,0,0.301,0,0.301-0.1c0.1-0.101,0.199-0.201,0.399-0.5h0.5V143.213z"
	/>
<path fill="#FFFFFF" d="M143.84,139.513v4.1h2.6v1.201h-2.6v6.899c0,0.601,0,1.101,0.1,1.2c0.101,0.199,0.2,0.3,0.3,0.5
	c0.2,0.1,0.301,0.199,0.4,0.199c0.5,0,1-0.399,1.5-1.199l0.4,0.3c-0.601,1.5-1.7,2.3-3.101,2.3c-0.7,0-1.3-0.199-1.8-0.6
	s-0.8-0.801-0.9-1.301c-0.1-0.299-0.1-1-0.1-2.199v-6h-1.5v-0.6c1-0.701,1.8-1.4,2.5-2.201c0.7-0.799,1.3-1.6,1.8-2.6H143.84
	L143.84,139.513z"/>
<path fill="#FFFFFF" d="M151.84,143.513v2.5c0.7-1.1,1.399-1.9,1.899-2.3c0.601-0.399,1.101-0.601,1.601-0.601
	c0.399,0,0.8,0.101,1.1,0.4c0.3,0.301,0.4,0.7,0.4,1.2s-0.101,0.899-0.4,1.2c-0.3,0.3-0.6,0.4-0.899,0.4
	c-0.4,0-0.801-0.101-1.101-0.4c-0.3-0.301-0.5-0.4-0.5-0.5c-0.1,0-0.2-0.1-0.3-0.1c-0.2,0-0.4,0.1-0.7,0.299
	c-0.3,0.301-0.6,0.701-0.7,1.201c-0.3,0.799-0.399,1.6-0.399,2.5v2.6v0.699c0,0.5,0,0.701,0.1,0.9c0.101,0.2,0.2,0.4,0.4,0.5
	s0.5,0.2,1,0.2v0.399h-6v-0.399c0.5,0,0.8-0.2,1-0.399c0.2-0.201,0.3-0.801,0.3-1.801v-6.1c0-0.6,0-1-0.1-1.2
	c-0.101-0.2-0.2-0.399-0.301-0.5c-0.199-0.101-0.399-0.2-0.8-0.2v-0.4h4.4V143.513z"/>
<path fill="#FFFFFF" d="M162.94,153.013c-1.399,1.2-2.6,1.801-3.7,1.801c-0.6,0-1.199-0.201-1.6-0.601s-0.6-0.899-0.6-1.601
	c0-0.799,0.399-1.6,1.1-2.299c0.7-0.701,2.3-1.601,4.8-2.701v-1.1c0-0.8,0-1.4-0.1-1.6c-0.101-0.2-0.3-0.4-0.5-0.6
	c-0.3-0.201-0.5-0.301-0.9-0.301c-0.5,0-0.899,0.1-1.3,0.301c-0.2,0.1-0.3,0.299-0.3,0.5c0,0.199,0.1,0.399,0.3,0.6
	c0.3,0.3,0.5,0.699,0.5,1c0,0.4-0.1,0.699-0.4,1c-0.3,0.3-0.699,0.4-1.1,0.4c-0.5,0-0.9-0.201-1.3-0.5
	c-0.3-0.301-0.5-0.701-0.5-1.101c0-0.601,0.2-1.101,0.7-1.601s1.1-0.899,1.899-1.199c0.8-0.301,1.601-0.4,2.5-0.4
	c1.101,0,1.9,0.2,2.5,0.7c0.601,0.399,1,0.899,1.2,1.5c0.1,0.3,0.2,1.101,0.2,2.3v4.301c0,0.5,0,0.799,0.1,1
	c0,0.1,0.101,0.199,0.2,0.299c0.1,0.101,0.2,0.101,0.3,0.101c0.2,0,0.4-0.101,0.601-0.399l0.399,0.299c-0.399,0.601-0.8,1-1.2,1.301
	c-0.399,0.3-0.899,0.4-1.399,0.4c-0.601,0-1.101-0.101-1.5-0.4C163.24,154.112,163.04,153.612,162.94,153.013L162.94,153.013z
	 M162.94,152.112v-3.699c-1,0.6-1.7,1.199-2.1,1.8c-0.3,0.399-0.5,0.899-0.5,1.3s0.1,0.7,0.399,1c0.2,0.2,0.5,0.301,0.801,0.301
	C162.04,152.813,162.44,152.612,162.94,152.112L162.94,152.112z"/>
<path fill="#FFFFFF" d="M172.64,138.513v13.801c0,0.799,0.1,1.299,0.3,1.5c0.2,0.199,0.5,0.299,1.101,0.399v0.399h-6v-0.399
	c0.5,0,0.899-0.2,1.1-0.399c0.2-0.201,0.2-0.701,0.2-1.5v-11.5c0-0.801-0.101-1.301-0.3-1.5c-0.2-0.201-0.5-0.301-1.101-0.4v-0.4
	H172.64L172.64,138.513z"/>
<path fill="#FFFFFF" d="M177.74,138.113c0.5,0,1,0.199,1.301,0.499c0.399,0.4,0.5,0.801,0.5,1.301s-0.2,0.9-0.5,1.3
	c-0.4,0.399-0.801,0.5-1.301,0.5s-0.899-0.2-1.3-0.5c-0.399-0.399-0.5-0.8-0.5-1.3s0.2-0.9,0.5-1.301
	C176.84,138.312,177.24,138.113,177.74,138.113L177.74,138.113z M179.44,143.513v8.801c0,0.799,0.101,1.299,0.3,1.5
	c0.2,0.199,0.5,0.299,1.101,0.399v0.399h-6v-0.399c0.5,0,0.899-0.2,1.1-0.399c0.2-0.201,0.2-0.701,0.2-1.5v-6.5
	c0-0.801-0.1-1.301-0.3-1.5c-0.2-0.201-0.5-0.301-1.101-0.4v-0.4H179.44L179.44,143.513z"/>
<path fill="#FFFFFF" d="M187.24,153.013c-1.399,1.2-2.6,1.801-3.699,1.801c-0.601,0-1.2-0.201-1.601-0.601
	c-0.399-0.399-0.6-0.899-0.6-1.601c0-0.799,0.399-1.6,1.1-2.299c0.7-0.701,2.3-1.601,4.8-2.701v-1.1c0-0.8,0-1.4-0.1-1.6
	c-0.1-0.2-0.3-0.4-0.5-0.6c-0.3-0.201-0.5-0.301-0.9-0.301c-0.5,0-0.899,0.1-1.3,0.301c-0.2,0.1-0.3,0.299-0.3,0.5
	c0,0.199,0.1,0.399,0.3,0.6c0.3,0.3,0.5,0.699,0.5,1c0,0.4-0.1,0.699-0.399,1c-0.301,0.3-0.7,0.4-1.101,0.4
	c-0.5,0-0.899-0.201-1.3-0.5c-0.3-0.301-0.5-0.701-0.5-1.101c0-0.601,0.2-1.101,0.7-1.601s1.1-0.899,1.899-1.199
	c0.801-0.301,1.601-0.4,2.5-0.4c1.101,0,1.9,0.2,2.5,0.7c0.601,0.399,1,0.899,1.2,1.5c0.101,0.3,0.2,1.101,0.2,2.3v4.301
	c0,0.5,0,0.799,0.1,1c0,0.1,0.101,0.199,0.2,0.299c0.101,0.101,0.2,0.101,0.3,0.101c0.2,0,0.4-0.101,0.601-0.399l0.399,0.299
	c-0.399,0.601-0.8,1-1.199,1.301c-0.4,0.3-0.9,0.4-1.4,0.4c-0.6,0-1.1-0.101-1.5-0.4C187.54,154.112,187.34,153.612,187.24,153.013
	L187.24,153.013z M187.24,152.112v-3.699c-1,0.6-1.699,1.199-2.1,1.8c-0.3,0.399-0.5,0.899-0.5,1.3s0.1,0.7,0.4,1
	c0.199,0.2,0.5,0.301,0.8,0.301C186.24,152.813,186.74,152.612,187.24,152.112L187.24,152.112z"/>
<path fill="#FFFFFF" d="M196.84,143.513v1.4c0.6-0.6,1.1-1.1,1.6-1.301c0.5-0.299,1.101-0.399,1.7-0.399c0.7,0,1.3,0.2,1.8,0.601
	c0.5,0.399,0.8,0.899,1,1.5c0.101,0.5,0.2,1.299,0.2,2.6v4.3c0,0.899,0.1,1.399,0.2,1.601c0.2,0.199,0.5,0.299,1,0.399v0.399h-5.601
	v-0.399c0.4-0.101,0.7-0.2,0.9-0.5c0.1-0.2,0.2-0.7,0.2-1.5v-4.899c0-0.9,0-1.5-0.101-1.701c-0.1-0.199-0.199-0.399-0.399-0.5
	c-0.2-0.1-0.4-0.199-0.601-0.199c-0.699,0-1.3,0.5-1.899,1.5v6c0,0.8,0.1,1.4,0.2,1.6c0.199,0.2,0.399,0.4,0.899,0.4v0.4h-5.6v-0.4
	c0.5,0,0.8-0.2,1-0.5c0.1-0.2,0.2-0.7,0.2-1.5v-6.301c0-0.799-0.101-1.399-0.2-1.6c-0.101-0.199-0.5-0.3-1-0.4v-0.399h4.5V143.513z"
	/>
<path fill="#FFFFFF" d="M226.24,138.213v5.7h-0.399c-0.5-1.6-1.3-2.7-2.4-3.5c-1.1-0.801-2.2-1.2-3.5-1.2c-1.2,0-2.2,0.3-3,1
	s-1.399,1.601-1.7,2.8c-0.3,1.2-0.5,2.5-0.5,3.7c0,1.5,0.2,2.899,0.5,4.101c0.4,1.199,1,2,1.801,2.6c0.8,0.5,1.8,0.8,2.899,0.8
	c0.4,0,0.8,0,1.2-0.101c0.4-0.1,0.8-0.199,1.3-0.399v-3.399c0-0.601,0-1-0.1-1.201c-0.101-0.199-0.3-0.399-0.5-0.5
	c-0.3-0.199-0.601-0.199-1-0.199h-0.4v-0.4h7.8v0.301c-0.6,0-1,0.1-1.199,0.199c-0.2,0.1-0.4,0.301-0.5,0.6
	c-0.101,0.201-0.101,0.5-0.101,1.101v3.399c-1,0.5-2.1,0.801-3.2,1c-1.1,0.201-2.3,0.4-3.5,0.4c-1.5,0-2.8-0.199-3.8-0.6
	s-1.899-1-2.7-1.6c-0.8-0.701-1.399-1.4-1.8-2.301c-0.6-1.1-0.8-2.3-0.8-3.699c0-2.4,0.9-4.5,2.6-6.201
	c1.7-1.699,3.9-2.499,6.4-2.499c0.8,0,1.5,0.1,2.2,0.199c0.3,0.101,0.899,0.2,1.7,0.501c0.8,0.299,1.199,0.399,1.399,0.399
	s0.4-0.101,0.601-0.2c0.199-0.199,0.399-0.5,0.5-0.899h0.199V138.213z"/>
<path fill="#FFFFFF" d="M233.94,143.213c1,0,1.9,0.2,2.7,0.7s1.5,1.199,1.9,2.1c0.399,0.9,0.699,1.9,0.699,3
	c0,1.6-0.399,2.9-1.199,4c-1,1.301-2.301,1.9-4,1.9c-1.7,0-3-0.6-3.9-1.801c-0.9-1.199-1.4-2.5-1.4-4.1s0.5-3,1.4-4.199
	C231.04,143.813,232.34,143.213,233.94,143.213L233.94,143.213z M234.04,144.013c-0.4,0-0.801,0.2-1,0.5
	c-0.301,0.301-0.5,0.9-0.601,1.801c-0.1,0.899-0.1,2.1-0.1,3.699c0,0.801,0.1,1.6,0.2,2.4c0.1,0.6,0.3,1,0.6,1.3s0.6,0.399,1,0.399
	s0.7-0.1,0.9-0.299c0.3-0.301,0.5-0.601,0.6-1.101c0.2-0.8,0.2-2.3,0.2-4.601c0-1.299-0.101-2.299-0.2-2.799
	c-0.2-0.5-0.4-0.9-0.7-1.101C234.64,144.112,234.34,144.013,234.04,144.013L234.04,144.013z"/>
<path fill="#FFFFFF" d="M244.44,155.013l-3.8-8.6c-0.5-1-0.8-1.7-1.1-2c-0.2-0.2-0.5-0.301-0.801-0.4v-0.4h5.9v0.4
	c-0.4,0-0.6,0.1-0.8,0.2c-0.2,0.2-0.3,0.399-0.3,0.601c0,0.299,0.2,0.799,0.5,1.699l1.8,4.2l1.5-3.601c0.399-1,0.6-1.799,0.6-2.199
	c0-0.2-0.1-0.4-0.3-0.6c-0.2-0.201-0.5-0.201-0.899-0.301v-0.4h3.6v0.4c-0.3,0-0.6,0.2-0.9,0.4c-0.199,0.199-0.6,0.8-1,1.9
	l-3.699,8.699H244.44L244.44,155.013z"/>
<path fill="#FFFFFF" d="M259.34,148.713h-6.101c0.101,1.5,0.5,2.601,1.2,3.5c0.5,0.7,1.2,1,2,1c0.5,0,0.9-0.101,1.3-0.399
	c0.4-0.301,0.801-0.801,1.2-1.4l0.4,0.3c-0.601,1.2-1.3,2.101-2,2.601s-1.601,0.799-2.5,0.799c-1.7,0-2.9-0.6-3.7-1.899
	c-0.7-1-1-2.3-1-3.8c0-1.9,0.5-3.301,1.5-4.4s2.2-1.699,3.5-1.699c1.1,0,2.1,0.5,2.9,1.399
	C258.84,145.513,259.24,146.913,259.34,148.713L259.34,148.713z M256.44,147.913c0-1.301-0.1-2.2-0.2-2.6
	c-0.1-0.5-0.3-0.801-0.6-1.101c-0.2-0.101-0.4-0.2-0.7-0.2c-0.399,0-0.8,0.2-1,0.6c-0.5,0.701-0.7,1.701-0.7,2.9v0.4H256.44
	L256.44,147.913z"/>
<path fill="#FFFFFF" d="M264.64,143.513v2.5c0.7-1.1,1.4-1.9,1.9-2.3c0.6-0.399,1.1-0.601,1.6-0.601c0.4,0,0.8,0.101,1.1,0.4
	c0.301,0.301,0.4,0.7,0.4,1.2s-0.1,0.899-0.4,1.2c-0.3,0.3-0.6,0.4-0.899,0.4c-0.4,0-0.8-0.101-1.101-0.4
	c-0.3-0.301-0.5-0.4-0.5-0.5c-0.1,0-0.199-0.1-0.3-0.1c-0.2,0-0.399,0.1-0.7,0.299c-0.3,0.301-0.6,0.701-0.699,1.201
	c-0.301,0.799-0.4,1.6-0.4,2.5v2.6v0.699c0,0.5,0,0.701,0.1,0.9c0.101,0.2,0.2,0.4,0.4,0.5s0.5,0.2,1,0.2v0.399h-6v-0.399
	c0.5,0,0.8-0.2,1-0.399c0.2-0.201,0.3-0.801,0.3-1.801v-6.1c0-0.6,0-1-0.1-1.2c-0.101-0.2-0.2-0.399-0.3-0.5
	c-0.2-0.101-0.4-0.2-0.801-0.2v-0.4h4.4V143.513z"/>
<path fill="#FFFFFF" d="M274.84,143.513v1.4c0.601-0.6,1.101-1.1,1.601-1.301c0.5-0.299,1.1-0.399,1.699-0.399
	c0.7,0,1.301,0.2,1.801,0.601c0.5,0.399,0.8,0.899,1,1.5c0.1,0.5,0.199,1.299,0.199,2.6v4.3c0,0.899,0.101,1.399,0.2,1.601
	c0.2,0.199,0.5,0.299,1,0.399v0.399h-5.6v-0.399c0.399-0.101,0.7-0.2,0.899-0.5c0.101-0.2,0.2-0.7,0.2-1.5v-4.899
	c0-0.9,0-1.5-0.1-1.701c-0.101-0.199-0.2-0.399-0.4-0.5c-0.2-0.1-0.399-0.199-0.6-0.199c-0.7,0-1.3,0.5-1.9,1.5v6
	c0,0.8,0.101,1.4,0.2,1.6c0.2,0.2,0.4,0.4,0.9,0.4v0.4h-5.601v-0.4c0.5,0,0.8-0.2,1-0.5c0.101-0.2,0.2-0.7,0.2-1.5v-6.301
	c0-0.799-0.1-1.399-0.2-1.6c-0.2-0.199-0.5-0.3-1-0.4v-0.399h4.5V143.513z"/>
<path fill="#FFFFFF" d="M287.74,143.513v1.5c0.6-0.699,1.2-1.1,1.7-1.4c0.5-0.299,1.1-0.399,1.699-0.399c0.7,0,1.301,0.2,1.801,0.5
	s0.899,0.8,1.1,1.5c0.6-0.7,1.2-1.2,1.8-1.5c0.601-0.3,1.2-0.5,1.8-0.5c0.8,0,1.4,0.2,1.8,0.5c0.5,0.3,0.801,0.8,1,1.3
	c0.2,0.5,0.301,1.4,0.301,2.6v4.601c0,0.899,0.1,1.399,0.199,1.601c0.2,0.199,0.5,0.299,1,0.399v0.399h-5.699v-0.399
	c0.5,0,0.8-0.2,1-0.5c0.1-0.2,0.199-0.7,0.199-1.5v-4.8c0-1,0-1.6-0.1-1.9c-0.1-0.3-0.2-0.5-0.4-0.6c-0.199-0.1-0.399-0.2-0.6-0.2
	c-0.3,0-0.7,0.101-1,0.399c-0.4,0.201-0.7,0.601-1.1,1.101v6c0,0.8,0.1,1.3,0.199,1.5c0.2,0.3,0.5,0.5,1,0.5v0.399h-5.8v-0.399
	c0.3,0,0.601-0.101,0.7-0.2c0.2-0.1,0.3-0.3,0.4-0.5c0.1-0.199,0.1-0.6,0.1-1.3v-4.8c0-1,0-1.6-0.1-1.9c-0.101-0.3-0.2-0.5-0.4-0.6
	s-0.399-0.2-0.6-0.2c-0.3,0-0.601,0.101-0.9,0.2c-0.399,0.199-0.8,0.699-1.2,1.3v6c0,0.8,0.101,1.3,0.2,1.601
	c0.2,0.199,0.5,0.399,1,0.399v0.399h-5.7v-0.399c0.5,0,0.8-0.2,1-0.5c0.101-0.2,0.2-0.7,0.2-1.5v-6.3c0-0.801-0.1-1.4-0.2-1.6
	c-0.1-0.201-0.5-0.301-1-0.4v-0.4H287.74L287.74,143.513z"/>
<path fill="#FFFFFF" d="M311.941,148.713h-6.101c0.101,1.5,0.5,2.601,1.2,3.5c0.5,0.7,1.2,1,2,1c0.5,0,0.9-0.101,1.3-0.399
	c0.4-0.301,0.8-0.801,1.2-1.4l0.4,0.3c-0.601,1.2-1.301,2.101-2,2.601c-0.7,0.5-1.601,0.799-2.5,0.799c-1.601,0-2.9-0.6-3.7-1.899
	c-0.7-1-1-2.3-1-3.8c0-1.9,0.5-3.301,1.5-4.4s2.2-1.699,3.5-1.699c1.1,0,2.1,0.5,2.899,1.399
	C311.34,145.513,311.84,146.913,311.941,148.713L311.941,148.713z M308.941,147.913c0-1.301-0.101-2.2-0.2-2.6
	c-0.101-0.5-0.3-0.801-0.601-1.101c-0.2-0.101-0.399-0.2-0.7-0.2c-0.399,0-0.8,0.2-1,0.6c-0.5,0.701-0.699,1.701-0.699,2.9v0.4
	H308.941L308.941,147.913z"/>
<path fill="#FFFFFF" d="M316.84,143.513v1.4c0.601-0.6,1.101-1.1,1.601-1.301c0.5-0.299,1.1-0.399,1.699-0.399
	c0.7,0,1.301,0.2,1.801,0.601c0.5,0.399,0.8,0.899,1,1.5c0.1,0.5,0.199,1.299,0.199,2.6v4.3c0,0.899,0.101,1.399,0.2,1.601
	c0.2,0.199,0.5,0.299,1,0.399v0.399h-5.6v-0.399c0.399-0.101,0.7-0.2,0.899-0.5c0.101-0.2,0.2-0.7,0.2-1.5v-4.899
	c0-0.9,0-1.5-0.1-1.701c-0.101-0.199-0.2-0.399-0.4-0.5c-0.2-0.1-0.399-0.199-0.6-0.199c-0.7,0-1.3,0.5-1.9,1.5v6
	c0,0.8,0.101,1.4,0.2,1.6c0.2,0.2,0.4,0.4,0.9,0.4v0.4h-5.601v-0.4c0.5,0,0.8-0.2,1-0.5c0.101-0.2,0.2-0.7,0.2-1.5v-6.301
	c0-0.799-0.1-1.399-0.2-1.6c-0.2-0.199-0.5-0.3-1-0.4v-0.399h4.5V143.513z"/>
<path fill="#FFFFFF" d="M329.04,139.513v4.1h2.6v1.201h-2.6v6.899c0,0.601,0,1.101,0.1,1.2c0.101,0.199,0.2,0.3,0.301,0.5
	c0.1,0.1,0.3,0.199,0.399,0.199c0.5,0,1-0.399,1.5-1.199l0.4,0.3c-0.601,1.5-1.7,2.3-3.101,2.3c-0.7,0-1.3-0.199-1.8-0.6
	s-0.8-0.801-0.899-1.301c-0.101-0.299-0.101-1-0.101-2.199v-6h-1.5v-0.6c1-0.701,1.8-1.4,2.5-2.201c0.7-0.799,1.3-1.6,1.8-2.6
	H329.04L329.04,139.513z"/>
<path fill="#FFFFFF" d="M200.148,102.876c-0.101,0.101-0.2,0.2-0.301,0.3"/>
<path fill="#FFFFFF" d="M202.948,81.076c0.3,0,0.6-0.301,0.6-0.6c0-0.301-0.3-0.601-0.6-0.601s-0.601,0.3-0.601,0.601
	C202.347,80.876,202.648,81.076,202.948,81.076L202.948,81.076z"/>
<path fill="#FFFFFF" d="M229.948,56.476L229.948,56.476h-21l0,0l0,0v17c0,1.6,0.7,3.1,1.6,3.5l8.101,4.799
	c0.199,0.201,0.399,0.301,0.699,0.301c0.301,0,0.5-0.1,0.7-0.301l8.2-4.899c1-0.399,1.6-1.9,1.6-3.5L229.948,56.476L229.948,56.476
	L229.948,56.476z M215.948,61.376h-1.8v-4.3h1.8V61.376L215.948,61.376z M214.648,62.876l0.3-0.3l-0.2-0.3h0.3l0.2-0.4l0.2,0.4h0.3
	l-0.2,0.3l0.3,0.3l-0.3,0.1v0.4l-0.3-0.2l-0.3,0.2v-0.4L214.648,62.876L214.648,62.876z M209.547,68.276v-4.1h2.2v4.1H209.547
	L209.547,68.276z M209.948,62.376h0.3l0.2-0.4l0.2,0.4h0.3l-0.2,0.3l0.3,0.3h-0.3v0.4l-0.3-0.2l-0.3,0.2v-0.4l-0.301-0.1l0.301-0.3
	L209.948,62.376L209.948,62.376z M212.347,66.576h0.301l0.199-0.4l0.2,0.4h0.3l-0.199,0.3l0.3,0.3l-0.3,0.1v0.4l-0.301-0.2l-0.3,0.2
	v-0.4l-0.3-0.1l0.3-0.3L212.347,66.576L212.347,66.576z M213.847,63.176c0-0.1-0.199-0.1-0.199-0.1c-0.2,0-0.301,0.3-0.4,0.3
	s-0.2,0-0.2-0.1c0-0.1,0.3-0.2,0.3-0.3c-1.399,0-1.399,0.6-1.6,0.6c-0.4,0,0.3-0.7,0.5-0.8c-0.3,0-0.4-0.4-0.7-0.6
	c0.101-0.2,0.2-0.1,0.4,0c0-0.1,0.1-0.3,0.399-0.3c0.601,0,0.4,0.6,0.5,0.6c0.101,0,0-0.6,0.4-0.6c0.6,0,1.4,1.6,0.7,1.6
	C213.648,63.476,213.847,63.276,213.847,63.176L213.847,63.176z M212.247,58.676l0.3-0.3l-0.2-0.3h0.301l0.199-0.4l0.2,0.4h0.3
	l-0.199,0.3l0.3,0.3l-0.3,0.1v0.4l-0.301-0.2l-0.3,0.2v-0.4L212.247,58.676L212.247,58.676z M211.747,57.076v4.3h-2.2v-4.3H211.747
	L211.747,57.076z M215.948,79.477l-5-3c-0.8-0.601-1.3-1.601-1.4-2.8v-4.8h6.4V79.477L215.948,79.477z M214.148,68.276v-4.1h1.8v4.1
	H214.148L214.148,68.276z M222.347,79.775l-2.3,1.4l0,0c-0.2,0.1-0.399,0.2-0.6,0.2s-0.5-0.101-0.601-0.2l-2.3-1.4V68.876h5.9
	v10.899H222.347z M222.347,68.276h-5.899v-11.2h5.899V68.276L222.347,68.276z M229.347,73.676c-0.1,1.2-0.5,2.2-1.399,2.8l-5,3
	V68.876h6.399V73.676L229.347,73.676z M229.347,68.276h-6.399v-11.2h6.399V68.276L229.347,68.276z"/>
<path fill="#FFFFFF" d="M215.547,72.776c0-0.1-0.8,0.3-0.6,0.2c0-0.2,0.399-0.7,0.6-0.9c0-0.3-0.399,0-0.7,0.2
	c1.2-1.7,0.4-1-0.199-0.9c1.1-1.1,0.8-1.1,0-0.8c0.6-0.5,0.8-1.1,0.699-1.2c-0.6,0.8-1.1,0.7-1.1,1.4c0,0.5-0.2,1.2-0.4,1.5
	c-0.3,0.3-0.1-1.3-0.899-1.3c-0.3,0-0.9,0-1.101,0.3c0.2,0,0.4,0.4,0.4,0.6c0,0.2,0.2,0.6-0.1,0.6c-0.301,0-0.601-0.6-0.601-0.9
	c0-0.3,0-0.2,0-0.6c0-0.7-1.1-1.6-1.6-1.6c0,0.5,0.6,0.6,0.6,1.2c-0.3,0-0.6-0.5-0.6-0.2c0,0.3,0.399,0.4,0.399,0.6
	c0,0.3-0.399-0.1-0.399,0.2c0,0.2,0.2,0.2,0.3,0.4c-0.2,0-0.3,0-0.4,0.1c0,0.1,0.101,0.2,0.2,0.3c-0.1,0.1-0.1,0.2-0.1,0.6
	c0,1.3,0.8,2,1.5,2c0.399,0,0.399-0.3,0.399-0.5c0,0.2,0.2-0.1,0.2,0.3s-0.399,0.2-0.399,0.6c0,0.5,0.699,0,0.699,0.5
	c0,0.6-0.1,0.6-0.1,0.9c0,0.2,0.7-0.2,0.7-0.3c0.2,0.1,0.2,0.6,0.5,0.5c0.2,0,0.2-0.5,0.399-0.6c-0.1,0,0.601,0.5,0.601,0.2
	c0-0.6-0.3-0.4-0.3-0.8s0.899-0.3,0.699-0.5c-0.1-0.2-0.199-0.1-0.3-0.4c0,0.1-0.7-1,0.101-0.5
	C215.547,74.776,215.648,72.876,215.547,72.776L215.547,72.776z"/>
<path fill="#FFFFFF" d="M237.948,77.176c0.399,0,0.7-0.3,0.7-0.6c0-0.3-0.301-0.6-0.7-0.6c-0.4,0-0.7,0.3-0.7,0.6
	C237.247,76.977,237.547,77.176,237.948,77.176L237.948,77.176z"/>
<path fill="#FFFFFF" d="M235.148,78.876c0.399,0,0.699-0.3,0.699-0.601c0-0.299-0.3-0.6-0.699-0.6c-0.4,0-0.7,0.301-0.7,0.6
	C234.448,78.576,234.847,78.876,235.148,78.876L235.148,78.876z"/>
<path fill="#FFFFFF" d="M202.047,82.676c0.4,0,0.7-0.3,0.7-0.6c0-0.301-0.3-0.6-0.7-0.6c-0.399,0-0.7,0.299-0.7,0.6
	C201.347,82.376,201.648,82.676,202.047,82.676L202.047,82.676z"/>
<path fill="#FFFFFF" d="M204.148,82.876c0.399,0,0.699-0.3,0.699-0.601c0-0.299-0.3-0.6-0.699-0.6c-0.4,0-0.7,0.301-0.7,0.6
	C203.448,82.576,203.747,82.876,204.148,82.876L204.148,82.876z"/>
<path fill="#FFFFFF" d="M263.847,53.876c1,1.2,1.2,3.2,0.5,4.6c-0.399,0-0.3-0.6-0.399-0.8c-0.7-1.4-1.3-3.1-0.7-4.6
	C263.847,53.076,263.648,53.676,263.847,53.876L263.847,53.876z"/>
<path fill="#FFFFFF" d="M176.247,55.576c-0.2,0.9-0.2,2.1,0,2.9c-0.2,0.2-0.1-0.2-0.3-0.1c-1.4-1-0.8-3.1-1.101-4.5
	c0.101-0.1,0.301-0.1,0.4-0.1C175.847,54.176,176.047,54.876,176.247,55.576L176.247,55.576z"/>
<path fill="#FFFFFF" d="M267.047,55.676c0.2,0.4-0.2,0.8-0.5,1c-0.3,0.1-0.7-0.1-0.899-0.4c-0.101-0.4,0.1-0.8,0.399-1
	C266.448,55.276,266.847,55.376,267.047,55.676L267.047,55.676z"/>
<path fill="#FFFFFF" d="M174.047,57.276c-0.1,0.3-0.2,0.7-0.5,0.8c-0.2,0-0.5,0-0.7-0.2c-0.199-0.2-0.3-0.5-0.1-0.8
	c0.1-0.3,0.4-0.3,0.7-0.3C173.648,56.976,173.948,56.976,174.047,57.276L174.047,57.276z"/>
<path fill="#FFFFFF" d="M268.448,57.976c0.1,0.2,0.1,0.4,0,0.6c-0.3,0.3-0.601,0.5-1,0.3c-0.3-0.1-0.3-0.4-0.4-0.6
	c0.101-0.3,0.4-0.6,0.601-0.7C268.047,57.576,268.247,57.776,268.448,57.976L268.448,57.976z"/>
<path fill="#FFFFFF" d="M266.347,57.976c0.301,0.1,0.101,0.5,0,0.7c-0.199,0.2-0.399,0.5-0.8,0.4c-0.2-0.2-0.399-0.2-0.5-0.4
	c0-0.4,0.101-0.7,0.5-0.8C265.948,57.676,266.148,57.876,266.347,57.976L266.347,57.976z"/>
<path fill="#FFFFFF" d="M263.747,58.576c0,0.4,0,0.9-0.4,1c-0.399,0.1-0.699-0.2-0.8-0.5c0-0.4,0.2-0.7,0.5-0.9
	C263.247,58.076,263.547,58.276,263.747,58.576L263.747,58.576z"/>
<path fill="#FFFFFF" d="M177.948,58.676c0.1,0.4-0.3,0.6-0.5,0.8c-0.3,0.1-0.601-0.1-0.7-0.4c-0.3-0.3,0.1-0.5,0.1-0.7
	C177.347,58.076,177.847,58.276,177.948,58.676L177.948,58.676z"/>
<path fill="#FFFFFF" d="M175.847,58.876c0,0.3-0.1,0.6-0.399,0.7s-0.601-0.1-0.7-0.3c-0.2-0.4,0-0.7,0.3-0.8
	C175.448,58.176,175.648,58.576,175.847,58.876L175.847,58.876z"/>
<path fill="#FFFFFF" d="M254.847,58.976c0.4,0.8,0.7,1.7,0.7,2.7c-0.1,0.7,0.101,1.6-0.399,2.1c-0.5-0.2-0.5-0.8-0.9-1.1
	c-0.7-1.3-0.1-2.8,0.1-4.1C254.747,58.376,254.747,58.776,254.847,58.976L254.847,58.976z"/>
<path fill="#FFFFFF" d="M174.047,59.376c0.101,0.4-0.2,0.7-0.5,0.9c-0.399,0.1-0.7-0.2-0.899-0.5c0-0.4,0.199-0.7,0.5-0.9
	C173.547,58.876,173.948,59.076,174.047,59.376L174.047,59.376z"/>
<path fill="#FFFFFF" d="M260.648,60.476c0.5,1.1,0.5,2.4,0.199,3.5l-0.199,0.2c-0.5-1-1.2-1.9-1.5-3c0-0.8,0.1-1.5,0.399-2.1
	c0.3-0.2,0.4,0,0.5,0.3C260.047,59.776,260.247,60.276,260.648,60.476L260.648,60.476z"/>
<path fill="#FFFFFF" d="M265.247,59.776c0,0.4-0.2,0.8-0.6,0.9c-0.4,0.1-0.7,0-0.801-0.4c-0.1-0.4,0.101-0.7,0.4-0.9
	C264.648,59.176,265.047,59.576,265.247,59.776L265.247,59.776z"/>
<path fill="#FFFFFF" d="M175.847,60.976c0,0.3-0.3,0.6-0.5,0.7c-0.3,0.2-0.5-0.1-0.8-0.3c-0.1-0.3-0.2-0.6,0-0.8
	c0.101-0.2,0.4-0.2,0.601-0.3C175.448,60.476,175.747,60.576,175.847,60.976L175.847,60.976z"/>
<path fill="#FFFFFF" d="M177.448,60.776c0.1,0.4-0.3,0.6-0.4,0.7c-0.399,0.1-0.7-0.2-0.8-0.4c-0.1-0.4,0.1-0.6,0.4-0.8
	C177.047,60.176,177.247,60.476,177.448,60.776L177.448,60.776z"/>
<path fill="#FFFFFF" d="M266.247,60.676c0,0.5-0.8,1-0.8,1.4c-0.4,1-1.3,1.7-2.3,2.1c-0.2,0.2-0.5,0.4-0.801,0.5
	c-0.1-0.7,0.601-1.4,1-2.1C264.047,61.576,265.148,60.976,266.247,60.676L266.247,60.676z"/>
<path fill="#FFFFFF" d="M175.148,62.176c0.5,0.6,0.8,1.2,1.5,1.7c0,0.1-0.101,0.4-0.301,0.4c-1.8-0.1-3-2-3.899-3.2
	c0.1-0.4,0.6-0.1,0.8-0.1C173.948,61.476,174.648,61.576,175.148,62.176L175.148,62.176z"/>
<path fill="#FFFFFF" d="M266.747,62.776c-0.1,1.6-0.8,3.2-2.3,4c-0.4,0.1-0.8,0.6-1.2,0.3c0.8-1.6,1.9-2.9,3.2-4.3H266.747
	L266.747,62.776z"/>
<path fill="#FFFFFF" d="M259.747,63.776c0.1,0.6-0.2,0.9-0.6,1.1c-0.4,0-0.7-0.3-0.801-0.6c0-0.4,0.2-0.7,0.5-0.8
	c0.101-0.1,0.301-0.1,0.4-0.1C259.448,63.476,259.547,63.576,259.747,63.776L259.747,63.776z"/>
<path fill="#FFFFFF" d="M173.047,64.176c0.7,0.5,1.3,1.1,2,1.7c-0.5,0.3-1.1,0-1.6,0c-1.2-0.4-2.101-1.5-3.4-1.9
	c0-0.4,0.5-0.3,0.8-0.4C171.648,63.576,172.347,63.976,173.047,64.176L173.047,64.176z"/>
<path fill="#FFFFFF" d="M212.347,53.176c-2.1-0.8-3.399,1.3-5.5,1.1c-0.3,0.1-0.199,0.4-0.3,0.6c-0.1,0.1-0.3,0-0.399,0
	c-0.101-0.9-0.4-1.7-0.5-2.5c-0.2-0.4-0.101-0.9-0.301-1.3c-1.199-3.2,2.9-0.8,3.7-2.7c0.7-1.6-1.399-1.8-2-3v-0.4
	c-0.6-0.6-1.2-0.8-1.6-1.5c0.3-0.9,0.399-1.9,0.1-2.8c0-0.2-0.2-0.5-0.5-0.4c-0.7,1-1.2,1.7-1.899,2.7c-0.7-0.5-1.4-1.2-2.2-1.6
	c-0.601-0.1-1.101-0.6-1.7-0.4c-0.1,0.2,0,0.4,0.1,0.6c0,1.4,0.801,2.6,1.801,3.6l0.1,0.6c-0.7,1.5-0.5,3.2-0.7,4.9
	c-1.6,4.2-4.3,8.3-7.899,11.2c-2.101,2.4-4.601,4.6-4.9,7.9c-0.1,0.5,0.1,1.1-0.3,1.5c-1.2-0.4-2.4-1-3.4-1.8
	c-1.7-1.2-4.1-1-5.2-3.2c-0.399-0.8,0.101-1.7,0.5-2.3c1.2-1.2,1.101-3.3,0.4-4.7c-0.1,0-0.2,0.1-0.3,0.2
	c-0.101,2.2-1.8,3.7-1.2,6.1c0.1,0.7,0.5,1.1,0.7,1.8c-0.3-0.1-0.601-0.1-0.8-0.2c-0.801-0.1-1.601-0.4-2.5-0.3
	c-1.7,0.8-4-0.2-5.301,1.4c-0.199,0-0.5,0.1-0.399,0.4c0.8,0,1.6,0.2,2.399,0.2c1.301,0.2,2.101-0.8,3-1.3h0.2
	c0.4-0.4,1-0.1,1.5-0.2c2.3,0.3,4.101,1.4,6,2.5v0.1c-0.7,0.3-1.6,0.6-2.3,1c-0.8,0.6-1.8,1.4-2,2.5c-0.6,0.9,0.2,1.7,0.5,2.5
	c0,0.4,0.1,0.799,0.4,1c1.199-1.3,0.1-2.8,0.3-4.201c0.3-1.1,1.3-1.6,2.399-1.9c2.101-0.9,3.601,0.8,5.301,1.8
	c0,1.7,0.199,3.3-0.2,5c-0.5,0.2-1.2,0.301-1.7,0.301c-2.9,0.199-5.2,1.799-7.8,2.699c-1.2,0.4-2.601,0.4-3.7,0.801
	c0.9,0.299,1.9-0.101,2.8-0.101c3.601-0.5,6.3-3.3,10.2-2.8l0.1,0.1c-0.399,0.9-1,1.7-1.699,2.4c-0.101-0.4-0.101-0.7-0.5-1
	c-0.301-0.1-0.601,0-0.801,0.3c-0.1,0.2-0.1,0.399,0,0.601c0.2,0.299,0.5,0.399,0.801,0.5c-0.101,0.299-0.5,0.5-0.7,0.799
	c-1,1.701-3.101,1-4.3,2.201c-0.2,0.299-0.801,0.399-0.5,0.799c1.399,0.101,2.699-0.199,3.8-1c1.399-1.5,2.8-2.899,4.1-4.399
	c0.2,1.2-0.1,2.399-0.8,3.399c-0.3-0.199-0.6-0.399-1-0.6c-0.4,0.1-0.6,0.4-0.7,0.7c0.101,0.3,0.3,0.601,0.5,0.7
	c-1.2,0.9-2.8,1-4.2,1.4c-2.699,0.299-5.3,0.6-8,0.6c-1.3-0.1-2.699,0.4-4,0c-1.399,0.3-2.899-0.2-4,0.6c-0.1,0.2,0,0.4,0,0.5
	c1.7,1.1,4,0.2,5.9,0.6h14.4c1.1,0,2.1-0.1,3-0.6c1.899-1.1,2.899-3,3.8-4.9c0.399-0.699,0.6-1.399,0.8-2.199
	c0.4-1.301,1.5-2.1,2.7-2.2c0.2,1.899-0.2,3.8-0.601,5.601c-0.199,1.199-1,2.299-0.5,3.6c0.101,0.6,0.7,0.6,1.2,0.699
	c4.4-0.1,8.9-0.299,13.5,0.101c0.8,0.101,1.601,0.399,2.5,0.399c0.101-0.1,0.3-0.1,0.2-0.399c-0.1-0.399-0.4-0.899-0.9-1
	c-0.1-0.2-0.399-0.101-0.5-0.3c-2.3-1.301-5.199-0.6-7.899-0.6c-1.4,0.199-2.9,0.399-4.101-0.4c-0.5-0.7-0.1-2.801-0.1-2.801
	c0-0.799,2-6.599,2.3-7.099c0.101-0.6,0.3-1.1,0.2-1.7c0.3-0.7,0.2-1.7,0.2-2.5c0.1-1.2,0.7-2.3,1.1-3.4c0.2-0.6,0.4-1.1,0.601-1.7
	c0.199-0.7,0.3-1.4,0.699-1.9c1.2,0.8,2.4,0.7,2.9,2.1l0.5,3.1c0,0.2,0.1,0.6,0.4,0.3c1-0.6,0.699-2,0.699-3
	c0.2-1.1-0.6-1.7-0.899-2.7c-0.3-0.2-0.7-1.1-0.7-1.1c-0.1-0.8-1.9-1.4-1.5-2.4c0.2-0.8,0.4-1.6,1.2-2.1c0.1,0.1,0.2,0.2,0.2,0.3
	l0.399-0.3v-3.1c1.2,0,3,0.1,4.2,0.1c0.3,0.1,0.6,0.4,1,0.4l0.3-0.4l3-0.6C214.247,54.676,213.547,53.176,212.347,53.176
	L212.347,53.176z"/>
<path fill="#FFFFFF" d="M215.547,54.576c0.101,0,0.2,0,0.3-0.1L215.547,54.576L215.547,54.576z"/>
<path fill="#FFFFFF" d="M183.648,64.776c0,0.4-0.2,0.7-0.5,0.8c-0.301-0.1-0.5-0.1-0.7-0.4c-0.101-0.4,0.2-0.7,0.5-0.8
	C183.148,64.476,183.547,64.476,183.648,64.776L183.648,64.776z"/>
<path fill="#FFFFFF" d="M181.247,64.776c0.2,0.2,0.3,0.6,0.1,0.8c-0.3,0.2-0.699,0.4-0.899,0.1c-0.2-0.2-0.4-0.5-0.3-0.8
	C180.547,64.676,180.948,64.476,181.247,64.776L181.247,64.776z"/>
<path fill="#FFFFFF" d="M232.247,65.176C232.247,65.176,232.247,65.276,232.247,65.176"/>
<path fill="#FFFFFF" d="M260.148,65.876c0.1,0.4-0.2,0.7-0.5,0.8c-0.4-0.1-0.801-0.2-0.801-0.7c0-0.3,0.301-0.5,0.5-0.6
	C259.648,65.376,259.948,65.576,260.148,65.876L260.148,65.876z"/>
<path fill="#FFFFFF" d="M262.047,65.776c0.101,0.2,0.4,0.5,0.101,0.7c-0.101,0.1-0.301,0.1-0.4,0.3c-0.4,0.1-0.8-0.1-0.9-0.4
	c-0.1-0.4,0.301-0.6,0.5-0.8C261.648,65.376,261.847,65.576,262.047,65.776L262.047,65.776z"/>
<path fill="#FFFFFF" d="M172.047,66.176c-0.1,0.4-0.5,0.6-1,0.5c-0.1-0.1-0.2-0.3-0.3-0.5c0-0.3,0.1-0.5,0.4-0.6
	C171.648,65.576,171.948,65.776,172.047,66.176L172.047,66.176z"/>
<path fill="#FFFFFF" d="M184.448,66.876c0,0.3-0.4,0.6-0.601,0.7c-0.399,0-0.6-0.3-0.8-0.5c0-0.3,0.101-0.7,0.4-0.7
	C183.847,66.076,184.247,66.376,184.448,66.876L184.448,66.876z"/>
<path fill="#FFFFFF" d="M182.247,66.576c0.1,0.1,0.2,0.4,0.1,0.6c-0.199,0.2-0.5,0.5-0.899,0.3c-0.2-0.2-0.5-0.3-0.4-0.7
	c0.101-0.1,0.3-0.4,0.5-0.4C181.847,66.276,182.047,66.376,182.247,66.576L182.247,66.576z"/>
<path fill="#FFFFFF" d="M267.648,66.976c0,0.3-0.301,0.6-0.5,0.7c-0.301,0.1-0.601,0-0.801-0.2c-0.199-0.1-0.1-0.4-0.1-0.6
	c0.2-0.3,0.4-0.4,0.7-0.5C267.247,66.576,267.448,66.776,267.648,66.976L267.648,66.976z"/>
<path fill="#FFFFFF" d="M269.948,67.376c-0.101,0.3-0.4,0.6-0.7,0.7c-0.2,0-0.6-0.1-0.5-0.4c0-0.3,0.1-0.5,0.3-0.6
	C269.448,66.776,269.847,66.976,269.948,67.376L269.948,67.376z"/>
<path fill="#FFFFFF" d="M176.247,67.876c0.1,0.4-0.1,0.7-0.4,0.9c-0.3,0.1-0.5,0-0.699-0.2c-0.2-0.2-0.301-0.5-0.2-0.7
	c0.1-0.3,0.399-0.3,0.6-0.4C175.847,67.476,176.047,67.576,176.247,67.876L176.247,67.876z"/>
<path fill="#FFFFFF" d="M178.047,68.176c0.101,0.3-0.2,0.4-0.3,0.6c-0.2,0.1-0.4,0.2-0.7,0.1c-0.3-0.2-0.5-0.6-0.3-0.9
	C177.047,67.476,177.847,67.776,178.047,68.176L178.047,68.176z"/>
<path fill="#FFFFFF" d="M265.448,67.976c0,0.4-0.3,0.6-0.5,0.8c-0.3,0.1-0.7-0.1-0.7-0.4c0-0.3,0.1-0.5,0.4-0.7
	C264.948,67.676,265.347,67.676,265.448,67.976L265.448,67.976z"/>
<path fill="#FFFFFF" d="M268.448,68.576c-0.101,0.3,0,0.7-0.4,0.9c-0.3,0.1-0.7,0-0.899-0.1c-0.2-0.2-0.301-0.5-0.101-0.8
	c0.2-0.3,0.5-0.5,0.9-0.4C268.247,68.276,268.247,68.476,268.448,68.576L268.448,68.576z"/>
<path fill="#FFFFFF" d="M174.847,69.376c0.101,0.3-0.199,0.4-0.3,0.5c-0.3,0.1-0.5,0-0.7-0.1c-0.3-0.1-0.1-0.5-0.1-0.7
	C174.047,68.476,174.747,68.976,174.847,69.376L174.847,69.376z"/>
<path fill="#FFFFFF" d="M266.148,70.076c0.1,0,0.1,0.3,0,0.3c-0.9,0.4-2.2,0.6-3-0.1c-0.4-0.4-1-0.5-1.5-0.8
	c0.199-0.5,0.8-0.4,1.3-0.6C264.148,69.076,265.047,70.076,266.148,70.076L266.148,70.076z"/>
<path fill="#FFFFFF" d="M176.648,69.776c0.1,0.3-0.101,0.4-0.2,0.6c-0.101,0.2-0.4,0.1-0.601,0.1c-0.3-0.2-0.5-0.6-0.3-0.9
	C175.948,69.076,176.347,69.376,176.648,69.776L176.648,69.776z"/>
<path fill="#FFFFFF" d="M179.847,69.976c0.101,0.3-0.1,0.6-0.399,0.8c-0.3,0.1-0.5-0.1-0.7-0.1c-0.2-0.3-0.5-0.6-0.2-0.8
	C178.948,69.276,179.547,69.576,179.847,69.976L179.847,69.976z"/>
<path fill="#FFFFFF" d="M222.148,71.476c-0.101,0.7-1.301-0.1-1.101,0.9c0.2,0.7,0.3,1.5,0.7,2.1c0.3,0.5,0.2,1.3,0.1,1.9
	c-0.3,0.5-0.8,0.899-1.399,1.2c-1-0.1-2.601,0.5-3.101-0.801c-0.199-0.599-0.6-1.099-0.6-1.799c0.1-0.1,0.2-0.1,0.3-0.2
	c0-0.2-0.3-0.4-0.2-0.6c1.2-0.2-0.5-1.3,0.5-1.3c0.801,0.9,2.2,0.6,2.9,1.5c0.2,0.1,0.3,0.4,0.5,0.5c-0.1-0.9-0.6-1.8-0.7-2.7
	c-0.1-0.5,0.101-0.9,0.4-1.2C221.247,70.476,221.847,71.176,222.148,71.476L222.148,71.476z"/>
<path fill="#FFFFFF" d="M183.047,71.276c0.101,0.4-0.2,0.6-0.399,0.8c-0.301,0.1-0.5-0.2-0.7-0.4c-0.101-0.4,0.1-0.6,0.399-0.7
	C182.648,70.876,182.948,71.076,183.047,71.276L183.047,71.276z"/>
<path fill="#FFFFFF" d="M205.648,71.676c0.399,1.4,0.3,2.9-0.4,4.1c0,0.3,0.1,0.8-0.3,0.701c-1-1.4-0.3-3.3,0.1-4.701
	C205.047,71.476,205.547,71.276,205.648,71.676L205.648,71.676z"/>
<path fill="#FFFFFF" d="M236.948,72.376c0.5,1,0.5,2.4,0.1,3.4l-0.3,0.3c-0.4-0.9-0.7-1.7-0.8-2.6c0.2-0.7,0.399-1.3,0.399-2
	C236.847,71.376,236.847,72.076,236.948,72.376L236.948,72.376z"/>
<path fill="#FFFFFF" d="M185.948,72.776c-0.2,0.4-0.8,0.6-1.2,0.8c-0.9,0.7-2.2,0.8-3.3,0.6c1-1.3,2.399-2.1,4.2-1.7
	C185.648,72.676,185.847,72.576,185.948,72.776L185.948,72.776z"/>
<path fill="#FFFFFF" d="M170.847,74.076c1.4,1,1.7,2.3,2.5,3.6c0.101,0.1,0.5,0.2,0.301,0.5c-0.301,0.2-0.601-0.199-1-0.1
	c-1.4-0.6-2.301-2.2-2.2-3.8C170.448,74.076,170.747,74.076,170.847,74.076L170.847,74.076z"/>
<path fill="#FFFFFF" d="M235.547,75.276c0,0.4,0,0.7-0.3,0.9c-0.4,0.1-0.7-0.1-0.8-0.4c-0.101-0.3,0.1-0.4,0.2-0.6
	C234.847,74.776,235.347,74.876,235.547,75.276L235.547,75.276z"/>
<path fill="#FFFFFF" d="M250.948,77.176c0-0.699,0.2-1.4,0.3-2c0.1-0.2,0.2-0.5,0.1-0.8c0.9-1.2,2.7-0.8,4.101-0.7
	c0.5,0.3,1.2,0.3,1.8,0.4c0.3-0.2,0.6-0.2,0.9-0.2c1.199-0.6,0.399-2,0.5-3.1l-0.4-1.1c-0.1-0.2-0.2-0.5-0.3-0.7
	c-0.2-0.3-0.4-0.7-0.601-1c-0.6-1.6-1.8-2.5-2.899-3.8c-1.9-2.4-4.8-3.8-7.7-4.8s-5.8,0.3-8.4,1.2c-0.8-0.2-1.199-0.8-1.399-1.6
	c-0.101-1.4,0.1-2.8,0.7-3.9c0.1-0.9,0.699-1.6,1-2.5c0.699-2.1,1.399-4.1,1.5-6.3c0.1-1.4-1-2.3-2-2.9c-0.7-0.2-1.5-0.1-2,0.4
	c-0.5,1-1.5,1.7-2.4,2.1c-0.1,0.6,0.7,0.2,1,0.4c0.8,0.1,1.7-0.1,2.4,0.4c0.1,1.5-0.801,2.7-1.5,3.8c-1.2,1.8-2.601,3.7-3.301,5.8
	h-0.3l0.2,9c1.2,1.9,2.6,4.2,4.8,4.9c1.2,1,2.601,2.1,4.2,1.3c0.8-0.3,0.9,0.9,1.3,1.4c0.4,1.4-0.5,2.3-0.6,3.601l-1,2
	c-1.101,2.1-2.101,4.399-3.8,6.199c-0.601,0-0.9,0.6-1.4,0.6c-0.3,0.4-0.9,0.101-1.2,0.301c-1.1,0.5-2.7,0.199-3.5,1.3
	c0.101,0.101,0.2,0.101,0.3,0.2c2.2,0,4.7,0.199,7.101,0.1c0.3-0.1,0.6-0.4,0.6-0.699c-0.3-0.601,0.101-1.201,0.4-1.701
	c0.2-0.899,0.8-1.399,1-2.299c0.8-1.5,1.6-3,2.5-4.5l1.1-1.8c0.3-0.6,0.7-1.4,1.101-2.1c0.3-0.3,0.399-0.6,0.699-1
	c0-0.4-0.1-0.5-0.399-0.8c0.3-0.3,0.7-0.2,1-0.3c0.899,0.6,1.899,1.4,2,2.4l0.3,1l0.1,0.4l0.101,1.201l0.1,1.1
	c0.2,1.8-0.1,3.6-0.3,5.4c-0.6,2.1-3.1,1.899-4.8,2.399c-0.4,0.3-1.3,0.101-1.3,0.899c2.1,0.4,4.6,0.201,6.899,0.101
	c0.4-0.101,0.4-0.5,0.601-0.8c0.1-0.5,0.5-0.9,0.399-1.4c-0.399-0.5,0-1.3-0.1-2c0.1-0.199,0.1-0.4,0-0.699
	c0.3-1.101,0.2-2.4,0.399-3.4L250.948,77.176L250.948,77.176z"/>
<path fill="#FFFFFF" d="M269.047,75.776c-1.2,1.701-2.399,3.5-4.5,4.1c-0.1,0-0.3,0.101-0.399-0.101
	c1.199-1.299,1.899-3.399,3.8-3.899C268.347,75.776,268.747,75.576,269.047,75.776L269.047,75.776z"/>
<path fill="#FFFFFF" d="M169.047,77.576c-0.2,0.1,0,0.5-0.399,0.5c-0.301,0.1-0.601,0-0.801-0.301
	c-0.1-0.399,0.301-0.799,0.601-0.799C168.747,77.076,168.948,77.176,169.047,77.576L169.047,77.576z"/>
<path fill="#FFFFFF" d="M179.648,78.076c0.1,0.3-0.301,0.3-0.4,0.4c-1.5,0.6-3.1,0-4.2-1.101c0-0.101,0-0.3,0.101-0.3
	C176.648,77.477,178.347,77.176,179.648,78.076L179.648,78.076z"/>
<path fill="#FFFFFF" d="M171.047,77.576c0.101,0.1,0.101,0.4,0.101,0.6c-0.2,0.301-0.5,0.4-0.9,0.301c-0.2-0.101-0.3-0.301-0.5-0.5
	c0-0.4,0.3-0.601,0.6-0.701C170.648,77.376,170.847,77.376,171.047,77.576L171.047,77.576z"/>
<path fill="#FFFFFF" d="M205.347,77.775c0.101,0.301-0.199,0.601-0.399,0.701c-0.3,0.1-0.601-0.101-0.8-0.301
	c-0.101-0.3,0-0.6,0.3-0.699C204.747,77.376,205.247,77.477,205.347,77.775L205.347,77.775z"/>
<path fill="#FFFFFF" d="M270.347,77.876c0.101,0.399-0.199,0.601-0.5,0.8c-0.199,0.1-0.5,0-0.699-0.1c0-0.2-0.301-0.301-0.2-0.6
	c0.1-0.301,0.5-0.5,0.8-0.4S270.247,77.775,270.347,77.876L270.347,77.876z"/>
<path fill="#FFFFFF" d="M272.847,77.775c0.2,0.301,0,0.601-0.1,0.801c-0.1,0.3-0.4,0.3-0.7,0.199c-0.2-0.199-0.5-0.299-0.5-0.699
	c0-0.301,0.3-0.5,0.5-0.6C272.347,77.376,272.547,77.775,272.847,77.775L272.847,77.775z"/>
<path fill="#FFFFFF" d="M167.547,78.876c0,0.3-0.2,0.399-0.3,0.601c-0.2,0.1-0.4,0.199-0.6,0.1c-0.301-0.1-0.4-0.301-0.5-0.6
	c0.1-0.301,0.3-0.601,0.699-0.701C167.047,78.376,167.448,78.477,167.547,78.876L167.547,78.876z"/>
<path fill="#FFFFFF" d="M244.648,78.876c0.1,0.101,0,0.3,0,0.5c-0.2,0.3-0.5,0.601-0.9,0.399c-0.2-0.199-0.5-0.399-0.4-0.799
	C243.747,78.477,244.347,78.376,244.648,78.876L244.648,78.876z"/>
<path fill="#FFFFFF" d="M173.448,79.376c-0.101,0.3-0.2,0.5-0.5,0.601c-0.3,0-0.4-0.301-0.601-0.4c0-0.301,0-0.7,0.301-0.9
	C173.047,78.576,173.448,78.876,173.448,79.376L173.448,79.376z"/>
<path fill="#FFFFFF" d="M169.948,79.477c0.1,0.399-0.101,0.6-0.4,0.799c-0.399,0.101-0.8-0.199-1-0.5c0-0.299,0.3-0.699,0.7-0.799
	C169.547,78.876,169.747,79.275,169.948,79.477L169.948,79.477z"/>
<path fill="#FFFFFF" d="M247.047,79.376c0.101,0.399,0,0.7-0.399,0.899c-0.4,0.101-0.801-0.199-1-0.5
	c0.199-0.299,0.199-0.699,0.699-0.799C246.648,78.977,246.847,79.176,247.047,79.376L247.047,79.376z"/>
<path fill="#FFFFFF" d="M171.648,79.576c0.1,0.3-0.101,0.4-0.2,0.6c-0.2,0-0.3,0.2-0.5,0.1c-0.101-0.199-0.4-0.299-0.5-0.5
	c0-0.399,0.2-0.6,0.5-0.699C171.347,78.977,171.547,79.275,171.648,79.576L171.648,79.576z"/>
<path fill="#FFFFFF" d="M268.347,79.876c-0.1,0.3-0.3,0.399-0.6,0.601c-0.3,0.1-0.5-0.201-0.7-0.301s-0.1-0.5,0-0.699
	C267.347,78.876,268.347,79.176,268.347,79.876L268.347,79.876z"/>
<path fill="#FFFFFF" d="M271.148,79.977c-0.101,0.399-0.5,0.6-0.9,0.6c-0.3-0.1-0.7-0.4-0.4-0.801c0.101-0.1,0.2-0.299,0.4-0.299
	C270.747,79.275,271.047,79.576,271.148,79.977L271.148,79.977z"/>
<path fill="#FFFFFF" d="M253.747,80.275c0.2,0.5-0.3,0.601-0.5,0.801c-0.3,0-0.5-0.1-0.7-0.301c-0.1-0.399,0.101-0.799,0.5-1
	C253.347,79.876,253.547,79.977,253.747,80.275L253.747,80.275z"/>
<path fill="#FFFFFF" d="M243.747,80.676c0.2,0.1,0.1,0.301,0.1,0.4c-0.199,0.1-0.5,0.5-0.8,0.3s-0.399-0.399-0.399-0.7
	C242.747,80.275,243.547,80.275,243.747,80.676L243.747,80.676z"/>
<path fill="#FFFFFF" d="M245.747,80.977c0,0.299,0,0.399-0.3,0.6c-0.3,0.3-0.601,0-0.8-0.1c-0.101-0.201-0.101-0.4,0-0.601
	c0.1-0.101,0.3-0.3,0.5-0.3C245.347,80.676,245.648,80.676,245.747,80.977L245.747,80.977z"/>
<path fill="#FFFFFF" d="M183.648,80.977c0.199,0.199,0,0.5-0.101,0.699c-0.2,0.2-0.6,0.4-0.899,0.2
	c-0.4-0.101-0.301-0.601-0.301-0.899c0.2-0.101,0.2-0.301,0.5-0.301C183.247,80.676,183.448,80.775,183.648,80.977L183.648,80.977z"
	/>
<path fill="#FFFFFF" d="M257.648,81.176c0.1,0.4-0.301,0.5-0.5,0.6c-0.4,0.101-0.7-0.199-0.801-0.5c0-0.199,0.2-0.399,0.301-0.6
	C257.148,80.477,257.448,80.876,257.648,81.176L257.648,81.176z"/>
<path fill="#FFFFFF" d="M255.747,81.176c0.1,0.4-0.3,0.6-0.4,0.7c-0.3,0.101-0.6,0.101-0.8-0.2c-0.2-0.1-0.2-0.3-0.2-0.5
	c0.2-0.199,0.301-0.4,0.601-0.5C255.247,80.676,255.547,80.876,255.747,81.176L255.747,81.176z"/>
<path fill="#FFFFFF" d="M272.247,81.576c0.1,0.5-0.6,0.3-0.8,0.4c-1.5,0.899-3.5,0.199-5-0.301c0.1-0.5,0.7-0.3,1-0.5
	c1.6-1,3.2,0.2,4.8,0.301V81.576L272.247,81.576z"/>
<path fill="#FFFFFF" d="M172.047,81.176l-0.1,0.301c-1.4,0.799-3.101,1.399-4.7,0.799l-0.2-0.299c1.4-1,3.101-1.301,4.9-1
	L172.047,81.176L172.047,81.176z"/>
<path fill="#FFFFFF" d="M261.448,81.376c0,0.3-0.101,0.601-0.4,0.7c-0.399,0.1-0.8,0-1-0.4c-0.1-0.3,0.2-0.6,0.5-0.699
	C260.847,80.977,261.247,80.977,261.448,81.376L261.448,81.376z"/>
<path fill="#FFFFFF" d="M178.547,81.576c-0.1,0.3-0.1,0.6-0.399,0.699c-0.4,0.101-0.801-0.199-0.9-0.5c-0.1-0.399,0.2-0.5,0.4-0.699
	C178.047,80.876,178.347,81.176,178.547,81.576L178.547,81.576z"/>
<path fill="#FFFFFF" d="M175.948,81.676c0.1,0.301-0.101,0.4-0.2,0.6c-0.2,0.201-0.5,0.201-0.7,0.101c-0.3-0.2-0.5-0.5-0.399-0.899
	c0.199-0.201,0.3-0.301,0.6-0.4C175.547,81.176,175.948,81.376,175.948,81.676L175.948,81.676z"/>
<path fill="#FFFFFF" d="M263.948,82.576c0,0.3-0.3,0.6-0.601,0.699c-0.3,0-0.5-0.199-0.699-0.399c-0.101-0.2-0.101-0.5,0.1-0.7
	c0.1-0.1,0.3-0.1,0.5-0.199C263.648,81.977,263.948,82.275,263.948,82.576L263.948,82.576z"/>
<path fill="#FFFFFF" d="M173.247,82.176c0.1,0.301-0.1,0.4-0.2,0.6c-0.1,0.601-0.5,1-0.8,1.601c-0.7,0.8-1.7,0.8-2.7,1.101
	l-0.1-0.301c1.1-1.4,2.2-2.4,3.7-3.1L173.247,82.176L173.247,82.176z"/>
<path fill="#FFFFFF" d="M262.148,82.977c0.1,0.399-0.301,0.5-0.5,0.699c-0.301,0-0.601-0.199-0.7-0.4
	c-0.101-0.399,0.3-0.6,0.5-0.699C261.747,82.376,262.047,82.676,262.148,82.977L262.148,82.977z"/>
<path fill="#FFFFFF" d="M177.448,82.977c0,0.1,0,0.1,0.1,0.199c0,0.4-0.3,0.5-0.5,0.7c-0.3,0-0.6-0.101-0.8-0.399
	c-0.1-0.301,0-0.701,0.4-0.801C176.948,82.576,177.347,82.676,177.448,82.977L177.448,82.977z"/>
<path fill="#FFFFFF" d="M268.948,84.076c0.399,0,0.399-0.5,0.8-0.6c0.4-0.101,0.7,0.1,0.9,0.399c0.1,0.399-0.2,0.7-0.5,0.8
	c-0.301,0.2-0.801-0.199-0.801,0.301c0.301,0.199,0.5,0.399,0.5,0.699c-0.1,0.1-0.3,0.1-0.399,0c-1.101-0.4-2.2-1.199-2.601-2.3
	c-0.1-0.3-0.8-0.601-0.399-0.899C267.448,82.576,268.347,83.376,268.948,84.076L268.948,84.076z"/>
<path fill="#FFFFFF" d="M272.448,82.977c0.2,0.199,0.1,0.5,0,0.699c-0.2,0.4-0.7,0.2-1.101,0.2c-0.199-0.2-0.399-0.399-0.3-0.7
	c0.101-0.199,0.3-0.4,0.5-0.5C271.948,82.576,272.148,82.775,272.448,82.977L272.448,82.977z"/>
<path fill="#FFFFFF" d="M259.148,84.977c0.3,0.399,0.699,1,0.8,1.5c-0.101,0.1-0.3,0.1-0.3,0.1c-1.2-0.7-2.9-1.5-3.301-2.9
	c-0.1-0.1-0.399-0.3-0.399-0.6c1-0.2,1.899,0.5,2.5,1C258.648,84.376,258.948,84.477,259.148,84.977L259.148,84.977z"/>
<path fill="#FFFFFF" d="M175.448,83.576c0.1,0.3-0.101,0.6-0.3,0.699c-0.4,0.101-0.601-0.1-0.801-0.299c-0.3-0.4,0.2-0.701,0.5-0.9
	C175.047,83.076,175.247,83.376,175.448,83.576L175.448,83.576z"/>
<path fill="#FFFFFF" d="M263.747,84.376c0,0.2-0.3,0.399-0.4,0.5c-0.3,0-0.6,0.101-0.8-0.101c-0.1-0.199-0.3-0.5,0-0.699
	C262.847,83.576,263.448,83.977,263.747,84.376L263.747,84.376z"/>
<path fill="#FFFFFF" d="M272.847,84.876c0.101,0.399-0.199,0.7-0.5,0.899c-0.399,0.101-0.699-0.1-0.899-0.299
	c-0.2-0.201,0-0.4,0-0.701c0.3-0.199,0.6-0.399,1-0.299C272.547,84.676,272.648,84.676,272.847,84.876L272.847,84.876z"/>
<path fill="#FFFFFF" d="M247.448,89.977c0,0.399-0.8,0.299-1.101,0.699c-1.1,0.6-2.5,0.6-3.8,0.6v-0.299
	C243.847,89.876,245.747,89.477,247.448,89.977L247.448,89.977z"/>
<path fill="#FFFFFF" d="M194.047,91.576c0,0.3-0.2,0.5-0.6,0.6c-0.3,0-0.5-0.1-0.601-0.4c-0.1-0.399,0.2-0.6,0.5-0.799
	C193.747,91.076,193.948,91.275,194.047,91.576L194.047,91.576z"/>
<path fill="#FFFFFF" d="M246.847,91.977c-0.1,0.299-0.199,0.699-0.5,0.799c-0.3,0.101-0.5-0.1-0.8-0.299
	c-0.2-0.101-0.1-0.4-0.1-0.601C245.648,91.275,246.648,91.275,246.847,91.977L246.847,91.977z"/>
<path fill="#FFFFFF" d="M254.148,92.076c-0.9,0.6-1.9,1.3-3.101,1.3h-2l-0.2-0.101c1.2-1.5,3.4-1.5,5.301-1.299V92.076
	L254.148,92.076z"/>
<path fill="#FFFFFF" d="M184.047,92.977c0,0.299-0.1,0.6-0.5,0.699c-0.399,0.1-0.6-0.1-0.8-0.3c-0.1-0.3,0-0.7,0.3-0.8
	C183.448,92.275,183.847,92.676,184.047,92.977L184.047,92.977z"/>
<path fill="#FFFFFF" d="M185.847,93.376c0.101,0.2-0.1,0.3-0.1,0.5c-0.2,0.101-0.5,0.2-0.7,0c-0.3-0.2-0.3-0.399-0.2-0.601
	c0.101-0.199,0.301-0.199,0.4-0.299C185.547,92.977,185.747,93.076,185.847,93.376L185.847,93.376z"/>
<path fill="#FFFFFF" d="M171.847,97.076c-0.399,0.4-1-0.1-1.399-0.301c-1.3-0.699-1.2-2.199-2.5-3c0.1-0.399,0.5,0,0.7,0
	c0.199,0.201,0.5,0.301,0.8,0.4C170.747,94.775,171.047,95.977,171.847,97.076L171.847,97.076z"/>
<path fill="#FFFFFF" d="M278.547,82.775c-0.6-1.1-1.6-1.5-2.7-1.5c-1,0.101-1.6,0.701-2,1.5c-0.199,0.801,0.101,1.5,0.7,2
	c0.3,0.101,0.601,0.101,0.7-0.199c0.2-0.5-0.3-0.5-0.4-0.9c-0.1-0.5,0-1,0.4-1.3c0.4-0.399,1-0.2,1.4-0.2
	c0.399,0.301,0.899,0.6,1.1,1.1c0.2,0.601,0.2,1.301,0,2c-0.4,0.9-1.3,1.701-2.3,1.801c-3,0.4-36.4,0.3-36.4,0.3
	c-3.899,0.399-8.399-0.7-11.8,1.3c-1.5,0.7-2.3,2.4-2.7,3.9c-1,0.9-2.1,1.9-2.899,2.9l-0.101-0.101c0.2-0.899,0.601-1.7,0.8-2.5
	c0.5-0.7,0.5-1.7,1-2.5c1.4-2.2,2.7-4.5,4.9-6.101c0.9-1.199,2.5-1,3.9-1c1.5,0.701,3.3,0.9,5.1,0.701
	c0.1-0.101,0.1-0.201,0.1-0.301c-0.5-0.5-1.399-0.699-1.899-1.1c-1.5-0.7-2.9,0.199-4.4,0.1c-0.1-0.1-0.1-0.1-0.1-0.199
	c1.399-1,3-1.801,4.5-2.4c1.3-0.7,2.6-1.1,4-1.6c0.5,0,1.1-0.5,1.6-0.101l1.9-0.5c0.1,0,0.1,0.101,0.3,0.101
	c1.6-0.601,3.7,0,5.6-0.101l0.301,0.2l1.8,0.4c0.7,0.1,1,0.799,1.6,0.899c0.4-0.5-0.399-0.7-0.6-1.101c0.8-0.199,1.7,0,2.5,0.4
	l-0.4,0.5c-0.2,0.4,0.101,0.7,0.4,0.801c0.3,0.1,0.399-0.101,0.6-0.201c0.5-0.299,0-0.699,0.101-1c2.699,0.5,5.3,1.101,7.8,2.201
	c0.7,0.199,1.399,0.699,2.1,0.699c-0.8-0.699-1.8-1.1-2.8-1.5c-0.6-0.4-1.5-0.4-2-0.9c0.1-0.199,0.4-0.1,0.5-0.299
	c1.2-0.101,2.3-1.101,3.2-2.101c0.1-0.2,0.5-0.101,0.399-0.399c-0.3-0.4-0.899,0.1-1.3,0.1c-1.5,0.3-2.2,2.1-3.7,2.4
	c-1.899-0.4-3.8-0.9-5.6-1.4c-0.9-0.1-1.9-0.2-2.7-0.6l-2-0.201h-3.7c0-0.1-0.1-0.1-0.1-0.199c1.3-0.3,2.5-1.1,3.8-1.4l9.8-4.5
	c1-0.9,1.9-2,2.801-3c0-0.3-0.101-0.6-0.4-0.7s-0.6-0.1-0.7,0.1c-0.399,0.3,0,0.7,0,1.1c-0.399,0.6-1.1,1.1-1.7,1.4
	c-0.1,0-10.1,4.5-10.1,4.5c-1.7,0.9-3.1,1.6-4.7,2l-2.1,0.3c-0.101,0.399-0.5,0.7-0.9,0.8c-0.6,0.1-1.1,0.5-1.7,0.5
	c-4.8,1.801-9.699,3.801-13.5,7.6c0.2-0.399,0.301-1,0.4-1.5c-0.1-0.6,0-1.199-0.4-1.6c-0.1-0.199-0.399-0.8-0.3-1l-0.5,0.301
	c-0.3,0.799-0.6,2.299-0.3,3.1c0.1,0.699,0.7,1.4,0.1,2c-1.8,2.1-2.699,4.699-3.899,7.199c-0.4-0.1-0.7-0.5-0.8-0.899
	c1.199-1.601,2.199-3.399,2.6-5.399c0.3-0.201,0.1-0.701,0.3-0.9c-0.1-0.6,0.3-1.2,0-1.7c0.2-0.8-1.1-1.5-0.2-2.101l-0.699,0.301
	c-1.601,2.1,0.8,5.199-1,7.199v0.101c-0.5,0.7-0.801,1.3-1.5,1.8c-0.9-0.4-1.2-1.4-1.7-2.1c-0.8-0.801-0.8-2.4-0.3-3.4
	c0.3-1.1-0.2-2-0.301-3l-0.399-0.199c-0.9,1.1-1.2,2.899-0.5,4.299c0.399,0.701,0.399,1.601,1,2.101c0.3,1.101,1,1.8,1.6,2.7
	c0.101,0.4-0.2,0.4-0.399,0.6c-0.4-0.3-0.301-0.8-0.7-1.1c-1.2-2.6-2.8-4.6-4.7-6.7c-0.1-0.3-0.4-0.601-0.2-1c0.7-0.7,0.8-2,0.5-2.8
	c-0.1-0.2-0.3-0.4-0.3-0.6l-0.6-0.4c0.1,1.3-0.801,2.4-0.4,3.8v0.101c-3.8-2.801-7.9-5.4-12.2-7.4l-0.3,0.9c1.1,0.299,3.9,2,3.9,2
	c1.3,0.5,2.5,1.299,3.699,2c5,2.799,8.301,7.299,10.5,12.399c0,0.399,0.4,0.8,0.101,1.3c-0.8-1.199-1.9-1.8-2.8-2.8
	c-0.301-1.7-1.301-3.399-2.801-4.101c-0.5-0.799-1.699-0.899-2.6-1.1l-13.3-0.1c-10.8-0.1-20.7,0.4-31.5,0.199
	c-1.5-0.1-3.3-0.699-3.8-2.299c-0.301-0.601-0.301-1.5,0-2c0.399-0.701,1.1-0.9,1.899-1c0.601,0.1,1,0.6,1.2,1
	c0,0.5-0.4,0.899-0.6,1.299c0,0.101,0.199,0.4,0.399,0.301c0.5-0.2,0.8-0.7,1-1.2c0-0.3,0.101-0.601-0.1-0.8
	c-0.2-0.801-1-1.301-1.7-1.5c-0.9-0.1-1.9,0.199-2.5,0.9c-0.9,0.699-0.8,2.1-0.6,3.1c0.6,1.6,2.3,2.699,4,3l35.6,0.1
	c3.5,0.2,7.4-0.4,10.9,0.301c1.3,0.399,2.6,1.399,3,2.799c0,0.101-0.101,0-0.301,0c-2.899-1.899-6.699-2.6-10.399-2.1
	c-1.5-0.1-2.8,0.5-4.101,0.801c-0.699,0.1-1.399-0.201-1.8-0.601c-1.3-1.2-3.6-1.101-5.3-0.7c0,0.1,0,0.2,0,0.301
	c1.8-0.101,2.9,1.399,4.5,1.6c0.4,0.1,0.7-0.301,1,0c-1.7,0.8-3.3,1.8-5.1,2.3c-0.5-0.101-0.801-0.601-1.301-0.899
	c-0.699-0.801-2-0.4-2.899-0.5c-0.3,0.1-0.601-0.101-0.8,0c0.3,0.6,1,0.899,1.6,1.199c0.9,0.4,2,0,2.8,0.5
	c-0.2,0.301-0.5,0.301-0.8,0.5c-1.7,0.7-3.1,2.2-5.1,2.1c-2,0.201-4.101-0.399-5.4-1.799c-0.6-1.4-2.1-2.201-3.7-2.101
	c-0.1,0.101-0.3,0.101-0.2,0.3c0.801,0.5,1.4,1.4,2.2,2c0.5,0.6,1.5,0,2,0.7c0.7,0.5,1.601,0.899,2.4,1c0.6,0.3,1.2,0.399,1.899,0.5
	l-0.3,0.101c-3.3,1.1-7.2,1.199-10.899,1.1c-1.101,0-2.2-0.4-3.301-0.301c0.2,0.201,0.5,0.4,0.9,0.5c-0.3,0.201-0.6,0.301-1,0.301
	c-0.4,0.1-1,0.1-1.4,0.4c-0.6,0-1.1,0.199-1.6,0.399c-0.6,0.7-1.4,1.399-2.1,1.7c0,0.199,0,0.4,0.1,0.4c0.7-0.301,1.6-0.101,2.3-0.4
	c1.2-0.1,1.9-1.4,2.9-2c1-0.801,2.5-0.6,3.7-0.4c0.699,0.2-0.101,0.5,0.1,1c0.3,0.301,0.5,0.6,1,0.4c0.1-0.1,0.1-0.1,0.3-0.2
	c0.2-0.3,0.2-0.601,0-0.899c0.5-0.301,1.2,0,1.8-0.201c1.4,0,2.801-0.299,4.101-0.399c0.2,0,0.5-0.3,0.7,0
	c-0.101,0.3-0.5,0.3-0.301,0.7c0.101,0.3,0.4,0.5,0.7,0.6c0.4-0.1,0.7-0.4,0.5-0.9c-0.1-0.299-0.399-0.299-0.5-0.399
	c0.8-0.399,1.601-0.5,2.4-0.899c0.5-0.101,1.1-0.301,1.5-0.5c0.5,0,0.899-0.5,1.3-0.301c-0.2,0.6-0.4,1.2-0.8,1.801
	c-0.601,2-1,4.5,0,6.399c0.1,0,0.1,0,0.2-0.101c-0.801-2-0.301-4.199,0.3-6c0.5-3.1,3.7-4.1,6-5.199l0.1,0.1
	c-0.6,1.6-1.5,3.2-1.399,5.1c0.1,0.301-0.101,0.701,0,0.9c0.6-0.3,1-1.1,1.399-1.699c0.3-1.701-0.7-3.701,1-4.9
	c3-1.2,5.8-2.7,9.3-2.801c0.101,0.101,0.4-0.1,0.4,0.101c-0.7,0.8-1.8,1.601-2.1,2.601c-1.2,1.6-1.101,4.399-0.601,6.399
	c0.3,1.101-0.7,1.8-1.1,2.7c-0.2,0.3-0.3,0.9-0.5,1.199l0.7,0.101c0.6-0.7,1.199-1.5,1.199-2.399c0.101,0.399,0.4,0.699,0.7,0.699
	c0.3-0.4-0.2-0.699-0.3-1.1c0.6-0.301,0.8,0.4,1.3,0.6c0.8,0.2,1.4,0.5,2.2,0.5l0.3-0.3c-0.8-1.3-2.399-1.5-3.8-1.5
	c-0.7-1.2-0.7-2.7-0.7-4.2c0.101-0.8,0.3-1.6,0.7-2.3c0.2-0.5,0.7-1,1-1.399c0.7-0.601,1.5-1.101,2.3-1.301h0.5c0,0.1,0,0.1,0,0.1
	c-1,0.801-1.1,1.801-1.7,2.801c-0.6,0.9-0.899,2.199-0.3,3.199c0.2,0.5,0.101,1.201,0.601,1.5c0.5-0.699,0.5-1.5,0.8-2.199
	c-0.101-1.2-0.8-2.4-0.101-3.5c0.4-0.9,1.101-1.301,2-1.6c2-0.201,3.801,0.799,5.5,1.6c0.4,0.3,1,0.5,1.101,1c0,1-0.601,2-1.4,2.5
	c-1,0.6-2.399,0.699-3.3,0c-0.5-0.6-0.8-1.5-0.6-2.301c0.399-0.399,1-0.799,1.6-0.6c0.4,0.2,0.7,0.6,1.2,0.301
	c0.2-0.101,0.3-0.4,0.1-0.601c-0.399-0.2-0.5-0.8-1.1-0.8c-0.7-0.1-1.5-0.1-2,0.4c-0.8,0.699-1.101,1.699-0.8,2.6
	c0.3,1.199,1.1,2,2.3,2.4c1.7,0.399,3.399-0.101,4.5-1.5c0.399-0.5,0.5-1,0.8-1.601c1.8,1.101,3.1,2.899,3.8,4.899
	c0,0.601,0.2,1.301,0,1.801l1.3,0.1c-0.1-0.3,0-0.6,0.101-0.9c0.5-2.399,2-4.5,3.8-6.1c0.6-0.4,0.5,0.5,0.6,0.7
	c0.5,1.399,1.801,2.399,3.2,2.8c1.5,0.301,3-0.1,4-1.3c0.5-0.899,1.101-2.2,0.3-3.101c-0.5-0.6-1.199-1-2-1c-1,0-1.5,0.701-2,1.4
	c0,0.301,0,0.6,0.2,0.801c0.101,0,0.4,0,0.5-0.201c0.101-0.6,0.5-0.799,1-1.1c0.4-0.199,0.8,0,1.2,0.2c0.4,0.3,0.5,0.899,0.5,1.399
	c-0.1,0.701-0.5,1.4-1.2,1.701c-1.1,0.6-2.6,0.299-3.5-0.301c-0.399-0.5-0.7-1-1-1.6c-0.1-0.6-0.3-1.1,0-1.7
	c1.601-1,3.3-1.7,5.2-1.8c0.8,0.1,1.4,0.699,1.9,1.199c1.699,1.701-0.4,4.201,0.8,6.101c0.399-0.101,0.399-0.7,0.6-1
	c0.5-1.3-0.1-2.8-0.5-4.101c-0.399-0.799-0.7-1.5-1.399-2.199c0.199-0.1,0.3-0.1,0.399-0.1c0.8,0.5,1.601,1.1,2.2,1.899
	c1.1,1.7,1.6,3.8,1.4,6c-0.301,1.101-1.5,1.601-2.4,2c-0.4,0.3-0.8,0.7-1,1.2c0.4,0.3,1.1,0,1.5-0.2c0.7-0.3,1.1-1.101,1.6-1.5
	c0.101,0,0,0.101,0.101,0.2c0,0.4-0.2,1,0.2,1.1c0.199-0.5,0.199-1.3,0.3-1.9c0.5,0.5,0.5,1.201,0.7,1.801
	c0.3,0.699,0.899,1.5,1.8,1.699c0.2-0.299,0-0.699-0.101-1c-0.1-0.899-0.899-1.399-1.399-2.1c-1.3-1.8-0.7-4.5-1.7-6.5
	c-0.4-1.1-1.1-1.8-2-2.699l0.1-0.101c1.801,0,3.301,0.5,4.9,0.899c2,1,4.9,0.801,5.9,3.4c0.399,1.5,1.1,2.801,2.1,4l0.1-0.1
	c0.2-0.4,0.2-1,0-1.4c-0.199-1.8-1.8-2.3-2.699-3.8l0.1-0.101c0.9,0.301,1.8,0.5,2.7,0.801c2.899,0.8,5,3.699,5.3,6.699
	c0,2.4-0.4,4.301-1.4,6.301c-0.1,0.3-0.6,0.6-0.3,0.9c0.4-0.301,0.5-0.801,0.7-1.101c1.2-2,1.8-4.8,1.2-7.399
	c0-0.5-0.601-0.801-0.3-1.301c0.199,0.2,0.399,0.301,0.6,0.301c0.2-0.101,0.5-0.101,0.7-0.4c0-0.2,0.2-0.5,0-0.7
	c-0.2-0.3-0.7-0.3-1.101-0.3c-0.199,0.199-0.399,0.5-0.399,0.8c-0.4-0.601-0.7-1.399-1.3-2l0.1-0.101c1.6,0.601,3.1,1.4,4.8,1.801
	c0.4,0.199,0.8,0.4,1.3,0.4c1.4,0.6,3,0.799,4.5,1.1c1.101-0.1,2,0.4,3.101,0.1v-0.1l0,0c-0.4-0.5-1.3,0-1.8-0.4
	c-2.5-0.3-4.9-0.9-7.2-1.8c0-0.101,0.2-0.101,0.3-0.101c0.4-0.199,0.6-0.5,0.6-0.899c-0.199-0.3-0.5-0.399-0.8-0.399
	c-0.2,0.1-0.5,0.399-0.5,0.6c0,0.3,0.3,0.6,0.5,0.699c-0.1,0.101-0.2,0-0.3,0c-1.1-0.5-2.2-1-3.3-1.5c-0.4-0.1-0.7-0.399-1.101-0.5
	c-0.8-0.399-1.699-0.799-2.5-1.1c-2.3-1.199-4.899-1.9-7.399-2.8c-0.5-0.101-1.101-0.3-1.601-0.399
	c-0.899-0.301-1.8-0.5-2.699-0.701c-3.101-0.799-7.301-0.799-10,0.801c-0.4-0.1-0.7,0.6-0.9,0.1c0.8-2,3-2.699,5-2.8
	c14.7-0.101,28.4-0.3,42.9-0.5c1.699,0,3.3-0.601,4.199-2.101C278.948,85.275,279.047,83.775,278.547,82.775L278.547,82.775z
	 M220.347,96.376c-0.1,0.399-0.399,0.8-0.399,1.3l-0.101,0.1c0.101-0.6-0.399-0.899-0.3-1.5c-0.3-0.399-0.3-1-0.5-1.5
	c-0.3-0.6,0.3-0.899,0.5-1.299c0.5,0.199,0.7,0.699,1.101,1.1C220.747,95.376,220.347,95.775,220.347,96.376L220.347,96.376z"/>
<path fill="#FFFFFF" d="M260.047,94.076c0,0.1,0.2,0.1,0.101,0.3c-1.301,1.101-3.101,1.5-4.9,1.5c-0.1,0-0.3,0.101-0.5,0.101
	c-0.1-0.101-0.1-0.201-0.1-0.301C256.047,94.376,258.047,93.676,260.047,94.076L260.047,94.076z"/>
<path fill="#FFFFFF" d="M254.148,94.676c0.1,0.5-0.2,0.801-0.601,1c-0.399,0-0.6-0.3-0.8-0.6c-0.1-0.301,0.1-0.4,0.3-0.6
	C253.347,94.176,254.047,94.176,254.148,94.676L254.148,94.676z"/>
<path fill="#FFFFFF" d="M184.547,94.775c0.101,0.301,0,0.601-0.2,0.801c-0.1,0.199-0.5,0.199-0.699,0.199
	c-0.301,0-0.4-0.299-0.5-0.6c0-0.3,0.199-0.5,0.5-0.699C184.047,94.477,184.347,94.376,184.547,94.775L184.547,94.775z"/>
<path fill="#FFFFFF" d="M178.047,97.176v0.301c-0.899,0.199-1.7,0-2.399-0.601c-0.5-0.7-1.101-1.5-1.9-1.8c0-0.1-0.2-0.301,0-0.301
	C175.547,94.676,176.648,96.176,178.047,97.176L178.047,97.176z"/>
<path fill="#FFFFFF" d="M265.648,94.676c-0.801,1.301-1.601,2.801-3.101,3.301c-0.3,0-0.5,0.399-0.7,0.1
	c0.601-1.4,1.801-2.9,3.301-3.5C265.247,94.676,265.448,94.576,265.648,94.676L265.648,94.676z"/>
<path fill="#FFFFFF" d="M186.747,95.176c0,0.4-0.3,0.5-0.5,0.7c-0.3,0-0.4-0.2-0.6-0.399c-0.101-0.4,0.199-0.5,0.399-0.701
	C186.247,94.676,186.547,94.876,186.747,95.176L186.747,95.176z"/>
<path fill="#FFFFFF" d="M270.247,95.376c-0.3,0.5-0.2,1.2-0.5,1.7c-0.7,0.8-1.4,1.8-2.5,2c-0.2-0.4,0.3-0.7,0.4-1.1
	c0.5-1.101,1.199-2.4,2.399-2.801L270.247,95.376L270.247,95.376z"/>
<path fill="#FFFFFF" d="M166.648,95.676c0.1,0.301,0.199,0.5,0,0.801c-0.2,0.199-0.5,0.299-0.801,0.1c-0.3-0.2-0.399-0.6-0.3-0.9
	C165.747,95.477,166.448,95.275,166.648,95.676L166.648,95.676z"/>
<path fill="#FFFFFF" d="M164.648,96.176c0,0.2,0.1,0.301,0.1,0.5c-0.1,0.2-0.3,0.4-0.5,0.4c-0.4,0.1-0.7-0.1-0.8-0.5
	c0-0.301,0.1-0.6,0.399-0.801C164.047,95.676,164.448,95.876,164.648,96.176L164.648,96.176z"/>
<path fill="#FFFFFF" d="M168.948,96.376c0.1,0.3,0.1,0.8-0.3,0.899c-0.5,0.201-0.801-0.1-1.101-0.399c0-0.3,0.2-0.601,0.4-0.7
	C168.347,96.076,168.648,96.076,168.948,96.376L168.948,96.376z"/>
<path fill="#FFFFFF" d="M174.948,96.876c0,0.3,0,0.601-0.3,0.7c-0.2,0.199-0.5,0.1-0.7,0.1c-0.101-0.199-0.5-0.4-0.3-0.699
	c0.1-0.201,0.3-0.301,0.5-0.4C174.448,96.676,174.747,96.576,174.948,96.876L174.948,96.876z"/>
<path fill="#FFFFFF" d="M273.747,97.076c-0.1,0.3-0.3,0.6-0.5,0.6c-0.3,0-0.7-0.1-0.8-0.4c-0.101-0.399,0.2-0.6,0.5-0.699
	C273.247,96.576,273.648,96.676,273.747,97.076L273.747,97.076z"/>
<path fill="#FFFFFF" d="M267.047,97.275c0,0.301-0.3,0.5-0.399,0.601c-0.5,0.2-0.9-0.101-1.101-0.601
	c0.101-0.299,0.3-0.6,0.601-0.699C266.547,96.676,266.847,96.876,267.047,97.275L267.047,97.275z"/>
<path fill="#FFFFFF" d="M271.648,97.176c0,0.301-0.101,0.5-0.301,0.6c-0.3,0.101-0.699,0.101-0.899-0.1c-0.3-0.3-0.101-0.6,0.1-0.8
	C270.847,96.676,271.448,96.775,271.648,97.176L271.648,97.176z"/>
<path fill="#FFFFFF" d="M165.747,97.876c0.1,0.399-0.1,0.8-0.4,0.899c-0.3,0-0.699-0.199-0.8-0.5c0-0.299,0.101-0.699,0.4-0.799
	C165.247,97.376,165.547,97.576,165.747,97.876L165.747,97.876z"/>
<path fill="#FFFFFF" d="M265.247,98.275c0.1,0.4-0.1,0.801-0.5,1c-0.3,0.101-0.5-0.1-0.7-0.299c-0.1-0.201-0.3-0.601,0-0.801
	C264.247,97.576,265.047,97.876,265.247,98.275L265.247,98.275z"/>
<path fill="#FFFFFF" d="M185.448,98.676c0.1,0.4-0.3,0.5-0.4,0.7c-0.1,0.101-0.399,0.101-0.5,0c-0.2-0.2-0.399-0.399-0.3-0.8
	c0.2-0.1,0.3-0.301,0.5-0.4C185.047,98.076,185.247,98.376,185.448,98.676L185.448,98.676z"/>
<path fill="#FFFFFF" d="M273.148,98.876c0.1,0.3-0.101,0.399-0.2,0.601c-0.2,0.199-0.601,0.199-0.8,0.1
	c-0.301-0.2-0.301-0.5-0.301-0.801c0.2-0.1,0.301-0.299,0.5-0.399C272.547,98.376,272.948,98.576,273.148,98.876L273.148,98.876z"/>
<path fill="#FFFFFF" d="M270.847,98.977c0.101,0.399-0.3,0.699-0.5,0.799c-0.1,0-0.399-0.1-0.399,0.101c1,0.5,1.5,1.3,2.3,2v0.3
	c-1.3,0-2.7-0.4-3.6-1.4c-0.301-0.199-0.7-0.199-1-0.399c0.5-0.5,1.399-0.3,2-0.3c0.5-0.5-0.601-0.9,0.1-1.301
	c0.2,0,0.4-0.299,0.7-0.199C270.547,98.576,270.648,98.775,270.847,98.977L270.847,98.977z"/>
<path fill="#FFFFFF" d="M255.847,99.076c0.101,0.199-0.1,0.4-0.199,0.6c-0.2,0.2-0.5,0.301-0.801,0.2c-0.199-0.3-0.5-0.5-0.399-0.8
	C254.847,98.376,255.747,98.477,255.847,99.076L255.847,99.076z"/>
<path fill="#FFFFFF" d="M174.047,100.376c-0.1,0.3-0.3,0.601-0.6,0.601s-0.5-0.101-0.7-0.4c0-0.301,0.1-0.4,0.2-0.6
	C173.347,99.576,174.047,99.775,174.047,100.376L174.047,100.376z"/>
<path fill="#FFFFFF" d="M176.948,99.876c0,0.5-0.5,0.8-0.7,1.3c-0.5,1.2-1.5,2.301-2.9,2.4c-0.1-0.301,0.5-0.7,0.601-1.1
	c0.6-1.301,1.8-1.9,2.8-2.701h0.2V99.876z"/>
<path fill="#FFFFFF" d="M254.948,100.376c0,0.399-0.3,0.7-0.601,0.899c-0.3,0.101-0.6-0.199-0.8-0.299c-0.3-0.301-0.1-0.601,0-0.9
	C254.047,99.576,254.648,99.977,254.948,100.376L254.948,100.376z"/>
<path fill="#FFFFFF" d="M257.247,100.676c0,0.4-0.3,0.7-0.7,0.801c-0.1-0.101-0.3,0-0.399-0.101c-0.301-0.101-0.5-0.399-0.5-0.7
	c0.199-0.199,0.3-0.5,0.5-0.5C256.547,100.176,257.148,100.176,257.247,100.676L257.247,100.676z"/>
<path fill="#FFFFFF" d="M182.648,100.576c0,0.4-0.301,0.6-0.5,0.8c-0.301,0-0.5-0.2-0.7-0.399c-0.101-0.301,0.3-0.601,0.399-0.701
	C182.247,100.076,182.347,100.376,182.648,100.576L182.648,100.576z"/>
<path fill="#FFFFFF" d="M185.148,100.775c-0.101,0.301-0.301,0.601-0.7,0.601c-0.3-0.101-0.5-0.101-0.7-0.399
	c0-0.4,0.3-0.601,0.5-0.701C184.747,100.176,185.148,100.376,185.148,100.775L185.148,100.775z"/>
<path fill="#FFFFFF" d="M265.148,103.376c0.199,0.101,0.5,0.3,0.399,0.601c-0.6,0.299-1.1-0.4-1.6-0.5c-0.9-0.9-1.5-1.801-1.9-2.9
	c0.3-0.301,0.7,0.1,1,0.199C263.847,101.376,264.648,102.275,265.148,103.376L265.148,103.376z"/>
<path fill="#FFFFFF" d="M266.448,100.775c0.1,0.301,0.1,0.601-0.101,0.801c-0.199,0.4-0.699,0.3-1,0.199
	c-0.199-0.199-0.5-0.5-0.3-0.799c0.101-0.301,0.4-0.4,0.7-0.5C266.047,100.376,266.247,100.676,266.448,100.775L266.448,100.775z"/>
<path fill="#FFFFFF" d="M188.547,101.676c0,0.301,0.101,0.7-0.3,0.9c-0.3,0.1-0.8,0-0.9-0.4c-0.199-0.4,0.2-0.5,0.4-0.699
	C188.148,101.376,188.347,101.477,188.547,101.676L188.547,101.676z"/>
<path fill="#FFFFFF" d="M257.148,104.076c0.5,0.699,0.899,1.699,1,2.6c-0.101,0.301,0.199,0.5,0,0.7h-0.101c-1.6-1.2-2-2.8-2.6-4.5
	c-0.101-0.101-0.2-0.2-0.101-0.399c0.4-0.301,0.601,0.299,1,0.399L257.148,104.076L257.148,104.076z"/>
<path fill="#FFFFFF" d="M193.347,102.876C193.247,102.876,193.347,102.876,193.347,102.876c-1.399,1.101-3.5,1.7-5.199,0.7
	c0-0.1,0-0.301,0.199-0.301c1.101-0.299,2.101-0.799,3.2-0.699L193.347,102.876L193.347,102.876z"/>
<path fill="#FFFFFF" d="M184.948,103.076c-1.2,0.8-2.4,2.3-3.9,2.699c-0.3,0.101-0.5,0.5-0.8,0.301c0.7-2,2.8-3.1,4.8-3.2v0.2
	H184.948z"/>
<path fill="#FFFFFF" d="M254.948,104.676c0.1,0.301,0,0.7-0.3,0.801c-0.2,0.199-0.5,0.199-0.7,0c-0.3-0.201-0.3-0.5-0.3-0.701
	c0.1-0.299,0.399-0.299,0.5-0.399C254.547,104.376,254.847,104.376,254.948,104.676L254.948,104.676z"/>
<path fill="#FFFFFF" d="M251.948,104.876c-0.2,0.5-0.8,0.8-1.3,1c-1.2,0.399-2.4-0.101-3.5-0.399c0-0.301,0.399-0.201,0.6-0.4
	c1.2-0.301,2.5-0.5,3.7-0.2C251.547,104.775,251.847,104.775,251.948,104.876L251.948,104.876z"/>
<path fill="#FFFFFF" d="M184.948,105.977c-0.101,0.1-0.101,0.5-0.4,0.6s-0.5,0-0.7-0.1c-0.1-0.201-0.3-0.4-0.1-0.701
	c0.1-0.299,0.4-0.299,0.6-0.399C184.547,105.376,184.847,105.576,184.948,105.977L184.948,105.977z"/>
<path fill="#FFFFFF" d="M187.148,106.275c-0.101,0.201-0.2,0.601-0.5,0.701c-0.301,0.1-0.5-0.101-0.7-0.301
	c-0.101-0.199-0.2-0.5-0.101-0.699c0.101-0.201,0.301-0.201,0.5-0.301C186.648,105.576,186.948,105.977,187.148,106.275
	L187.148,106.275z"/>
<path fill="#FFFFFF" d="M254.247,106.676c0,0.301-0.1,0.5-0.3,0.7c-0.2,0.3-0.5,0.3-0.8,0.101c-0.301,0-0.301-0.301-0.4-0.5
	c-0.2-0.301,0.1-0.5,0.3-0.701C253.448,105.876,254.148,106.076,254.247,106.676L254.247,106.676z"/>
<path fill="#FFFFFF" d="M255.948,106.576c0,0.199,0.1,0.4,0.1,0.5c-0.2,0.199-0.399,0.699-0.8,0.5c-0.2,0.1-0.3-0.2-0.4-0.301
	c-0.1-0.399,0-0.899,0.4-1C255.547,106.176,255.747,106.477,255.948,106.576L255.948,106.576z"/>
<path fill="#FFFFFF" d="M185.747,107.676c0.1,0.4-0.1,0.801-0.4,1c-0.399,0.1-0.899,0.1-1.1-0.4c0-0.399,0-0.799,0.4-1.1
	C185.148,107.076,185.648,107.176,185.747,107.676L185.747,107.676z"/>
<path fill="#FFFFFF" d="M187.847,107.477c-0.1,1-0.3,2.299-1.3,2.899c-0.6,0.101-1.2,0.7-1.8,0.3v-0.199
	C185.547,109.376,186.948,108.576,187.847,107.477L187.847,107.477z"/>
<path fill="#FFFFFF" d="M248.547,108.376c0.101,0.2-0.1,0.399-0.2,0.601c-0.199,0.299-0.6,0.1-0.899,0c-0.3-0.101-0.3-0.5-0.2-0.701
	c0.1-0.199,0.3-0.299,0.5-0.399C248.047,107.775,248.347,108.076,248.547,108.376L248.547,108.376z"/>
<path fill="#FFFFFF" d="M191.547,110.076c0.5,0.8,0.2,2,0.5,2.9c-0.6,0.1-0.899-0.601-1.3-1c-0.8-1.101-0.7-2.601-1.1-3.9
	c0.1-0.1,0.199-0.1,0.3-0.1c0.5,0.399,1,1.1,1.399,1.5C191.247,109.775,191.547,109.775,191.547,110.076L191.547,110.076z"/>
<path fill="#FFFFFF" d="M250.347,108.676c0,0.301-0.3,0.4-0.5,0.6c-0.3,0-0.5-0.1-0.699-0.299c-0.101-0.4,0.199-0.5,0.399-0.701
	C249.847,108.076,250.247,108.275,250.347,108.676L250.347,108.676z"/>
<path fill="#FFFFFF" d="M254.747,111.876c0,0.101,0,0.3-0.2,0.3h-0.1c-1.101-1-2.101-2-2-3.5h0.2
	C253.547,109.477,254.648,110.376,254.747,111.876L254.747,111.876z"/>
<path fill="#FFFFFF" d="M251.948,110.775c0,0.301-0.101,0.5-0.3,0.701c-0.4,0.1-1,0.1-1.101-0.5c0-0.4,0.4-0.601,0.5-0.701
	C251.547,110.076,251.847,110.376,251.948,110.775L251.948,110.775z"/>
<path fill="#FFFFFF" d="M249.547,111.477c-0.5,1.399-1.899,2.1-2.899,3.1c-0.2-0.1-0.101-0.4-0.101-0.6c0.4-1.4,1.5-2.801,2.8-3.301
	C250.047,110.775,249.448,111.176,249.547,111.477L249.547,111.477z"/>
<path fill="#FFFFFF" d="M252.347,112.576c0,0.3-0.3,0.5-0.5,0.699c-0.3,0-0.6-0.1-0.8-0.399c0-0.399,0.3-0.5,0.5-0.7
	C251.847,112.176,252.148,112.376,252.347,112.576L252.347,112.576z"/>
<path fill="#FFFFFF" d="M225.047,45.676c0.5,0,0.9,0.4,0.9,0.9s-0.4,0.9-0.9,0.9h-10.8c-0.5,0-0.9-0.4-0.9-0.9s0.4-0.9,0.9-0.9
	H225.047L225.047,45.676z M217.347,47.276c1.101,0,0.101-1.3-0.5-1.3h-1.1c-1.1,0-0.1,1.3,0.5,1.3H217.347L217.347,47.276z
	 M221.847,47.276c1.101,0,0.101-1.3-0.5-1.3h-1.1c-1.1,0-0.1,1.3,0.5,1.3H221.847L221.847,47.276z M225.148,45.976h-0.4
	c-1.1,0-0.2,1.3,0.4,1.3C225.847,47.276,225.847,45.976,225.148,45.976L225.148,45.976z"/>
<path fill="#FFFFFF" d="M224.148,58.176l2.1,0.8l2-0.8l-0.8,3.1l1.6-0.3l-0.6,1.9l0.6,1.8l-1.399-0.4l0.6,3.3l-2-0.8l-2.1,0.8
	l0.8-3.3l-1.7,0.5l0.4-1.9l-0.301-1.9l1.601,0.3L224.148,58.176L224.148,58.176z M227.148,63.676c0.5,0,0.5-0.6,0.5-1.2
	c0-1.3-1,0-1.5-1.2c-0.4,1-1.4,0.1-1.4,1.1c0,0.7,0,1.2,0.7,1.2h1.7V63.676z M225.148,62.476c0,0.5,0.6,0.2,1.1,0.2s1.1,0.3,1.1-0.2
	c0-0.7-0.6-0.4-1.1-0.4S225.148,61.876,225.148,62.476L225.148,62.476z"/>
<polygon fill="#FFFFFF" points="219.247,62.576 219.247,62.276 218.948,62.176 219.148,61.876 219.047,61.576 219.347,61.576 
	219.547,61.276 219.847,61.576 220.148,61.576 219.948,61.876 220.247,62.176 219.948,62.276 219.948,62.576 219.547,62.376 "/>
<polygon fill="#FFFFFF" points="217.648,64.676 217.648,64.276 217.347,64.276 217.547,63.976 217.448,63.676 217.747,63.676 
	217.948,63.276 218.148,63.676 218.547,63.676 218.347,63.976 218.648,64.276 218.347,64.276 218.347,64.676 217.948,64.476 "/>
<polygon fill="#FFFFFF" points="220.347,64.476 220.347,64.076 220.047,63.976 220.347,63.676 220.148,63.376 220.547,63.376 
	220.747,63.076 220.948,63.376 221.247,63.376 221.148,63.676 221.347,63.976 221.047,64.076 221.047,64.476 220.747,64.176 "/>
<polygon fill="#FFFFFF" points="220.747,65.976 220.747,65.776 220.547,65.776 220.648,65.576 220.547,65.376 220.747,65.376 
	220.847,65.176 221.047,65.376 221.247,65.376 221.148,65.576 221.247,65.776 221.047,65.776 221.047,65.976 220.847,65.876 "/>
<polygon fill="#FFFFFF" points="218.148,67.776 218.148,67.076 217.547,66.976 218.047,66.476 217.747,65.976 218.347,65.976 
	218.747,65.376 219.047,65.976 219.747,65.976 219.448,66.476 219.847,66.976 219.247,67.076 219.247,67.776 218.747,67.376 "/>
<polygon fill="#FFFFFF" points="219.448,32.976 220.747,36.176 224.047,35.176 222.347,38.176 225.148,40.176 221.747,40.676 
	221.948,44.176 219.448,41.876 216.948,44.176 217.148,40.676 213.747,40.176 216.547,38.176 214.948,35.176 218.148,36.176 "/>
<path fill="#FFFFFF" d="M207.648,104.076c-0.4,0.1-0.5,0.3-0.4,0.699l0.5,1.9c0.1,0.4,0.1,0.9-0.1,1.301
	c-0.301,0.399-0.9,0.699-1.301,0.799c-0.3,0.101-1,0.201-1.6,0c-0.4-0.199-0.6-0.299-0.8-1l-0.5-2c-0.101-0.5-0.3-0.5-0.7-0.399
	v-0.2l2.5-0.6v0.199c-0.5,0.101-0.7,0.201-0.6,0.701l0.5,2c0.1,0.299,0.3,1.199,1.3,0.899c1.3-0.3,1.1-1.2,1-1.601l-0.4-1.899
	c-0.1-0.399-0.2-0.601-0.899-0.399v-0.201l1.6-0.399L207.648,104.076L207.648,104.076z"/>
<path fill="#FFFFFF" d="M211.247,104.477c-0.2-0.4-0.8-1-1.7-0.801c-0.399,0.1-0.7,0.4-0.7,0.801c0.101,0.299,0.2,0.399,0.9,0.6
	l1.2,0.199c0.3,0,0.899,0.301,1,0.9c0.1,0.5-0.2,1.4-1.5,1.7c-0.7,0.2-1.101,0-1.3,0.101c-0.2,0-0.2,0.199-0.2,0.299h-0.2l-0.3-1.5
	h0.2c0.3,0.601,0.899,1.201,1.8,1c0.899-0.199,0.8-0.799,0.8-0.899c-0.1-0.399-0.5-0.5-1-0.601l-0.5-0.1c-1.4-0.199-1.5-0.699-1.5-1
	c-0.1-0.4,0-1.3,1.3-1.6c0.601-0.1,1,0,1.2,0s0.2-0.1,0.2-0.301h0.2l0.3,1.301L211.247,104.477L211.247,104.477z"/>
<path fill="#FFFFFF" d="M216.148,106.876l-2.7,0.3v-0.199c0.5-0.101,0.7-0.101,0.7-0.601l-0.301-3.3c-0.5,0.1-1.3,0.199-1.3,1.199
	h-0.2l-0.1-1.299l4.5-0.4l0.1,1.3h-0.199c-0.2-1-1-0.899-1.5-0.899l0.3,3.299c0.1,0.5,0.2,0.5,0.8,0.5L216.148,106.876
	L216.148,106.876z"/>
<path fill="#FFFFFF" d="M222.347,106.876h-1.5l-1.5-2h-0.199v1.2c0,0.5,0.199,0.5,0.6,0.6v0.2l-2.5-0.101v-0.199
	c0.5,0,0.7-0.1,0.7-0.6l0.1-2.801c0-0.5-0.2-0.6-0.6-0.6v-0.2h2.399c0.5,0,2.101,0.101,2.101,1.101c0,0.799-0.8,0.899-1.2,1
	l1.5,1.799c0.1,0.101,0.2,0.101,0.3,0.101v0.5H222.347z M219.047,104.676c1,0,1.4-0.1,1.4-0.9c0-0.6-0.3-0.899-0.9-0.899
	c-0.399,0-0.399,0.101-0.5,0.3V104.676L219.047,104.676z"/>
<path fill="#FFFFFF" d="M227.247,107.576l-2.4-0.301v-0.199c0.5,0,0.601,0,0.601-0.2s-0.2-0.7-0.2-0.899l-1.7-0.201
	c-0.3,0.4-0.399,0.701-0.399,0.801c0,0.199,0.3,0.3,0.6,0.3v0.2l-1.5-0.2v-0.2c0.4,0,0.5-0.199,0.8-0.6l2.101-3.2h0.199l1.2,3.5
	c0.3,0.7,0.3,0.899,0.7,1V107.576L227.247,107.576z M225.148,105.775l-0.601-1.6l-0.899,1.4L225.148,105.775L225.148,105.775z"/>
<path fill="#FFFFFF" d="M231.547,108.376l-4.2-0.8v-0.2c0.4,0,0.601,0.101,0.7-0.3l0.5-3c0.101-0.4-0.2-0.5-0.6-0.6v-0.201l2.6,0.5
	v0.201c-0.5-0.101-0.7-0.101-0.8,0.399l-0.5,2.899c-0.1,0.301,0.1,0.4,0.6,0.5c1.101,0.201,1.601-0.199,2.101-0.899h0.2
	L231.547,108.376L231.547,108.376z"/>
<path fill="#FFFFFF" d="M234.347,109.076l-2.6-0.5v-0.2c0.4,0,0.7,0.101,0.8-0.3l0.601-3c0.1-0.4-0.301-0.5-0.601-0.6v-0.201
	l2.601,0.5v0.201c-0.301-0.101-0.7-0.101-0.801,0.299l-0.6,3c-0.1,0.4,0.2,0.5,0.6,0.601V109.076L234.347,109.076z"/>
<path fill="#FFFFFF" d="M239.547,109.676l-2.399-0.199v-0.201c0.5,0,0.6,0,0.6-0.199c0-0.2-0.2-0.7-0.3-0.9l-1.7-0.199
	c-0.3,0.399-0.4,0.699-0.4,0.799c0,0.201,0.301,0.301,0.601,0.301v0.199l-1.5-0.199v-0.2c0.399,0,0.5-0.2,0.8-0.7l2-3.199h0.2
	l1.3,3.399c0.3,0.7,0.4,0.899,0.7,1L239.547,109.676L239.547,109.676z M237.448,107.977l-0.601-1.601l-0.8,1.5L237.448,107.977
	L237.448,107.977z"/>
<path fill="#FFFFFF" d="M220.448,59.176c0-1.5-0.8-0.1-1.3-1.4c-0.301,1.1-1.4,0.2-1.4,1.3c0,0.4,0.1,0.7,0.3,0.8v0.4
	c0,0.1,0.101,0.2,0.2,0.2h1.6c0.101,0,0.2-0.1,0.2-0.2v-0.5C220.347,59.776,220.448,59.476,220.448,59.176L220.448,59.176z
	 M219.148,59.476c-0.4,0-1,0.3-1-0.2c0-0.7,0.5-0.6,0.899-0.6c0.4,0,1.101-0.2,1.101,0.6
	C220.247,59.776,219.648,59.476,219.148,59.476L219.148,59.476z"/>
<path fill="#FFFFFF" d="M233.547,77.576c0.4,0,0.7-0.301,0.7-0.6c0-0.301-0.3-0.601-0.7-0.601c-0.399,0-0.7,0.3-0.7,0.601
	C232.948,77.376,233.247,77.576,233.547,77.576L233.547,77.576z"/>
<path fill="#FFFFFF" d="M230.347,55.276c0,0-0.3,0.5-0.3,0.6c0,0.2,0.101,0.4,0.3,0.4c0.2,0,0.301-0.2,0.301-0.4
	C230.648,55.976,230.347,55.276,230.347,55.276L230.347,55.276z"/>
<path fill="#FFFFFF" d="M208.247,55.276c0,0-0.3,0.5-0.3,0.6c0,0.2,0.1,0.4,0.3,0.4s0.3-0.2,0.3-0.4
	C208.547,55.976,208.247,55.276,208.247,55.276L208.247,55.276z"/>
<path fill="#FFFFFF" d="M213.747,55.276c0,0-0.3,0.5-0.3,0.6c0,0.2,0.1,0.4,0.3,0.4s0.3-0.2,0.3-0.4
	C214.047,55.976,213.747,55.276,213.747,55.276L213.747,55.276z"/>
<path fill="#FFFFFF" d="M219.247,55.276c0,0-0.3,0.5-0.3,0.6c0,0.2,0.1,0.4,0.3,0.4s0.3-0.2,0.3-0.4
	C219.648,55.976,219.247,55.276,219.247,55.276L219.247,55.276z"/>
<path fill="#FFFFFF" d="M224.847,55.276c0,0-0.3,0.5-0.3,0.6c0,0.2,0.101,0.4,0.3,0.4c0.2,0,0.301-0.2,0.301-0.4
	C225.148,55.976,224.847,55.276,224.847,55.276L224.847,55.276z"/>
<path fill="#FFFFFF" d="M208.247,62.876c0,0,0.3,0.5,0.3,0.6c0,0.2-0.1,0.4-0.3,0.4s-0.3-0.2-0.3-0.4
	C207.948,63.576,208.247,62.876,208.247,62.876L208.247,62.876z"/>
<path fill="#FFFFFF" d="M208.247,70.276c0,0,0.3,0.5,0.3,0.6c0,0.2-0.1,0.4-0.3,0.4s-0.3-0.2-0.3-0.4L208.247,70.276L208.247,70.276
	z"/>
<path fill="#FFFFFF" d="M209.148,76.176c0,0,0.3,0.5,0.3,0.599c0,0.201-0.101,0.4-0.3,0.4c-0.2,0-0.301-0.199-0.301-0.4
	L209.148,76.176L209.148,76.176z"/>
<path fill="#FFFFFF" d="M213.747,79.275c0,0,0.3,0.5,0.3,0.601c0,0.2-0.1,0.399-0.3,0.399s-0.3-0.199-0.3-0.399L213.747,79.275
	L213.747,79.275z"/>
<path fill="#FFFFFF" d="M230.648,62.876c0,0-0.301,0.5-0.301,0.6c0,0.2,0.101,0.4,0.301,0.4c0.199,0,0.3-0.2,0.3-0.4
	C230.948,63.576,230.648,62.876,230.648,62.876L230.648,62.876z"/>
<path fill="#FFFFFF" d="M230.648,70.276c0,0-0.301,0.5-0.301,0.6c0,0.2,0.101,0.4,0.301,0.4c0.199,0,0.3-0.2,0.3-0.4L230.648,70.276
	L230.648,70.276z"/>
<path fill="#FFFFFF" d="M229.747,76.176c0,0-0.3,0.5-0.3,0.599c0,0.201,0.1,0.4,0.3,0.4s0.3-0.199,0.3-0.4L229.747,76.176
	L229.747,76.176z"/>
<path fill="#FFFFFF" d="M225.148,79.275c0,0-0.301,0.5-0.301,0.601c0,0.2,0.101,0.399,0.301,0.399c0.199,0,0.3-0.199,0.3-0.399
	L225.148,79.275L225.148,79.275z"/>
<path fill="#FFFFFF" d="M219.448,82.477c0,0-0.3,0.5-0.3,0.6c0,0.199,0.1,0.4,0.3,0.4s0.3-0.201,0.3-0.4
	C219.747,83.176,219.448,82.477,219.448,82.477L219.448,82.477z"/>
<path fill="#FFFFFF" d="M228.448,71.476c0.1,0.1,0.2,0.1,0.5,0.1l0.2-0.6c0,0-0.2-0.3-0.4-0.2c-0.6,0.1-1.2,0.2-1.6,0.8
	c0,0.4,0.3,0.7,0.6,0.9c0.2-0.1,0.2,0.1,0.4,0.2c0,0.2-0.101,0.3-0.2,0.3c-0.4-0.4-1.101,0.1-1.5-0.4c0.1-0.5,0.399-1.1,0-1.6
	c0-0.1,0.2-0.2,0.1-0.3c-0.2-0.5-0.7-0.1-1-0.1c-0.5-0.1-0.899,0.2-1.3,0.6c0,0.2,0.1,0.4,0.3,0.5c0.101,0,0.2,0,0.2,0.1l-0.3,0.2
	c0.1,0.1,0.1,0.2,0.1,0.4c-0.2,0.1-0.5-0.2-0.6-0.4c0-0.3,0-0.8-0.3-0.8c-0.101,0-0.301,0.1-0.301,0.1c-0.1,0.1-0.1,0.3-0.1,0.6
	c0,0.2,0.1,0.6,0.1,0.6s1.101,0.8,1.301,1.3c-0.301,0.6-0.301,1.5-1,1.9c-0.2,0.1-0.2,0.4-0.2,0.6l0.2,0.1c0.5-0.2,1.3-0.3,1.3-1.1
	c0.2-0.3,0.3-0.7,0.7-0.9c0.399-0.1,0.699,0.1,0.8,0.4c-0.101,0.5-0.5,0.9-0.9,1.1c-0.1,0.1,0,0.2,0,0.3c0.101,0.2,0.5,0.1,0.7,0.1
	c0.6-0.4,0.8-1.1,1.4-1.3c0.1,0.3-0.7,0.5-0.2,0.8c0.3-0.1,0.7,0,0.899-0.4c-0.199-0.6,0.801-0.9,0.2-1.4c0-0.5,0.601-0.7,0.5-1.3
	c-0.2-0.6-0.899-0.6-1-1.1C227.948,71.376,228.247,71.376,228.448,71.476L228.448,71.476z"/>
<path fill="#FFFFFF" d="M203.047,77.876c0.4,0,0.7-0.3,0.7-0.601c0-0.299-0.3-0.6-0.7-0.6c-0.399,0-0.7,0.301-0.7,0.6
	C202.347,77.576,202.648,77.876,203.047,77.876L203.047,77.876z"/>
<path fill="#FFFFFF" d="M167.247,98.876c0.4,0,0.7-0.3,0.7-0.7s-0.3-0.6-0.7-0.6s-0.7,0.3-0.7,0.6
	C166.547,98.576,166.847,98.876,167.247,98.876L167.247,98.876z"/>
<path fill="#FFFFFF" d="M232.148,54.476L232.148,54.476h-25.5l0,0l0,0v19.5c0,2,0.8,3.7,2,4.299l9.8,6.201
	c0.2,0.199,0.5,0.399,0.899,0.399c0.301,0,0.601-0.101,0.801-0.3l10-6.301c1.199-0.5,2-2.299,2-4.299V54.476L232.148,54.476
	L232.148,54.476z M231.448,74.176c-0.101,1.5-0.601,2.7-1.7,3.4l-9.6,6.1h-0.101c-0.2,0.2-0.5,0.301-0.7,0.301
	c-0.3,0-0.5-0.101-0.8-0.301l-9.5-6.1c-1-0.7-1.5-1.9-1.7-3.4v-19h24.101V74.176L231.448,74.176z"/>
<path fill="#FFFFFF" d="M222.847,82.876l0.301-0.101C223.047,82.775,222.948,82.775,222.847,82.876L222.847,82.876z"/>
<path fill="#FFFFFF" d="M203.648,109.477l-2.4,0.299v-0.199c0.5-0.1,0.6-0.1,0.6-0.301c0-0.199-0.3-0.6-0.399-0.799l-1.7,0.199
	c-0.2,0.5-0.2,0.7-0.2,0.801c0,0.199,0.4,0.199,0.601,0.199v0.2l-1.5,0.2v-0.2c0.399-0.101,0.5-0.3,0.6-0.8l1.3-3.6h0.2l2,3.1
	c0.4,0.6,0.6,0.8,0.9,0.8V109.477L203.648,109.477z M201.148,108.275l-0.9-1.399l-0.5,1.601L201.148,108.275L201.148,108.275z"/>
<path fill="#FFFFFF" d="M245.847,100.376c-0.399-1.101-1.399-1.899-2.5-2.3c-1.199-0.301-2.399-0.1-3.199,0.8
	c-1.301,1.101-0.4,2.8-0.4,4.3c0,0.301,0,0.5-0.3,0.7c-5.3-0.5-10.2-1.8-15.5-2.399c-1.2-0.201-2.4-0.201-3.601-0.4l-1.3-0.1
	c-4.6,0.1-9.2,0.399-13.399,1.5c-0.9,0.299-1.9,0.399-2.9,0.699c-0.7-0.1-1.2,0.4-1.8,0.2l-1.2,0.3c-0.1,0-0.2,0-0.4,0
	c-0.6-1.5,1.2-2.4,0.601-3.9c-0.5-0.799-1.4-1.699-2.5-1.5c-1.2-0.1-2.3,0.601-2.9,1.5c-0.8,1.801,0.2,3.801,0.5,5.601
	c-0.1,0.601,0.601,1.3,0,1.7c-1.2-0.801-2.7-1.301-4.1-0.801c-0.4,0.201-1.2-0.1-1.5,0.4c1.6,0.801,3.6,0.7,5.3,0.7
	c0.2-0.101,0.4-0.101,0.5,0c0.1,1-0.2,2.2,0.4,3.101c0.699,0.899,1.8,1.1,2.8,1.199c3.399-0.1,6.399-1.1,9.399-1.9
	c0.5,0,0.801-0.299,1.4-0.299c1.6-0.4,3.4-0.701,5.2-0.701c-0.8,1-1.2,2.101-1.5,3.301c-0.4,1,0.8,1.1,1.1,1.699
	c-1.1,0.301-1.899,1.101-3,1.5c-2.3-0.1-4.3,0.801-6.5,1.101c0,0.5,0.8,0.3,0.8,0.8c-0.1,0.301-0.399,0.4-0.699,0.6
	c0,0.201,0,0.301,0.199,0.301c0.2-0.301,0.7-0.1,0.9-0.301c0.7,0,1.4-0.199,2-0.299c0.6-0.301,1.3-0.301,1.9-0.701
	c0.8-0.199,1.199-0.699,2-1c1.1,0,2.1-0.399,3.1-0.399v0.2c-0.8,1.4-1.7,2.8-2.6,4.1c-0.101,0.301,0,0.5,0.3,0.6
	c0.5,0.101,1,0,1.399-0.199c0.801-1.301,1.5-2.6,2.101-3.9c0.3-1.3,1.2-1.9,2.1-2.8c0.101-0.101,0.4-0.3,0.5-0.101
	c-0.7,0.801-1.2,1.701-1.8,2.601c-0.3,1-0.4,2.399,0.5,3.2c0.4,0.4,1.1,0.3,1.7,0.3c1.399-0.7,3.3,0.399,4.399-1
	c0.7-0.101,0.801,0.7,1.101,1c0.6,0.2,1.3,0.8,1.899,0.399c0-0.399-0.5-0.799-0.699-1.1c-0.4-0.8-1-1.4-1.4-2.1
	c-0.2-0.5-0.5-0.801-0.6-1.4c0.699,0.2,1.199,0.7,2,0.801c0.6,0.299,1.399,0.199,2,0.6c0.5,0.6,1.199,1,1.8,1.4
	c0.899,0.399,1.899,0.5,2.899,0.899c0.4,0,0.9,0.3,1.2,0c-0.1-0.2-0.3-0.3-0.5-0.399c-0.1-0.5,0.7-0.201,0.9-0.601
	c-0.101-0.2-0.2-0.3-0.4-0.3c-0.5-0.301-1.8-0.4-2.2-0.6c-0.399-0.101-0.8-0.301-1.3-0.4c-2.2,0-3.399-2-5.2-2.7
	c0.4-0.399,1-0.7,1.301-1.2c0.3-0.5,0.399-1.4,0.1-2c-0.3-1.1-1.8-1-2.6-1.6l0.1-0.1c1.4-0.101,2.7,0.299,4,0.5
	c3.5,0.5,6.8,1.799,10.4,1.899c2,0,4.5,0.101,5.5-1.8c0.199-1.1,0.399-2.301,0.6-3.4
	C244.847,104.076,246.047,102.376,245.847,100.376L245.847,100.376z M206.347,117.176l-0.5-0.5c0.301-0.3,0.801-0.1,1.2-0.4
	c1-0.299,2.101-0.699,3.101-0.399C209.047,116.775,207.648,116.876,206.347,117.176L206.347,117.176z M229.148,116.576
	c0.899,0.4,2.6,0.8,3.899,0.9c-0.1,0.5-1,0-0.899,0.699c-1.101-0.4-2.5-0.699-3.301-1.5
	C228.948,116.676,229.047,116.576,229.148,116.576L229.148,116.576z M194.847,100.977c0.101-0.701,0.301-1.4,0.9-1.801
	c0.9-0.5,2.1-0.4,2.9,0.1c0.3,0.101,0.399,0.4,0.6,0.701c0.2,0.6-0.1,1.299-0.6,1.699h-0.4c0-0.6,0-1.199,0.2-1.699
	c0-0.4-0.4-0.5-0.7-0.701c-0.6-0.199-1.2,0.101-1.6,0.4c-0.4,0.4-0.7,1-0.5,1.6c0.3,0.4,0,1,0.199,1.4l-0.1,0.2
	C195.347,102.275,194.747,101.775,194.847,100.977L194.847,100.977z M196.547,101.977c0.5,0.399,1.3,0.199,2,0.299
	c0.101,0.4,0.101,0.9-0.2,1.301c-0.6-0.2-1.399-0.1-1.8-0.7C196.648,102.676,196.448,102.275,196.547,101.977L196.547,101.977z
	 M196.448,100.775c0.1-0.299,0-0.699,0.399-0.799c0.301-0.101,0.7-0.101,0.7,0.199c0,0.4-0.1,0.9-0.2,1.301
	C196.847,101.477,196.547,101.176,196.448,100.775L196.448,100.775z M213.648,112.576c-0.2-1.301,0.3-2.4,1.199-3.301
	c0.5-0.1,1.101-0.199,1.601,0.101c-1,0.3-2.2,0.5-2.4,1.7c0,0.5-0.1,0.699,0.101,1.1c0.399,0.7,1.3,0.4,1.8,1
	c0,0.2-0.101,0.4-0.3,0.4C214.948,113.176,214.247,113.076,213.648,112.576L213.648,112.576z M212.347,115.076
	c0.9-0.4,1.801-1.1,2.801-0.801C214.347,114.876,213.247,115.076,212.347,115.076L212.347,115.076z M215.747,115.477
	c-0.5,1.199-1.1,2.299-1.8,3.5c-0.101,0.199-0.4,0.199-0.601,0.299c0-0.5,0.5-0.899,0.7-1.399c0.8-1,1-2.101,1.9-3
	C216.247,115.076,215.747,115.176,215.747,115.477L215.747,115.477z M216.648,113.376v0.101h-0.101L216.648,113.376L216.648,113.376
	L216.648,113.376C216.747,113.275,216.648,113.275,216.648,113.376L216.648,113.376L216.648,113.376z M216.347,112.376
	c-0.6-0.101-1.199-0.3-1.8-0.399c-0.399-0.4,0-0.801,0-1.201c0.5-0.799,2-1.199,2.7-0.5
	C217.148,111.076,216.847,111.775,216.347,112.376L216.347,112.376z M217.148,112.376c0.1-0.5,0.3-1.101,0.6-1.5
	C217.747,111.275,217.547,111.977,217.148,112.376L217.148,112.376z M217.547,109.376c-0.5-0.101-0.7-0.7-1.2-0.7
	c0.4-0.1,0.9-0.1,1.4,0C217.948,108.977,217.648,109.176,217.547,109.376L217.547,109.376z M218.047,110.477L218.047,110.477v-0.4
	l0,0V110.477L218.047,110.477z M218.047,112.176c0-0.1,0.101-0.3,0.101-0.5c0.199-0.199,0.399,0.2,0.399,0.301
	C218.448,112.076,218.247,112.176,218.047,112.176L218.047,112.176z M218.547,109.876c0.2-0.5,0.2-1,0.601-1.399
	c0.399,0,0.699,0,1,0.1c0.1,0.699,1,1.699,0,2.4c-0.301,0.199-0.801,0.5-1.2,0.199C218.448,110.775,218.448,110.376,218.547,109.876
	L218.547,109.876z M221.247,108.876c-0.1-0.3,0.3-0.101,0.5-0.2l1.1,0.1C222.247,108.676,221.547,109.977,221.247,108.876
	L221.247,108.876z M223.148,109.376c-0.4,0.101-0.801,0.7-1.2,0.8C222.148,109.676,222.648,109.275,223.148,109.376L223.148,109.376
	z M221.547,111.576v0.1l0,0V111.576L221.547,111.576L221.547,111.576z M221.648,113.876c0,0.101,0,0.2-0.101,0.3l-0.8-0.699
	C221.148,113.376,221.448,113.576,221.648,113.876L221.648,113.876z M220.648,112.775c0.1-0.1,0.3-0.1,0.3,0H220.648
	L220.648,112.775z M220.148,112.176c0.1-0.199,0.3-0.6,0.6-0.6c0,0,0,0.1,0.1,0.1C220.547,111.876,220.347,112.076,220.148,112.176
	L220.148,112.176z M219.247,112.076h-0.1l0.199-0.2C219.448,111.977,219.347,112.076,219.247,112.076L219.247,112.076z
	 M219.448,113.477c0.5-0.5,0.899,0.299,1.1,0.699c0.5,0.801,2,1.5,1.4,2.7c-0.7,0.601-1.8,0-2.601,0.5c-0.399,0-1.1,0.101-1.3-0.3
	C218.448,115.876,218.847,114.576,219.448,113.477L219.448,113.477z M218.347,114.176l0.2-0.3c-0.3,0.899-0.7,1.8-1.2,2.7
	C217.148,115.676,218.047,114.977,218.347,114.176L218.347,114.176z M219.948,118.576c-0.7,0-1.8,0.4-2.4-0.2
	c0-0.3-0.3-0.399-0.3-0.7c0.6-0.199,1.1,0.5,1.6,0c0.801,0,1.7-0.1,2.601,0.1c0.399,0.101,1-0.699,1.1,0.101
	C222.347,119.076,220.847,118.176,219.948,118.576L219.948,118.576z M222.148,113.275v-0.1h0.1L222.148,113.275L222.148,113.275
	L222.148,113.275z M222.347,115.576c0,0.4,0.4,0.5,0.2,0.8C222.448,116.275,222.247,115.977,222.347,115.576L222.347,115.576z
	 M223.347,117.775l-0.199,0.101c-0.2-0.101-0.101-0.601-0.101-0.8C223.347,117.275,223.547,117.576,223.347,117.775L223.347,117.775
	z M225.148,118.676c0,0.1-0.2,0.1-0.301,0c-1.1-1.4-1.6-2.9-2.3-4.4h0.101C223.648,115.676,224.347,117.275,225.148,118.676
	L225.148,118.676z M226.547,115.275c-0.1,0-0.1,0.101-0.1,0.101c-1.101,0-1.8-0.601-2.601-1.101v-0.199
	C224.847,114.176,225.648,114.876,226.547,115.275L226.547,115.275z M225.547,110.376c0.4,0.101,0.5,0.601,0.5,1
	c0,0.8-0.5,1.5-1.2,1.8c-0.399,0.2-1,0.301-1.399,0.1c0.899,0,1.8-0.399,2.2-1.199L225.547,110.376L225.547,110.376z
	 M224.747,110.275c0.2,0.5,0.5,1,0.3,1.601c-0.399,0.7-1.1,0.7-1.8,0.8c-0.3,0-0.6-0.1-0.8-0.3c0-0.101,0-0.3-0.101-0.399
	c0.101-0.5-0.8-1-0.199-1.4C222.747,110.176,224.148,108.977,224.747,110.275L224.747,110.275z M243.347,107.576
	c-0.3,0.4,0,1-0.399,1.3c0,0.7-0.601,1-1,1.3c-4.4,1-8.601-0.5-12.8-1.3c-5.9-1.3-12.801-1.7-18.801-0.3c-2.8,0.5-5.6,1.199-8.3,2
	c-1.7,0.199-3.5,0.5-5.1,0c-1.3-0.6-0.8-2.301-1.2-3.5c0.1-0.9-0.3-1.7-0.3-2.5c-0.101-0.301-0.2-0.7-0.101-1
	c0.5,0.1,1.101,0.5,1.7,0.6c3.101,0.6,5.8-0.4,8.7-0.9c2.7-0.6,5.6-1.1,8.5-1.299c3.3,0,6.7-0.201,9.8,0.299c1,0,1.9,0.301,2.9,0.4
	c2.1,0.301,4,0.801,6,1c0.3,0.1,0.7,0.1,1.1,0.2c3.3,0.5,7,1.399,10.101,0C244.148,105.076,243.547,106.275,243.347,107.576
	L243.347,107.576z M242.347,103.076c0,0.6-0.5,0.4-0.8,0.699h-0.899c-0.2-0.299-0.101-0.699-0.101-1
	C241.148,102.775,241.847,102.775,242.347,103.076L242.347,103.076z M241.948,102.176c0.399-0.4-0.101-2.699,1-1.199
	c0,0.299,0,0.699-0.3,1C242.547,102.076,242.247,102.376,241.948,102.176L241.948,102.176z M244.948,101.775
	c-0.3,0.701-0.8,1.101-1.601,1.301c0-0.9,0.801-1.5,0.601-2.5c-0.5-0.7-1.4-0.9-2.3-0.7c-0.301,0.2-0.2,0.601-0.301,0.899
	l-0.1,1.201c-0.7,0-0.8-0.701-1-1.201c0-0.799,0.4-1.5,1.1-1.899c0.601-0.3,1.5-0.3,2.101,0.101c0.5,0.1,1,0.299,1.2,0.799
	C245.148,100.176,245.047,101.076,244.948,101.775L244.948,101.775z"/>
</svg>
