<?xml version="1.0" encoding="UTF-8" standalone="no"?>
<svg width="8px" height="8px" viewBox="0 0 8 8" version="1.1" xmlns="http://www.w3.org/2000/svg" xmlns:xlink="http://www.w3.org/1999/xlink">
    <!-- Generator: Sketch 42 (36781) - http://www.bohemiancoding.com/sketch -->
    <title>Path</title>
    <desc>Created with Sketch.</desc>
    <defs></defs>
    <g id="Symbols" stroke="none" stroke-width="1" fill="none" fill-rule="evenodd">
        <g id="Desktop/PageFeedback" transform="translate(-7.000000, -145.000000)" fill="#FA3200">
            <g id="Path">
                <path d="M12.5379778,148.917877 L14.7015384,146.754239 C15.0994872,146.356276 15.0994872,145.711302 14.7015384,145.313339 C14.2898673,144.900509 13.6437722,144.900509 13.2458235,145.298472 L11.0822628,147.46211 C11.0365216,147.507853 10.9633356,147.507853 10.9187379,147.46211 L8.75403375,145.298472 C8.35722849,144.900509 7.71113349,144.900509 7.3131847,145.298472 C6.90037002,145.710158 6.90037002,146.356276 7.2983188,146.754239 L9.46302296,148.917877 C9.50762067,148.96362 9.50762067,149.036809 9.46302296,149.081408 L7.2983188,151.246189 C6.90151355,151.643009 6.90037002,152.287983 7.2983188,152.68709 C7.71113349,153.098776 8.35608496,153.099919 8.75403375,152.701956 L10.9187379,150.537175 C10.9633356,150.492576 11.0365216,150.492576 11.0822628,150.537175 L13.2458235,152.701956 C13.6437722,153.098776 14.2887237,153.099919 14.6866725,152.701956 C15.0994872,152.289127 15.0994872,151.644152 14.7015384,151.246189 L12.5379778,149.081408 C12.4922365,149.036809 12.4922365,148.96362 12.5379778,148.917877 Z"></path>
            </g>
        </g>
    </g>
</svg>