<svg width="20" height="20" viewBox="0 0 20 20" xmlns="http://www.w3.org/2000/svg"><title>deleteocircle</title><path d="M10 0C4.477 0 0 4.478 0 10s4.477 10 10 10 10-4.478 10-10S15.523 0 10 0zm0 18a8 8 0 1 1 0-16 8 8 0 0 1 0 16zm1.538-7.919a.115.115 0 0 1 0-.163l2.164-2.164a1.019 1.019 0 0 0 0-1.44l-.014-.016a1.02 1.02 0 0 0-1.442 0l-2.164 2.164a.115.115 0 0 1-.163 0L7.754 6.298a1.019 1.019 0 0 0-1.44 0l-.015.014a1.02 1.02 0 0 0 0 1.442l2.164 2.164a.117.117 0 0 1 0 .163l-2.165 2.165a1.02 1.02 0 0 0 0 1.441l.015.014c.398.398 1.043.399 1.441.001l2.165-2.165a.117.117 0 0 1 .163 0l2.164 2.165a1.02 1.02 0 0 0 1.44 0l.016-.015a1.019 1.019 0 0 0 0-1.44l-2.164-2.166z" fill="#FA3200" fill-rule="evenodd"/></svg>