<svg width="8" height="8" viewBox="0 0 8 8" xmlns="http://www.w3.org/2000/svg"><title>Path</title><path d="M5.538 3.918l2.164-2.164a1.019 1.019 0 0 0 0-1.44A1.023 1.023 0 0 0 6.246.297L4.082 2.462a.115.115 0 0 1-.163 0L1.754.298a1.019 1.019 0 0 0-1.44 0 1.023 1.023 0 0 0-.016 1.456l2.165 2.164a.117.117 0 0 1 0 .163L.298 6.246a1.02 1.02 0 0 0 0 1.441 1.024 1.024 0 0 0 1.456.015l2.165-2.165a.117.117 0 0 1 .163 0l2.164 2.165a1.02 1.02 0 0 0 1.44 0 1.023 1.023 0 0 0 .016-1.456L5.538 4.081a.115.115 0 0 1 0-.163z" fill="#fff" fill-rule="evenodd"/></svg>