<svg xmlns="http://www.w3.org/2000/svg" width="841.889" height="1190.551" viewBox="0 0 841.889 1190.551"><path fill="#FFF" d="M315.708 568.967v63.142h104.447c-4.21 27.098-31.571 79.453-104.447 79.453-62.878 0-114.181-52.092-114.181-116.286S252.83 478.99 315.708 478.99c35.78 0 59.722 15.26 73.402 28.414l49.987-48.146c-32.097-29.992-73.665-48.146-123.39-48.146-101.815 0-184.163 82.347-184.163 184.163s82.348 184.163 184.163 184.163c106.289 0 176.797-74.718 176.797-179.954 0-12.102-1.315-21.31-2.894-30.518H315.708zm394.636 0h-52.618v-52.618h-52.618v52.618H552.49v52.617h52.618v52.618h52.618v-52.618h52.618v-52.617z"/></svg>