<svg xmlns="http://www.w3.org/2000/svg" width="841.889" height="1190.551" viewBox="0 0 841.889 1190.551"><path fill="#000" d="M736.548 440.472c-21.311 9.472-44.199 15.838-68.193 18.68a119.071 119.071 0 0 0 52.197-65.668 237.754 237.754 0 0 1-75.401 28.809c-44.775-47.908-119.91-50.447-167.818-5.672-31.092 29.059-44.254 72.536-34.499 113.96A337.016 337.016 0 0 1 198.16 406.534a118.125 118.125 0 0 0-16.101 59.722 118.654 118.654 0 0 0 52.828 98.79 118.25 118.25 0 0 1-53.775-14.838v1.5c.005 56.522 39.838 105.213 95.238 116.417a118.911 118.911 0 0 1-53.67 2.026c15.55 48.377 60.139 81.515 110.945 82.452a238.226 238.226 0 0 1-147.437 50.776c-9.468.03-18.929-.497-28.334-1.578a336.037 336.037 0 0 0 182.005 53.328c218.365 0 337.809-180.901 337.809-337.809 0-5.13-.132-10.26-.368-15.338a241.291 241.291 0 0 0 59.248-61.458"/></svg>