<?xml version="1.0" encoding="utf-8"?>
<!-- Generator: Adobe Illustrator 15.0.0, SVG Export Plug-In . SVG Version: 6.00 Build 0)  -->
<!DOCTYPE svg PUBLIC "-//W3C//DTD SVG 1.1//EN" "http://www.w3.org/Graphics/SVG/1.1/DTD/svg11.dtd">
<svg version="1.1" id="Layer_1" xmlns="http://www.w3.org/2000/svg" xmlns:xlink="http://www.w3.org/1999/xlink" x="0px" y="0px"
	 width="229.801px" height="121.667px" viewBox="67.2 0 229.801 121.667" enable-background="new 67.2 0 229.801 121.667"
	 xml:space="preserve">
<path fill="#FFFFFF" d="M77.1,116.767h-5.7l-0.7,1.601c-0.2,0.5-0.3,1-0.3,1.3c0,0.5,0.2,0.801,0.5,1c0.2,0.1,0.7,0.2,1.6,0.301
	v0.399h-5.3v-0.399c0.601-0.101,1.101-0.301,1.4-0.701c0.399-0.399,0.8-1.199,1.399-2.399l5.801-12.9H76l5.801,13.2
	c0.6,1.301,1,2,1.399,2.4c0.3,0.199,0.7,0.4,1.101,0.4v0.399H76.5v-0.399h0.301c0.6,0,1.1-0.101,1.3-0.301c0.2-0.1,0.3-0.3,0.3-0.5
	c0-0.1,0-0.3-0.1-0.4c0-0.1-0.101-0.399-0.4-0.899L77.1,116.767L77.1,116.767z M76.7,115.868l-2.399-5.601l-2.5,5.601H76.7
	L76.7,115.868z"/>
<path fill="#FFFFFF" d="M94.2,110.167v8.7c0,0.8,0.101,1.399,0.2,1.601c0.2,0.199,0.5,0.299,1,0.399v0.399h-4.5v-1.5
	c-0.5,0.601-1.1,1.101-1.6,1.4c-0.5,0.301-1.101,0.4-1.801,0.4c-0.6,0-1.199-0.2-1.699-0.6c-0.5-0.4-0.801-0.801-1-1.4
	c-0.2-0.5-0.301-1.4-0.301-2.7v-4.399c0-0.801-0.1-1.4-0.199-1.601c-0.2-0.2-0.5-0.3-1-0.399v-0.4h4.5v7.6c0,0.801,0,1.301,0.1,1.5
	c0.1,0.2,0.2,0.4,0.4,0.5c0.199,0.1,0.399,0.2,0.6,0.2c0.3,0,0.5-0.101,0.8-0.2c0.3-0.199,0.7-0.6,1.101-1.199v-5.9
	c0-0.801-0.101-1.4-0.2-1.6c-0.101-0.201-0.5-0.301-1-0.4v-0.4H94.2L94.2,110.167z"/>
<path fill="#FFFFFF" d="M103.2,109.868l0.2,3.8H103c-0.5-1.1-1-1.9-1.5-2.3s-1-0.601-1.5-0.601c-0.3,0-0.6,0.101-0.8,0.301
	c-0.2,0.199-0.3,0.5-0.3,0.8c0,0.2,0.1,0.399,0.2,0.601c0.3,0.299,1,0.899,2.1,1.699c1.2,0.801,1.9,1.5,2.3,2
	c0.4,0.5,0.601,1.2,0.601,1.801c0,0.6-0.2,1.199-0.5,1.799c-0.3,0.601-0.7,1.101-1.3,1.4c-0.601,0.301-1.2,0.5-1.9,0.5
	c-0.5,0-1.2-0.199-2.1-0.5c-0.2-0.1-0.4-0.1-0.5-0.1c-0.301,0-0.5,0.199-0.7,0.6h-0.4l-0.2-4h0.4c0.4,1,0.8,1.801,1.5,2.4
	c0.6,0.5,1.2,0.8,1.8,0.8c0.4,0,0.7-0.101,0.9-0.3c0.2-0.2,0.399-0.5,0.399-0.9s-0.1-0.699-0.399-1c-0.2-0.3-0.8-0.699-1.601-1.3
	c-1.199-0.8-2-1.5-2.399-1.899c-0.5-0.701-0.8-1.4-0.8-2.201c0-0.899,0.3-1.6,0.899-2.299c0.601-0.701,1.5-1,2.601-1
	c0.6,0,1.199,0.1,1.699,0.399c0.2,0.101,0.4,0.2,0.5,0.2c0.101,0,0.301,0,0.301-0.1c0.1-0.101,0.199-0.201,0.399-0.5h0.5V109.868z"
	/>
<path fill="#FFFFFF" d="M109.1,106.167v4.1h2.6v1.201h-2.6v6.899c0,0.601,0,1.101,0.1,1.2c0.101,0.199,0.2,0.3,0.3,0.5
	c0.2,0.1,0.301,0.199,0.4,0.199c0.5,0,1-0.399,1.5-1.199l0.4,0.3c-0.601,1.5-1.7,2.3-3.101,2.3c-0.7,0-1.3-0.199-1.8-0.6
	s-0.8-0.801-0.9-1.301c-0.1-0.299-0.1-1-0.1-2.199v-6h-1.5v-0.6c1-0.701,1.8-1.4,2.5-2.201c0.7-0.799,1.3-1.6,1.8-2.6H109.1
	L109.1,106.167z"/>
<path fill="#FFFFFF" d="M117.1,110.167v2.5c0.7-1.1,1.399-1.9,1.899-2.3c0.601-0.399,1.101-0.601,1.601-0.601
	c0.399,0,0.8,0.101,1.1,0.4c0.3,0.301,0.4,0.7,0.4,1.2s-0.101,0.899-0.4,1.2c-0.3,0.3-0.6,0.4-0.899,0.4
	c-0.4,0-0.801-0.101-1.101-0.4c-0.3-0.301-0.5-0.4-0.5-0.5c-0.1,0-0.2-0.1-0.3-0.1c-0.2,0-0.4,0.1-0.7,0.299
	c-0.3,0.301-0.6,0.701-0.7,1.201c-0.3,0.799-0.399,1.6-0.399,2.5v2.6v0.699c0,0.5,0,0.701,0.1,0.9c0.101,0.2,0.2,0.4,0.4,0.5
	s0.5,0.2,1,0.2v0.399h-6v-0.399c0.5,0,0.8-0.2,1-0.399c0.2-0.201,0.3-0.801,0.3-1.801v-6.1c0-0.6,0-1-0.1-1.2
	c-0.101-0.2-0.2-0.399-0.301-0.5c-0.199-0.101-0.399-0.2-0.8-0.2v-0.4h4.4V110.167z"/>
<path fill="#FFFFFF" d="M128.2,119.667c-1.399,1.2-2.6,1.801-3.7,1.801c-0.6,0-1.199-0.201-1.6-0.601s-0.6-0.899-0.6-1.601
	c0-0.799,0.399-1.6,1.1-2.299c0.7-0.701,2.3-1.601,4.8-2.701v-1.1c0-0.8,0-1.4-0.1-1.6c-0.101-0.2-0.3-0.4-0.5-0.6
	c-0.3-0.201-0.5-0.301-0.9-0.301c-0.5,0-0.899,0.1-1.3,0.301c-0.2,0.1-0.3,0.299-0.3,0.5c0,0.199,0.1,0.399,0.3,0.6
	c0.3,0.3,0.5,0.699,0.5,1c0,0.4-0.1,0.699-0.4,1c-0.3,0.3-0.699,0.4-1.1,0.4c-0.5,0-0.9-0.201-1.3-0.5
	c-0.3-0.301-0.5-0.701-0.5-1.101c0-0.601,0.2-1.101,0.7-1.601s1.1-0.899,1.899-1.199c0.8-0.301,1.601-0.4,2.5-0.4
	c1.101,0,1.9,0.2,2.5,0.7c0.601,0.399,1,0.899,1.2,1.5c0.1,0.3,0.2,1.101,0.2,2.3v4.301c0,0.5,0,0.799,0.1,1
	c0,0.1,0.101,0.199,0.2,0.299c0.1,0.101,0.2,0.101,0.3,0.101c0.2,0,0.4-0.101,0.601-0.399l0.399,0.299c-0.399,0.601-0.8,1-1.2,1.301
	c-0.399,0.3-0.899,0.4-1.399,0.4c-0.601,0-1.101-0.101-1.5-0.4C128.5,120.767,128.301,120.267,128.2,119.667L128.2,119.667z
	 M128.2,118.767v-3.699c-1,0.6-1.7,1.199-2.1,1.8c-0.3,0.399-0.5,0.899-0.5,1.3s0.1,0.7,0.399,1c0.2,0.2,0.5,0.301,0.801,0.301
	C127.301,119.468,127.7,119.267,128.2,118.767L128.2,118.767z"/>
<path fill="#FFFFFF" d="M137.9,105.167v13.801c0,0.799,0.1,1.299,0.3,1.5c0.2,0.199,0.5,0.299,1.101,0.399v0.399h-6v-0.399
	c0.5,0,0.899-0.2,1.1-0.399c0.2-0.201,0.2-0.701,0.2-1.5v-11.5c0-0.801-0.101-1.301-0.3-1.5c-0.2-0.201-0.5-0.301-1.101-0.4v-0.4
	H137.9L137.9,105.167z"/>
<path fill="#FFFFFF" d="M143,104.768c0.5,0,1,0.199,1.301,0.499c0.399,0.4,0.5,0.801,0.5,1.301s-0.2,0.9-0.5,1.3
	c-0.4,0.399-0.801,0.5-1.301,0.5s-0.899-0.2-1.3-0.5c-0.399-0.399-0.5-0.8-0.5-1.3s0.2-0.9,0.5-1.301
	C142.1,104.967,142.5,104.768,143,104.768L143,104.768z M144.7,110.167v8.801c0,0.799,0.101,1.299,0.3,1.5
	c0.2,0.199,0.5,0.299,1.101,0.399v0.399h-6v-0.399c0.5,0,0.899-0.2,1.1-0.399c0.2-0.201,0.2-0.701,0.2-1.5v-6.5
	c0-0.801-0.1-1.301-0.3-1.5c-0.2-0.201-0.5-0.301-1.101-0.4v-0.4H144.7L144.7,110.167z"/>
<path fill="#FFFFFF" d="M152.5,119.667c-1.399,1.2-2.6,1.801-3.699,1.801c-0.601,0-1.2-0.201-1.601-0.601
	c-0.399-0.399-0.6-0.899-0.6-1.601c0-0.799,0.399-1.6,1.1-2.299c0.7-0.701,2.3-1.601,4.8-2.701v-1.1c0-0.8,0-1.4-0.1-1.6
	c-0.1-0.2-0.3-0.4-0.5-0.6c-0.3-0.201-0.5-0.301-0.9-0.301c-0.5,0-0.899,0.1-1.3,0.301c-0.2,0.1-0.3,0.299-0.3,0.5
	c0,0.199,0.1,0.399,0.3,0.6c0.3,0.3,0.5,0.699,0.5,1c0,0.4-0.1,0.699-0.399,1c-0.301,0.3-0.7,0.4-1.101,0.4
	c-0.5,0-0.899-0.201-1.3-0.5c-0.3-0.301-0.5-0.701-0.5-1.101c0-0.601,0.2-1.101,0.7-1.601s1.1-0.899,1.899-1.199
	c0.801-0.301,1.601-0.4,2.5-0.4c1.101,0,1.9,0.2,2.5,0.7c0.601,0.399,1,0.899,1.2,1.5c0.101,0.3,0.2,1.101,0.2,2.3v4.301
	c0,0.5,0,0.799,0.1,1c0,0.1,0.101,0.199,0.2,0.299c0.101,0.101,0.2,0.101,0.3,0.101c0.2,0,0.4-0.101,0.601-0.399l0.399,0.299
	c-0.399,0.601-0.8,1-1.199,1.301c-0.4,0.3-0.9,0.4-1.4,0.4c-0.6,0-1.1-0.101-1.5-0.4C152.801,120.767,152.6,120.267,152.5,119.667
	L152.5,119.667z M152.5,118.767v-3.699c-1,0.6-1.699,1.199-2.1,1.8c-0.3,0.399-0.5,0.899-0.5,1.3s0.1,0.7,0.4,1
	c0.199,0.2,0.5,0.301,0.8,0.301C151.5,119.468,152,119.267,152.5,118.767L152.5,118.767z"/>
<path fill="#FFFFFF" d="M162.1,110.167v1.4c0.6-0.6,1.1-1.1,1.6-1.301c0.5-0.299,1.101-0.399,1.7-0.399c0.7,0,1.3,0.2,1.8,0.601
	c0.5,0.399,0.8,0.899,1,1.5c0.101,0.5,0.2,1.299,0.2,2.6v4.3c0,0.899,0.1,1.399,0.2,1.601c0.2,0.199,0.5,0.299,1,0.399v0.399H164
	v-0.399c0.4-0.101,0.7-0.2,0.9-0.5c0.1-0.2,0.2-0.7,0.2-1.5v-4.899c0-0.9,0-1.5-0.101-1.701c-0.1-0.199-0.199-0.399-0.399-0.5
	c-0.2-0.1-0.4-0.199-0.601-0.199c-0.699,0-1.3,0.5-1.899,1.5v6c0,0.8,0.1,1.4,0.2,1.6c0.199,0.2,0.399,0.4,0.899,0.4v0.4h-5.6v-0.4
	c0.5,0,0.8-0.2,1-0.5c0.1-0.2,0.2-0.7,0.2-1.5v-6.301c0-0.799-0.101-1.399-0.2-1.6c-0.101-0.199-0.5-0.3-1-0.4v-0.399h4.5V110.167z"
	/>
<path fill="#FFFFFF" d="M191.5,104.868v5.7H191.1c-0.5-1.6-1.3-2.7-2.4-3.5c-1.1-0.801-2.2-1.2-3.5-1.2c-1.2,0-2.2,0.3-3,1
	s-1.399,1.601-1.7,2.8c-0.3,1.2-0.5,2.5-0.5,3.7c0,1.5,0.2,2.899,0.5,4.101c0.4,1.199,1,2,1.801,2.6c0.8,0.5,1.8,0.8,2.899,0.8
	c0.4,0,0.8,0,1.2-0.101c0.4-0.1,0.8-0.199,1.3-0.399v-3.399c0-0.601,0-1-0.1-1.201c-0.101-0.199-0.3-0.399-0.5-0.5
	c-0.3-0.199-0.601-0.199-1-0.199h-0.4v-0.4h7.8v0.301c-0.6,0-1,0.1-1.199,0.199c-0.2,0.1-0.4,0.301-0.5,0.6
	c-0.101,0.201-0.101,0.5-0.101,1.101v3.399c-1,0.5-2.1,0.801-3.2,1c-1.1,0.201-2.3,0.4-3.5,0.4c-1.5,0-2.8-0.199-3.8-0.6
	s-1.899-1-2.7-1.6c-0.8-0.701-1.399-1.4-1.8-2.301c-0.6-1.1-0.8-2.3-0.8-3.699c0-2.4,0.9-4.5,2.6-6.201
	c1.7-1.699,3.9-2.499,6.4-2.499c0.8,0,1.5,0.1,2.2,0.199c0.3,0.101,0.899,0.2,1.7,0.501c0.8,0.299,1.199,0.399,1.399,0.399
	s0.4-0.101,0.601-0.2c0.199-0.199,0.399-0.5,0.5-0.899h0.199V104.868z"/>
<path fill="#FFFFFF" d="M199.2,109.868c1,0,1.9,0.2,2.7,0.7s1.5,1.199,1.9,2.1c0.399,0.9,0.699,1.9,0.699,3c0,1.6-0.399,2.9-1.199,4
	c-1,1.301-2.301,1.9-4,1.9c-1.7,0-3-0.6-3.9-1.801c-0.9-1.199-1.4-2.5-1.4-4.1s0.5-3,1.4-4.199
	C196.301,110.468,197.6,109.868,199.2,109.868L199.2,109.868z M199.301,110.667c-0.4,0-0.801,0.2-1,0.5
	c-0.301,0.301-0.5,0.9-0.601,1.801c-0.1,0.899-0.1,2.1-0.1,3.699c0,0.801,0.1,1.6,0.2,2.4c0.1,0.6,0.3,1,0.6,1.3s0.6,0.399,1,0.399
	s0.7-0.1,0.9-0.299c0.3-0.301,0.5-0.601,0.6-1.101c0.2-0.8,0.2-2.3,0.2-4.601c0-1.299-0.101-2.299-0.2-2.799
	c-0.2-0.5-0.4-0.9-0.7-1.101C199.9,110.767,199.6,110.667,199.301,110.667L199.301,110.667z"/>
<path fill="#FFFFFF" d="M209.7,121.667l-3.8-8.6c-0.5-1-0.8-1.7-1.1-2c-0.2-0.2-0.5-0.301-0.801-0.4v-0.4h5.9v0.4
	c-0.4,0-0.6,0.1-0.8,0.2c-0.2,0.2-0.3,0.399-0.3,0.601c0,0.299,0.2,0.799,0.5,1.699l1.8,4.2l1.5-3.601c0.399-1,0.6-1.799,0.6-2.199
	c0-0.2-0.1-0.4-0.3-0.6c-0.2-0.201-0.5-0.201-0.899-0.301v-0.4h3.6v0.4c-0.3,0-0.6,0.2-0.9,0.4c-0.199,0.199-0.6,0.8-1,1.9
	l-3.699,8.699H209.7L209.7,121.667z"/>
<path fill="#FFFFFF" d="M224.6,115.368H218.5c0.101,1.5,0.5,2.601,1.2,3.5c0.5,0.7,1.2,1,2,1c0.5,0,0.9-0.101,1.3-0.399
	c0.4-0.301,0.801-0.801,1.2-1.4l0.4,0.3c-0.601,1.2-1.3,2.101-2,2.601s-1.601,0.799-2.5,0.799c-1.7,0-2.9-0.6-3.7-1.899
	c-0.7-1-1-2.3-1-3.8c0-1.9,0.5-3.301,1.5-4.4s2.2-1.699,3.5-1.699c1.1,0,2.1,0.5,2.9,1.399
	C224.1,112.167,224.5,113.568,224.6,115.368L224.6,115.368z M221.7,114.568c0-1.301-0.1-2.2-0.2-2.6c-0.1-0.5-0.3-0.801-0.6-1.101
	c-0.2-0.101-0.4-0.2-0.7-0.2c-0.399,0-0.8,0.2-1,0.6c-0.5,0.701-0.7,1.701-0.7,2.9v0.4H221.7L221.7,114.568z"/>
<path fill="#FFFFFF" d="M229.9,110.167v2.5c0.7-1.1,1.4-1.9,1.9-2.3c0.6-0.399,1.1-0.601,1.6-0.601c0.4,0,0.8,0.101,1.1,0.4
	c0.301,0.301,0.4,0.7,0.4,1.2s-0.1,0.899-0.4,1.2c-0.3,0.3-0.6,0.4-0.899,0.4c-0.4,0-0.8-0.101-1.101-0.4
	c-0.3-0.301-0.5-0.4-0.5-0.5c-0.1,0-0.199-0.1-0.3-0.1c-0.2,0-0.399,0.1-0.7,0.299c-0.3,0.301-0.6,0.701-0.699,1.201
	c-0.301,0.799-0.4,1.6-0.4,2.5v2.6v0.699c0,0.5,0,0.701,0.1,0.9c0.101,0.2,0.2,0.4,0.4,0.5s0.5,0.2,1,0.2v0.399h-6v-0.399
	c0.5,0,0.8-0.2,1-0.399c0.2-0.201,0.3-0.801,0.3-1.801v-6.1c0-0.6,0-1-0.1-1.2c-0.101-0.2-0.2-0.399-0.3-0.5
	c-0.2-0.101-0.4-0.2-0.801-0.2v-0.4h4.4V110.167z"/>
<path fill="#FFFFFF" d="M240.1,110.167v1.4c0.601-0.6,1.101-1.1,1.601-1.301c0.5-0.299,1.1-0.399,1.699-0.399
	c0.7,0,1.301,0.2,1.801,0.601c0.5,0.399,0.8,0.899,1,1.5c0.1,0.5,0.199,1.299,0.199,2.6v4.3c0,0.899,0.101,1.399,0.2,1.601
	c0.2,0.199,0.5,0.299,1,0.399v0.399h-5.6v-0.399c0.399-0.101,0.7-0.2,0.899-0.5c0.101-0.2,0.2-0.7,0.2-1.5v-4.899
	c0-0.9,0-1.5-0.1-1.701c-0.101-0.199-0.2-0.399-0.4-0.5c-0.2-0.1-0.399-0.199-0.6-0.199c-0.7,0-1.3,0.5-1.9,1.5v6
	c0,0.8,0.101,1.4,0.2,1.6c0.2,0.2,0.4,0.4,0.9,0.4v0.4H235.6v-0.4c0.5,0,0.8-0.2,1-0.5c0.101-0.2,0.2-0.7,0.2-1.5v-6.301
	c0-0.799-0.1-1.399-0.2-1.6c-0.2-0.199-0.5-0.3-1-0.4v-0.399h4.5V110.167z"/>
<path fill="#FFFFFF" d="M253.001,110.167v1.5c0.6-0.699,1.2-1.1,1.7-1.4c0.5-0.299,1.1-0.399,1.699-0.399c0.7,0,1.301,0.2,1.801,0.5
	s0.899,0.8,1.1,1.5c0.6-0.7,1.2-1.2,1.8-1.5c0.601-0.3,1.2-0.5,1.8-0.5c0.8,0,1.4,0.2,1.8,0.5c0.5,0.3,0.801,0.8,1,1.3
	c0.2,0.5,0.301,1.4,0.301,2.6v4.601c0,0.899,0.1,1.399,0.199,1.601c0.2,0.199,0.5,0.299,1,0.399v0.399h-5.699v-0.399
	c0.5,0,0.8-0.2,1-0.5c0.1-0.2,0.199-0.7,0.199-1.5v-4.8c0-1,0-1.6-0.1-1.9c-0.1-0.3-0.2-0.5-0.4-0.6c-0.199-0.1-0.399-0.2-0.6-0.2
	c-0.3,0-0.7,0.101-1,0.399c-0.4,0.201-0.7,0.601-1.1,1.101v6c0,0.8,0.1,1.3,0.199,1.5c0.2,0.3,0.5,0.5,1,0.5v0.399h-5.8v-0.399
	c0.3,0,0.601-0.101,0.7-0.2c0.2-0.1,0.3-0.3,0.4-0.5c0.1-0.199,0.1-0.6,0.1-1.3v-4.8c0-1,0-1.6-0.1-1.9c-0.101-0.3-0.2-0.5-0.4-0.6
	s-0.399-0.2-0.6-0.2c-0.3,0-0.601,0.101-0.9,0.2c-0.399,0.199-0.8,0.699-1.2,1.3v6c0,0.8,0.101,1.3,0.2,1.601
	c0.2,0.199,0.5,0.399,1,0.399v0.399h-5.7v-0.399c0.5,0,0.8-0.2,1-0.5c0.101-0.2,0.2-0.7,0.2-1.5v-6.3c0-0.801-0.1-1.4-0.2-1.6
	c-0.1-0.201-0.5-0.301-1-0.4v-0.4H253.001L253.001,110.167z"/>
<path fill="#FFFFFF" d="M277.201,115.368H271.1c0.101,1.5,0.5,2.601,1.2,3.5c0.5,0.7,1.2,1,2,1c0.5,0,0.9-0.101,1.3-0.399
	c0.4-0.301,0.8-0.801,1.2-1.4l0.4,0.3c-0.601,1.2-1.301,2.101-2,2.601c-0.7,0.5-1.601,0.799-2.5,0.799c-1.601,0-2.9-0.6-3.7-1.899
	c-0.7-1-1-2.3-1-3.8c0-1.9,0.5-3.301,1.5-4.4s2.2-1.699,3.5-1.699c1.1,0,2.1,0.5,2.899,1.399
	C276.6,112.167,277.1,113.568,277.201,115.368L277.201,115.368z M274.201,114.568c0-1.301-0.101-2.2-0.2-2.6
	c-0.101-0.5-0.3-0.801-0.601-1.101c-0.2-0.101-0.399-0.2-0.7-0.2c-0.399,0-0.8,0.2-1,0.6c-0.5,0.701-0.699,1.701-0.699,2.9v0.4
	H274.201L274.201,114.568z"/>
<path fill="#FFFFFF" d="M282.1,110.167v1.4c0.601-0.6,1.101-1.1,1.601-1.301c0.5-0.299,1.1-0.399,1.699-0.399
	c0.7,0,1.301,0.2,1.801,0.601c0.5,0.399,0.8,0.899,1,1.5c0.1,0.5,0.199,1.299,0.199,2.6v4.3c0,0.899,0.101,1.399,0.2,1.601
	c0.2,0.199,0.5,0.299,1,0.399v0.399h-5.6v-0.399c0.399-0.101,0.7-0.2,0.899-0.5c0.101-0.2,0.2-0.7,0.2-1.5v-4.899
	c0-0.9,0-1.5-0.1-1.701c-0.101-0.199-0.2-0.399-0.4-0.5c-0.2-0.1-0.399-0.199-0.6-0.199c-0.7,0-1.3,0.5-1.9,1.5v6
	c0,0.8,0.101,1.4,0.2,1.6c0.2,0.2,0.4,0.4,0.9,0.4v0.4H277.6v-0.4c0.5,0,0.8-0.2,1-0.5c0.101-0.2,0.2-0.7,0.2-1.5v-6.301
	c0-0.799-0.1-1.399-0.2-1.6c-0.2-0.199-0.5-0.3-1-0.4v-0.399h4.5V110.167z"/>
<path fill="#FFFFFF" d="M294.301,106.167v4.1h2.6v1.201h-2.6v6.899c0,0.601,0,1.101,0.1,1.2c0.101,0.199,0.2,0.3,0.301,0.5
	c0.1,0.1,0.3,0.199,0.399,0.199c0.5,0,1-0.399,1.5-1.199l0.4,0.3c-0.601,1.5-1.7,2.3-3.101,2.3c-0.7,0-1.3-0.199-1.8-0.6
	s-0.8-0.801-0.899-1.301c-0.101-0.299-0.101-1-0.101-2.199v-6h-1.5v-0.6c1-0.701,1.8-1.4,2.5-2.201c0.7-0.799,1.3-1.6,1.8-2.6
	H294.301L294.301,106.167z"/>
<path fill="#FFFFFF" d="M165.408,69.531c-0.101,0.101-0.2,0.2-0.301,0.3"/>
<path fill="#FFFFFF" d="M168.208,47.731c0.3,0,0.6-0.301,0.6-0.6c0-0.301-0.3-0.601-0.6-0.601s-0.601,0.3-0.601,0.601
	C167.607,47.531,167.908,47.731,168.208,47.731L168.208,47.731z"/>
<path fill="#FFFFFF" d="M195.208,23.131L195.208,23.131h-21l0,0l0,0v17c0,1.6,0.7,3.1,1.6,3.5l8.101,4.799
	c0.199,0.201,0.399,0.301,0.699,0.301c0.301,0,0.5-0.1,0.7-0.301l8.2-4.899c1-0.399,1.6-1.9,1.6-3.5L195.208,23.131L195.208,23.131
	L195.208,23.131z M181.208,28.031h-1.8v-4.3h1.8V28.031L181.208,28.031z M179.908,29.531l0.3-0.3l-0.2-0.3h0.3l0.2-0.4l0.2,0.4h0.3
	l-0.2,0.3l0.3,0.3l-0.3,0.1v0.4l-0.3-0.2l-0.3,0.2v-0.4L179.908,29.531L179.908,29.531z M174.807,34.931v-4.1h2.2v4.1H174.807
	L174.807,34.931z M175.208,29.031h0.3l0.2-0.4l0.2,0.4h0.3l-0.2,0.3l0.3,0.3h-0.3v0.4l-0.3-0.2l-0.3,0.2v-0.4l-0.301-0.1l0.301-0.3
	L175.208,29.031L175.208,29.031z M177.607,33.231h0.301l0.199-0.4l0.2,0.4h0.3l-0.199,0.3l0.3,0.3l-0.3,0.1v0.4l-0.301-0.2l-0.3,0.2
	v-0.4l-0.3-0.1l0.3-0.3L177.607,33.231L177.607,33.231z M179.107,29.831c0-0.1-0.199-0.1-0.199-0.1c-0.2,0-0.301,0.3-0.4,0.3
	s-0.2,0-0.2-0.1c0-0.1,0.3-0.2,0.3-0.3c-1.399,0-1.399,0.6-1.6,0.6c-0.4,0,0.3-0.7,0.5-0.8c-0.3,0-0.4-0.4-0.7-0.6
	c0.101-0.2,0.2-0.1,0.4,0c0-0.1,0.1-0.3,0.399-0.3c0.601,0,0.4,0.6,0.5,0.6c0.101,0,0-0.6,0.4-0.6c0.6,0,1.4,1.6,0.7,1.6
	C178.908,30.131,179.107,29.931,179.107,29.831L179.107,29.831z M177.508,25.331l0.3-0.3l-0.2-0.3h0.301l0.199-0.4l0.2,0.4h0.3
	l-0.199,0.3l0.3,0.3l-0.3,0.1v0.4l-0.301-0.2l-0.3,0.2v-0.4L177.508,25.331L177.508,25.331z M177.008,23.731v4.3h-2.2v-4.3H177.008
	L177.008,23.731z M181.208,46.131l-5-3c-0.8-0.601-1.3-1.601-1.4-2.8v-4.8h6.4V46.131L181.208,46.131z M179.408,34.931v-4.1h1.8v4.1
	H179.408L179.408,34.931z M187.607,46.43l-2.3,1.4l0,0c-0.2,0.1-0.399,0.2-0.6,0.2s-0.5-0.101-0.601-0.2l-2.3-1.4V35.531h5.9V46.43
	H187.607z M187.607,34.931h-5.899v-11.2h5.899V34.931L187.607,34.931z M194.607,40.331c-0.1,1.2-0.5,2.2-1.399,2.8l-5,3V35.531
	h6.399V40.331L194.607,40.331z M194.607,34.931h-6.399v-11.2h6.399V34.931L194.607,34.931z"/>
<path fill="#FFFFFF" d="M180.807,39.431c0-0.1-0.8,0.3-0.6,0.2c0-0.2,0.399-0.7,0.6-0.9c0-0.3-0.399,0-0.7,0.2
	c1.2-1.7,0.4-1-0.199-0.9c1.1-1.1,0.8-1.1,0-0.8c0.6-0.5,0.8-1.1,0.699-1.2c-0.6,0.8-1.1,0.7-1.1,1.4c0,0.5-0.2,1.2-0.4,1.5
	c-0.3,0.3-0.1-1.3-0.899-1.3c-0.3,0-0.9,0-1.101,0.3c0.2,0,0.4,0.4,0.4,0.6c0,0.2,0.2,0.6-0.1,0.6c-0.301,0-0.601-0.6-0.601-0.9
	c0-0.3,0-0.2,0-0.6c0-0.7-1.1-1.6-1.6-1.6c0,0.5,0.6,0.6,0.6,1.2c-0.3,0-0.6-0.5-0.6-0.2c0,0.3,0.399,0.4,0.399,0.6
	c0,0.3-0.399-0.1-0.399,0.2c0,0.2,0.2,0.2,0.3,0.4c-0.2,0-0.3,0-0.4,0.1c0,0.1,0.101,0.2,0.2,0.3c-0.1,0.1-0.1,0.2-0.1,0.6
	c0,1.3,0.8,2,1.5,2c0.399,0,0.399-0.3,0.399-0.5c0,0.2,0.2-0.1,0.2,0.3s-0.399,0.2-0.399,0.6c0,0.5,0.699,0,0.699,0.5
	c0,0.6-0.1,0.6-0.1,0.9c0,0.2,0.7-0.2,0.7-0.3c0.2,0.1,0.2,0.6,0.5,0.5c0.2,0,0.2-0.5,0.399-0.6c-0.1,0,0.601,0.5,0.601,0.2
	c0-0.6-0.3-0.4-0.3-0.8s0.899-0.3,0.699-0.5c-0.1-0.2-0.199-0.1-0.3-0.4c0,0.1-0.7-1,0.101-0.5
	C180.807,41.431,180.908,39.531,180.807,39.431L180.807,39.431z"/>
<path fill="#FFFFFF" d="M203.208,43.831c0.399,0,0.7-0.3,0.7-0.6c0-0.3-0.301-0.6-0.7-0.6c-0.4,0-0.7,0.3-0.7,0.6
	C202.508,43.631,202.807,43.831,203.208,43.831L203.208,43.831z"/>
<path fill="#FFFFFF" d="M200.408,45.531c0.399,0,0.699-0.3,0.699-0.601c0-0.299-0.3-0.6-0.699-0.6c-0.4,0-0.7,0.301-0.7,0.6
	C199.708,45.231,200.107,45.531,200.408,45.531L200.408,45.531z"/>
<path fill="#FFFFFF" d="M167.307,49.331c0.4,0,0.7-0.3,0.7-0.6c0-0.301-0.3-0.6-0.7-0.6c-0.399,0-0.7,0.299-0.7,0.6
	C166.607,49.031,166.908,49.331,167.307,49.331L167.307,49.331z"/>
<path fill="#FFFFFF" d="M169.408,49.531c0.399,0,0.699-0.3,0.699-0.601c0-0.299-0.3-0.6-0.699-0.6c-0.4,0-0.7,0.301-0.7,0.6
	C168.708,49.231,169.008,49.531,169.408,49.531L169.408,49.531z"/>
<path fill="#FFFFFF" d="M229.107,20.531c1,1.2,1.2,3.2,0.5,4.6c-0.399,0-0.3-0.6-0.399-0.8c-0.7-1.4-1.3-3.1-0.7-4.6
	C229.107,19.731,228.908,20.331,229.107,20.531L229.107,20.531z"/>
<path fill="#FFFFFF" d="M141.508,22.231c-0.2,0.9-0.2,2.1,0,2.9c-0.2,0.2-0.1-0.2-0.3-0.1c-1.4-1-0.8-3.1-1.101-4.5
	c0.101-0.1,0.301-0.1,0.4-0.1C141.107,20.831,141.307,21.531,141.508,22.231L141.508,22.231z"/>
<path fill="#FFFFFF" d="M232.307,22.331c0.2,0.4-0.2,0.8-0.5,1c-0.3,0.1-0.7-0.1-0.899-0.4c-0.101-0.4,0.1-0.8,0.399-1
	C231.708,21.931,232.107,22.031,232.307,22.331L232.307,22.331z"/>
<path fill="#FFFFFF" d="M139.307,23.931c-0.1,0.3-0.2,0.7-0.5,0.8c-0.2,0-0.5,0-0.7-0.2c-0.199-0.2-0.3-0.5-0.1-0.8
	c0.1-0.3,0.4-0.3,0.7-0.3C138.908,23.631,139.208,23.631,139.307,23.931L139.307,23.931z"/>
<path fill="#FFFFFF" d="M233.708,24.631c0.1,0.2,0.1,0.4,0,0.6c-0.3,0.3-0.601,0.5-1,0.3c-0.3-0.1-0.3-0.4-0.4-0.6
	c0.101-0.3,0.4-0.6,0.601-0.7C233.307,24.231,233.508,24.431,233.708,24.631L233.708,24.631z"/>
<path fill="#FFFFFF" d="M231.607,24.631c0.301,0.1,0.101,0.5,0,0.7c-0.199,0.2-0.399,0.5-0.8,0.4c-0.2-0.2-0.399-0.2-0.5-0.4
	c0-0.4,0.101-0.7,0.5-0.8C231.208,24.331,231.408,24.531,231.607,24.631L231.607,24.631z"/>
<path fill="#FFFFFF" d="M229.008,25.231c0,0.4,0,0.9-0.4,1c-0.399,0.1-0.699-0.2-0.8-0.5c0-0.4,0.2-0.7,0.5-0.9
	C228.508,24.731,228.807,24.931,229.008,25.231L229.008,25.231z"/>
<path fill="#FFFFFF" d="M143.208,25.331c0.1,0.4-0.3,0.6-0.5,0.8c-0.3,0.1-0.601-0.1-0.7-0.4c-0.3-0.3,0.1-0.5,0.1-0.7
	C142.607,24.731,143.107,24.931,143.208,25.331L143.208,25.331z"/>
<path fill="#FFFFFF" d="M141.107,25.531c0,0.3-0.1,0.6-0.399,0.7s-0.601-0.1-0.7-0.3c-0.2-0.4,0-0.7,0.3-0.8
	C140.708,24.831,140.908,25.231,141.107,25.531L141.107,25.531z"/>
<path fill="#FFFFFF" d="M220.107,25.631c0.4,0.8,0.7,1.7,0.7,2.7c-0.1,0.7,0.101,1.6-0.399,2.1c-0.5-0.2-0.5-0.8-0.9-1.1
	c-0.7-1.3-0.1-2.8,0.1-4.1C220.008,25.031,220.008,25.431,220.107,25.631L220.107,25.631z"/>
<path fill="#FFFFFF" d="M139.307,26.031c0.101,0.4-0.2,0.7-0.5,0.9c-0.399,0.1-0.7-0.2-0.899-0.5c0-0.4,0.199-0.7,0.5-0.9
	C138.807,25.531,139.208,25.731,139.307,26.031L139.307,26.031z"/>
<path fill="#FFFFFF" d="M225.908,27.131c0.5,1.1,0.5,2.4,0.199,3.5l-0.199,0.2c-0.5-1-1.2-1.9-1.5-3c0-0.8,0.1-1.5,0.399-2.1
	c0.3-0.2,0.4,0,0.5,0.3C225.307,26.431,225.508,26.931,225.908,27.131L225.908,27.131z"/>
<path fill="#FFFFFF" d="M230.508,26.431c0,0.4-0.2,0.8-0.6,0.9c-0.4,0.1-0.7,0-0.801-0.4c-0.1-0.4,0.101-0.7,0.4-0.9
	C229.908,25.831,230.307,26.231,230.508,26.431L230.508,26.431z"/>
<path fill="#FFFFFF" d="M141.107,27.631c0,0.3-0.3,0.6-0.5,0.7c-0.3,0.2-0.5-0.1-0.8-0.3c-0.1-0.3-0.2-0.6,0-0.8
	c0.101-0.2,0.4-0.2,0.601-0.3C140.708,27.131,141.008,27.231,141.107,27.631L141.107,27.631z"/>
<path fill="#FFFFFF" d="M142.708,27.431c0.1,0.4-0.3,0.6-0.4,0.7c-0.399,0.1-0.7-0.2-0.8-0.4c-0.1-0.4,0.1-0.6,0.4-0.8
	C142.307,26.831,142.508,27.131,142.708,27.431L142.708,27.431z"/>
<path fill="#FFFFFF" d="M231.508,27.331c0,0.5-0.8,1-0.8,1.4c-0.4,1-1.3,1.7-2.3,2.1c-0.2,0.2-0.5,0.4-0.801,0.5
	c-0.1-0.7,0.601-1.4,1-2.1C229.307,28.231,230.408,27.631,231.508,27.331L231.508,27.331z"/>
<path fill="#FFFFFF" d="M140.408,28.831c0.5,0.6,0.8,1.2,1.5,1.7c0,0.1-0.101,0.4-0.301,0.4c-1.8-0.1-3-2-3.899-3.2
	c0.1-0.4,0.6-0.1,0.8-0.1C139.208,28.131,139.908,28.231,140.408,28.831L140.408,28.831z"/>
<path fill="#FFFFFF" d="M232.008,29.431c-0.1,1.6-0.8,3.2-2.3,4c-0.4,0.1-0.8,0.6-1.2,0.3c0.8-1.6,1.9-2.9,3.2-4.3H232.008
	L232.008,29.431z"/>
<path fill="#FFFFFF" d="M225.008,30.431c0.1,0.6-0.2,0.9-0.6,1.1c-0.4,0-0.7-0.3-0.801-0.6c0-0.4,0.2-0.7,0.5-0.8
	c0.101-0.1,0.301-0.1,0.4-0.1C224.708,30.131,224.807,30.231,225.008,30.431L225.008,30.431z"/>
<path fill="#FFFFFF" d="M138.307,30.831c0.7,0.5,1.3,1.1,2,1.7c-0.5,0.3-1.1,0-1.6,0c-1.2-0.4-2.101-1.5-3.4-1.9
	c0-0.4,0.5-0.3,0.8-0.4C136.908,30.231,137.607,30.631,138.307,30.831L138.307,30.831z"/>
<path fill="#FFFFFF" d="M177.607,19.831c-2.1-0.8-3.399,1.3-5.5,1.1c-0.3,0.1-0.199,0.4-0.3,0.6c-0.1,0.1-0.3,0-0.399,0
	c-0.101-0.9-0.4-1.7-0.5-2.5c-0.2-0.4-0.101-0.9-0.301-1.3c-1.199-3.2,2.9-0.8,3.7-2.7c0.7-1.6-1.399-1.8-2-3v-0.4
	c-0.6-0.6-1.2-0.8-1.6-1.5c0.3-0.9,0.399-1.9,0.1-2.8c0-0.2-0.2-0.5-0.5-0.4c-0.7,1-1.2,1.7-1.899,2.7c-0.7-0.5-1.4-1.2-2.2-1.6
	c-0.601-0.1-1.101-0.6-1.7-0.4c-0.1,0.2,0,0.4,0.1,0.6c0,1.4,0.801,2.6,1.801,3.6l0.1,0.6c-0.7,1.5-0.5,3.2-0.7,4.9
	c-1.6,4.2-4.3,8.3-7.899,11.2c-2.101,2.4-4.601,4.6-4.9,7.9c-0.1,0.5,0.1,1.1-0.3,1.5c-1.2-0.4-2.4-1-3.4-1.8
	c-1.7-1.2-4.1-1-5.2-3.2c-0.399-0.8,0.101-1.7,0.5-2.3c1.2-1.2,1.101-3.3,0.4-4.7c-0.1,0-0.2,0.1-0.3,0.2
	c-0.101,2.2-1.8,3.7-1.2,6.1c0.1,0.7,0.5,1.1,0.7,1.8c-0.3-0.1-0.601-0.1-0.8-0.2c-0.801-0.1-1.601-0.4-2.5-0.3
	c-1.7,0.8-4-0.2-5.301,1.4c-0.199,0-0.5,0.1-0.399,0.4c0.8,0,1.6,0.2,2.399,0.2c1.301,0.2,2.101-0.8,3-1.3h0.2
	c0.4-0.4,1-0.1,1.5-0.2c2.3,0.3,4.101,1.4,6,2.5v0.1c-0.7,0.3-1.6,0.6-2.3,1c-0.8,0.6-1.8,1.4-2,2.5c-0.6,0.9,0.2,1.7,0.5,2.5
	c0,0.4,0.1,0.799,0.4,1c1.199-1.3,0.1-2.8,0.3-4.201c0.3-1.1,1.3-1.6,2.399-1.9c2.101-0.9,3.601,0.8,5.301,1.8
	c0,1.7,0.199,3.3-0.2,5c-0.5,0.2-1.2,0.301-1.7,0.301c-2.9,0.199-5.2,1.799-7.8,2.699c-1.2,0.4-2.601,0.4-3.7,0.801
	c0.9,0.299,1.9-0.101,2.8-0.101c3.601-0.5,6.3-3.3,10.2-2.8l0.1,0.1c-0.399,0.9-1,1.7-1.699,2.4c-0.101-0.4-0.101-0.7-0.5-1
	c-0.301-0.1-0.601,0-0.801,0.3c-0.1,0.2-0.1,0.399,0,0.601c0.2,0.299,0.5,0.399,0.801,0.5c-0.101,0.299-0.5,0.5-0.7,0.799
	c-1,1.701-3.101,1-4.3,2.201c-0.2,0.299-0.801,0.399-0.5,0.799c1.399,0.101,2.699-0.199,3.8-1c1.399-1.5,2.8-2.899,4.1-4.399
	c0.2,1.2-0.1,2.399-0.8,3.399c-0.3-0.199-0.6-0.399-1-0.6c-0.4,0.1-0.6,0.4-0.7,0.7c0.101,0.3,0.3,0.601,0.5,0.7
	c-1.2,0.9-2.8,1-4.2,1.4c-2.699,0.299-5.3,0.6-8,0.6c-1.3-0.1-2.699,0.4-4,0c-1.399,0.3-2.899-0.2-4,0.6c-0.1,0.2,0,0.4,0,0.5
	c1.7,1.1,4,0.2,5.9,0.6h14.4c1.1,0,2.1-0.1,3-0.6c1.899-1.1,2.899-3,3.8-4.9c0.399-0.699,0.6-1.399,0.8-2.199
	c0.4-1.301,1.5-2.1,2.7-2.2c0.2,1.899-0.2,3.8-0.601,5.601c-0.199,1.199-1,2.299-0.5,3.6c0.101,0.6,0.7,0.6,1.2,0.699
	c4.4-0.1,8.9-0.299,13.5,0.101c0.8,0.101,1.601,0.399,2.5,0.399c0.101-0.1,0.3-0.1,0.2-0.399c-0.1-0.399-0.4-0.899-0.9-1
	c-0.1-0.2-0.399-0.101-0.5-0.3c-2.3-1.301-5.199-0.6-7.899-0.6c-1.4,0.199-2.9,0.399-4.101-0.4c-0.5-0.7-0.1-2.801-0.1-2.801
	c0-0.799,2-6.599,2.3-7.099c0.101-0.6,0.3-1.1,0.2-1.7c0.3-0.7,0.2-1.7,0.2-2.5c0.1-1.2,0.7-2.3,1.1-3.4c0.2-0.6,0.4-1.1,0.601-1.7
	c0.199-0.7,0.3-1.4,0.699-1.9c1.2,0.8,2.4,0.7,2.9,2.1l0.5,3.1c0,0.2,0.1,0.6,0.4,0.3c1-0.6,0.699-2,0.699-3
	c0.2-1.1-0.6-1.7-0.899-2.7c-0.3-0.2-0.7-1.1-0.7-1.1c-0.1-0.8-1.9-1.4-1.5-2.4c0.2-0.8,0.4-1.6,1.2-2.1c0.1,0.1,0.2,0.2,0.2,0.3
	l0.399-0.3v-3.1c1.2,0,3,0.1,4.2,0.1c0.3,0.1,0.6,0.4,1,0.4l0.3-0.4l3-0.6C179.508,21.331,178.807,19.831,177.607,19.831
	L177.607,19.831z"/>
<path fill="#FFFFFF" d="M180.807,21.231c0.101,0,0.2,0,0.3-0.1L180.807,21.231L180.807,21.231z"/>
<path fill="#FFFFFF" d="M148.908,31.431c0,0.4-0.2,0.7-0.5,0.8c-0.301-0.1-0.5-0.1-0.7-0.4c-0.101-0.4,0.2-0.7,0.5-0.8
	C148.408,31.131,148.807,31.131,148.908,31.431L148.908,31.431z"/>
<path fill="#FFFFFF" d="M146.508,31.431c0.2,0.2,0.3,0.6,0.1,0.8c-0.3,0.2-0.699,0.4-0.899,0.1c-0.2-0.2-0.4-0.5-0.3-0.8
	C145.807,31.331,146.208,31.131,146.508,31.431L146.508,31.431z"/>
<path fill="#FFFFFF" d="M197.508,31.831C197.508,31.831,197.508,31.931,197.508,31.831"/>
<path fill="#FFFFFF" d="M225.408,32.531c0.1,0.4-0.2,0.7-0.5,0.8c-0.4-0.1-0.801-0.2-0.801-0.7c0-0.3,0.301-0.5,0.5-0.6
	C224.908,32.031,225.208,32.231,225.408,32.531L225.408,32.531z"/>
<path fill="#FFFFFF" d="M227.307,32.431c0.101,0.2,0.4,0.5,0.101,0.7c-0.101,0.1-0.301,0.1-0.4,0.3c-0.4,0.1-0.8-0.1-0.9-0.4
	c-0.1-0.4,0.301-0.6,0.5-0.8C226.908,32.031,227.107,32.231,227.307,32.431L227.307,32.431z"/>
<path fill="#FFFFFF" d="M137.307,32.831c-0.1,0.4-0.5,0.6-1,0.5c-0.1-0.1-0.2-0.3-0.3-0.5c0-0.3,0.1-0.5,0.4-0.6
	C136.908,32.231,137.208,32.431,137.307,32.831L137.307,32.831z"/>
<path fill="#FFFFFF" d="M149.708,33.531c0,0.3-0.4,0.6-0.601,0.7c-0.399,0-0.6-0.3-0.8-0.5c0-0.3,0.101-0.7,0.4-0.7
	C149.107,32.731,149.508,33.031,149.708,33.531L149.708,33.531z"/>
<path fill="#FFFFFF" d="M147.508,33.231c0.1,0.1,0.2,0.4,0.1,0.6c-0.199,0.2-0.5,0.5-0.899,0.3c-0.2-0.2-0.5-0.3-0.4-0.7
	c0.101-0.1,0.3-0.4,0.5-0.4C147.107,32.931,147.307,33.031,147.508,33.231L147.508,33.231z"/>
<path fill="#FFFFFF" d="M232.908,33.631c0,0.3-0.301,0.6-0.5,0.7c-0.301,0.1-0.601,0-0.801-0.2c-0.199-0.1-0.1-0.4-0.1-0.6
	c0.2-0.3,0.4-0.4,0.7-0.5C232.508,33.231,232.708,33.431,232.908,33.631L232.908,33.631z"/>
<path fill="#FFFFFF" d="M235.208,34.031c-0.101,0.3-0.4,0.6-0.7,0.7c-0.2,0-0.6-0.1-0.5-0.4c0-0.3,0.1-0.5,0.3-0.6
	C234.708,33.431,235.107,33.631,235.208,34.031L235.208,34.031z"/>
<path fill="#FFFFFF" d="M141.508,34.531c0.1,0.4-0.1,0.7-0.4,0.9c-0.3,0.1-0.5,0-0.699-0.2c-0.2-0.2-0.301-0.5-0.2-0.7
	c0.1-0.3,0.399-0.3,0.6-0.4C141.107,34.131,141.307,34.231,141.508,34.531L141.508,34.531z"/>
<path fill="#FFFFFF" d="M143.307,34.831c0.101,0.3-0.2,0.4-0.3,0.6c-0.2,0.1-0.4,0.2-0.7,0.1c-0.3-0.2-0.5-0.6-0.3-0.9
	C142.307,34.131,143.107,34.431,143.307,34.831L143.307,34.831z"/>
<path fill="#FFFFFF" d="M230.708,34.631c0,0.4-0.3,0.6-0.5,0.8c-0.3,0.1-0.7-0.1-0.7-0.4c0-0.3,0.1-0.5,0.4-0.7
	C230.208,34.331,230.607,34.331,230.708,34.631L230.708,34.631z"/>
<path fill="#FFFFFF" d="M233.708,35.231c-0.101,0.3,0,0.7-0.4,0.9c-0.3,0.1-0.7,0-0.899-0.1c-0.2-0.2-0.301-0.5-0.101-0.8
	c0.2-0.3,0.5-0.5,0.9-0.4C233.508,34.931,233.508,35.131,233.708,35.231L233.708,35.231z"/>
<path fill="#FFFFFF" d="M140.107,36.031c0.101,0.3-0.199,0.4-0.3,0.5c-0.3,0.1-0.5,0-0.7-0.1c-0.3-0.1-0.1-0.5-0.1-0.7
	C139.307,35.131,140.008,35.631,140.107,36.031L140.107,36.031z"/>
<path fill="#FFFFFF" d="M231.408,36.731c0.1,0,0.1,0.3,0,0.3c-0.9,0.4-2.2,0.6-3-0.1c-0.4-0.4-1-0.5-1.5-0.8
	c0.199-0.5,0.8-0.4,1.3-0.6C229.408,35.731,230.307,36.731,231.408,36.731L231.408,36.731z"/>
<path fill="#FFFFFF" d="M141.908,36.431c0.1,0.3-0.101,0.4-0.2,0.6c-0.101,0.2-0.4,0.1-0.601,0.1c-0.3-0.2-0.5-0.6-0.3-0.9
	C141.208,35.731,141.607,36.031,141.908,36.431L141.908,36.431z"/>
<path fill="#FFFFFF" d="M145.107,36.631c0.101,0.3-0.1,0.6-0.399,0.8c-0.3,0.1-0.5-0.1-0.7-0.1c-0.2-0.3-0.5-0.6-0.2-0.8
	C144.208,35.931,144.807,36.231,145.107,36.631L145.107,36.631z"/>
<path fill="#FFFFFF" d="M187.408,38.131c-0.101,0.7-1.301-0.1-1.101,0.9c0.2,0.7,0.3,1.5,0.7,2.1c0.3,0.5,0.2,1.3,0.1,1.9
	c-0.3,0.5-0.8,0.899-1.399,1.2c-1-0.1-2.601,0.5-3.101-0.801c-0.199-0.599-0.6-1.099-0.6-1.799c0.1-0.1,0.2-0.1,0.3-0.2
	c0-0.2-0.3-0.4-0.2-0.6c1.2-0.2-0.5-1.3,0.5-1.3c0.801,0.9,2.2,0.6,2.9,1.5c0.2,0.1,0.3,0.4,0.5,0.5c-0.1-0.9-0.6-1.8-0.7-2.7
	c-0.1-0.5,0.101-0.9,0.4-1.2C186.508,37.131,187.107,37.831,187.408,38.131L187.408,38.131z"/>
<path fill="#FFFFFF" d="M148.307,37.931c0.101,0.4-0.2,0.6-0.399,0.8c-0.301,0.1-0.5-0.2-0.7-0.4c-0.101-0.4,0.1-0.6,0.399-0.7
	C147.908,37.531,148.208,37.731,148.307,37.931L148.307,37.931z"/>
<path fill="#FFFFFF" d="M170.908,38.331c0.399,1.4,0.3,2.9-0.4,4.1c0,0.3,0.1,0.8-0.3,0.701c-1-1.4-0.3-3.3,0.1-4.701
	C170.307,38.131,170.807,37.931,170.908,38.331L170.908,38.331z"/>
<path fill="#FFFFFF" d="M202.208,39.031c0.5,1,0.5,2.4,0.1,3.4l-0.3,0.3c-0.4-0.9-0.7-1.7-0.8-2.6c0.2-0.7,0.399-1.3,0.399-2
	C202.107,38.031,202.107,38.731,202.208,39.031L202.208,39.031z"/>
<path fill="#FFFFFF" d="M151.208,39.431c-0.2,0.4-0.8,0.6-1.2,0.8c-0.9,0.7-2.2,0.8-3.3,0.6c1-1.3,2.399-2.1,4.2-1.7
	C150.908,39.331,151.107,39.231,151.208,39.431L151.208,39.431z"/>
<path fill="#FFFFFF" d="M136.107,40.731c1.4,1,1.7,2.3,2.5,3.6c0.101,0.1,0.5,0.2,0.301,0.5c-0.301,0.2-0.601-0.199-1-0.1
	c-1.4-0.6-2.301-2.2-2.2-3.8C135.708,40.731,136.008,40.731,136.107,40.731L136.107,40.731z"/>
<path fill="#FFFFFF" d="M200.807,41.931c0,0.4,0,0.7-0.3,0.9c-0.4,0.1-0.7-0.1-0.8-0.4c-0.101-0.3,0.1-0.4,0.2-0.6
	C200.107,41.431,200.607,41.531,200.807,41.931L200.807,41.931z"/>
<path fill="#FFFFFF" d="M216.208,43.831c0-0.699,0.2-1.4,0.3-2c0.1-0.2,0.2-0.5,0.1-0.8c0.9-1.2,2.7-0.8,4.101-0.7
	c0.5,0.3,1.2,0.3,1.8,0.4c0.3-0.2,0.6-0.2,0.9-0.2c1.199-0.6,0.399-2,0.5-3.1l-0.4-1.1c-0.1-0.2-0.2-0.5-0.3-0.7
	c-0.2-0.3-0.4-0.7-0.601-1c-0.6-1.6-1.8-2.5-2.899-3.8c-1.9-2.4-4.8-3.8-7.7-4.8s-5.8,0.3-8.4,1.2c-0.8-0.2-1.199-0.8-1.399-1.6
	c-0.101-1.4,0.1-2.8,0.7-3.9c0.1-0.9,0.699-1.6,1-2.5c0.699-2.1,1.399-4.1,1.5-6.3c0.1-1.4-1-2.3-2-2.9c-0.7-0.2-1.5-0.1-2,0.4
	c-0.5,1-1.5,1.7-2.4,2.1c-0.1,0.6,0.7,0.2,1,0.4c0.8,0.1,1.7-0.1,2.4,0.4c0.1,1.5-0.801,2.7-1.5,3.8c-1.2,1.8-2.601,3.7-3.301,5.8
	h-0.3l0.2,9c1.2,1.9,2.6,4.2,4.8,4.9c1.2,1,2.601,2.1,4.2,1.3c0.8-0.3,0.9,0.9,1.3,1.4c0.4,1.4-0.5,2.3-0.6,3.601l-1,2
	c-1.101,2.1-2.101,4.399-3.8,6.199c-0.601,0-0.9,0.6-1.4,0.6c-0.3,0.4-0.9,0.101-1.2,0.301c-1.1,0.5-2.7,0.199-3.5,1.3
	c0.101,0.101,0.2,0.101,0.3,0.2c2.2,0,4.7,0.199,7.101,0.1c0.3-0.1,0.6-0.4,0.6-0.699c-0.3-0.601,0.101-1.201,0.4-1.701
	c0.2-0.899,0.8-1.399,1-2.299c0.8-1.5,1.6-3,2.5-4.5l1.1-1.8c0.3-0.6,0.7-1.4,1.101-2.1c0.3-0.3,0.399-0.6,0.699-1
	c0-0.4-0.1-0.5-0.399-0.8c0.3-0.3,0.7-0.2,1-0.3c0.899,0.6,1.899,1.4,2,2.4l0.3,1l0.1,0.4l0.101,1.201l0.1,1.1
	c0.2,1.8-0.1,3.6-0.3,5.4c-0.6,2.1-3.1,1.899-4.8,2.399c-0.4,0.3-1.3,0.101-1.3,0.899c2.1,0.4,4.6,0.201,6.899,0.101
	c0.4-0.101,0.4-0.5,0.601-0.8c0.1-0.5,0.5-0.9,0.399-1.4c-0.399-0.5,0-1.3-0.1-2c0.1-0.199,0.1-0.4,0-0.699
	c0.3-1.101,0.2-2.4,0.399-3.4L216.208,43.831L216.208,43.831z"/>
<path fill="#FFFFFF" d="M234.307,42.431c-1.2,1.701-2.399,3.5-4.5,4.1c-0.1,0-0.3,0.101-0.399-0.101
	c1.199-1.299,1.899-3.399,3.8-3.899C233.607,42.431,234.008,42.231,234.307,42.431L234.307,42.431z"/>
<path fill="#FFFFFF" d="M134.307,44.231c-0.2,0.1,0,0.5-0.399,0.5c-0.301,0.1-0.601,0-0.801-0.301
	c-0.1-0.399,0.301-0.799,0.601-0.799C134.008,43.731,134.208,43.831,134.307,44.231L134.307,44.231z"/>
<path fill="#FFFFFF" d="M144.908,44.731c0.1,0.3-0.301,0.3-0.4,0.4c-1.5,0.6-3.1,0-4.2-1.101c0-0.101,0-0.3,0.101-0.3
	C141.908,44.131,143.607,43.831,144.908,44.731L144.908,44.731z"/>
<path fill="#FFFFFF" d="M136.307,44.231c0.101,0.1,0.101,0.4,0.101,0.6c-0.2,0.301-0.5,0.4-0.9,0.301c-0.2-0.101-0.3-0.301-0.5-0.5
	c0-0.4,0.3-0.601,0.6-0.701C135.908,44.031,136.107,44.031,136.307,44.231L136.307,44.231z"/>
<path fill="#FFFFFF" d="M170.607,44.43c0.101,0.301-0.199,0.601-0.399,0.701c-0.3,0.1-0.601-0.101-0.8-0.301
	c-0.101-0.3,0-0.6,0.3-0.699C170.008,44.031,170.508,44.131,170.607,44.43L170.607,44.43z"/>
<path fill="#FFFFFF" d="M235.607,44.531c0.101,0.399-0.199,0.601-0.5,0.8c-0.199,0.1-0.5,0-0.699-0.1c0-0.2-0.301-0.301-0.2-0.6
	c0.1-0.301,0.5-0.5,0.8-0.4S235.508,44.43,235.607,44.531L235.607,44.531z"/>
<path fill="#FFFFFF" d="M238.107,44.43c0.2,0.301,0,0.601-0.1,0.801c-0.1,0.3-0.4,0.3-0.7,0.199c-0.2-0.199-0.5-0.299-0.5-0.699
	c0-0.301,0.3-0.5,0.5-0.6C237.607,44.031,237.807,44.43,238.107,44.43L238.107,44.43z"/>
<path fill="#FFFFFF" d="M132.807,45.531c0,0.3-0.2,0.399-0.3,0.601c-0.2,0.1-0.4,0.199-0.6,0.1c-0.301-0.1-0.4-0.301-0.5-0.6
	c0.1-0.301,0.3-0.601,0.699-0.701C132.307,45.031,132.708,45.131,132.807,45.531L132.807,45.531z"/>
<path fill="#FFFFFF" d="M209.908,45.531c0.1,0.101,0,0.3,0,0.5c-0.2,0.3-0.5,0.601-0.9,0.399c-0.2-0.199-0.5-0.399-0.4-0.799
	C209.008,45.131,209.607,45.031,209.908,45.531L209.908,45.531z"/>
<path fill="#FFFFFF" d="M138.708,46.031c-0.101,0.3-0.2,0.5-0.5,0.601c-0.3,0-0.4-0.301-0.601-0.4c0-0.301,0-0.7,0.301-0.9
	C138.307,45.231,138.708,45.531,138.708,46.031L138.708,46.031z"/>
<path fill="#FFFFFF" d="M135.208,46.131c0.1,0.399-0.101,0.6-0.4,0.799c-0.399,0.101-0.8-0.199-1-0.5c0-0.299,0.3-0.699,0.7-0.799
	C134.807,45.531,135.008,45.93,135.208,46.131L135.208,46.131z"/>
<path fill="#FFFFFF" d="M212.307,46.031c0.101,0.399,0,0.7-0.399,0.899c-0.4,0.101-0.801-0.199-1-0.5
	c0.199-0.299,0.199-0.699,0.699-0.799C211.908,45.631,212.107,45.831,212.307,46.031L212.307,46.031z"/>
<path fill="#FFFFFF" d="M136.908,46.231c0.1,0.3-0.101,0.4-0.2,0.6c-0.2,0-0.3,0.2-0.5,0.1c-0.101-0.199-0.4-0.299-0.5-0.5
	c0-0.399,0.2-0.6,0.5-0.699C136.607,45.631,136.807,45.93,136.908,46.231L136.908,46.231z"/>
<path fill="#FFFFFF" d="M233.607,46.531c-0.1,0.3-0.3,0.399-0.6,0.601c-0.3,0.1-0.5-0.201-0.7-0.301s-0.1-0.5,0-0.699
	C232.607,45.531,233.607,45.831,233.607,46.531L233.607,46.531z"/>
<path fill="#FFFFFF" d="M236.408,46.631c-0.101,0.399-0.5,0.6-0.9,0.6c-0.3-0.1-0.7-0.4-0.4-0.801c0.101-0.1,0.2-0.299,0.4-0.299
	C236.008,45.93,236.307,46.231,236.408,46.631L236.408,46.631z"/>
<path fill="#FFFFFF" d="M219.008,46.93c0.2,0.5-0.3,0.601-0.5,0.801c-0.3,0-0.5-0.1-0.7-0.301c-0.1-0.399,0.101-0.799,0.5-1
	C218.607,46.531,218.807,46.631,219.008,46.93L219.008,46.93z"/>
<path fill="#FFFFFF" d="M209.008,47.331c0.2,0.1,0.1,0.301,0.1,0.4c-0.199,0.1-0.5,0.5-0.8,0.3s-0.399-0.399-0.399-0.7
	C208.008,46.93,208.807,46.93,209.008,47.331L209.008,47.331z"/>
<path fill="#FFFFFF" d="M211.008,47.631c0,0.299,0,0.399-0.3,0.6c-0.3,0.3-0.601,0-0.8-0.1c-0.101-0.201-0.101-0.4,0-0.601
	c0.1-0.101,0.3-0.3,0.5-0.3C210.607,47.331,210.908,47.331,211.008,47.631L211.008,47.631z"/>
<path fill="#FFFFFF" d="M148.908,47.631c0.199,0.199,0,0.5-0.101,0.699c-0.2,0.2-0.6,0.4-0.899,0.2
	c-0.4-0.101-0.301-0.601-0.301-0.899c0.2-0.101,0.2-0.301,0.5-0.301C148.508,47.331,148.708,47.43,148.908,47.631L148.908,47.631z"
	/>
<path fill="#FFFFFF" d="M222.908,47.831c0.1,0.4-0.301,0.5-0.5,0.6c-0.4,0.101-0.7-0.199-0.801-0.5c0-0.199,0.2-0.399,0.301-0.6
	C222.408,47.131,222.708,47.531,222.908,47.831L222.908,47.831z"/>
<path fill="#FFFFFF" d="M221.008,47.831c0.1,0.4-0.3,0.6-0.4,0.7c-0.3,0.101-0.6,0.101-0.8-0.2c-0.2-0.1-0.2-0.3-0.2-0.5
	c0.2-0.199,0.301-0.4,0.601-0.5C220.508,47.331,220.807,47.531,221.008,47.831L221.008,47.831z"/>
<path fill="#FFFFFF" d="M237.508,48.231c0.1,0.5-0.6,0.3-0.8,0.4c-1.5,0.899-3.5,0.199-5-0.301c0.1-0.5,0.7-0.3,1-0.5
	c1.6-1,3.2,0.2,4.8,0.301V48.231L237.508,48.231z"/>
<path fill="#FFFFFF" d="M137.307,47.831l-0.1,0.301c-1.4,0.799-3.101,1.399-4.7,0.799l-0.2-0.299c1.4-1,3.101-1.301,4.9-1
	L137.307,47.831L137.307,47.831z"/>
<path fill="#FFFFFF" d="M226.708,48.031c0,0.3-0.101,0.601-0.4,0.7c-0.399,0.1-0.8,0-1-0.4c-0.1-0.3,0.2-0.6,0.5-0.699
	C226.107,47.631,226.508,47.631,226.708,48.031L226.708,48.031z"/>
<path fill="#FFFFFF" d="M143.807,48.231c-0.1,0.3-0.1,0.6-0.399,0.699c-0.4,0.101-0.801-0.199-0.9-0.5c-0.1-0.399,0.2-0.5,0.4-0.699
	C143.307,47.531,143.607,47.831,143.807,48.231L143.807,48.231z"/>
<path fill="#FFFFFF" d="M141.208,48.331c0.1,0.301-0.101,0.4-0.2,0.6c-0.2,0.201-0.5,0.201-0.7,0.101c-0.3-0.2-0.5-0.5-0.399-0.899
	c0.199-0.201,0.3-0.301,0.6-0.4C140.807,47.831,141.208,48.031,141.208,48.331L141.208,48.331z"/>
<path fill="#FFFFFF" d="M229.208,49.231c0,0.3-0.3,0.6-0.601,0.699c-0.3,0-0.5-0.199-0.699-0.399c-0.101-0.2-0.101-0.5,0.1-0.7
	c0.1-0.1,0.3-0.1,0.5-0.199C228.908,48.631,229.208,48.93,229.208,49.231L229.208,49.231z"/>
<path fill="#FFFFFF" d="M138.508,48.831c0.1,0.301-0.1,0.4-0.2,0.6c-0.1,0.601-0.5,1-0.8,1.601c-0.7,0.8-1.7,0.8-2.7,1.101
	l-0.1-0.301c1.1-1.4,2.2-2.4,3.7-3.1L138.508,48.831L138.508,48.831z"/>
<path fill="#FFFFFF" d="M227.408,49.631c0.1,0.399-0.301,0.5-0.5,0.699c-0.301,0-0.601-0.199-0.7-0.4
	c-0.101-0.399,0.3-0.6,0.5-0.699C227.008,49.031,227.307,49.331,227.408,49.631L227.408,49.631z"/>
<path fill="#FFFFFF" d="M142.708,49.631c0,0.1,0,0.1,0.1,0.199c0,0.4-0.3,0.5-0.5,0.7c-0.3,0-0.6-0.101-0.8-0.399
	c-0.1-0.301,0-0.701,0.4-0.801C142.208,49.231,142.607,49.331,142.708,49.631L142.708,49.631z"/>
<path fill="#FFFFFF" d="M234.208,50.731c0.399,0,0.399-0.5,0.8-0.6c0.4-0.101,0.7,0.1,0.9,0.399c0.1,0.399-0.2,0.7-0.5,0.8
	c-0.301,0.2-0.801-0.199-0.801,0.301c0.301,0.199,0.5,0.399,0.5,0.699c-0.1,0.1-0.3,0.1-0.399,0c-1.101-0.4-2.2-1.199-2.601-2.3
	c-0.1-0.3-0.8-0.601-0.399-0.899C232.708,49.231,233.607,50.031,234.208,50.731L234.208,50.731z"/>
<path fill="#FFFFFF" d="M237.708,49.631c0.2,0.199,0.1,0.5,0,0.699c-0.2,0.4-0.7,0.2-1.101,0.2c-0.199-0.2-0.399-0.399-0.3-0.7
	c0.101-0.199,0.3-0.4,0.5-0.5C237.208,49.231,237.408,49.43,237.708,49.631L237.708,49.631z"/>
<path fill="#FFFFFF" d="M224.408,51.631c0.3,0.399,0.699,1,0.8,1.5c-0.101,0.1-0.3,0.1-0.3,0.1c-1.2-0.7-2.9-1.5-3.301-2.9
	c-0.1-0.1-0.399-0.3-0.399-0.6c1-0.2,1.899,0.5,2.5,1C223.908,51.031,224.208,51.131,224.408,51.631L224.408,51.631z"/>
<path fill="#FFFFFF" d="M140.708,50.231c0.1,0.3-0.101,0.6-0.3,0.699c-0.4,0.101-0.601-0.1-0.801-0.299c-0.3-0.4,0.2-0.701,0.5-0.9
	C140.307,49.731,140.508,50.031,140.708,50.231L140.708,50.231z"/>
<path fill="#FFFFFF" d="M229.008,51.031c0,0.2-0.3,0.399-0.4,0.5c-0.3,0-0.6,0.101-0.8-0.101c-0.1-0.199-0.3-0.5,0-0.699
	C228.107,50.231,228.708,50.631,229.008,51.031L229.008,51.031z"/>
<path fill="#FFFFFF" d="M238.107,51.531c0.101,0.399-0.199,0.7-0.5,0.899c-0.399,0.101-0.699-0.1-0.899-0.299
	c-0.2-0.201,0-0.4,0-0.701c0.3-0.199,0.6-0.399,1-0.299C237.807,51.331,237.908,51.331,238.107,51.531L238.107,51.531z"/>
<path fill="#FFFFFF" d="M212.708,56.631c0,0.399-0.8,0.299-1.101,0.699c-1.1,0.6-2.5,0.6-3.8,0.6v-0.299
	C209.107,56.531,211.008,56.131,212.708,56.631L212.708,56.631z"/>
<path fill="#FFFFFF" d="M159.307,58.231c0,0.3-0.2,0.5-0.6,0.6c-0.3,0-0.5-0.1-0.601-0.4c-0.1-0.399,0.2-0.6,0.5-0.799
	C159.008,57.731,159.208,57.93,159.307,58.231L159.307,58.231z"/>
<path fill="#FFFFFF" d="M212.107,58.631c-0.1,0.299-0.199,0.699-0.5,0.799c-0.3,0.101-0.5-0.1-0.8-0.299
	c-0.2-0.101-0.1-0.4-0.1-0.601C210.908,57.93,211.908,57.93,212.107,58.631L212.107,58.631z"/>
<path fill="#FFFFFF" d="M219.408,58.731c-0.9,0.6-1.9,1.3-3.101,1.3h-2l-0.2-0.101c1.2-1.5,3.4-1.5,5.301-1.299V58.731
	L219.408,58.731z"/>
<path fill="#FFFFFF" d="M149.307,59.631c0,0.299-0.1,0.6-0.5,0.699c-0.399,0.1-0.6-0.1-0.8-0.3c-0.1-0.3,0-0.7,0.3-0.8
	C148.708,58.93,149.107,59.331,149.307,59.631L149.307,59.631z"/>
<path fill="#FFFFFF" d="M151.107,60.031c0.101,0.2-0.1,0.3-0.1,0.5c-0.2,0.101-0.5,0.2-0.7,0c-0.3-0.2-0.3-0.399-0.2-0.601
	c0.101-0.199,0.301-0.199,0.4-0.299C150.807,59.631,151.008,59.731,151.107,60.031L151.107,60.031z"/>
<path fill="#FFFFFF" d="M137.107,63.731c-0.399,0.4-1-0.1-1.399-0.301c-1.3-0.699-1.2-2.199-2.5-3c0.1-0.399,0.5,0,0.7,0
	c0.199,0.201,0.5,0.301,0.8,0.4C136.008,61.43,136.307,62.631,137.107,63.731L137.107,63.731z"/>
<path fill="#FFFFFF" d="M243.807,49.43c-0.6-1.1-1.6-1.5-2.7-1.5c-1,0.101-1.6,0.701-2,1.5c-0.199,0.801,0.101,1.5,0.7,2
	c0.3,0.101,0.601,0.101,0.7-0.199c0.2-0.5-0.3-0.5-0.4-0.9c-0.1-0.5,0-1,0.4-1.3c0.4-0.399,1-0.2,1.4-0.2
	c0.399,0.301,0.899,0.6,1.1,1.1c0.2,0.601,0.2,1.301,0,2c-0.4,0.9-1.3,1.701-2.3,1.801c-3,0.4-36.4,0.3-36.4,0.3
	c-3.899,0.399-8.399-0.7-11.8,1.3c-1.5,0.7-2.3,2.4-2.7,3.9c-1,0.9-2.1,1.9-2.899,2.9l-0.101-0.101c0.2-0.899,0.601-1.7,0.8-2.5
	c0.5-0.7,0.5-1.7,1-2.5c1.4-2.2,2.7-4.5,4.9-6.101c0.9-1.199,2.5-1,3.9-1c1.5,0.701,3.3,0.9,5.1,0.701
	c0.1-0.101,0.1-0.201,0.1-0.301c-0.5-0.5-1.399-0.699-1.899-1.1c-1.5-0.7-2.9,0.199-4.4,0.1c-0.1-0.1-0.1-0.1-0.1-0.199
	c1.399-1,3-1.801,4.5-2.4c1.3-0.7,2.6-1.1,4-1.6c0.5,0,1.1-0.5,1.6-0.101l1.9-0.5c0.1,0,0.1,0.101,0.3,0.101
	c1.6-0.601,3.7,0,5.6-0.101l0.301,0.2l1.8,0.4c0.7,0.1,1,0.799,1.6,0.899c0.4-0.5-0.399-0.7-0.6-1.101c0.8-0.199,1.7,0,2.5,0.4
	l-0.4,0.5c-0.2,0.4,0.101,0.7,0.4,0.801c0.3,0.1,0.399-0.101,0.6-0.201c0.5-0.299,0-0.699,0.101-1c2.699,0.5,5.3,1.101,7.8,2.201
	c0.7,0.199,1.399,0.699,2.1,0.699c-0.8-0.699-1.8-1.1-2.8-1.5c-0.6-0.4-1.5-0.4-2-0.9c0.1-0.199,0.4-0.1,0.5-0.299
	c1.2-0.101,2.3-1.101,3.2-2.101c0.1-0.2,0.5-0.101,0.399-0.399c-0.3-0.4-0.899,0.1-1.3,0.1c-1.5,0.3-2.2,2.1-3.7,2.4
	c-1.899-0.4-3.8-0.9-5.6-1.4c-0.9-0.1-1.9-0.2-2.7-0.6l-2-0.201h-3.7c0-0.1-0.1-0.1-0.1-0.199c1.3-0.3,2.5-1.1,3.8-1.4l9.8-4.5
	c1-0.9,1.9-2,2.801-3c0-0.3-0.101-0.6-0.4-0.7s-0.6-0.1-0.7,0.1c-0.399,0.3,0,0.7,0,1.1c-0.399,0.6-1.1,1.1-1.7,1.4
	c-0.1,0-10.1,4.5-10.1,4.5c-1.7,0.9-3.1,1.6-4.7,2l-2.1,0.3c-0.101,0.399-0.5,0.7-0.9,0.8c-0.6,0.1-1.1,0.5-1.7,0.5
	c-4.8,1.801-9.699,3.801-13.5,7.6c0.2-0.399,0.301-1,0.4-1.5c-0.1-0.6,0-1.199-0.4-1.6c-0.1-0.199-0.399-0.8-0.3-1l-0.5,0.301
	c-0.3,0.799-0.6,2.299-0.3,3.1c0.1,0.699,0.7,1.4,0.1,2c-1.8,2.1-2.699,4.699-3.899,7.199c-0.4-0.1-0.7-0.5-0.8-0.899
	c1.199-1.601,2.199-3.399,2.6-5.399c0.3-0.201,0.1-0.701,0.3-0.9c-0.1-0.6,0.3-1.2,0-1.7c0.2-0.8-1.1-1.5-0.2-2.101l-0.699,0.301
	c-1.601,2.1,0.8,5.199-1,7.199v0.101c-0.5,0.7-0.801,1.3-1.5,1.8c-0.9-0.4-1.2-1.4-1.7-2.1c-0.8-0.801-0.8-2.4-0.3-3.4
	c0.3-1.1-0.2-2-0.301-3l-0.399-0.199c-0.9,1.1-1.2,2.899-0.5,4.299c0.399,0.701,0.399,1.601,1,2.101c0.3,1.101,1,1.8,1.6,2.7
	c0.101,0.4-0.2,0.4-0.399,0.6c-0.4-0.3-0.301-0.8-0.7-1.1c-1.2-2.6-2.8-4.6-4.7-6.7c-0.1-0.3-0.4-0.601-0.2-1c0.7-0.7,0.8-2,0.5-2.8
	c-0.1-0.2-0.3-0.4-0.3-0.6l-0.6-0.4c0.1,1.3-0.801,2.4-0.4,3.8v0.101c-3.8-2.801-7.9-5.4-12.2-7.4l-0.3,0.9c1.1,0.299,3.9,2,3.9,2
	c1.3,0.5,2.5,1.299,3.699,2c5,2.799,8.301,7.299,10.5,12.399c0,0.399,0.4,0.8,0.101,1.3c-0.8-1.199-1.9-1.8-2.8-2.8
	c-0.301-1.7-1.301-3.399-2.801-4.101c-0.5-0.799-1.699-0.899-2.6-1.1l-13.3-0.1c-10.8-0.1-20.7,0.4-31.5,0.199
	c-1.5-0.1-3.3-0.699-3.8-2.299c-0.301-0.601-0.301-1.5,0-2c0.399-0.701,1.1-0.9,1.899-1c0.601,0.1,1,0.6,1.2,1
	c0,0.5-0.4,0.899-0.6,1.299c0,0.101,0.199,0.4,0.399,0.301c0.5-0.2,0.8-0.7,1-1.2c0-0.3,0.101-0.601-0.1-0.8
	c-0.2-0.801-1-1.301-1.7-1.5c-0.9-0.1-1.9,0.199-2.5,0.9c-0.9,0.699-0.8,2.1-0.6,3.1c0.6,1.6,2.3,2.699,4,3l35.6,0.1
	c3.5,0.2,7.4-0.4,10.9,0.301c1.3,0.399,2.6,1.399,3,2.799c0,0.101-0.101,0-0.301,0c-2.899-1.899-6.699-2.6-10.399-2.1
	c-1.5-0.1-2.8,0.5-4.101,0.801c-0.699,0.1-1.399-0.201-1.8-0.601c-1.3-1.2-3.6-1.101-5.3-0.7c0,0.1,0,0.2,0,0.301
	c1.8-0.101,2.9,1.399,4.5,1.6c0.4,0.1,0.7-0.301,1,0c-1.7,0.8-3.3,1.8-5.1,2.3c-0.5-0.101-0.801-0.601-1.301-0.899
	c-0.699-0.801-2-0.4-2.899-0.5c-0.3,0.1-0.601-0.101-0.8,0c0.3,0.6,1,0.899,1.6,1.199c0.9,0.4,2,0,2.8,0.5
	c-0.2,0.301-0.5,0.301-0.8,0.5c-1.7,0.7-3.1,2.2-5.1,2.1c-2,0.201-4.101-0.399-5.4-1.799c-0.6-1.4-2.1-2.201-3.7-2.101
	c-0.1,0.101-0.3,0.101-0.2,0.3c0.801,0.5,1.4,1.4,2.2,2c0.5,0.6,1.5,0,2,0.7c0.7,0.5,1.601,0.899,2.4,1c0.6,0.3,1.2,0.399,1.899,0.5
	l-0.3,0.101c-3.3,1.1-7.2,1.199-10.899,1.1c-1.101,0-2.2-0.4-3.301-0.301c0.2,0.201,0.5,0.4,0.9,0.5c-0.3,0.201-0.6,0.301-1,0.301
	c-0.4,0.1-1,0.1-1.4,0.4c-0.6,0-1.1,0.199-1.6,0.399c-0.6,0.7-1.4,1.399-2.1,1.7c0,0.199,0,0.4,0.1,0.4c0.7-0.301,1.6-0.101,2.3-0.4
	c1.2-0.1,1.9-1.4,2.9-2c1-0.801,2.5-0.6,3.7-0.4c0.699,0.2-0.101,0.5,0.1,1c0.3,0.301,0.5,0.6,1,0.4c0.1-0.1,0.1-0.1,0.3-0.2
	c0.2-0.3,0.2-0.601,0-0.899c0.5-0.301,1.2,0,1.8-0.201c1.4,0,2.801-0.299,4.101-0.399c0.2,0,0.5-0.3,0.7,0
	c-0.101,0.3-0.5,0.3-0.301,0.7c0.101,0.3,0.4,0.5,0.7,0.6c0.4-0.1,0.7-0.4,0.5-0.9c-0.1-0.299-0.399-0.299-0.5-0.399
	c0.8-0.399,1.601-0.5,2.4-0.899c0.5-0.101,1.1-0.301,1.5-0.5c0.5,0,0.899-0.5,1.3-0.301c-0.2,0.6-0.4,1.2-0.8,1.801
	c-0.601,2-1,4.5,0,6.399c0.1,0,0.1,0,0.2-0.101c-0.801-2-0.301-4.199,0.3-6c0.5-3.1,3.7-4.1,6-5.199l0.1,0.1
	c-0.6,1.6-1.5,3.2-1.399,5.1c0.1,0.301-0.101,0.701,0,0.9c0.6-0.3,1-1.1,1.399-1.699c0.3-1.701-0.7-3.701,1-4.9
	c3-1.2,5.8-2.7,9.3-2.801c0.101,0.101,0.4-0.1,0.4,0.101c-0.7,0.8-1.8,1.601-2.1,2.601c-1.2,1.6-1.101,4.399-0.601,6.399
	c0.3,1.101-0.7,1.8-1.1,2.7c-0.2,0.3-0.3,0.9-0.5,1.199l0.7,0.101c0.6-0.7,1.199-1.5,1.199-2.399c0.101,0.399,0.4,0.699,0.7,0.699
	c0.3-0.4-0.2-0.699-0.3-1.1c0.6-0.301,0.8,0.4,1.3,0.6c0.8,0.2,1.4,0.5,2.2,0.5l0.3-0.3c-0.8-1.3-2.399-1.5-3.8-1.5
	c-0.7-1.2-0.7-2.7-0.7-4.2c0.101-0.8,0.3-1.6,0.7-2.3c0.2-0.5,0.7-1,1-1.399c0.7-0.601,1.5-1.101,2.3-1.301h0.5c0,0.1,0,0.1,0,0.1
	c-1,0.801-1.1,1.801-1.7,2.801c-0.6,0.9-0.899,2.199-0.3,3.199c0.2,0.5,0.101,1.201,0.601,1.5c0.5-0.699,0.5-1.5,0.8-2.199
	c-0.101-1.2-0.8-2.4-0.101-3.5c0.4-0.9,1.101-1.301,2-1.6c2-0.201,3.801,0.799,5.5,1.6c0.4,0.3,1,0.5,1.101,1c0,1-0.601,2-1.4,2.5
	c-1,0.6-2.399,0.699-3.3,0c-0.5-0.6-0.8-1.5-0.6-2.301c0.399-0.399,1-0.799,1.6-0.6c0.4,0.2,0.7,0.6,1.2,0.301
	c0.2-0.101,0.3-0.4,0.1-0.601c-0.399-0.2-0.5-0.8-1.1-0.8c-0.7-0.1-1.5-0.1-2,0.4c-0.8,0.699-1.101,1.699-0.8,2.6
	c0.3,1.199,1.1,2,2.3,2.4c1.7,0.399,3.399-0.101,4.5-1.5c0.399-0.5,0.5-1,0.8-1.601c1.8,1.101,3.1,2.899,3.8,4.899
	c0,0.601,0.2,1.301,0,1.801l1.3,0.1c-0.1-0.3,0-0.6,0.101-0.9c0.5-2.399,2-4.5,3.8-6.1c0.6-0.4,0.5,0.5,0.6,0.7
	c0.5,1.399,1.801,2.399,3.2,2.8c1.5,0.301,3-0.1,4-1.3c0.5-0.899,1.101-2.2,0.3-3.101c-0.5-0.6-1.199-1-2-1c-1,0-1.5,0.701-2,1.4
	c0,0.301,0,0.6,0.2,0.801c0.101,0,0.4,0,0.5-0.201c0.101-0.6,0.5-0.799,1-1.1c0.4-0.199,0.8,0,1.2,0.2c0.4,0.3,0.5,0.899,0.5,1.399
	c-0.1,0.701-0.5,1.4-1.2,1.701c-1.1,0.6-2.6,0.299-3.5-0.301c-0.399-0.5-0.7-1-1-1.6c-0.1-0.6-0.3-1.1,0-1.7
	c1.601-1,3.3-1.7,5.2-1.8c0.8,0.1,1.4,0.699,1.9,1.199c1.699,1.701-0.4,4.201,0.8,6.101c0.399-0.101,0.399-0.7,0.6-1
	c0.5-1.3-0.1-2.8-0.5-4.101c-0.399-0.799-0.7-1.5-1.399-2.199c0.199-0.1,0.3-0.1,0.399-0.1c0.8,0.5,1.601,1.1,2.2,1.899
	c1.1,1.7,1.6,3.8,1.4,6c-0.301,1.101-1.5,1.601-2.4,2c-0.4,0.3-0.8,0.7-1,1.2c0.4,0.3,1.1,0,1.5-0.2c0.7-0.3,1.1-1.101,1.6-1.5
	c0.101,0,0,0.101,0.101,0.2c0,0.4-0.2,1,0.2,1.1c0.199-0.5,0.199-1.3,0.3-1.9c0.5,0.5,0.5,1.201,0.7,1.801
	c0.3,0.699,0.899,1.5,1.8,1.699c0.2-0.299,0-0.699-0.101-1c-0.1-0.899-0.899-1.399-1.399-2.1c-1.3-1.8-0.7-4.5-1.7-6.5
	c-0.4-1.1-1.1-1.8-2-2.699l0.1-0.101c1.801,0,3.301,0.5,4.9,0.899c2,1,4.9,0.801,5.9,3.4c0.399,1.5,1.1,2.801,2.1,4l0.1-0.1
	c0.2-0.4,0.2-1,0-1.4c-0.199-1.8-1.8-2.3-2.699-3.8l0.1-0.101c0.9,0.301,1.8,0.5,2.7,0.801c2.899,0.8,5,3.699,5.3,6.699
	c0,2.4-0.4,4.301-1.4,6.301c-0.1,0.3-0.6,0.6-0.3,0.9c0.4-0.301,0.5-0.801,0.7-1.101c1.2-2,1.8-4.8,1.2-7.399
	c0-0.5-0.601-0.801-0.3-1.301c0.199,0.2,0.399,0.301,0.6,0.301c0.2-0.101,0.5-0.101,0.7-0.4c0-0.2,0.2-0.5,0-0.7
	c-0.2-0.3-0.7-0.3-1.101-0.3c-0.199,0.199-0.399,0.5-0.399,0.8c-0.4-0.601-0.7-1.399-1.3-2l0.1-0.101c1.6,0.601,3.1,1.4,4.8,1.801
	c0.4,0.199,0.8,0.4,1.3,0.4c1.4,0.6,3,0.799,4.5,1.1c1.101-0.1,2,0.4,3.101,0.1v-0.1l0,0c-0.4-0.5-1.3,0-1.8-0.4
	c-2.5-0.3-4.9-0.9-7.2-1.8c0-0.101,0.2-0.101,0.3-0.101c0.4-0.199,0.6-0.5,0.6-0.899c-0.199-0.3-0.5-0.399-0.8-0.399
	c-0.2,0.1-0.5,0.399-0.5,0.6c0,0.3,0.3,0.6,0.5,0.699c-0.1,0.101-0.2,0-0.3,0c-1.1-0.5-2.2-1-3.3-1.5c-0.4-0.1-0.7-0.399-1.101-0.5
	c-0.8-0.399-1.699-0.799-2.5-1.1c-2.3-1.199-4.899-1.9-7.399-2.8c-0.5-0.101-1.101-0.3-1.601-0.399
	c-0.899-0.301-1.8-0.5-2.699-0.701c-3.101-0.799-7.301-0.799-10,0.801c-0.4-0.1-0.7,0.6-0.9,0.1c0.8-2,3-2.699,5-2.8
	c14.7-0.101,28.4-0.3,42.9-0.5c1.699,0,3.3-0.601,4.199-2.101C244.208,51.93,244.307,50.43,243.807,49.43L243.807,49.43z
	 M185.607,63.031c-0.1,0.399-0.399,0.8-0.399,1.3l-0.101,0.1c0.101-0.6-0.399-0.899-0.3-1.5c-0.3-0.399-0.3-1-0.5-1.5
	c-0.3-0.6,0.3-0.899,0.5-1.299c0.5,0.199,0.7,0.699,1.101,1.1C186.008,62.031,185.607,62.43,185.607,63.031L185.607,63.031z"/>
<path fill="#FFFFFF" d="M225.307,60.731c0,0.1,0.2,0.1,0.101,0.3c-1.301,1.101-3.101,1.5-4.9,1.5c-0.1,0-0.3,0.101-0.5,0.101
	c-0.1-0.101-0.1-0.201-0.1-0.301C221.307,61.031,223.307,60.331,225.307,60.731L225.307,60.731z"/>
<path fill="#FFFFFF" d="M219.408,61.331c0.1,0.5-0.2,0.801-0.601,1c-0.399,0-0.6-0.3-0.8-0.6c-0.1-0.301,0.1-0.4,0.3-0.6
	C218.607,60.831,219.307,60.831,219.408,61.331L219.408,61.331z"/>
<path fill="#FFFFFF" d="M149.807,61.43c0.101,0.301,0,0.601-0.2,0.801c-0.1,0.199-0.5,0.199-0.699,0.199c-0.301,0-0.4-0.299-0.5-0.6
	c0-0.3,0.199-0.5,0.5-0.699C149.307,61.131,149.607,61.031,149.807,61.43L149.807,61.43z"/>
<path fill="#FFFFFF" d="M143.307,63.831v0.301c-0.899,0.199-1.7,0-2.399-0.601c-0.5-0.7-1.101-1.5-1.9-1.8c0-0.1-0.2-0.301,0-0.301
	C140.807,61.331,141.908,62.831,143.307,63.831L143.307,63.831z"/>
<path fill="#FFFFFF" d="M230.908,61.331c-0.801,1.301-1.601,2.801-3.101,3.301c-0.3,0-0.5,0.399-0.7,0.1
	c0.601-1.4,1.801-2.9,3.301-3.5C230.508,61.331,230.708,61.231,230.908,61.331L230.908,61.331z"/>
<path fill="#FFFFFF" d="M152.008,61.831c0,0.4-0.3,0.5-0.5,0.7c-0.3,0-0.4-0.2-0.6-0.399c-0.101-0.4,0.199-0.5,0.399-0.701
	C151.508,61.331,151.807,61.531,152.008,61.831L152.008,61.831z"/>
<path fill="#FFFFFF" d="M235.508,62.031c-0.3,0.5-0.2,1.2-0.5,1.7c-0.7,0.8-1.4,1.8-2.5,2c-0.2-0.4,0.3-0.7,0.4-1.1
	c0.5-1.101,1.199-2.4,2.399-2.801L235.508,62.031L235.508,62.031z"/>
<path fill="#FFFFFF" d="M131.908,62.331c0.1,0.301,0.199,0.5,0,0.801c-0.2,0.199-0.5,0.299-0.801,0.1c-0.3-0.2-0.399-0.6-0.3-0.9
	C131.008,62.131,131.708,61.93,131.908,62.331L131.908,62.331z"/>
<path fill="#FFFFFF" d="M129.908,62.831c0,0.2,0.1,0.301,0.1,0.5c-0.1,0.2-0.3,0.4-0.5,0.4c-0.4,0.1-0.7-0.1-0.8-0.5
	c0-0.301,0.1-0.6,0.399-0.801C129.307,62.331,129.708,62.531,129.908,62.831L129.908,62.831z"/>
<path fill="#FFFFFF" d="M134.208,63.031c0.1,0.3,0.1,0.8-0.3,0.899c-0.5,0.201-0.801-0.1-1.101-0.399c0-0.3,0.2-0.601,0.4-0.7
	C133.607,62.731,133.908,62.731,134.208,63.031L134.208,63.031z"/>
<path fill="#FFFFFF" d="M140.208,63.531c0,0.3,0,0.601-0.3,0.7c-0.2,0.199-0.5,0.1-0.7,0.1c-0.101-0.199-0.5-0.4-0.3-0.699
	c0.1-0.201,0.3-0.301,0.5-0.4C139.708,63.331,140.008,63.231,140.208,63.531L140.208,63.531z"/>
<path fill="#FFFFFF" d="M239.008,63.731c-0.1,0.3-0.3,0.6-0.5,0.6c-0.3,0-0.7-0.1-0.8-0.4c-0.101-0.399,0.2-0.6,0.5-0.699
	C238.508,63.231,238.908,63.331,239.008,63.731L239.008,63.731z"/>
<path fill="#FFFFFF" d="M232.307,63.93c0,0.301-0.3,0.5-0.399,0.601c-0.5,0.2-0.9-0.101-1.101-0.601
	c0.101-0.299,0.3-0.6,0.601-0.699C231.807,63.331,232.107,63.531,232.307,63.93L232.307,63.93z"/>
<path fill="#FFFFFF" d="M236.908,63.831c0,0.301-0.101,0.5-0.301,0.6c-0.3,0.101-0.699,0.101-0.899-0.1c-0.3-0.3-0.101-0.6,0.1-0.8
	C236.107,63.331,236.708,63.43,236.908,63.831L236.908,63.831z"/>
<path fill="#FFFFFF" d="M131.008,64.531c0.1,0.399-0.1,0.8-0.4,0.899c-0.3,0-0.699-0.199-0.8-0.5c0-0.299,0.101-0.699,0.4-0.799
	C130.508,64.031,130.807,64.231,131.008,64.531L131.008,64.531z"/>
<path fill="#FFFFFF" d="M230.508,64.93c0.1,0.4-0.1,0.801-0.5,1c-0.3,0.101-0.5-0.1-0.7-0.299c-0.1-0.201-0.3-0.601,0-0.801
	C229.508,64.231,230.307,64.531,230.508,64.93L230.508,64.93z"/>
<path fill="#FFFFFF" d="M150.708,65.331c0.1,0.4-0.3,0.5-0.4,0.7c-0.1,0.101-0.399,0.101-0.5,0c-0.2-0.2-0.399-0.399-0.3-0.8
	c0.2-0.1,0.3-0.301,0.5-0.4C150.307,64.731,150.508,65.031,150.708,65.331L150.708,65.331z"/>
<path fill="#FFFFFF" d="M238.408,65.531c0.1,0.3-0.101,0.399-0.2,0.601c-0.2,0.199-0.601,0.199-0.8,0.1
	c-0.301-0.2-0.301-0.5-0.301-0.801c0.2-0.1,0.301-0.299,0.5-0.399C237.807,65.031,238.208,65.231,238.408,65.531L238.408,65.531z"/>
<path fill="#FFFFFF" d="M236.107,65.631c0.101,0.399-0.3,0.699-0.5,0.799c-0.1,0-0.399-0.1-0.399,0.101c1,0.5,1.5,1.3,2.3,2v0.3
	c-1.3,0-2.7-0.4-3.6-1.4c-0.301-0.199-0.7-0.199-1-0.399c0.5-0.5,1.399-0.3,2-0.3c0.5-0.5-0.601-0.9,0.1-1.301
	c0.2,0,0.4-0.299,0.7-0.199C235.807,65.231,235.908,65.43,236.107,65.631L236.107,65.631z"/>
<path fill="#FFFFFF" d="M221.107,65.731c0.101,0.199-0.1,0.4-0.199,0.6c-0.2,0.2-0.5,0.301-0.801,0.2c-0.199-0.3-0.5-0.5-0.399-0.8
	C220.107,65.031,221.008,65.131,221.107,65.731L221.107,65.731z"/>
<path fill="#FFFFFF" d="M139.307,67.031c-0.1,0.3-0.3,0.601-0.6,0.601s-0.5-0.101-0.7-0.4c0-0.301,0.1-0.4,0.2-0.6
	C138.607,66.231,139.307,66.43,139.307,67.031L139.307,67.031z"/>
<path fill="#FFFFFF" d="M142.208,66.531c0,0.5-0.5,0.8-0.7,1.3c-0.5,1.2-1.5,2.301-2.9,2.4c-0.1-0.301,0.5-0.7,0.601-1.1
	c0.6-1.301,1.8-1.9,2.8-2.701h0.2V66.531z"/>
<path fill="#FFFFFF" d="M220.208,67.031c0,0.399-0.3,0.7-0.601,0.899c-0.3,0.101-0.6-0.199-0.8-0.299c-0.3-0.301-0.1-0.601,0-0.9
	C219.307,66.231,219.908,66.631,220.208,67.031L220.208,67.031z"/>
<path fill="#FFFFFF" d="M222.508,67.331c0,0.4-0.3,0.7-0.7,0.801c-0.1-0.101-0.3,0-0.399-0.101c-0.301-0.101-0.5-0.399-0.5-0.7
	c0.199-0.199,0.3-0.5,0.5-0.5C221.807,66.831,222.408,66.831,222.508,67.331L222.508,67.331z"/>
<path fill="#FFFFFF" d="M147.908,67.231c0,0.4-0.301,0.6-0.5,0.8c-0.301,0-0.5-0.2-0.7-0.399c-0.101-0.301,0.3-0.601,0.399-0.701
	C147.508,66.731,147.607,67.031,147.908,67.231L147.908,67.231z"/>
<path fill="#FFFFFF" d="M150.408,67.43c-0.101,0.301-0.301,0.601-0.7,0.601c-0.3-0.101-0.5-0.101-0.7-0.399
	c0-0.4,0.3-0.601,0.5-0.701C150.008,66.831,150.408,67.031,150.408,67.43L150.408,67.43z"/>
<path fill="#FFFFFF" d="M230.408,70.031c0.199,0.101,0.5,0.3,0.399,0.601c-0.6,0.299-1.1-0.4-1.6-0.5c-0.9-0.9-1.5-1.801-1.9-2.9
	c0.3-0.301,0.7,0.1,1,0.199C229.107,68.031,229.908,68.93,230.408,70.031L230.408,70.031z"/>
<path fill="#FFFFFF" d="M231.708,67.43c0.1,0.301,0.1,0.601-0.101,0.801c-0.199,0.4-0.699,0.3-1,0.199
	c-0.199-0.199-0.5-0.5-0.3-0.799c0.101-0.301,0.4-0.4,0.7-0.5C231.307,67.031,231.508,67.331,231.708,67.43L231.708,67.43z"/>
<path fill="#FFFFFF" d="M153.807,68.331c0,0.301,0.101,0.7-0.3,0.9c-0.3,0.1-0.8,0-0.9-0.4c-0.199-0.4,0.2-0.5,0.4-0.699
	C153.408,68.031,153.607,68.131,153.807,68.331L153.807,68.331z"/>
<path fill="#FFFFFF" d="M222.408,70.731c0.5,0.699,0.899,1.699,1,2.6c-0.101,0.301,0.199,0.5,0,0.7h-0.101c-1.6-1.2-2-2.8-2.6-4.5
	c-0.101-0.101-0.2-0.2-0.101-0.399c0.4-0.301,0.601,0.299,1,0.399L222.408,70.731L222.408,70.731z"/>
<path fill="#FFFFFF" d="M158.607,69.531C158.508,69.531,158.607,69.531,158.607,69.531c-1.399,1.101-3.5,1.7-5.199,0.7
	c0-0.1,0-0.301,0.199-0.301c1.101-0.299,2.101-0.799,3.2-0.699L158.607,69.531L158.607,69.531z"/>
<path fill="#FFFFFF" d="M150.208,69.731c-1.2,0.8-2.4,2.3-3.9,2.699c-0.3,0.101-0.5,0.5-0.8,0.301c0.7-2,2.8-3.1,4.8-3.2v0.2
	H150.208z"/>
<path fill="#FFFFFF" d="M220.208,71.331c0.1,0.301,0,0.7-0.3,0.801c-0.2,0.199-0.5,0.199-0.7,0c-0.3-0.201-0.3-0.5-0.3-0.701
	c0.1-0.299,0.399-0.299,0.5-0.399C219.807,71.031,220.107,71.031,220.208,71.331L220.208,71.331z"/>
<path fill="#FFFFFF" d="M217.208,71.531c-0.2,0.5-0.8,0.8-1.3,1c-1.2,0.399-2.4-0.101-3.5-0.399c0-0.301,0.399-0.201,0.6-0.4
	c1.2-0.301,2.5-0.5,3.7-0.2C216.807,71.43,217.107,71.43,217.208,71.531L217.208,71.531z"/>
<path fill="#FFFFFF" d="M150.208,72.631c-0.101,0.1-0.101,0.5-0.4,0.6s-0.5,0-0.7-0.1c-0.1-0.201-0.3-0.4-0.1-0.701
	c0.1-0.299,0.4-0.299,0.6-0.399C149.807,72.031,150.107,72.231,150.208,72.631L150.208,72.631z"/>
<path fill="#FFFFFF" d="M152.408,72.93c-0.101,0.201-0.2,0.601-0.5,0.701c-0.301,0.1-0.5-0.101-0.7-0.301
	c-0.101-0.199-0.2-0.5-0.101-0.699c0.101-0.201,0.301-0.201,0.5-0.301C151.908,72.231,152.208,72.631,152.408,72.93L152.408,72.93z"
	/>
<path fill="#FFFFFF" d="M219.508,73.331c0,0.301-0.1,0.5-0.3,0.7c-0.2,0.3-0.5,0.3-0.8,0.101c-0.301,0-0.301-0.301-0.4-0.5
	c-0.2-0.301,0.1-0.5,0.3-0.701C218.708,72.531,219.408,72.731,219.508,73.331L219.508,73.331z"/>
<path fill="#FFFFFF" d="M221.208,73.231c0,0.199,0.1,0.4,0.1,0.5c-0.2,0.199-0.399,0.699-0.8,0.5c-0.2,0.1-0.3-0.2-0.4-0.301
	c-0.1-0.399,0-0.899,0.4-1C220.807,72.831,221.008,73.131,221.208,73.231L221.208,73.231z"/>
<path fill="#FFFFFF" d="M151.008,74.331c0.1,0.4-0.1,0.801-0.4,1c-0.399,0.1-0.899,0.1-1.1-0.4c0-0.399,0-0.799,0.4-1.1
	C150.408,73.731,150.908,73.831,151.008,74.331L151.008,74.331z"/>
<path fill="#FFFFFF" d="M153.107,74.131c-0.1,1-0.3,2.299-1.3,2.899c-0.6,0.101-1.2,0.7-1.8,0.3v-0.199
	C150.807,76.031,152.208,75.231,153.107,74.131L153.107,74.131z"/>
<path fill="#FFFFFF" d="M213.807,75.031c0.101,0.2-0.1,0.399-0.2,0.601c-0.199,0.299-0.6,0.1-0.899,0c-0.3-0.101-0.3-0.5-0.2-0.701
	c0.1-0.199,0.3-0.299,0.5-0.399C213.307,74.43,213.607,74.731,213.807,75.031L213.807,75.031z"/>
<path fill="#FFFFFF" d="M156.807,76.731c0.5,0.8,0.2,2,0.5,2.9c-0.6,0.1-0.899-0.601-1.3-1c-0.8-1.101-0.7-2.601-1.1-3.9
	c0.1-0.1,0.199-0.1,0.3-0.1c0.5,0.399,1,1.1,1.399,1.5C156.508,76.43,156.807,76.43,156.807,76.731L156.807,76.731z"/>
<path fill="#FFFFFF" d="M215.607,75.331c0,0.301-0.3,0.4-0.5,0.6c-0.3,0-0.5-0.1-0.699-0.299c-0.101-0.4,0.199-0.5,0.399-0.701
	C215.107,74.731,215.508,74.93,215.607,75.331L215.607,75.331z"/>
<path fill="#FFFFFF" d="M220.008,78.531c0,0.101,0,0.3-0.2,0.3h-0.1c-1.101-1-2.101-2-2-3.5h0.2
	C218.807,76.131,219.908,77.031,220.008,78.531L220.008,78.531z"/>
<path fill="#FFFFFF" d="M217.208,77.43c0,0.301-0.101,0.5-0.3,0.701c-0.4,0.1-1,0.1-1.101-0.5c0-0.4,0.4-0.601,0.5-0.701
	C216.807,76.731,217.107,77.031,217.208,77.43L217.208,77.43z"/>
<path fill="#FFFFFF" d="M214.807,78.131c-0.5,1.399-1.899,2.1-2.899,3.1c-0.2-0.1-0.101-0.4-0.101-0.6c0.4-1.4,1.5-2.801,2.8-3.301
	C215.307,77.43,214.708,77.831,214.807,78.131L214.807,78.131z"/>
<path fill="#FFFFFF" d="M217.607,79.231c0,0.3-0.3,0.5-0.5,0.699c-0.3,0-0.6-0.1-0.8-0.399c0-0.399,0.3-0.5,0.5-0.7
	C217.107,78.831,217.408,79.031,217.607,79.231L217.607,79.231z"/>
<path fill="#FFFFFF" d="M190.307,12.331c0.5,0,0.9,0.4,0.9,0.9s-0.4,0.9-0.9,0.9h-10.8c-0.5,0-0.9-0.4-0.9-0.9s0.4-0.9,0.9-0.9
	H190.307L190.307,12.331z M182.607,13.931c1.101,0,0.101-1.3-0.5-1.3h-1.1c-1.1,0-0.1,1.3,0.5,1.3H182.607L182.607,13.931z
	 M187.107,13.931c1.101,0,0.101-1.3-0.5-1.3h-1.1c-1.1,0-0.1,1.3,0.5,1.3H187.107L187.107,13.931z M190.408,12.631h-0.4
	c-1.1,0-0.2,1.3,0.4,1.3C191.107,13.931,191.107,12.631,190.408,12.631L190.408,12.631z"/>
<path fill="#FFFFFF" d="M189.408,24.831l2.1,0.8l2-0.8l-0.8,3.1l1.6-0.3l-0.6,1.9l0.6,1.8l-1.399-0.4l0.6,3.3l-2-0.8l-2.1,0.8
	l0.8-3.3l-1.7,0.5l0.4-1.9l-0.301-1.9l1.601,0.3L189.408,24.831L189.408,24.831z M192.408,30.331c0.5,0,0.5-0.6,0.5-1.2
	c0-1.3-1,0-1.5-1.2c-0.4,1-1.4,0.1-1.4,1.1c0,0.7,0,1.2,0.7,1.2h1.7V30.331z M190.408,29.131c0,0.5,0.6,0.2,1.1,0.2s1.1,0.3,1.1-0.2
	c0-0.7-0.6-0.4-1.1-0.4S190.408,28.531,190.408,29.131L190.408,29.131z"/>
<polygon fill="#FFFFFF" points="184.508,29.231 184.508,28.931 184.208,28.831 184.408,28.531 184.307,28.231 184.607,28.231 
	184.807,27.931 185.107,28.231 185.408,28.231 185.208,28.531 185.508,28.831 185.208,28.931 185.208,29.231 184.807,29.031 "/>
<polygon fill="#FFFFFF" points="182.908,31.331 182.908,30.931 182.607,30.931 182.807,30.631 182.708,30.331 183.008,30.331 
	183.208,29.931 183.408,30.331 183.807,30.331 183.607,30.631 183.908,30.931 183.607,30.931 183.607,31.331 183.208,31.131 "/>
<polygon fill="#FFFFFF" points="185.607,31.131 185.607,30.731 185.307,30.631 185.607,30.331 185.408,30.031 185.807,30.031 
	186.008,29.731 186.208,30.031 186.508,30.031 186.408,30.331 186.607,30.631 186.307,30.731 186.307,31.131 186.008,30.831 "/>
<polygon fill="#FFFFFF" points="186.008,32.631 186.008,32.431 185.807,32.431 185.908,32.231 185.807,32.031 186.008,32.031 
	186.107,31.831 186.307,32.031 186.508,32.031 186.408,32.231 186.508,32.431 186.307,32.431 186.307,32.631 186.107,32.531 "/>
<polygon fill="#FFFFFF" points="183.408,34.431 183.408,33.731 182.807,33.631 183.307,33.131 183.008,32.631 183.607,32.631 
	184.008,32.031 184.307,32.631 185.008,32.631 184.708,33.131 185.107,33.631 184.508,33.731 184.508,34.431 184.008,34.031 "/>
<polygon fill="#FFFFFF" points="184.708,-0.369 186.008,2.831 189.307,1.831 187.607,4.831 190.408,6.831 187.008,7.331 
	187.208,10.831 184.708,8.531 182.208,10.831 182.408,7.331 179.008,6.831 181.807,4.831 180.208,1.831 183.408,2.831 "/>
<path fill="#FFFFFF" d="M172.908,70.731c-0.4,0.1-0.5,0.3-0.4,0.699l0.5,1.9c0.1,0.4,0.1,0.9-0.1,1.301
	c-0.301,0.399-0.9,0.699-1.301,0.799c-0.3,0.101-1,0.201-1.6,0c-0.4-0.199-0.6-0.299-0.8-1l-0.5-2c-0.101-0.5-0.3-0.5-0.7-0.399
	v-0.2l2.5-0.6v0.199c-0.5,0.101-0.7,0.201-0.6,0.701l0.5,2c0.1,0.299,0.3,1.199,1.3,0.899c1.3-0.3,1.1-1.2,1-1.601l-0.4-1.899
	c-0.1-0.399-0.2-0.601-0.899-0.399V70.93l1.6-0.399L172.908,70.731L172.908,70.731z"/>
<path fill="#FFFFFF" d="M176.508,71.131c-0.2-0.4-0.8-1-1.7-0.801c-0.399,0.1-0.7,0.4-0.7,0.801c0.101,0.299,0.2,0.399,0.9,0.6
	l1.2,0.199c0.3,0,0.899,0.301,1,0.9c0.1,0.5-0.2,1.4-1.5,1.7c-0.7,0.2-1.101,0-1.3,0.101c-0.2,0-0.2,0.199-0.2,0.299h-0.2l-0.3-1.5
	h0.2c0.3,0.601,0.899,1.201,1.8,1c0.899-0.199,0.8-0.799,0.8-0.899c-0.1-0.399-0.5-0.5-1-0.601l-0.5-0.1c-1.4-0.199-1.5-0.699-1.5-1
	c-0.1-0.4,0-1.3,1.3-1.6c0.601-0.1,1,0,1.2,0s0.2-0.1,0.2-0.301h0.2l0.3,1.301L176.508,71.131L176.508,71.131z"/>
<path fill="#FFFFFF" d="M181.408,73.531l-2.7,0.3v-0.199c0.5-0.101,0.7-0.101,0.7-0.601l-0.301-3.3c-0.5,0.1-1.3,0.199-1.3,1.199
	h-0.2l-0.1-1.299l4.5-0.4l0.1,1.3h-0.199c-0.2-1-1-0.899-1.5-0.899l0.3,3.299c0.1,0.5,0.2,0.5,0.8,0.5L181.408,73.531
	L181.408,73.531z"/>
<path fill="#FFFFFF" d="M187.607,73.531h-1.5l-1.5-2h-0.199v1.2c0,0.5,0.199,0.5,0.6,0.6v0.2l-2.5-0.101v-0.199
	c0.5,0,0.7-0.1,0.7-0.6l0.1-2.801c0-0.5-0.2-0.6-0.6-0.6v-0.2h2.399c0.5,0,2.101,0.101,2.101,1.101c0,0.799-0.8,0.899-1.2,1
	l1.5,1.799c0.1,0.101,0.2,0.101,0.3,0.101v0.5H187.607z M184.307,71.331c1,0,1.4-0.1,1.4-0.9c0-0.6-0.3-0.899-0.9-0.899
	c-0.399,0-0.399,0.101-0.5,0.3V71.331L184.307,71.331z"/>
<path fill="#FFFFFF" d="M192.508,74.231l-2.4-0.301v-0.199c0.5,0,0.601,0,0.601-0.2s-0.2-0.7-0.2-0.899l-1.7-0.201
	c-0.3,0.4-0.399,0.701-0.399,0.801c0,0.199,0.3,0.3,0.6,0.3v0.2l-1.5-0.2v-0.2c0.4,0,0.5-0.199,0.8-0.6l2.101-3.2h0.199l1.2,3.5
	c0.3,0.7,0.3,0.899,0.7,1V74.231L192.508,74.231z M190.408,72.43l-0.601-1.6l-0.899,1.4L190.408,72.43L190.408,72.43z"/>
<path fill="#FFFFFF" d="M196.807,75.031l-4.2-0.8v-0.2c0.4,0,0.601,0.101,0.7-0.3l0.5-3c0.101-0.4-0.2-0.5-0.6-0.6V69.93l2.6,0.5
	v0.201c-0.5-0.101-0.7-0.101-0.8,0.399l-0.5,2.899c-0.1,0.301,0.1,0.4,0.6,0.5c1.101,0.201,1.601-0.199,2.101-0.899h0.2
	L196.807,75.031L196.807,75.031z"/>
<path fill="#FFFFFF" d="M199.607,75.731l-2.6-0.5v-0.2c0.4,0,0.7,0.101,0.8-0.3l0.601-3c0.1-0.4-0.301-0.5-0.601-0.6V70.93
	l2.601,0.5v0.201c-0.301-0.101-0.7-0.101-0.801,0.299l-0.6,3c-0.1,0.4,0.2,0.5,0.6,0.601V75.731L199.607,75.731z"/>
<path fill="#FFFFFF" d="M204.807,76.331l-2.399-0.199V75.93c0.5,0,0.6,0,0.6-0.199c0-0.2-0.2-0.7-0.3-0.9l-1.7-0.199
	c-0.3,0.399-0.4,0.699-0.4,0.799c0,0.201,0.301,0.301,0.601,0.301v0.199l-1.5-0.199v-0.2c0.399,0,0.5-0.2,0.8-0.7l2-3.199h0.2
	l1.3,3.399c0.3,0.7,0.4,0.899,0.7,1L204.807,76.331L204.807,76.331z M202.708,74.631l-0.601-1.601l-0.8,1.5L202.708,74.631
	L202.708,74.631z"/>
<path fill="#FFFFFF" d="M185.708,25.831c0-1.5-0.8-0.1-1.3-1.4c-0.301,1.1-1.4,0.2-1.4,1.3c0,0.4,0.1,0.7,0.3,0.8v0.4
	c0,0.1,0.101,0.2,0.2,0.2h1.6c0.101,0,0.2-0.1,0.2-0.2v-0.5C185.607,26.431,185.708,26.131,185.708,25.831L185.708,25.831z
	 M184.408,26.131c-0.4,0-1,0.3-1-0.2c0-0.7,0.5-0.6,0.899-0.6c0.4,0,1.101-0.2,1.101,0.6
	C185.508,26.431,184.908,26.131,184.408,26.131L184.408,26.131z"/>
<path fill="#FFFFFF" d="M198.807,44.231c0.4,0,0.7-0.301,0.7-0.6c0-0.301-0.3-0.601-0.7-0.601c-0.399,0-0.7,0.3-0.7,0.601
	C198.208,44.031,198.508,44.231,198.807,44.231L198.807,44.231z"/>
<path fill="#FFFFFF" d="M195.607,21.931c0,0-0.3,0.5-0.3,0.6c0,0.2,0.101,0.4,0.3,0.4c0.2,0,0.301-0.2,0.301-0.4
	C195.908,22.631,195.607,21.931,195.607,21.931L195.607,21.931z"/>
<path fill="#FFFFFF" d="M173.508,21.931c0,0-0.3,0.5-0.3,0.6c0,0.2,0.1,0.4,0.3,0.4s0.3-0.2,0.3-0.4
	C173.807,22.631,173.508,21.931,173.508,21.931L173.508,21.931z"/>
<path fill="#FFFFFF" d="M179.008,21.931c0,0-0.3,0.5-0.3,0.6c0,0.2,0.1,0.4,0.3,0.4s0.3-0.2,0.3-0.4
	C179.307,22.631,179.008,21.931,179.008,21.931L179.008,21.931z"/>
<path fill="#FFFFFF" d="M184.508,21.931c0,0-0.3,0.5-0.3,0.6c0,0.2,0.1,0.4,0.3,0.4s0.3-0.2,0.3-0.4
	C184.908,22.631,184.508,21.931,184.508,21.931L184.508,21.931z"/>
<path fill="#FFFFFF" d="M190.107,21.931c0,0-0.3,0.5-0.3,0.6c0,0.2,0.101,0.4,0.3,0.4c0.2,0,0.301-0.2,0.301-0.4
	C190.408,22.631,190.107,21.931,190.107,21.931L190.107,21.931z"/>
<path fill="#FFFFFF" d="M173.508,29.531c0,0,0.3,0.5,0.3,0.6c0,0.2-0.1,0.4-0.3,0.4s-0.3-0.2-0.3-0.4
	C173.208,30.231,173.508,29.531,173.508,29.531L173.508,29.531z"/>
<path fill="#FFFFFF" d="M173.508,36.931c0,0,0.3,0.5,0.3,0.6c0,0.2-0.1,0.4-0.3,0.4s-0.3-0.2-0.3-0.4L173.508,36.931L173.508,36.931
	z"/>
<path fill="#FFFFFF" d="M174.408,42.831c0,0,0.3,0.5,0.3,0.599c0,0.201-0.101,0.4-0.3,0.4c-0.2,0-0.301-0.199-0.301-0.4
	L174.408,42.831L174.408,42.831z"/>
<path fill="#FFFFFF" d="M179.008,45.93c0,0,0.3,0.5,0.3,0.601c0,0.2-0.1,0.399-0.3,0.399s-0.3-0.199-0.3-0.399L179.008,45.93
	L179.008,45.93z"/>
<path fill="#FFFFFF" d="M195.908,29.531c0,0-0.301,0.5-0.301,0.6c0,0.2,0.101,0.4,0.301,0.4c0.199,0,0.3-0.2,0.3-0.4
	C196.208,30.231,195.908,29.531,195.908,29.531L195.908,29.531z"/>
<path fill="#FFFFFF" d="M195.908,36.931c0,0-0.301,0.5-0.301,0.6c0,0.2,0.101,0.4,0.301,0.4c0.199,0,0.3-0.2,0.3-0.4L195.908,36.931
	L195.908,36.931z"/>
<path fill="#FFFFFF" d="M195.008,42.831c0,0-0.3,0.5-0.3,0.599c0,0.201,0.1,0.4,0.3,0.4s0.3-0.199,0.3-0.4L195.008,42.831
	L195.008,42.831z"/>
<path fill="#FFFFFF" d="M190.408,45.93c0,0-0.301,0.5-0.301,0.601c0,0.2,0.101,0.399,0.301,0.399c0.199,0,0.3-0.199,0.3-0.399
	L190.408,45.93L190.408,45.93z"/>
<path fill="#FFFFFF" d="M184.708,49.131c0,0-0.3,0.5-0.3,0.6c0,0.199,0.1,0.4,0.3,0.4s0.3-0.201,0.3-0.4
	C185.008,49.831,184.708,49.131,184.708,49.131L184.708,49.131z"/>
<path fill="#FFFFFF" d="M193.708,38.131c0.1,0.1,0.2,0.1,0.5,0.1l0.2-0.6c0,0-0.2-0.3-0.4-0.2c-0.6,0.1-1.2,0.2-1.6,0.8
	c0,0.4,0.3,0.7,0.6,0.9c0.2-0.1,0.2,0.1,0.4,0.2c0,0.2-0.101,0.3-0.2,0.3c-0.4-0.4-1.101,0.1-1.5-0.4c0.1-0.5,0.399-1.1,0-1.6
	c0-0.1,0.2-0.2,0.1-0.3c-0.2-0.5-0.7-0.1-1-0.1c-0.5-0.1-0.899,0.2-1.3,0.6c0,0.2,0.1,0.4,0.3,0.5c0.101,0,0.2,0,0.2,0.1l-0.3,0.2
	c0.1,0.1,0.1,0.2,0.1,0.4c-0.2,0.1-0.5-0.2-0.6-0.4c0-0.3,0-0.8-0.3-0.8c-0.101,0-0.301,0.1-0.301,0.1c-0.1,0.1-0.1,0.3-0.1,0.6
	c0,0.2,0.1,0.6,0.1,0.6s1.101,0.8,1.301,1.3c-0.301,0.6-0.301,1.5-1,1.9c-0.2,0.1-0.2,0.4-0.2,0.6l0.2,0.1c0.5-0.2,1.3-0.3,1.3-1.1
	c0.2-0.3,0.3-0.7,0.7-0.9c0.399-0.1,0.699,0.1,0.8,0.4c-0.101,0.5-0.5,0.9-0.9,1.1c-0.1,0.1,0,0.2,0,0.3c0.101,0.2,0.5,0.1,0.7,0.1
	c0.6-0.4,0.8-1.1,1.4-1.3c0.1,0.3-0.7,0.5-0.2,0.8c0.3-0.1,0.7,0,0.899-0.4c-0.199-0.6,0.801-0.9,0.2-1.4c0-0.5,0.601-0.7,0.5-1.3
	c-0.2-0.6-0.899-0.6-1-1.1C193.208,38.031,193.508,38.031,193.708,38.131L193.708,38.131z"/>
<path fill="#FFFFFF" d="M168.307,44.531c0.4,0,0.7-0.3,0.7-0.601c0-0.299-0.3-0.6-0.7-0.6c-0.399,0-0.7,0.301-0.7,0.6
	C167.607,44.231,167.908,44.531,168.307,44.531L168.307,44.531z"/>
<path fill="#FFFFFF" d="M132.508,65.531c0.4,0,0.7-0.3,0.7-0.7s-0.3-0.6-0.7-0.6s-0.7,0.3-0.7,0.6
	C131.807,65.231,132.107,65.531,132.508,65.531L132.508,65.531z"/>
<path fill="#FFFFFF" d="M197.408,21.131L197.408,21.131h-25.5l0,0l0,0v19.5c0,2,0.8,3.7,2,4.299l9.8,6.201
	c0.2,0.199,0.5,0.399,0.899,0.399c0.301,0,0.601-0.101,0.801-0.3l10-6.301c1.199-0.5,2-2.299,2-4.299V21.131L197.408,21.131
	L197.408,21.131z M196.708,40.831c-0.101,1.5-0.601,2.7-1.7,3.4l-9.6,6.1h-0.101c-0.2,0.2-0.5,0.301-0.7,0.301
	c-0.3,0-0.5-0.101-0.8-0.301l-9.5-6.1c-1-0.7-1.5-1.9-1.7-3.4v-19h24.101V40.831L196.708,40.831z"/>
<path fill="#FFFFFF" d="M188.107,49.531l0.301-0.101C188.307,49.43,188.208,49.43,188.107,49.531L188.107,49.531z"/>
<path fill="#FFFFFF" d="M168.908,76.131l-2.4,0.299v-0.199c0.5-0.1,0.6-0.1,0.6-0.301c0-0.199-0.3-0.6-0.399-0.799l-1.7,0.199
	c-0.2,0.5-0.2,0.7-0.2,0.801c0,0.199,0.4,0.199,0.601,0.199v0.2l-1.5,0.2v-0.2c0.399-0.101,0.5-0.3,0.6-0.8l1.3-3.6h0.2l2,3.1
	c0.4,0.6,0.6,0.8,0.9,0.8V76.131L168.908,76.131z M166.408,74.93l-0.9-1.399l-0.5,1.601L166.408,74.93L166.408,74.93z"/>
<path fill="#FFFFFF" d="M211.107,67.031c-0.399-1.101-1.399-1.899-2.5-2.3c-1.199-0.301-2.399-0.1-3.199,0.8
	c-1.301,1.101-0.4,2.8-0.4,4.3c0,0.301,0,0.5-0.3,0.7c-5.3-0.5-10.2-1.8-15.5-2.399c-1.2-0.201-2.4-0.201-3.601-0.4l-1.3-0.1
	c-4.6,0.1-9.2,0.399-13.399,1.5c-0.9,0.299-1.9,0.399-2.9,0.699c-0.7-0.1-1.2,0.4-1.8,0.2l-1.2,0.3c-0.1,0-0.2,0-0.4,0
	c-0.6-1.5,1.2-2.4,0.601-3.9c-0.5-0.799-1.4-1.699-2.5-1.5c-1.2-0.1-2.3,0.601-2.9,1.5c-0.8,1.801,0.2,3.801,0.5,5.601
	c-0.1,0.601,0.601,1.3,0,1.7c-1.2-0.801-2.7-1.301-4.1-0.801c-0.4,0.201-1.2-0.1-1.5,0.4c1.6,0.801,3.6,0.7,5.3,0.7
	c0.2-0.101,0.4-0.101,0.5,0c0.1,1-0.2,2.2,0.4,3.101c0.699,0.899,1.8,1.1,2.8,1.199c3.399-0.1,6.399-1.1,9.399-1.9
	c0.5,0,0.801-0.299,1.4-0.299c1.6-0.4,3.4-0.701,5.2-0.701c-0.8,1-1.2,2.101-1.5,3.301c-0.4,1,0.8,1.1,1.1,1.699
	c-1.1,0.301-1.899,1.101-3,1.5c-2.3-0.1-4.3,0.801-6.5,1.101c0,0.5,0.8,0.3,0.8,0.8c-0.1,0.301-0.399,0.4-0.699,0.6
	c0,0.201,0,0.301,0.199,0.301c0.2-0.301,0.7-0.1,0.9-0.301c0.7,0,1.4-0.199,2-0.299c0.6-0.301,1.3-0.301,1.9-0.701
	c0.8-0.199,1.199-0.699,2-1c1.1,0,2.1-0.399,3.1-0.399v0.2c-0.8,1.4-1.7,2.8-2.6,4.1c-0.101,0.301,0,0.5,0.3,0.6
	c0.5,0.101,1,0,1.399-0.199c0.801-1.301,1.5-2.6,2.101-3.9c0.3-1.3,1.2-1.9,2.1-2.8c0.101-0.101,0.4-0.3,0.5-0.101
	c-0.7,0.801-1.2,1.701-1.8,2.601c-0.3,1-0.4,2.399,0.5,3.2c0.4,0.4,1.1,0.3,1.7,0.3c1.399-0.7,3.3,0.399,4.399-1
	c0.7-0.101,0.801,0.7,1.101,1c0.6,0.2,1.3,0.8,1.899,0.399c0-0.399-0.5-0.799-0.699-1.1c-0.4-0.8-1-1.4-1.4-2.1
	c-0.2-0.5-0.5-0.801-0.6-1.4c0.699,0.2,1.199,0.7,2,0.801c0.6,0.299,1.399,0.199,2,0.6c0.5,0.6,1.199,1,1.8,1.4
	c0.899,0.399,1.899,0.5,2.899,0.899c0.4,0,0.9,0.3,1.2,0c-0.1-0.2-0.3-0.3-0.5-0.399c-0.1-0.5,0.7-0.201,0.9-0.601
	c-0.101-0.2-0.2-0.3-0.4-0.3c-0.5-0.301-1.8-0.4-2.2-0.6c-0.399-0.101-0.8-0.301-1.3-0.4c-2.2,0-3.399-2-5.2-2.7
	c0.4-0.399,1-0.7,1.301-1.2c0.3-0.5,0.399-1.4,0.1-2c-0.3-1.1-1.8-1-2.6-1.6l0.1-0.1c1.4-0.101,2.7,0.299,4,0.5
	c3.5,0.5,6.8,1.799,10.4,1.899c2,0,4.5,0.101,5.5-1.8c0.199-1.1,0.399-2.301,0.6-3.4C210.107,70.731,211.307,69.031,211.107,67.031
	L211.107,67.031z M171.607,83.831l-0.5-0.5c0.301-0.3,0.801-0.1,1.2-0.4c1-0.299,2.101-0.699,3.101-0.399
	C174.307,83.43,172.908,83.531,171.607,83.831L171.607,83.831z M194.408,83.231c0.899,0.4,2.6,0.8,3.899,0.9
	c-0.1,0.5-1,0-0.899,0.699c-1.101-0.4-2.5-0.699-3.301-1.5C194.208,83.331,194.307,83.231,194.408,83.231L194.408,83.231z
	 M160.107,67.631c0.101-0.701,0.301-1.4,0.9-1.801c0.9-0.5,2.1-0.4,2.9,0.1c0.3,0.101,0.399,0.4,0.6,0.701
	c0.2,0.6-0.1,1.299-0.6,1.699h-0.4c0-0.6,0-1.199,0.2-1.699c0-0.4-0.4-0.5-0.7-0.701c-0.6-0.199-1.2,0.101-1.6,0.4
	c-0.4,0.4-0.7,1-0.5,1.6c0.3,0.4,0,1,0.199,1.4l-0.1,0.2C160.607,68.93,160.008,68.43,160.107,67.631L160.107,67.631z
	 M161.807,68.631c0.5,0.399,1.3,0.199,2,0.299c0.101,0.4,0.101,0.9-0.2,1.301c-0.6-0.2-1.399-0.1-1.8-0.7
	C161.908,69.331,161.708,68.93,161.807,68.631L161.807,68.631z M161.708,67.43c0.1-0.299,0-0.699,0.399-0.799
	c0.301-0.101,0.7-0.101,0.7,0.199c0,0.4-0.1,0.9-0.2,1.301C162.107,68.131,161.807,67.831,161.708,67.43L161.708,67.43z
	 M178.908,79.231c-0.2-1.301,0.3-2.4,1.199-3.301c0.5-0.1,1.101-0.199,1.601,0.101c-1,0.3-2.2,0.5-2.4,1.7
	c0,0.5-0.1,0.699,0.101,1.1c0.399,0.7,1.3,0.4,1.8,1c0,0.2-0.101,0.4-0.3,0.4C180.208,79.831,179.508,79.731,178.908,79.231
	L178.908,79.231z M177.607,81.731c0.9-0.4,1.801-1.1,2.801-0.801C179.607,81.531,178.508,81.731,177.607,81.731L177.607,81.731z
	 M181.008,82.131c-0.5,1.199-1.1,2.299-1.8,3.5c-0.101,0.199-0.4,0.199-0.601,0.299c0-0.5,0.5-0.899,0.7-1.399c0.8-1,1-2.101,1.9-3
	C181.508,81.731,181.008,81.831,181.008,82.131L181.008,82.131z M181.908,80.031v0.101h-0.101L181.908,80.031L181.908,80.031
	L181.908,80.031C182.008,79.93,181.908,79.93,181.908,80.031L181.908,80.031L181.908,80.031z M181.607,79.031
	c-0.6-0.101-1.199-0.3-1.8-0.399c-0.399-0.4,0-0.801,0-1.201c0.5-0.799,2-1.199,2.7-0.5
	C182.408,77.731,182.107,78.43,181.607,79.031L181.607,79.031z M182.408,79.031c0.1-0.5,0.3-1.101,0.6-1.5
	C183.008,77.93,182.807,78.631,182.408,79.031L182.408,79.031z M182.807,76.031c-0.5-0.101-0.7-0.7-1.2-0.7c0.4-0.1,0.9-0.1,1.4,0
	C183.208,75.631,182.908,75.831,182.807,76.031L182.807,76.031z M183.307,77.131L183.307,77.131v-0.4l0,0V77.131L183.307,77.131z
	 M183.307,78.831c0-0.1,0.101-0.3,0.101-0.5c0.199-0.199,0.399,0.2,0.399,0.301C183.708,78.731,183.508,78.831,183.307,78.831
	L183.307,78.831z M183.807,76.531c0.2-0.5,0.2-1,0.601-1.399c0.399,0,0.699,0,1,0.1c0.1,0.699,1,1.699,0,2.4
	c-0.301,0.199-0.801,0.5-1.2,0.199C183.708,77.43,183.708,77.031,183.807,76.531L183.807,76.531z M186.508,75.531
	c-0.1-0.3,0.3-0.101,0.5-0.2l1.1,0.1C187.508,75.331,186.807,76.631,186.508,75.531L186.508,75.531z M188.408,76.031
	c-0.4,0.101-0.801,0.7-1.2,0.8C187.408,76.331,187.908,75.93,188.408,76.031L188.408,76.031z M186.807,78.231v0.1l0,0V78.231
	L186.807,78.231L186.807,78.231z M186.908,80.531c0,0.101,0,0.2-0.101,0.3l-0.8-0.699C186.408,80.031,186.708,80.231,186.908,80.531
	L186.908,80.531z M185.908,79.43c0.1-0.1,0.3-0.1,0.3,0H185.908L185.908,79.43z M185.408,78.831c0.1-0.199,0.3-0.6,0.6-0.6
	c0,0,0,0.1,0.1,0.1C185.807,78.531,185.607,78.731,185.408,78.831L185.408,78.831z M184.508,78.731h-0.1l0.199-0.2
	C184.708,78.631,184.607,78.731,184.508,78.731L184.508,78.731z M184.708,80.131c0.5-0.5,0.899,0.299,1.1,0.699
	c0.5,0.801,2,1.5,1.4,2.7c-0.7,0.601-1.8,0-2.601,0.5c-0.399,0-1.1,0.101-1.3-0.3C183.708,82.531,184.107,81.231,184.708,80.131
	L184.708,80.131z M183.607,80.831l0.2-0.3c-0.3,0.899-0.7,1.8-1.2,2.7C182.408,82.331,183.307,81.631,183.607,80.831L183.607,80.831
	z M185.208,85.231c-0.7,0-1.8,0.4-2.4-0.2c0-0.3-0.3-0.399-0.3-0.7c0.6-0.199,1.1,0.5,1.6,0c0.801,0,1.7-0.1,2.601,0.1
	c0.399,0.101,1-0.699,1.1,0.101C187.607,85.731,186.107,84.831,185.208,85.231L185.208,85.231z M187.408,79.93v-0.1h0.1
	L187.408,79.93L187.408,79.93L187.408,79.93z M187.607,82.231c0,0.4,0.4,0.5,0.2,0.8C187.708,82.93,187.508,82.631,187.607,82.231
	L187.607,82.231z M188.607,84.43l-0.199,0.101c-0.2-0.101-0.101-0.601-0.101-0.8C188.607,83.93,188.807,84.231,188.607,84.43
	L188.607,84.43z M190.408,85.331c0,0.1-0.2,0.1-0.301,0c-1.1-1.4-1.6-2.9-2.3-4.4h0.101
	C188.908,82.331,189.607,83.93,190.408,85.331L190.408,85.331z M191.807,81.93c-0.1,0-0.1,0.101-0.1,0.101
	c-1.101,0-1.8-0.601-2.601-1.101v-0.199C190.107,80.831,190.908,81.531,191.807,81.93L191.807,81.93z M190.807,77.031
	c0.4,0.101,0.5,0.601,0.5,1c0,0.8-0.5,1.5-1.2,1.8c-0.399,0.2-1,0.301-1.399,0.1c0.899,0,1.8-0.399,2.2-1.199L190.807,77.031
	L190.807,77.031z M190.008,76.93c0.2,0.5,0.5,1,0.3,1.601c-0.399,0.7-1.1,0.7-1.8,0.8c-0.3,0-0.6-0.1-0.8-0.3
	c0-0.101,0-0.3-0.101-0.399c0.101-0.5-0.8-1-0.199-1.4C188.008,76.831,189.408,75.631,190.008,76.93L190.008,76.93z M208.607,74.231
	c-0.3,0.4,0,1-0.399,1.3c0,0.7-0.601,1-1,1.3c-4.4,1-8.601-0.5-12.8-1.3c-5.9-1.3-12.801-1.7-18.801-0.3c-2.8,0.5-5.6,1.199-8.3,2
	c-1.7,0.199-3.5,0.5-5.1,0c-1.3-0.6-0.8-2.301-1.2-3.5c0.1-0.9-0.3-1.7-0.3-2.5c-0.101-0.301-0.2-0.7-0.101-1
	c0.5,0.1,1.101,0.5,1.7,0.6c3.101,0.6,5.8-0.4,8.7-0.9c2.7-0.6,5.6-1.1,8.5-1.299c3.3,0,6.7-0.201,9.8,0.299c1,0,1.9,0.301,2.9,0.4
	c2.1,0.301,4,0.801,6,1c0.3,0.1,0.7,0.1,1.1,0.2c3.3,0.5,7,1.399,10.101,0C209.408,71.731,208.807,72.93,208.607,74.231
	L208.607,74.231z M207.607,69.731c0,0.6-0.5,0.4-0.8,0.699h-0.899c-0.2-0.299-0.101-0.699-0.101-1
	C206.408,69.43,207.107,69.43,207.607,69.731L207.607,69.731z M207.208,68.831c0.399-0.4-0.101-2.699,1-1.199c0,0.299,0,0.699-0.3,1
	C207.807,68.731,207.508,69.031,207.208,68.831L207.208,68.831z M210.208,68.43c-0.3,0.701-0.8,1.101-1.601,1.301
	c0-0.9,0.801-1.5,0.601-2.5c-0.5-0.7-1.4-0.9-2.3-0.7c-0.301,0.2-0.2,0.601-0.301,0.899l-0.1,1.201c-0.7,0-0.8-0.701-1-1.201
	c0-0.799,0.4-1.5,1.1-1.899c0.601-0.3,1.5-0.3,2.101,0.101c0.5,0.1,1,0.299,1.2,0.799C210.408,66.831,210.307,67.731,210.208,68.43
	L210.208,68.43z"/>
</svg>
